<svg width="24" height="24" viewBox="0 0 24 24" fill="none" xmlns="http://www.w3.org/2000/svg"><path fill-rule="evenodd" clip-rule="evenodd" d="M4 1a3 3 0 00-3 3v16a3 3 0 003 3h16a3 3 0 003-3V4a3 3 0 00-3-3H4zM3 4a1 1 0 011-1h16a1 1 0 011 1v16a1 1 0 01-1 1H4a1 1 0 01-1-1V4zm7.91 8.4c-.264-.36-.644-.612-1.14-.756.416-.152.74-.396.972-.732.24-.344.36-.744.36-1.2 0-.456-.116-.856-.348-1.2-.232-.344-.564-.608-.996-.792-.432-.192-.932-.288-1.5-.288a4.67 4.67 0 00-1.44.228 3.732 3.732 0 00-1.2.636.885.885 0 00-.264.288.801.801 0 00-.072.36c0 .208.06.388.18.54.12.144.264.216.432.216a.916.916 0 00.264-.036c.08-.032.18-.084.3-.156.336-.2.632-.352.888-.456.256-.104.532-.156.828-.156.36 0 .64.096.84.288.2.184.3.444.3.78 0 .352-.12.612-.36.78-.232.168-.592.252-1.08.252H7.37a.606.606 0 00-.492.216.763.763 0 00-.18.504c0 .2.06.372.18.516.12.144.284.216.492.216h.708c.512 0 .884.084 1.116.252.232.168.348.44.348.816 0 .384-.112.668-.336.852-.224.176-.58.264-1.068.264-.344 0-.644-.052-.9-.156a8.008 8.008 0 01-.912-.456c-.12-.072-.22-.12-.3-.144a.705.705 0 00-.264-.048.536.536 0 00-.432.228.797.797 0 00-.18.528.85.85 0 00.072.36c.056.104.144.2.264.288a3.86 3.86 0 001.224.636c.48.152.98.228 1.5.228.624 0 1.172-.096 1.644-.288.472-.2.832-.48 1.08-.84.256-.36.384-.784.384-1.272 0-.512-.136-.944-.408-1.296zm1.758 3.372c.152.152.368.228.648.228h1.756c.928 0 1.724-.168 2.388-.504a3.448 3.448 0 001.512-1.452c.352-.64.528-1.4.528-2.28 0-.88-.176-1.636-.528-2.268a3.519 3.519 0 00-1.524-1.452c-.664-.336-1.456-.504-2.376-.504h-1.756c-.28 0-.496.076-.648.228-.152.152-.228.368-.228.648v6.708c0 .28.076.496.228.648zm4.972-4.008c0 1.816-.9 2.724-2.7 2.724l-.689-.012V9.052h.689c1.8 0 2.7.904 2.7 2.712z" fill="#151515"/></svg>