<svg width="120" height="120" viewBox="0 0 120 120" fill="none" xmlns="http://www.w3.org/2000/svg"><path d="M108 0H12C5.373 0 0 5.373 0 12v96c0 6.627 5.373 12 12 12h96c6.627 0 12-5.373 12-12V12c0-6.627-5.373-12-12-12z" fill="url(#paint0_linear)"/><path d="M16.192 55.436a2.63 2.63 0 003.683.404l2.428-1.95v40.746a4.769 4.769 0 004.753 4.756H94.64a4.77 4.77 0 004.757-4.756V53.97l2.353 1.893c.466.369 1.043.57 1.638.572a2.586 2.586 0 002.04-1 2.638 2.638 0 00-.403-3.687L63.667 18.492l-.95-.473a4.681 4.681 0 00-3.761.012l-.997.461-41.362 33.262a2.63 2.63 0 00-.404 3.682" fill="#fff"/><path d="M77.426 79.498a9.893 9.893 0 003.498-2.379 10.778 10.778 0 002.21-3.564 11.41 11.41 0 00.806-4.328 11.16 11.16 0 00-.806-4.374 10.617 10.617 0 00-2.21-3.519 10.43 10.43 0 00-3.498-2.4 12.05 12.05 0 00-4.538-.855h-6.395v22.394h6.395a12.157 12.157 0 004.538-.975zm-4.538-28.172a19.234 19.234 0 017.2 1.354c2.173.9 4.158 2.2 5.851 3.831a17.665 17.665 0 013.922 5.704 16.95 16.95 0 011.402 7.012 17.342 17.342 0 01-1.402 7.011 19.145 19.145 0 01-3.922 5.707 17.084 17.084 0 01-5.851 3.758 17.91 17.91 0 01-7.2 1.403H59.172v-35.78h13.716zM41.364 66.135a4.491 4.491 0 11.004-8.981 4.491 4.491 0 01-.004 8.981zm0-15.427a10.935 10.935 0 10-.005 21.87 10.935 10.935 0 00.005-21.87z" fill="#231F20"/><defs><linearGradient id="paint0_linear" x1="60" y1="0" x2="60" y2="120" gradientUnits="userSpaceOnUse"><stop stop-color="#7FB0F8"/><stop offset="1" stop-color="#D5D3FF"/></linearGradient></defs></svg>