<svg width="40" height="40" viewBox="0 0 40 40" fill="none" xmlns="http://www.w3.org/2000/svg"><path d="M7.682 14.703c.472-.601.808-1.402.707-2.203-.707.033-1.548.467-2.053 1.034-.437.501-.841 1.335-.74 2.103.808.1 1.582-.334 2.086-.934zm.707 1.134c-1.144-.067-2.12.634-2.659.634-.538 0-1.38-.6-2.288-.6A3.38 3.38 0 00.58 17.605c-1.212 2.102-.337 5.206.875 6.908.572.834 1.279 1.768 2.188 1.735.875-.033 1.211-.567 2.255-.567 1.043 0 1.346.567 2.288.534.943-.034 1.548-.835 2.12-1.702.674-.968.943-1.902.943-1.936-.034-.033-1.851-.7-1.851-2.77-.034-1.735 1.414-2.57 1.48-2.603-.773-1.201-2.052-1.334-2.49-1.368zm12.066-2.087c2.192 0 3.702 1.584 3.702 3.85 0 2.3-1.54 3.883-3.761 3.883h-2.399v4.006H16.25V13.75h4.205zm-2.458 6.211h1.984c1.51 0 2.37-.87 2.37-2.329 0-1.49-.86-2.33-2.37-2.33h-2.013v4.66h.03zm6.604 3.137c0-1.49 1.096-2.422 3.05-2.547l2.25-.124v-.652c0-.963-.621-1.522-1.628-1.522-.977 0-1.57.497-1.718 1.242h-1.599c.09-1.553 1.363-2.701 3.376-2.701 1.984 0 3.258 1.086 3.258 2.826v5.9h-1.6v-1.397h-.029c-.474.962-1.51 1.552-2.576 1.552-1.659 0-2.784-1.055-2.784-2.577zm5.3-.777v-.683l-2.013.124c-1.007.063-1.57.528-1.57 1.274 0 .745.593 1.242 1.481 1.242 1.185 0 2.103-.839 2.103-1.957zm3.17 6.367v-1.429c.118.031.414.031.532.031.77 0 1.185-.341 1.452-1.21 0-.032.148-.529.148-.529L32.24 16.98h1.807l2.073 6.987h.03l2.072-6.987H40l-3.05 9.037c-.71 2.08-1.51 2.733-3.198 2.733-.119-.031-.534-.031-.682-.062z" fill="#1A1A1A"/></svg>