<svg width="24" height="24" viewBox="0 0 24 24" fill="none" xmlns="http://www.w3.org/2000/svg"><path fill-rule="evenodd" clip-rule="evenodd" d="M14.069 4.572l-3.15 3.15-.001-.002-4.968 4.968a5 5 0 007.07 7.071l8.773-8.772 1.414 1.414-8.772 8.772a7 7 0 11-9.9-9.9l6.693-6.692.002.002 1.425-1.425a5.052 5.052 0 117.144 7.145l-2.07 2.07-5.515 5.515a3.042 3.042 0 11-4.303-4.303l6.567-6.567 1.415 1.414L9.326 15a1.042 1.042 0 101.474 1.475l7.33-7.33.255-.256a3.052 3.052 0 00-4.316-4.316z" fill="#151515"/></svg>