<svg width="24" height="24" viewBox="0 0 24 24" fill="none" xmlns="http://www.w3.org/2000/svg"><path fill-rule="evenodd" clip-rule="evenodd" d="M6.943 8l3.87-5.419L9.187 1.42 4.486 8H3a2 2 0 00-2 2v1a2 2 0 001.142 1.807l1.717 8.585A2 2 0 005.819 23H18.18a2 2 0 001.961-1.608l1.717-8.585A2 2 0 0023 11v-1a2 2 0 00-2-2h-1.485l-4.701-6.581-1.628 1.162L17.056 8H6.944zm12.07 2a.75.75 0 01-.025 0H3v1h18v-1h-1.987zm.767 3H4.22l1.6 8h12.36l1.6-8zM13 15a1 1 0 10-2 0v3.5a1 1 0 002 0V15zm3.641-.99a1 1 0 01.849 1.131l-.5 3.5a1 1 0 11-1.98-.282l.5-3.5a1 1 0 011.131-.849zm-10.13 1.131a1 1 0 111.979-.283l.5 3.5a1 1 0 11-1.98.283l-.5-3.5z" fill="#151515"/></svg>