<svg width="24" height="24" viewBox="0 0 24 24" fill="none" xmlns="http://www.w3.org/2000/svg"><g clip-path="url(#clip0)"><path fill-rule="evenodd" clip-rule="evenodd" d="M0 1h5a1 1 0 01.978.79l.68 3.172L23.001 5a1 1 0 01.979 1.196l-2 10A1 1 0 0121 17H8a1 1 0 01-.978-.79L4.875 6.19a.994.994 0 01-.008-.04L4.192 3H0V1zm7.086 5.963L8.808 15H20.18l1.6-8.003-14.694-.034zM11 21a2 2 0 11-4 0 2 2 0 014 0zm9 2a2 2 0 100-4 2 2 0 000 4z" fill="#151515"/></g><defs><clipPath id="clip0"><path fill="#fff" d="M0 0h24v24H0z"/></clipPath></defs></svg>