<svg width="24" height="24" viewBox="0 0 24 24" fill="none" xmlns="http://www.w3.org/2000/svg"><g clip-path="url(#clip0)"><path fill-rule="evenodd" clip-rule="evenodd" d="M1 1a1 1 0 011-1h20a1 1 0 011 1v7h-2V2H3v16h9v2H2a1 1 0 01-1-1V1zm4 4h9v2H5V5zm1 4H5v2h6V9H6zm12 8a3 3 0 100-6 3 3 0 000 6zm4 0a5 5 0 10-8 0v6a1 1 0 001.316.949L18 23.054l2.684.895A1 1 0 0022 23v-6zm-2 1.584A4.983 4.983 0 0118 19a4.983 4.983 0 01-2-.416v3.029l1.684-.562a1 1 0 01.632 0l1.684.562v-3.029z" fill="#151515"/></g><defs><clipPath id="clip0"><path fill="#fff" d="M0 0h24v24H0z"/></clipPath></defs></svg>