<svg width="148" height="40" viewBox="0 0 148 40" fill="none" xmlns="http://www.w3.org/2000/svg"><g clip-path="url(#clip0)"><path d="M46.723.676a20.219 20.219 0 0114.38 5.69 19.711 19.711 0 014.321 6.265 18.936 18.936 0 011.554 7.697 18.855 18.855 0 01-1.553 7.698A19.533 19.533 0 0154.67 38.449 19.94 19.94 0 0146.703 40H31.646V.676h15.077zm5.059 30.95a10.975 10.975 0 003.824-2.606 12.33 12.33 0 002.45-3.978c.597-1.52.895-3.14.876-4.773a12.825 12.825 0 00-.877-4.814 12.131 12.131 0 00-2.45-3.879 11.692 11.692 0 00-3.823-2.605 13.398 13.398 0 00-5.059-1.015h-7.03v24.665h7.03c1.739.04 3.465-.3 5.059-.995zM11.95 0C9.586 0 7.276.7 5.31 2.011a11.938 11.938 0 00-4.4 5.356A11.92 11.92 0 003.5 20.373a11.954 11.954 0 0013.023 2.587 11.946 11.946 0 005.363-4.395A11.923 11.923 0 0020.4 3.495 11.957 11.957 0 0011.95 0zm0 16.947a4.944 4.944 0 01-4.498-3.082 4.927 4.927 0 011.086-5.338 4.941 4.941 0 018.43 3.407 4.927 4.927 0 01-3.085 4.653 4.948 4.948 0 01-1.933.36zm70.582-7.718v5.032h-1.553V3.202h1.553v4.694h1.115l3.725-4.694h1.872l-4.262 5.231 4.421 5.828h-1.852L83.687 9.23h-1.155zM97.75 4.555h-3.984v1.989c-.18 4.793-.936 7.797-3.206 7.797h-.458v-1.412h.219c1.473 0 1.852-3.143 1.991-6.922V3.202h6.951v11.06H97.69l.06-9.707zm6.053 9.706h-1.553V3.202h1.553v8.772l5.955-8.772h1.554v11.06h-1.554V5.49l-5.955 8.771zm11.991-9.627v9.627h-1.554V3.202h2.609l2.828 9.21 2.829-9.21h2.609v11.06h-1.554V4.633l-3.067 9.627h-1.633l-3.067-9.627zm16.77-1.432l4.162 11.06h-1.673l-.876-2.328h-5.079l-.856 2.387h-1.594l4.103-11.06 1.813-.059zm1.135 7.34l-1.992-5.768-1.991 5.768h3.983zm2.01-5.987V3.202h8.763v1.353h-3.605v9.706h-1.553V4.555h-3.605zM80.721 25.082a5.203 5.203 0 011.307-4.04 5.22 5.22 0 019.07 4.04 5.207 5.207 0 01-3.063 5.316 5.223 5.223 0 01-7.091-3.157 5.204 5.204 0 01-.223-2.16zm8.783 0c0-2.864-1.573-4.416-3.605-4.416-2.03 0-3.584 1.552-3.584 4.416 0 2.864 1.573 4.416 3.585 4.416 2.011 0 3.604-1.572 3.604-4.416zm12.766 5.53h-1.553V25.6h-5.816v5.012h-1.553v-11.06H94.9v4.695h5.816v-4.694h1.553v11.059zm9.579-9.707h-3.983v1.99c-.179 4.793-.936 7.797-3.207 7.797h-.458v-1.353h.219c1.474 0 1.852-3.143 1.992-6.922v-2.785h7.11v11.06h-1.573l-.1-9.787zm9.023-1.352l4.163 11.059h-1.673l-.877-2.407h-4.979l-.856 2.407h-1.593l4.102-11.06h1.713zm1.116 7.34l-1.992-5.769-1.992 5.768h3.984zm6.134 3.719h-1.554v-11.06h1.554v8.772l5.975-8.772h1.553v11.06h-1.553V21.88l-5.975 8.732zm3.007-11.676c-1.752 0-2.609-.776-2.768-1.83h1.095c0 .577.657.915 1.613.915s1.514-.358 1.634-.915h1.175c-.12 1.054-1.016 1.83-2.828 1.83m16.449 11.676h-1.554V25.6h-5.815v5.012h-1.554v-11.06h1.554v4.695h5.815v-4.694h1.554v11.059z" fill="#231F20"/><path d="M148 35H81v5h67v-5z" fill="url(#paint0_linear)"/></g><defs><linearGradient id="paint0_linear" x1="80.248" y1="34.735" x2="147.247" y2="34.735" gradientUnits="userSpaceOnUse"><stop stop-color="#FEDECB"/><stop offset=".19" stop-color="#FEDECB"/><stop offset=".29" stop-color="#F7DDCB"/><stop offset=".43" stop-color="#E3DAC9"/><stop offset=".59" stop-color="#C3D6C7"/><stop offset=".78" stop-color="#96CFC4"/><stop offset=".89" stop-color="#79CBC2"/><stop offset="1" stop-color="#79CBC2"/></linearGradient><clipPath id="clip0"><path fill="#fff" d="M0 0h148v40H0z"/></clipPath></defs></svg>