<svg width="262" height="209" viewBox="0 0 262 209" fill="none" xmlns="http://www.w3.org/2000/svg">
<rect x="0.5" y="0.5" width="261" height="208" fill="white"/>
<rect x="27.5" y="27.5" width="208" height="154" stroke="#D1D8E1" stroke-dasharray="4 4"/>
<rect x="14.5" y="14.5" width="234" height="180" stroke="#D1D8E1" stroke-dasharray="4 4"/>
<path fill-rule="evenodd" clip-rule="evenodd" d="M24.5146 132.453C23.5296 131.507 22.1474 131 20.5852 131C19.0199 131 17.6365 131.507 16.6509 132.454C15.6747 133.391 15 134.845 15 136.919C15 138.992 15.6755 140.44 16.6511 141.372C17.6366 142.314 19.0204 142.817 20.5852 142.817C22.1498 142.817 23.5321 142.314 24.5163 141.373C25.4905 140.441 26.1651 138.993 26.1651 136.919C26.1651 134.845 25.4903 133.391 24.5146 132.453ZM22.8292 140.041C22.2578 140.858 21.43 141.189 20.5852 141.189C19.7388 141.189 18.91 140.859 18.3387 140.041C17.8111 139.285 17.5849 138.227 17.5849 136.919C17.5849 135.61 17.8131 134.549 18.3385 133.79C18.906 132.971 19.7321 132.628 20.5852 132.628C21.4383 132.628 22.2643 132.971 22.8319 133.79C23.3572 134.549 23.5855 135.61 23.5855 136.919C23.5855 138.228 23.3575 139.286 22.8292 140.041ZM20.5852 130C23.8638 130 26.6943 131.97 27.112 135.893C27.6899 132.266 30.4283 130.445 33.5852 130.445C37.1383 130.445 40.1651 132.758 40.1651 137.364C40.1651 141.97 37.1383 144.262 33.5852 144.262C30.3064 144.262 27.4713 142.31 27.0531 138.39C26.4753 142.013 23.7374 143.817 20.5852 143.817C17.4328 143.817 14.6907 142.013 14.1121 138.389C13.6947 142.31 10.8641 144.262 7.58518 144.262C4.03202 144.262 1 141.97 1 137.364C1 132.758 4.02676 130.445 7.58518 130.445C10.7374 130.445 13.4753 132.266 14.053 135.893C14.4709 131.97 17.3017 130 20.5852 130ZM22.5855 136.919C22.5855 139.357 21.7169 140.189 20.5852 140.189C19.4482 140.189 18.5849 139.357 18.5849 136.919C18.5849 134.481 19.4534 133.628 20.5852 133.628C21.7169 133.628 22.5855 134.481 22.5855 136.919ZM37.5146 132.899C36.5296 131.952 35.1474 131.445 33.5852 131.445C32.0199 131.445 30.6365 131.952 29.6509 132.899C28.6747 133.836 28 135.291 28 137.364C28 139.437 28.6755 140.885 29.6511 141.818C30.6366 142.759 32.0204 143.262 33.5852 143.262C35.1498 143.262 36.5321 142.759 37.5163 141.818C38.4905 140.886 39.1651 139.438 39.1651 137.364C39.1651 135.291 38.4903 133.836 37.5146 132.899ZM35.8292 140.487C35.2578 141.303 34.43 141.634 33.5852 141.634C32.7388 141.634 31.91 141.304 31.3387 140.486C30.8111 139.73 30.5849 138.672 30.5849 137.364C30.5849 136.055 30.8131 134.994 31.3385 134.235C31.906 133.416 32.7321 133.074 33.5852 133.074C34.4383 133.074 35.2643 133.416 35.8319 134.235C36.3572 134.994 36.5855 136.055 36.5855 137.364C36.5855 138.673 36.3575 139.731 35.8292 140.487ZM35.5855 137.364C35.5855 139.802 34.7169 140.634 33.5852 140.634C32.4482 140.634 31.5849 139.802 31.5849 137.364C31.5849 134.926 32.4534 134.074 33.5852 134.074C34.7169 134.074 35.5855 134.926 35.5855 137.364ZM7.58518 131.445C9.14743 131.445 10.5296 131.952 11.5146 132.899C12.4903 133.836 13.1651 135.291 13.1651 137.364C13.1651 139.438 12.4905 140.886 11.5163 141.818C10.5321 142.759 9.14984 143.262 7.58518 143.262C6.02044 143.262 4.63663 142.759 3.65105 141.818C2.67551 140.885 2 139.437 2 137.364C2 135.291 2.67473 133.836 3.6509 132.899C4.63649 131.952 6.01994 131.445 7.58518 131.445ZM7.58518 141.634C8.42999 141.634 9.25779 141.303 9.82917 140.487C10.3575 139.731 10.5855 138.673 10.5855 137.364C10.5855 136.055 10.3572 134.994 9.83187 134.235C9.26434 133.416 8.43825 133.074 7.58518 133.074C6.7321 133.074 5.90602 133.416 5.33848 134.235C4.81312 134.994 4.58489 136.055 4.58489 137.364C4.58489 138.672 4.81113 139.73 5.33872 140.486C5.91003 141.304 6.73876 141.634 7.58518 141.634ZM7.58518 140.634C8.71692 140.634 9.58547 139.802 9.58547 137.364C9.58547 134.926 8.71692 134.074 7.58518 134.074C6.45343 134.074 5.58489 134.926 5.58489 137.364C5.58489 139.802 6.44817 140.634 7.58518 140.634Z" fill="#D1D8E1"/>
<path fill-rule="evenodd" clip-rule="evenodd" d="M245.515 132.453C244.53 131.507 243.147 131 241.585 131C240.02 131 238.636 131.507 237.651 132.454C236.675 133.391 236 134.845 236 136.919C236 138.992 236.676 140.44 237.651 141.372C238.637 142.314 240.02 142.817 241.585 142.817C243.15 142.817 244.532 142.314 245.516 141.373C246.491 140.441 247.165 138.993 247.165 136.919C247.165 134.845 246.49 133.391 245.515 132.453ZM243.829 140.041C243.258 140.858 242.43 141.189 241.585 141.189C240.739 141.189 239.91 140.859 239.339 140.041C238.811 139.285 238.585 138.227 238.585 136.919C238.585 135.61 238.813 134.549 239.338 133.79C239.906 132.971 240.732 132.628 241.585 132.628C242.438 132.628 243.264 132.971 243.832 133.79C244.357 134.549 244.585 135.61 244.585 136.919C244.585 138.228 244.358 139.286 243.829 140.041ZM241.585 130C244.864 130 247.694 131.97 248.112 135.893C248.69 132.266 251.428 130.445 254.585 130.445C258.138 130.445 261.165 132.758 261.165 137.364C261.165 141.97 258.138 144.262 254.585 144.262C251.306 144.262 248.471 142.31 248.053 138.39C247.475 142.013 244.737 143.817 241.585 143.817C238.433 143.817 235.691 142.013 235.112 138.389C234.695 142.31 231.864 144.262 228.585 144.262C225.032 144.262 222 141.97 222 137.364C222 132.758 225.027 130.445 228.585 130.445C231.737 130.445 234.475 132.266 235.053 135.893C235.471 131.97 238.302 130 241.585 130ZM243.585 136.919C243.585 139.357 242.717 140.189 241.585 140.189C240.448 140.189 239.585 139.357 239.585 136.919C239.585 134.481 240.453 133.628 241.585 133.628C242.717 133.628 243.585 134.481 243.585 136.919ZM258.515 132.899C257.53 131.952 256.147 131.445 254.585 131.445C253.02 131.445 251.636 131.952 250.651 132.899C249.675 133.836 249 135.291 249 137.364C249 139.437 249.676 140.885 250.651 141.818C251.637 142.759 253.02 143.262 254.585 143.262C256.15 143.262 257.532 142.759 258.516 141.818C259.491 140.886 260.165 139.438 260.165 137.364C260.165 135.291 259.49 133.836 258.515 132.899ZM256.829 140.487C256.258 141.303 255.43 141.634 254.585 141.634C253.739 141.634 252.91 141.304 252.339 140.486C251.811 139.73 251.585 138.672 251.585 137.364C251.585 136.055 251.813 134.994 252.338 134.235C252.906 133.416 253.732 133.074 254.585 133.074C255.438 133.074 256.264 133.416 256.832 134.235C257.357 134.994 257.585 136.055 257.585 137.364C257.585 138.673 257.358 139.731 256.829 140.487ZM256.585 137.364C256.585 139.802 255.717 140.634 254.585 140.634C253.448 140.634 252.585 139.802 252.585 137.364C252.585 134.926 253.453 134.074 254.585 134.074C255.717 134.074 256.585 134.926 256.585 137.364ZM228.585 131.445C230.147 131.445 231.53 131.952 232.515 132.899C233.49 133.836 234.165 135.291 234.165 137.364C234.165 139.438 233.491 140.886 232.516 141.818C231.532 142.759 230.15 143.262 228.585 143.262C227.02 143.262 225.637 142.759 224.651 141.818C223.676 140.885 223 139.437 223 137.364C223 135.291 223.675 133.836 224.651 132.899C225.636 131.952 227.02 131.445 228.585 131.445ZM228.585 141.634C229.43 141.634 230.258 141.303 230.829 140.487C231.358 139.731 231.585 138.673 231.585 137.364C231.585 136.055 231.357 134.994 230.832 134.235C230.264 133.416 229.438 133.074 228.585 133.074C227.732 133.074 226.906 133.416 226.338 134.235C225.813 134.994 225.585 136.055 225.585 137.364C225.585 138.672 225.811 139.73 226.339 140.486C226.91 141.304 227.739 141.634 228.585 141.634ZM228.585 140.634C229.717 140.634 230.585 139.802 230.585 137.364C230.585 134.926 229.717 134.074 228.585 134.074C227.453 134.074 226.585 134.926 226.585 137.364C226.585 139.802 227.448 140.634 228.585 140.634Z" fill="#D1D8E1"/>
<path fill-rule="evenodd" clip-rule="evenodd" d="M83.4726 3.42643C82.4932 2.49863 81.1162 2 79.5574 2C77.9956 2 76.6173 2.49885 75.6375 3.42662C74.6685 4.34408 74 5.76483 74 7.79165C74 9.81772 74.6692 11.2325 75.6376 12.1447C76.6175 13.0678 77.9962 13.5629 79.5574 13.5629C81.1186 13.5629 82.4957 13.0679 83.4742 12.1451C84.4413 11.2331 85.1096 9.81825 85.1096 7.79165C85.1096 5.76481 84.4411 4.34394 83.4726 3.42643ZM81.7915 10.8726C81.2192 11.6791 80.394 12.0012 79.5574 12.0012C78.7192 12.0012 77.8931 11.6798 77.3209 10.8719C76.7916 10.1246 76.5656 9.07887 76.5656 7.79165C76.5656 6.5026 76.7936 5.45467 77.3206 4.70441C77.8891 3.8951 78.7127 3.56166 79.5574 3.56166C80.4022 3.56166 81.2257 3.8951 81.7943 4.70441C82.3213 5.45467 82.5493 6.5026 82.5493 7.79165C82.5493 9.08003 82.3215 10.1256 81.7915 10.8726ZM86.1096 7.79165C86.1096 3.27068 83.0956 1 79.5574 1C76.014 1 73 3.27068 73 7.79165C73 11.3911 74.9139 13.5512 77.4798 14.2823C74.9116 15.018 73 17.1912 73 20.7916C73 24.877 75.4654 27.1081 78.5513 27.5002C75.4618 27.895 73 30.1429 73 34.2288C73 38.7497 76.0192 41 79.5574 41C83.0956 41 86.1096 38.7497 86.1096 34.2288C86.1096 30.1432 83.6481 27.8953 80.5628 27.5003C83.6481 27.1084 86.1096 24.8773 86.1096 20.7916C86.1096 17.1917 84.1985 15.0186 81.6335 14.2825C84.1985 13.5518 86.1096 11.3916 86.1096 7.79165ZM81.5493 7.79165C81.5493 10.1848 80.6844 11.0012 79.5574 11.0012C78.4252 11.0012 77.5656 10.1848 77.5656 7.79165C77.5656 5.3985 78.4304 4.56166 79.5574 4.56166C80.6844 4.56166 81.5493 5.3985 81.5493 7.79165ZM83.4726 16.4264C82.4932 15.4986 81.1162 15 79.5574 15C77.9956 15 76.6173 15.4988 75.6375 16.4266C74.6685 17.3441 74 18.7648 74 20.7916C74 22.8177 74.6692 24.2325 75.6376 25.1447C76.6175 26.0678 77.9962 26.5629 79.5574 26.5629C81.1186 26.5629 82.4957 26.0679 83.4742 25.1451C84.4413 24.2331 85.1096 22.8183 85.1096 20.7916C85.1096 18.7648 84.4411 17.3439 83.4726 16.4264ZM81.7915 23.8726C81.2192 24.6791 80.394 25.0012 79.5574 25.0012C78.7192 25.0012 77.8931 24.6798 77.3209 23.8719C76.7916 23.1246 76.5656 22.0789 76.5656 20.7916C76.5656 19.5026 76.7936 18.4547 77.3206 17.7044C77.8891 16.8951 78.7127 16.5617 79.5574 16.5617C80.4022 16.5617 81.2257 16.8951 81.7943 17.7044C82.3213 18.4547 82.5493 19.5026 82.5493 20.7916C82.5493 22.08 82.3215 23.1256 81.7915 23.8726ZM81.5493 20.7916C81.5493 23.1848 80.6844 24.0012 79.5574 24.0012C78.4252 24.0012 77.5656 23.1848 77.5656 20.7916C77.5656 18.3985 78.4304 17.5617 79.5574 17.5617C80.6844 17.5617 81.5493 18.3985 81.5493 20.7916ZM79.5574 28.4371C81.1162 28.4371 82.4932 28.9357 83.4726 29.8635C84.4411 30.7811 85.1096 32.2019 85.1096 34.2288C85.1096 36.2554 84.4413 37.6702 83.4742 38.5822C82.4957 39.505 81.1186 40 79.5574 40C77.9962 40 76.6175 39.505 75.6376 38.5819C74.6692 37.6696 74 36.2548 74 34.2288C74 32.2019 74.6685 30.7812 75.6375 29.8637C76.6173 28.936 77.9956 28.4371 79.5574 28.4371ZM79.5574 38.4383C80.394 38.4383 81.2192 38.1162 81.7915 37.3097C82.3215 36.5627 82.5493 35.5171 82.5493 34.2288C82.5493 32.9397 82.3213 31.8918 81.7943 31.1415C81.2257 30.3322 80.4022 29.9988 79.5574 29.9988C78.7127 29.9988 77.8891 30.3322 77.3206 31.1415C76.7936 31.8918 76.5656 32.9397 76.5656 34.2288C76.5656 35.516 76.7916 36.5617 77.3209 37.309C77.8931 38.1169 78.7192 38.4383 79.5574 38.4383ZM79.5574 37.4383C80.6844 37.4383 81.5493 36.6219 81.5493 34.2288C81.5493 31.8356 80.6844 30.9988 79.5574 30.9988C78.4304 30.9988 77.5656 31.8356 77.5656 34.2288C77.5656 36.6219 78.4252 37.4383 79.5574 37.4383Z" fill="#D1D8E1"/>
<path fill-rule="evenodd" clip-rule="evenodd" d="M83.4726 170.426C82.4932 169.499 81.1162 169 79.5574 169C77.9956 169 76.6173 169.499 75.6375 170.427C74.6685 171.344 74 172.765 74 174.792C74 176.818 74.6692 178.232 75.6376 179.145C76.6175 180.068 77.9962 180.563 79.5574 180.563C81.1186 180.563 82.4957 180.068 83.4742 179.145C84.4413 178.233 85.1096 176.818 85.1096 174.792C85.1096 172.765 84.4411 171.344 83.4726 170.426ZM81.7915 177.873C81.2192 178.679 80.394 179.001 79.5574 179.001C78.7192 179.001 77.8931 178.68 77.3209 177.872C76.7916 177.125 76.5656 176.079 76.5656 174.792C76.5656 173.503 76.7936 172.455 77.3206 171.704C77.8891 170.895 78.7127 170.562 79.5574 170.562C80.4022 170.562 81.2257 170.895 81.7943 171.704C82.3213 172.455 82.5493 173.503 82.5493 174.792C82.5493 176.08 82.3215 177.126 81.7915 177.873ZM86.1096 174.792C86.1096 170.271 83.0956 168 79.5574 168C76.014 168 73 170.271 73 174.792C73 178.391 74.9139 180.551 77.4798 181.282C74.9116 182.018 73 184.191 73 187.792C73 191.877 75.4654 194.108 78.5513 194.5C75.4618 194.895 73 197.143 73 201.229C73 205.75 76.0192 208 79.5574 208C83.0956 208 86.1096 205.75 86.1096 201.229C86.1096 197.143 83.6481 194.895 80.5628 194.5C83.6481 194.108 86.1096 191.877 86.1096 187.792C86.1096 184.192 84.1985 182.019 81.6335 181.283C84.1985 180.552 86.1096 178.392 86.1096 174.792ZM81.5493 174.792C81.5493 177.185 80.6844 178.001 79.5574 178.001C78.4252 178.001 77.5656 177.185 77.5656 174.792C77.5656 172.398 78.4304 171.562 79.5574 171.562C80.6844 171.562 81.5493 172.398 81.5493 174.792ZM83.4726 183.426C82.4932 182.499 81.1162 182 79.5574 182C77.9956 182 76.6173 182.499 75.6375 183.427C74.6685 184.344 74 185.765 74 187.792C74 189.818 74.6692 191.232 75.6376 192.145C76.6175 193.068 77.9962 193.563 79.5574 193.563C81.1186 193.563 82.4957 193.068 83.4742 192.145C84.4413 191.233 85.1096 189.818 85.1096 187.792C85.1096 185.765 84.4411 184.344 83.4726 183.426ZM81.7915 190.873C81.2192 191.679 80.394 192.001 79.5574 192.001C78.7192 192.001 77.8931 191.68 77.3209 190.872C76.7916 190.125 76.5656 189.079 76.5656 187.792C76.5656 186.503 76.7936 185.455 77.3206 184.704C77.8891 183.895 78.7127 183.562 79.5574 183.562C80.4022 183.562 81.2257 183.895 81.7943 184.704C82.3213 185.455 82.5493 186.503 82.5493 187.792C82.5493 189.08 82.3215 190.126 81.7915 190.873ZM81.5493 187.792C81.5493 190.185 80.6844 191.001 79.5574 191.001C78.4252 191.001 77.5656 190.185 77.5656 187.792C77.5656 185.398 78.4304 184.562 79.5574 184.562C80.6844 184.562 81.5493 185.398 81.5493 187.792ZM79.5574 195.437C81.1162 195.437 82.4932 195.936 83.4726 196.864C84.4411 197.781 85.1096 199.202 85.1096 201.229C85.1096 203.255 84.4413 204.67 83.4742 205.582C82.4957 206.505 81.1186 207 79.5574 207C77.9962 207 76.6175 206.505 75.6376 205.582C74.6692 204.67 74 203.255 74 201.229C74 199.202 74.6685 197.781 75.6375 196.864C76.6173 195.936 77.9956 195.437 79.5574 195.437ZM79.5574 205.438C80.394 205.438 81.2192 205.116 81.7915 204.31C82.3215 203.563 82.5493 202.517 82.5493 201.229C82.5493 199.94 82.3213 198.892 81.7943 198.142C81.2257 197.332 80.4022 196.999 79.5574 196.999C78.7127 196.999 77.8891 197.332 77.3206 198.142C76.7936 198.892 76.5656 199.94 76.5656 201.229C76.5656 202.516 76.7916 203.562 77.3209 204.309C77.8931 205.117 78.7192 205.438 79.5574 205.438ZM79.5574 204.438C80.6844 204.438 81.5493 203.622 81.5493 201.229C81.5493 198.836 80.6844 197.999 79.5574 197.999C78.4304 197.999 77.5656 198.836 77.5656 201.229C77.5656 203.622 78.4252 204.438 79.5574 204.438Z" fill="#D1D8E1"/>
<g clip-path="url(#clip0)">
<path d="M190.059 90.7244C189.438 90.7244 188.806 90.7243 188.18 90.7815C186.853 75.3112 173.514 63.2302 157.691 63.2302C153.487 63.2356 149.327 64.0882 145.468 65.7358C142.657 58.7268 137.775 52.7152 131.458 48.4822C125.141 44.2492 117.681 41.9906 110.047 42C89.0599 42 71.9837 58.7908 71.9837 79.4283C71.9837 80.0001 71.9837 80.5823 72.0311 81.1697C63.4528 82.3437 55.5914 86.5348 49.8909 92.9731C44.1904 99.4115 41.0336 107.665 41.0002 116.217C40.975 123.283 43.1066 130.193 47.117 136.045C51.1274 141.897 56.8305 146.42 63.4825 149.024C67.0409 150.459 73.3576 151.275 73.8945 150.064C74.1103 149.58 73.5734 149.076 72.1627 148.437C68.4954 146.801 64.9738 144.864 61.6348 142.646C54.918 137.967 51.3754 133.148 49.591 129.941C47.3804 125.697 46.2392 120.989 46.2641 116.217C46.2865 108.524 49.2717 101.127 54.6142 95.5276C59.9567 89.9282 67.2562 86.5458 75.0315 86.0666C75.3882 86.0443 75.7365 85.9505 76.0552 85.7909C76.374 85.6313 76.6565 85.4093 76.8855 85.1384C77.1145 84.8674 77.2853 84.5533 77.3873 84.2151C77.4894 83.8769 77.5207 83.5217 77.4792 83.1711C77.3296 81.9289 77.2523 80.6792 77.2476 79.4283C77.2476 61.6603 91.9866 47.1984 110.047 47.1984C117.071 47.2203 123.904 49.4557 129.551 53.5791C135.199 57.7024 139.366 63.4985 141.446 70.1232C141.561 70.4955 141.759 70.8376 142.025 71.1243C142.292 71.411 142.62 71.635 142.986 71.7797C143.352 71.9244 143.746 71.9861 144.139 71.9603C144.532 71.9345 144.914 71.8219 145.258 71.6307C149.105 69.4989 153.449 68.3952 157.861 68.4288C162.272 68.4624 166.598 69.6321 170.412 71.8223C174.226 74.0125 177.395 77.1474 179.606 80.9173C181.817 84.6872 182.994 88.9617 183.021 93.3183V93.625C183.016 94.0028 183.095 94.3771 183.252 94.7217C183.409 95.0663 183.64 95.3729 183.929 95.6204C184.218 95.8678 184.559 96.05 184.926 96.1543C185.294 96.2586 185.68 96.2824 186.058 96.2242C187.384 96.021 188.723 95.9184 190.064 95.9175C196.859 95.9023 203.382 98.5513 208.201 103.282C213.019 108.014 215.739 114.44 215.763 121.15C215.763 129.39 211.141 137.863 204.45 142.053C201.292 144.086 201.234 144.47 193.17 148.421C192.264 148.863 191.264 149.461 191.554 150.079C191.749 150.506 192.654 150.693 193.912 150.693C196.852 150.61 199.757 150.044 202.508 149.019C209.013 146.229 214.344 141.308 217.599 135.085C220.855 128.863 221.835 121.721 220.374 114.868C218.914 108.014 215.102 101.868 209.583 97.4693C204.065 93.0704 197.177 90.6879 190.085 90.7244H190.059Z" fill="#231F20"/>
<path d="M78.2732 160.003V164.011H76.1992V154.836H78.2732V158.402H79.426L82.058 154.836H84.4267L80.9157 159.286L84.6899 164.011H82.3212L79.2418 160.003H78.2732Z" fill="#231F20"/>
<path d="M89.4722 164.235C87.2087 164.235 84.8926 162.748 84.8926 159.442C84.8926 156.135 87.2087 154.628 89.4722 154.628C91.7357 154.628 94.0518 156.13 94.0518 159.442C94.0518 162.753 91.7357 164.235 89.4722 164.235ZM91.9252 159.442C91.9252 157.326 90.7671 156.286 89.4722 156.286C88.1773 156.286 87.0192 157.326 87.0192 159.442C87.0192 161.557 88.1773 162.561 89.4722 162.561C90.7671 162.561 91.9252 161.563 91.9252 159.442Z" fill="#231F20"/>
<path d="M102.062 160.107H97.9137V164.011H95.8555V154.836H97.9137V158.501H102.062V154.836H104.115V164.011H102.062V160.107Z" fill="#231F20"/>
<path d="M114.17 166.179V164.011H107.379V166.179H105.516V162.425H106.042C107.095 162.425 107.621 161.095 107.769 157.747L107.905 154.831H114.68V162.42H116.065V166.173L114.17 166.179ZM109.695 156.437L109.611 157.996C109.469 160.419 109.127 161.729 108.4 162.431H112.611V156.437H109.695Z" fill="#231F20"/>
<path d="M124.064 164.011V157.648L119.642 164.011H117.584V154.836H119.642V161.23L124.064 154.836H126.122V164.011H124.064Z" fill="#231F20"/>
<path d="M137.736 166.179H135.867V164.011H128.439V154.836H130.487V162.41H134.288V154.836H136.346V162.41H137.73L137.736 166.179Z" fill="#231F20"/>
<path d="M145.751 164.011V157.648L141.33 164.011H139.271V154.836H141.33V161.23L145.751 154.836H147.81V164.011H145.751Z" fill="#231F20"/>
<path d="M154.009 164.235C151.746 164.235 149.43 162.748 149.43 159.442C149.43 156.135 151.746 154.628 154.009 154.628C156.273 154.628 158.589 156.13 158.589 159.442C158.589 162.753 156.278 164.235 154.009 164.235ZM156.462 159.442C156.462 157.326 155.304 156.286 154.009 156.286C152.714 156.286 151.556 157.326 151.556 159.442C151.556 161.557 152.714 162.561 154.009 162.561C155.304 162.561 156.462 161.563 156.462 159.442Z" fill="#231F20"/>
<path d="M166.572 160.107H162.429V164.011H160.371V154.836H162.429V158.501H166.572V154.836H168.63V164.011H166.572V160.107Z" fill="#231F20"/>
<path d="M175.023 162.545C176.076 162.545 176.939 162.119 177.303 161.266H179.324C179.056 162.153 178.497 162.927 177.734 163.464C176.972 164.002 176.049 164.273 175.113 164.235C172.123 164.235 170.412 161.984 170.412 159.353C170.412 156.593 172.333 154.628 174.976 154.628C177.824 154.628 179.603 156.915 179.434 160.003H172.502C172.639 161.708 173.849 162.545 175.023 162.545ZM177.339 158.522C177.339 158.216 177.277 157.914 177.157 157.632C177.037 157.35 176.862 157.094 176.642 156.88C176.422 156.665 176.161 156.496 175.874 156.382C175.587 156.267 175.28 156.21 174.971 156.213C174.334 156.199 173.718 156.434 173.256 156.866C172.793 157.298 172.523 157.893 172.502 158.522H177.339Z" fill="#231F20"/>
<path d="M183.196 156.063C183.485 155.601 183.895 155.225 184.382 154.972C184.869 154.72 185.415 154.601 185.964 154.628C188.228 154.628 189.954 156.489 189.954 159.421C189.954 162.353 188.228 164.235 185.964 164.235C185.415 164.261 184.869 164.142 184.382 163.89C183.895 163.638 183.485 163.261 183.196 162.8V167H181.143V154.836H183.196V156.063ZM187.812 159.421C187.812 157.497 186.949 156.302 185.512 156.302C184.164 156.302 183.111 157.342 183.111 159.421C183.111 161.5 184.164 162.581 185.512 162.581C186.949 162.602 187.812 161.37 187.812 159.421Z" fill="#231F20"/>
<path d="M78.9328 130.445C82.486 130.445 85.5127 132.759 85.5127 137.364C85.5127 141.97 82.486 144.263 78.9328 144.263C75.3797 144.263 72.3477 141.97 72.3477 137.364C72.3477 132.759 75.3744 130.445 78.9328 130.445ZM78.9328 140.634C80.0646 140.634 80.9331 139.802 80.9331 137.364C80.9331 134.926 80.0646 134.074 78.9328 134.074C77.8011 134.074 76.9325 134.926 76.9325 137.364C76.9325 139.802 77.7958 140.634 78.9328 140.634Z" fill="#231F20"/>
<path d="M86.6035 135.976V135.571C86.7351 130.773 88.1827 126.775 93.973 126.214L97.8631 125.85V129.853L93.0834 130.372C91.3253 130.591 89.9251 131.251 89.7671 133.715C90.5251 132.223 92.1938 131.74 93.6835 131.74C96.5945 131.74 99.2159 133.819 99.2159 137.806C99.2159 142.1 95.9259 144.242 92.7939 144.242C89.4302 144.262 86.6035 141.809 86.6035 135.976ZM94.6942 137.827C94.6942 135.659 93.7572 135.025 92.7571 135.025C91.7569 135.025 90.9831 135.685 90.9831 137.827C90.9831 139.755 91.8675 140.634 92.8044 140.634C93.7414 140.634 94.6942 139.875 94.6942 137.827Z" fill="#231F20"/>
<path d="M99.957 140.39H100.357C101.178 140.39 101.978 139.558 102.178 135.222L102.405 130.835H113.117V143.945H108.674V134.391H106.495L106.295 137.463C106.047 141.169 104.647 143.945 100.799 143.945H99.957V140.39Z" fill="#231F20"/>
<path d="M121.279 133.538C121.034 133.513 120.786 133.537 120.55 133.609C120.314 133.681 120.095 133.799 119.906 133.956C119.718 134.113 119.563 134.307 119.452 134.524C119.34 134.742 119.274 134.979 119.258 135.222H115.431C115.631 132.732 117.637 130.367 121.59 130.367C125.017 130.367 127.459 131.781 127.417 136.169V138.679C127.388 140.437 127.462 142.196 127.638 143.945H123.501V142.24C122.611 143.68 121.127 144.262 119.437 144.262C117.1 144.262 115.168 142.677 115.168 140.338C115.168 137.291 118.032 136.002 123.064 135.659V135.295C123.059 133.829 122.237 133.538 121.279 133.538ZM119.611 139.776C119.611 140.338 120.037 140.972 121.079 140.972C122.237 140.972 123.217 140.452 123.217 138.435V138.045C120.858 138.217 119.611 138.659 119.611 139.802V139.776Z" fill="#231F20"/>
<path d="M136.803 139.631C135.827 139.86 134.827 139.975 133.823 139.974C131.154 139.974 129.533 138.607 129.533 135.685V130.835H133.981V134.926C133.981 136.413 134.444 136.657 135.713 136.657C136.081 136.661 136.448 136.612 136.803 136.512V130.835H141.251V143.945H136.803V139.631Z" fill="#231F20"/>
<path d="M143.889 130.835H148.337V135.467H151.827V130.835H156.28V143.945H151.832V139.022H148.342V143.945H143.894L143.889 130.835Z" fill="#231F20"/>
<path d="M158.945 130.835H163.388V134.661H164.967C168.699 134.661 170.279 136.075 170.279 139.241C170.279 142.776 168.878 143.945 165.236 143.945H158.945V130.835ZM164.836 140.655C165.746 140.655 166.325 140.364 166.325 139.241C166.325 138.243 165.746 137.952 164.857 137.952H163.388V140.655H164.836ZM171.773 130.835H176.216V143.945H171.773V130.835Z" fill="#231F20"/>
<path d="M178.883 130.835H182.994V138.113L187.11 130.835H191.221V143.945H187.11V136.803L182.994 143.945H178.883V130.835ZM180.752 126.276H183.383C183.494 126.858 184.052 127.154 185.052 127.154C186.052 127.154 186.631 126.858 186.721 126.276H189.353C189.174 128.08 187.774 129.322 185.042 129.322C182.31 129.322 180.883 128.08 180.752 126.276Z" fill="#231F20"/>
</g>
<rect x="40.5" y="41.5" width="181" height="126" stroke="#D1D8E1"/>
<rect x="0.5" y="0.5" width="261" height="208" stroke="#D1D8E1"/>
<defs>
<clipPath id="clip0">
</clipPath>
</defs>
</svg>
