<svg width="262" height="209" viewBox="0 0 262 209" fill="none" xmlns="http://www.w3.org/2000/svg"><path fill="#fff" d="M.5.5h261v208H.5z"/><path stroke="#D1D8E1" stroke-dasharray="4 4" d="M27.5 27.5h208v154h-208z"/><path stroke="#D1D8E1" stroke-dasharray="4 4" d="M14.5 14.5h234v180h-234z"/><path fill-rule="evenodd" clip-rule="evenodd" d="M24.515 132.453c-.985-.946-2.368-1.453-3.93-1.453-1.565 0-2.948.507-3.934 1.454-.976.937-1.651 2.391-1.651 4.465 0 2.073.675 3.521 1.651 4.453.986.942 2.37 1.445 3.934 1.445 1.565 0 2.947-.503 3.931-1.444.975-.932 1.65-2.38 1.65-4.454s-.676-3.528-1.651-4.466zm-1.686 7.588c-.571.817-1.399 1.148-2.244 1.148-.846 0-1.675-.33-2.246-1.148-.528-.756-.754-1.814-.754-3.122 0-1.309.228-2.37.753-3.129.568-.819 1.394-1.162 2.247-1.162s1.68.343 2.247 1.162c.525.759.753 1.82.753 3.129s-.227 2.367-.756 3.122zM20.585 130c3.279 0 6.11 1.97 6.527 5.893.578-3.627 3.316-5.448 6.473-5.448 3.553 0 6.58 2.313 6.58 6.919s-3.027 6.898-6.58 6.898c-3.279 0-6.114-1.952-6.532-5.872-.578 3.623-3.316 5.427-6.468 5.427s-5.894-1.804-6.473-5.428c-.417 3.921-3.248 5.873-6.527 5.873-3.553 0-6.585-2.292-6.585-6.898s3.027-6.919 6.585-6.919c3.152 0 5.89 1.821 6.468 5.448.418-3.923 3.249-5.893 6.532-5.893zm2 6.919c0 2.438-.868 3.27-2 3.27-1.137 0-2-.832-2-3.27s.868-3.291 2-3.291c1.132 0 2 .853 2 3.291zm14.93-4.02c-.985-.947-2.368-1.454-3.93-1.454-1.565 0-2.948.507-3.934 1.454-.976.937-1.651 2.392-1.651 4.465s.675 3.521 1.651 4.454c.986.941 2.37 1.444 3.934 1.444 1.565 0 2.947-.503 3.931-1.444.974-.932 1.65-2.38 1.65-4.454 0-2.073-.676-3.528-1.651-4.465zm-1.686 7.588c-.571.816-1.399 1.147-2.244 1.147-.846 0-1.675-.33-2.246-1.148-.528-.756-.754-1.814-.754-3.122 0-1.309.228-2.37.753-3.129.568-.819 1.394-1.161 2.247-1.161s1.68.342 2.247 1.161c.525.759.754 1.82.754 3.129s-.228 2.367-.757 3.123zm-.243-3.123c0 2.438-.87 3.27-2 3.27-1.138 0-2.001-.832-2.001-3.27s.868-3.29 2-3.29c1.132 0 2 .852 2 3.29zm-28-5.919c1.561 0 2.944.507 3.929 1.454.975.937 1.65 2.392 1.65 4.465 0 2.074-.674 3.522-1.649 4.454-.984.941-2.366 1.444-3.93 1.444-1.566 0-2.95-.503-3.935-1.444-.975-.933-1.651-2.381-1.651-4.454s.675-3.528 1.65-4.465c.986-.947 2.37-1.454 3.935-1.454zm0 10.189c.844 0 1.672-.331 2.243-1.147.528-.756.756-1.814.756-3.123 0-1.309-.228-2.37-.753-3.129-.568-.819-1.394-1.161-2.247-1.161s-1.679.342-2.247 1.161c-.525.759-.753 1.82-.753 3.129 0 1.308.226 2.366.754 3.122.571.818 1.4 1.148 2.246 1.148zm0-1c1.13 0 2-.832 2-3.27s-.87-3.29-2-3.29c-1.133 0-2.001.852-2.001 3.29s.863 3.27 2 3.27zm237.929-8.181c-.985-.946-2.368-1.453-3.93-1.453-1.565 0-2.949.507-3.934 1.454-.976.937-1.651 2.391-1.651 4.465 0 2.073.676 3.521 1.651 4.453.986.942 2.369 1.445 3.934 1.445s2.947-.503 3.931-1.444c.975-.932 1.649-2.38 1.649-4.454s-.675-3.528-1.65-4.466zm-1.686 7.588c-.571.817-1.399 1.148-2.244 1.148-.846 0-1.675-.33-2.246-1.148-.528-.756-.754-1.814-.754-3.122 0-1.309.228-2.37.753-3.129.568-.819 1.394-1.162 2.247-1.162s1.679.343 2.247 1.162c.525.759.753 1.82.753 3.129s-.227 2.367-.756 3.122zM241.585 130c3.279 0 6.109 1.97 6.527 5.893.578-3.627 3.316-5.448 6.473-5.448 3.553 0 6.58 2.313 6.58 6.919s-3.027 6.898-6.58 6.898c-3.279 0-6.114-1.952-6.532-5.872-.578 3.623-3.316 5.427-6.468 5.427s-5.894-1.804-6.473-5.428c-.417 3.921-3.248 5.873-6.527 5.873-3.553 0-6.585-2.292-6.585-6.898s3.027-6.919 6.585-6.919c3.152 0 5.89 1.821 6.468 5.448.418-3.923 3.249-5.893 6.532-5.893zm2 6.919c0 2.438-.868 3.27-2 3.27-1.137 0-2-.832-2-3.27s.868-3.291 2-3.291c1.132 0 2 .853 2 3.291zm14.93-4.02c-.985-.947-2.368-1.454-3.93-1.454-1.565 0-2.949.507-3.934 1.454-.976.937-1.651 2.392-1.651 4.465s.676 3.521 1.651 4.454c.986.941 2.369 1.444 3.934 1.444s2.947-.503 3.931-1.444c.975-.932 1.649-2.38 1.649-4.454 0-2.073-.675-3.528-1.65-4.465zm-1.686 7.588c-.571.816-1.399 1.147-2.244 1.147-.846 0-1.675-.33-2.246-1.148-.528-.756-.754-1.814-.754-3.122 0-1.309.228-2.37.753-3.129.568-.819 1.394-1.161 2.247-1.161s1.679.342 2.247 1.161c.525.759.753 1.82.753 3.129s-.227 2.367-.756 3.123zm-.244-3.123c0 2.438-.868 3.27-2 3.27-1.137 0-2-.832-2-3.27s.868-3.29 2-3.29c1.132 0 2 .852 2 3.29zm-28-5.919c1.562 0 2.945.507 3.93 1.454.975.937 1.65 2.392 1.65 4.465 0 2.074-.674 3.522-1.649 4.454-.984.941-2.366 1.444-3.931 1.444s-2.948-.503-3.934-1.444c-.975-.933-1.651-2.381-1.651-4.454s.675-3.528 1.651-4.465c.985-.947 2.369-1.454 3.934-1.454zm0 10.189c.845 0 1.673-.331 2.244-1.147.529-.756.756-1.814.756-3.123 0-1.309-.228-2.37-.753-3.129-.568-.819-1.394-1.161-2.247-1.161s-1.679.342-2.247 1.161c-.525.759-.753 1.82-.753 3.129 0 1.308.226 2.366.754 3.122.571.818 1.4 1.148 2.246 1.148zm0-1c1.132 0 2-.832 2-3.27s-.868-3.29-2-3.29c-1.132 0-2 .852-2 3.29s.863 3.27 2 3.27zM83.473 3.426C82.493 2.5 81.116 2 79.557 2c-1.561 0-2.94.499-3.92 1.427C74.669 4.344 74 5.765 74 7.792c0 2.026.67 3.44 1.638 4.353.98.923 2.358 1.418 3.92 1.418 1.56 0 2.938-.495 3.916-1.418.967-.912 1.636-2.327 1.636-4.353 0-2.027-.669-3.448-1.637-4.366zm-1.681 7.447c-.573.806-1.398 1.128-2.235 1.128-.838 0-1.664-.321-2.236-1.13-.53-.746-.755-1.792-.755-3.08s.228-2.336.755-3.087c.568-.809 1.392-1.142 2.236-1.142.845 0 1.669.333 2.237 1.142.527.75.755 1.799.755 3.088 0 1.288-.228 2.334-.758 3.08zm4.318-3.081C86.11 3.27 83.096 1 79.557 1 76.014 1 73 3.27 73 7.792c0 3.6 1.914 5.76 4.48 6.49-2.568.736-4.48 2.91-4.48 6.51 0 4.085 2.465 6.316 5.551 6.708-3.09.395-5.551 2.643-5.551 6.729C73 38.749 76.02 41 79.557 41c3.539 0 6.553-2.25 6.553-6.771 0-4.086-2.462-6.334-5.547-6.729 3.085-.392 5.547-2.623 5.547-6.708 0-3.6-1.912-5.773-4.477-6.51 2.566-.73 4.477-2.89 4.477-6.49zm-4.56 0c0 2.393-.866 3.21-1.993 3.21-1.132 0-1.991-.817-1.991-3.21s.864-3.23 1.991-3.23c1.127 0 1.992.837 1.992 3.23zm1.923 8.634C82.493 15.5 81.116 15 79.557 15c-1.561 0-2.94.499-3.92 1.427-.969.917-1.637 2.338-1.637 4.365 0 2.026.67 3.44 1.638 4.353.98.923 2.358 1.418 3.92 1.418 1.56 0 2.938-.495 3.916-1.418.967-.912 1.636-2.327 1.636-4.353 0-2.027-.669-3.448-1.637-4.366zm-1.681 7.447c-.573.806-1.398 1.128-2.235 1.128-.838 0-1.664-.321-2.236-1.13-.53-.746-.755-1.792-.755-3.08s.228-2.336.755-3.087c.568-.809 1.392-1.142 2.236-1.142.845 0 1.669.333 2.237 1.142.527.75.755 1.799.755 3.088 0 1.288-.228 2.334-.758 3.08zm-.243-3.081c0 2.393-.865 3.21-1.992 3.21-1.132 0-1.991-.817-1.991-3.21 0-2.394.864-3.23 1.991-3.23 1.127 0 1.992.836 1.992 3.23zm-1.992 7.645c1.56 0 2.936.499 3.916 1.426.968.918 1.637 2.339 1.637 4.366 0 2.026-.669 3.441-1.636 4.353-.978.923-2.355 1.418-3.917 1.418-1.56 0-2.94-.495-3.92-1.418C74.67 37.67 74 36.255 74 34.229c0-2.027.668-3.448 1.638-4.365.98-.928 2.358-1.427 3.92-1.427zm0 10.001c.837 0 1.662-.322 2.234-1.128.53-.747.758-1.793.758-3.081 0-1.29-.228-2.337-.755-3.087-.568-.81-1.392-1.143-2.237-1.143-.844 0-1.668.333-2.236 1.143-.527.75-.755 1.798-.755 3.087 0 1.287.226 2.333.755 3.08.572.808 1.398 1.13 2.236 1.13zm0-1c1.127 0 1.992-.816 1.992-3.21 0-2.392-.865-3.23-1.992-3.23s-1.991.838-1.991 3.23c0 2.394.86 3.21 1.991 3.21zm3.916 132.988c-.98-.927-2.357-1.426-3.916-1.426-1.561 0-2.94.499-3.92 1.427-.969.917-1.637 2.338-1.637 4.365 0 2.026.67 3.44 1.638 4.353.98.923 2.358 1.418 3.92 1.418 1.56 0 2.938-.495 3.916-1.418.967-.912 1.636-2.327 1.636-4.353 0-2.027-.669-3.448-1.637-4.366zm-1.681 7.447c-.573.806-1.398 1.128-2.235 1.128-.838 0-1.664-.321-2.236-1.129-.53-.747-.755-1.793-.755-3.08 0-1.289.228-2.337.755-3.088.568-.809 1.392-1.142 2.236-1.142.845 0 1.669.333 2.237 1.142.527.751.755 1.799.755 3.088 0 1.288-.228 2.334-.758 3.081zm4.318-3.081c0-4.521-3.014-6.792-6.553-6.792-3.543 0-6.557 2.271-6.557 6.792 0 3.599 1.914 5.759 4.48 6.49-2.568.736-4.48 2.909-4.48 6.51 0 4.085 2.465 6.316 5.551 6.708-3.09.395-5.551 2.643-5.551 6.729 0 4.521 3.02 6.771 6.557 6.771 3.539 0 6.553-2.25 6.553-6.771 0-4.086-2.462-6.334-5.547-6.729 3.085-.392 5.547-2.623 5.547-6.708 0-3.6-1.912-5.773-4.477-6.509 2.566-.731 4.477-2.891 4.477-6.491zm-4.56 0c0 2.393-.866 3.209-1.993 3.209-1.132 0-1.991-.816-1.991-3.209 0-2.394.864-3.23 1.991-3.23 1.127 0 1.992.836 1.992 3.23zm1.923 8.634c-.98-.927-2.357-1.426-3.916-1.426-1.561 0-2.94.499-3.92 1.427-.969.917-1.637 2.338-1.637 4.365 0 2.026.67 3.44 1.638 4.353.98.923 2.358 1.418 3.92 1.418 1.56 0 2.938-.495 3.916-1.418.967-.912 1.636-2.327 1.636-4.353 0-2.027-.669-3.448-1.637-4.366zm-1.681 7.447c-.573.806-1.398 1.128-2.235 1.128-.838 0-1.664-.321-2.236-1.129-.53-.747-.755-1.793-.755-3.08 0-1.289.228-2.337.755-3.088.568-.809 1.392-1.142 2.236-1.142.845 0 1.669.333 2.237 1.142.527.751.755 1.799.755 3.088 0 1.288-.228 2.334-.758 3.081zm-.243-3.081c0 2.393-.865 3.209-1.992 3.209-1.132 0-1.991-.816-1.991-3.209 0-2.394.864-3.23 1.991-3.23 1.127 0 1.992.836 1.992 3.23zm-1.992 7.645c1.56 0 2.936.499 3.916 1.427.968.917 1.637 2.338 1.637 4.365 0 2.026-.669 3.441-1.636 4.353-.978.923-2.355 1.418-3.917 1.418-1.56 0-2.94-.495-3.92-1.418-.968-.912-1.637-2.327-1.637-4.353 0-2.027.668-3.448 1.638-4.365.98-.928 2.358-1.427 3.92-1.427zm0 10.001c.837 0 1.662-.322 2.234-1.128.53-.747.758-1.793.758-3.081 0-1.289-.228-2.337-.755-3.087-.568-.81-1.392-1.143-2.237-1.143-.844 0-1.668.333-2.236 1.143-.527.75-.755 1.798-.755 3.087 0 1.287.226 2.333.755 3.08.572.808 1.398 1.129 2.236 1.129zm0-1c1.127 0 1.992-.816 1.992-3.209 0-2.393-.865-3.23-1.992-3.23s-1.991.837-1.991 3.23.86 3.209 1.991 3.209z" fill="#D1D8E1"/><g clip-path="url(#clip0)" fill="#231F20"><path d="M190.059 90.724c-.621 0-1.253 0-1.879.057-1.327-15.47-14.666-27.55-30.489-27.55a31.24 31.24 0 00-12.223 2.505 37.66 37.66 0 00-14.01-17.254A38.387 38.387 0 00110.047 42C89.06 42 71.984 58.79 71.984 79.428c0 .572 0 1.154.047 1.742-8.578 1.174-16.44 5.365-22.14 11.803-5.7 6.439-8.857 14.692-8.89 23.244a34.847 34.847 0 006.116 19.828 35.524 35.524 0 0016.366 12.979c3.558 1.435 9.875 2.251 10.411 1.04.216-.484-.32-.988-1.731-1.627a72.149 72.149 0 01-10.528-5.791c-6.717-4.679-10.26-9.498-12.044-12.705a29.37 29.37 0 01-3.327-13.724c.022-7.693 3.008-15.09 8.35-20.69 5.343-5.599 12.642-8.981 20.417-9.46a2.657 2.657 0 001.854-.929 2.589 2.589 0 00.594-1.967 32.318 32.318 0 01-.231-3.743c0-17.768 14.739-32.23 32.799-32.23a33.257 33.257 0 0119.504 6.381 32.58 32.58 0 0111.895 16.544 2.601 2.601 0 001.54 1.657 2.662 2.662 0 002.272-.15 25.606 25.606 0 0112.603-3.201 25.601 25.601 0 0112.551 3.393 25.195 25.195 0 019.194 9.095 24.811 24.811 0 013.415 12.401v.307c-.005.378.074.752.231 1.097.157.344.388.65.677.898a2.647 2.647 0 002.129.604 26.563 26.563 0 014.006-.306c6.795-.016 13.318 2.633 18.137 7.364 4.818 4.732 7.538 11.158 7.562 17.868 0 8.24-4.622 16.713-11.313 20.903-3.158 2.033-3.216 2.417-11.28 6.368-.906.442-1.906 1.04-1.616 1.658.195.427 1.1.614 2.358.614a26.789 26.789 0 008.596-1.674c6.505-2.79 11.836-7.711 15.091-13.934a30.06 30.06 0 002.775-20.217c-1.46-6.854-5.272-13-10.791-17.399a31.031 31.031 0 00-19.498-6.745h-.026zM78.273 160.003v4.008H76.2v-9.175h2.074v3.566h1.153l2.632-3.566h2.369l-3.511 4.45 3.774 4.725H82.32l-3.08-4.008h-.968zm11.199 4.232c-2.263 0-4.58-1.487-4.58-4.793 0-3.307 2.317-4.814 4.58-4.814 2.264 0 4.58 1.502 4.58 4.814 0 3.311-2.316 4.793-4.58 4.793zm2.453-4.793c0-2.116-1.158-3.156-2.453-3.156s-2.453 1.04-2.453 3.156c0 2.115 1.158 3.119 2.453 3.119s2.453-.998 2.453-3.119zm10.137.665h-4.148v3.904h-2.058v-9.175h2.058v3.665h4.148v-3.665h2.053v9.175h-2.053v-3.904zm12.108 6.072v-2.168h-6.791v2.168h-1.863v-3.754h.526c1.053 0 1.579-1.33 1.727-4.678l.136-2.916h6.775v7.589h1.385v3.753l-1.895.006zm-4.475-9.742l-.084 1.559c-.142 2.423-.484 3.733-1.211 4.435h4.211v-5.994h-2.916zm14.369 7.574v-6.363l-4.422 6.363h-2.058v-9.175h2.058v6.394l4.422-6.394h2.058v9.175h-2.058zm13.672 2.168h-1.869v-2.168h-7.428v-9.175h2.048v7.574h3.801v-7.574h2.058v7.574h1.384l.006 3.769zm8.015-2.168v-6.363l-4.421 6.363h-2.059v-9.175h2.059v6.394l4.421-6.394h2.059v9.175h-2.059zm8.258.224c-2.263 0-4.579-1.487-4.579-4.793 0-3.307 2.316-4.814 4.579-4.814 2.264 0 4.58 1.502 4.58 4.814 0 3.311-2.311 4.793-4.58 4.793zm2.453-4.793c0-2.116-1.158-3.156-2.453-3.156s-2.453 1.04-2.453 3.156c0 2.115 1.158 3.119 2.453 3.119s2.453-.998 2.453-3.119zm10.11.665h-4.143v3.904h-2.058v-9.175h2.058v3.665h4.143v-3.665h2.058v9.175h-2.058v-3.904zm8.451 2.438c1.053 0 1.916-.426 2.28-1.279h2.021a4.16 4.16 0 01-1.59 2.198 4.248 4.248 0 01-2.621.771c-2.99 0-4.701-2.251-4.701-4.882 0-2.76 1.921-4.725 4.564-4.725 2.848 0 4.627 2.287 4.458 5.375h-6.932c.137 1.705 1.347 2.542 2.521 2.542zm2.316-4.023a2.313 2.313 0 00-1.465-2.14 2.366 2.366 0 00-.903-.169 2.433 2.433 0 00-1.715.653 2.371 2.371 0 00-.754 1.656h4.837zm5.857-2.459a3.061 3.061 0 011.186-1.091 3.11 3.11 0 011.582-.344c2.264 0 3.99 1.861 3.99 4.793 0 2.932-1.726 4.814-3.99 4.814a3.122 3.122 0 01-1.582-.345 3.058 3.058 0 01-1.186-1.09v4.2h-2.053v-12.164h2.053v1.227zm4.616 3.358c0-1.924-.863-3.119-2.3-3.119-1.348 0-2.401 1.04-2.401 3.119s1.053 3.16 2.401 3.16c1.437.021 2.3-1.211 2.3-3.16z"/><path d="M78.933 130.445c3.553 0 6.58 2.314 6.58 6.919 0 4.606-3.027 6.899-6.58 6.899s-6.585-2.293-6.585-6.899c0-4.605 3.026-6.919 6.585-6.919zm0 10.189c1.132 0 2-.832 2-3.27s-.868-3.29-2-3.29c-1.132 0-2 .852-2 3.29s.863 3.27 2 3.27zm7.67-4.658v-.405c.132-4.798 1.58-8.796 7.37-9.357l3.89-.364v4.003l-4.78.519c-1.758.219-3.158.879-3.316 3.343.758-1.492 2.427-1.975 3.916-1.975 2.911 0 5.533 2.079 5.533 6.066 0 4.294-3.29 6.436-6.422 6.436-3.364.02-6.19-2.433-6.19-8.266zm8.091 1.851c0-2.168-.937-2.802-1.937-2.802s-1.774.66-1.774 2.802c0 1.928.885 2.807 1.821 2.807.937 0 1.89-.759 1.89-2.807zm5.263 2.563h.4c.821 0 1.621-.832 1.821-5.168l.227-4.387h10.712v13.11h-4.443v-9.554h-2.179l-.2 3.072c-.248 3.706-1.648 6.482-5.496 6.482h-.842v-3.555zm21.322-6.852a1.854 1.854 0 00-1.373.418 1.824 1.824 0 00-.648 1.266h-3.827c.2-2.49 2.206-4.855 6.159-4.855 3.427 0 5.869 1.414 5.827 5.802v2.51a45.165 45.165 0 00.221 5.266h-4.137v-1.705c-.89 1.44-2.374 2.022-4.064 2.022-2.337 0-4.269-1.585-4.269-3.924 0-3.047 2.864-4.336 7.896-4.679v-.364c-.005-1.466-.827-1.757-1.785-1.757zm-1.668 6.238c0 .562.426 1.196 1.468 1.196 1.158 0 2.138-.52 2.138-2.537v-.39c-2.359.172-3.606.614-3.606 1.757v-.026zm17.192-.145c-.976.229-1.976.344-2.98.343-2.669 0-4.29-1.367-4.29-4.289v-4.85h4.448v4.091c0 1.487.463 1.731 1.732 1.731.368.004.735-.045 1.09-.145v-5.677h4.448v13.11h-4.448v-4.314zm7.086-8.796h4.448v4.632h3.49v-4.632h4.453v13.11h-4.448v-4.923h-3.49v4.923h-4.448l-.005-13.11zm15.056 0h4.443v3.826h1.579c3.732 0 5.312 1.414 5.312 4.58 0 3.535-1.401 4.704-5.043 4.704h-6.291v-13.11zm5.891 9.82c.91 0 1.489-.291 1.489-1.414 0-.998-.579-1.289-1.468-1.289h-1.469v2.703h1.448zm6.937-9.82h4.443v13.11h-4.443v-13.11zm7.11 0h4.111v7.278l4.116-7.278h4.111v13.11h-4.111v-7.142l-4.116 7.142h-4.111v-13.11zm1.869-4.559h2.631c.111.582.669.878 1.669.878s1.579-.296 1.669-.878h2.632c-.179 1.804-1.579 3.046-4.311 3.046s-4.159-1.242-4.29-3.046z"/></g><path stroke="#D1D8E1" d="M40.5 41.5h181v126h-181z"/><path stroke="#D1D8E1" d="M.5.5h261v208H.5z"/><defs><clipPath id="clip0"/></defs></svg>