<svg width="116" height="80" viewBox="0 0 116 80" fill="none" xmlns="http://www.w3.org/2000/svg"><g clip-path="url(#clip0)"><path d="M96.06 31.183c-.4 0-.807 0-1.21.037-.856-9.9-9.452-17.633-19.65-17.633-2.709.004-5.389.55-7.876 1.604a24.14 24.14 0 00-9.029-11.042A24.86 24.86 0 0044.497 0c-13.525 0-24.53 10.746-24.53 23.954 0 .366 0 .739.03 1.115-5.527.75-10.594 3.433-14.267 7.554C2.056 36.743.022 42.025 0 47.499a22.195 22.195 0 003.942 12.69 22.866 22.866 0 0010.547 8.306c2.293.919 6.364 1.44 6.71.666.139-.31-.207-.632-1.116-1.042a46.595 46.595 0 01-6.785-3.706c-4.329-2.994-6.612-6.078-7.762-8.13a18.69 18.69 0 01-2.144-8.784c.015-4.924 1.939-9.658 5.382-13.241 3.443-3.584 8.147-5.749 13.157-6.055a1.723 1.723 0 001.195-.595 1.654 1.654 0 00.383-1.259 20.54 20.54 0 01-.15-2.395c0-11.372 9.499-20.627 21.138-20.627a21.535 21.535 0 0112.57 4.084 20.86 20.86 0 017.665 10.588c.074.238.202.457.373.64a1.727 1.727 0 002.083.324 16.593 16.593 0 018.122-2.049 16.59 16.59 0 018.089 2.172 16.187 16.187 0 015.925 5.821 15.79 15.79 0 012.2 7.937v.196a1.668 1.668 0 00.585 1.277 1.708 1.708 0 001.373.386c.854-.13 1.717-.195 2.582-.196 4.378-.01 8.582 1.686 11.687 4.714 3.106 3.028 4.859 7.14 4.874 11.435 0 5.273-2.979 10.696-7.29 13.378-2.036 1.3-2.073 1.547-7.27 4.075-.584.283-1.228.666-1.041 1.062.125.272.709.392 1.52.392a17.356 17.356 0 005.539-1.071c4.192-1.785 7.628-4.935 9.725-8.918a19.127 19.127 0 001.789-12.939c-.941-4.386-3.398-8.32-6.954-11.135a20.089 20.089 0 00-12.566-4.317h-.017z" fill="#231F20"/><path d="M22.035 60.449c0-1.677.988-3.679 3.003-3.679 1.339 0 2.119.936 2.119 2.405 0 1.677-.988 3.679-3.003 3.679-1.34 0-2.12-.936-2.12-2.405zm7.475-1.56c0-2.587-1.833-3.952-4.264-3.952-3.523 0-5.564 2.73-5.564 5.798 0 2.587 1.833 3.952 4.264 3.952 3.523 0 5.564-2.73 5.564-5.798zm4.418 5.629c2.769 0 4.264-1.04 4.264-3.341 0-1.807-1.21-2.574-3.497-2.574H33.16l.338-1.638h4.693l.39-1.872h-6.916l-1.976 9.425h4.238zm-1.131-4.264h1.69c.949 0 1.365.299 1.365.962 0 .832-.546 1.43-1.638 1.43h-1.911l.494-2.392zm6.255 4.264c1.937 0 3.21-2.106 4.004-4.81l.793-2.652h2.197l-1.56 7.462h2.21l1.976-9.425h-6.474l-1.066 3.757c-.793 2.834-1.417 3.705-2.171 3.705h-.26l-.403 1.963h.754zm8.595 0h2.404l.923-1.677h3.615l.233 1.677h2.314l-1.611-9.425h-2.38l-5.498 9.425zm6.24-6.942l.468 3.458h-2.38l1.911-3.458zm10.468 6.942l1.976-9.425h-2.223l-.884 4.277c-.481.117-1.183.169-1.638.169-1.079 0-1.495-.286-1.495-1.066 0-.221.026-.481.091-.754l.546-2.626h-2.145l-.546 2.613c-.091.455-.156.858-.156 1.235 0 1.625.923 2.509 2.756 2.509.793 0 1.638-.143 2.197-.286l-.702 3.354h2.223zm9.855-9.425l-.766 3.601h-3.861l.767-3.601h-2.223l-2.002 9.425h2.223l.819-3.861h3.86l-.818 3.861h2.223l2.002-9.425H74.21zm5.557 9.425c2.847 0 4.55-1.183 4.55-3.484 0-2.171-1.612-2.808-3.744-2.808h-.793l.65-3.133h-2.223l-1.976 9.425h3.536zm-.377-4.42h.988c.91 0 1.612.195 1.612.962 0 1.053-.637 1.586-2.028 1.586h-1.118l.546-2.548zm7.566 4.42l1.976-9.425h-2.223l-1.976 9.425h2.223zm3.976 0l5.343-5.98-1.26 5.98h2.21l1.988-9.425h-2.21l-5.408 6.24 1.34-6.24h-2.21l-2.003 9.425h2.21zm4.2-9.711c1.56 0 2.547-.663 2.768-1.807h-1.534c-.09.481-.559.728-1.196.728-.624 0-1.066-.26-1.066-.728h-1.547v.117c0 .949 1.014 1.69 2.574 1.69zm-74.03 23.711l.7-3.26h.91l1.71 3.26h1.21l-1.95-3.73 3.34-3.52h-1.38l-2.84 3.02h-.81l.63-3.02h-1.13l-1.52 7.25h1.13z" fill="#151515"/><path d="M27.495 75.598c0-1.51.86-3.51 2.73-3.51 1.32 0 1.88.98 1.88 2.1 0 1.51-.86 3.51-2.73 3.51-1.31 0-1.88-.98-1.88-2.1zm5.78-1.47c0-1.87-1.1-2.99-2.9-2.99-2.64 0-4.04 2.32-4.04 4.52 0 1.87 1.1 2.99 2.9 2.99 2.64 0 4.04-2.32 4.04-4.52zm6.678-2.86l-.65 3.04h-3.64l.65-3.04h-1.14l-1.54 7.25h1.14l.69-3.25h3.64l-.69 3.25h1.14l1.54-7.25h-1.14zm1.27 8.75l.32-1.5h5.11l-.32 1.5h1.04l.52-2.46h-.93l1.32-6.29h-4.58l-.7 2.49c-.72 2.47-1.33 3.73-2.01 3.8h-.29l-.52 2.46h1.04zm1.11-2.46c.71-.49 1.18-1.69 1.71-3.54l.51-1.79h2.39l-1.12 5.33h-3.49zm7.313.96l4.85-5.49-1.17 5.49h1.12l1.52-7.25h-1.1l-4.86 5.5 1.17-5.5h-1.12l-1.52 7.25h1.11zm12.62 1.5l.52-2.46h-.93l1.32-6.29h-1.14l-1.32 6.29h-3.32l1.32-6.29h-1.14l-1.52 7.25h5.48l-.32 1.5h1.05zm2.322-1.5l4.85-5.49-1.17 5.49h1.12l1.52-7.25h-1.1l-4.86 5.5 1.17-5.5h-1.12l-1.52 7.25h1.11zm7.819-2.92c0-1.51.86-3.51 2.73-3.51 1.32 0 1.88.98 1.88 2.1 0 1.51-.86 3.51-2.73 3.51-1.31 0-1.88-.98-1.88-2.1zm5.78-1.47c0-1.87-1.1-2.99-2.9-2.99-2.64 0-4.04 2.32-4.04 4.52 0 1.87 1.1 2.99 2.9 2.99 2.64 0 4.04-2.32 4.04-4.52zm6.678-2.86l-.65 3.04h-3.64l.65-3.04h-1.14l-1.54 7.25h1.14l.69-3.25h3.64l-.69 3.25h1.14l1.54-7.25h-1.14zm1.19 7.25h4.99l.21-.97h-3.85l.48-2.28h3.63l.2-.96h-3.62l.44-2.07h3.84l.21-.97h-4.99l-1.54 7.25zm7.732-7.25l-1.54 7.25h1.14l.6-2.81h1.06c2 0 3.58-.5 3.58-2.61 0-1.42-1.17-1.83-2.64-1.83h-2.2zm.94.94h1.1c.87 0 1.6.14 1.6.99 0 1.33-1.04 1.55-2.12 1.55h-1.12l.54-2.54z" fill="#151515"/></g><defs><clipPath id="clip0"><path fill="#fff" d="M0 0h116v80H0z"/></clipPath></defs></svg>