<svg width="151" height="96" viewBox="0 0 151 96" fill="none" xmlns="http://www.w3.org/2000/svg"><circle cx="20" cy="52" r="20" fill="#D1D8E1"/><circle cx="116.5" cy="61.5" r="34.5" fill="#D1D8E1"/><circle cx="70.5" cy="12.5" r="12.5" fill="#D1D8E1"/><g clip-path="url(#clip0)" fill="#231F20"><path d="M113.06 38.184c-.4 0-.807 0-1.211.036-.855-9.9-9.451-17.633-19.648-17.633-2.71.004-5.39.55-7.877 1.604a24.14 24.14 0 00-9.029-11.042A24.86 24.86 0 0061.497 7c-13.525 0-24.53 10.746-24.53 23.954 0 .366 0 .739.03 1.115-5.527.75-10.594 3.433-14.267 7.554-3.674 4.12-5.708 9.402-5.73 14.876a22.195 22.195 0 003.942 12.69 22.865 22.865 0 0010.547 8.306c2.293.919 6.364 1.44 6.71.666.139-.31-.207-.632-1.116-1.042a46.595 46.595 0 01-6.785-3.706c-4.329-2.994-6.612-6.078-7.762-8.13a18.69 18.69 0 01-2.144-8.784c.015-4.924 1.939-9.658 5.382-13.241 3.442-3.584 8.147-5.749 13.157-6.055a1.723 1.723 0 001.195-.595 1.654 1.654 0 00.383-1.258 20.54 20.54 0 01-.15-2.396c0-11.372 9.499-20.627 21.138-20.627a21.535 21.535 0 0112.57 4.084 20.86 20.86 0 017.665 10.588c.074.238.202.457.373.64a1.727 1.727 0 002.083.324 16.593 16.593 0 018.122-2.049 16.59 16.59 0 018.089 2.172 16.183 16.183 0 015.925 5.821 15.791 15.791 0 012.201 7.937v.196a1.638 1.638 0 00.585 1.277 1.71 1.71 0 001.372.386c.854-.13 1.717-.195 2.582-.196 4.378-.01 8.582 1.686 11.687 4.714 3.106 3.028 4.859 7.14 4.874 11.435 0 5.273-2.979 10.696-7.29 13.378-2.036 1.3-2.073 1.547-7.27 4.075-.583.283-1.228.666-1.041 1.062.125.272.709.392 1.519.392a17.356 17.356 0 005.54-1.071c4.192-1.785 7.628-4.935 9.725-8.918a19.127 19.127 0 001.789-12.939c-.941-4.386-3.398-8.32-6.954-11.135a20.09 20.09 0 00-12.566-4.316h-.017zM41.02 82.522v2.565h-1.336v-5.872h1.336v2.282h.743l1.696-2.282h1.527l-2.263 2.848 2.432 3.024H43.63l-1.985-2.565h-.624zm7.216 2.708c-1.458 0-2.95-.951-2.95-3.067s1.492-3.081 2.95-3.081c1.46 0 2.952.961 2.952 3.08 0 2.12-1.493 3.068-2.952 3.068zm1.581-3.067c0-1.355-.746-2.02-1.58-2.02-.835 0-1.581.665-1.581 2.02 0 1.354.746 1.996 1.58 1.996.835 0 1.581-.639 1.581-1.996zm6.534.425h-2.673v2.499h-1.326v-5.872h1.326v2.345h2.673v-2.345h1.323v5.872h-1.323v-2.499zm7.804 3.886v-1.387H59.78v1.387h-1.2v-2.402h.338c.679 0 1.018-.852 1.113-2.994l.088-1.867h4.366v4.858h.892v2.402l-1.22.003zm-2.883-6.234l-.055.998c-.091 1.55-.312 2.388-.78 2.838h2.714V80.24h-1.88zm9.258 4.847v-4.072l-2.85 4.072h-1.327v-5.872h1.327v4.092l2.85-4.092h1.326v5.872h-1.327zm8.81 1.387h-1.204v-1.387H73.35v-5.872h1.32v4.847h2.448v-4.847h1.327v4.847h.892l.003 2.412zm5.166-1.387v-4.072l-2.85 4.072H80.33v-5.872h1.326v4.092l2.85-4.092h1.326v5.872h-1.326zm5.322.143c-1.458 0-2.951-.951-2.951-3.067s1.493-3.081 2.951-3.081c1.459 0 2.952.961 2.952 3.08 0 2.12-1.49 3.068-2.952 3.068zm1.581-3.067c0-1.355-.746-2.02-1.58-2.02-.835 0-1.582.665-1.582 2.02 0 1.354.747 1.996 1.581 1.996.835 0 1.581-.639 1.581-1.996zm6.515.425h-2.67v2.499h-1.326v-5.872h1.326v2.345h2.67v-2.345h1.326v5.872h-1.326v-2.499zm5.448 1.561c.679 0 1.235-.273 1.469-.819h1.303a2.666 2.666 0 01-1.025 1.407 2.75 2.75 0 01-1.689.493c-1.927 0-3.03-1.44-3.03-3.124 0-1.767 1.239-3.024 2.942-3.024 1.835 0 2.981 1.464 2.873 3.44h-4.468c.088 1.091.869 1.627 1.625 1.627zm1.493-2.575a1.47 1.47 0 00-.45-1.05 1.514 1.514 0 00-1.077-.427 1.574 1.574 0 00-1.105.417 1.513 1.513 0 00-.486 1.06h3.118zm3.77-1.574c.187-.295.451-.536.765-.698a2.018 2.018 0 011.02-.22c1.459 0 2.571 1.19 2.571 3.067 0 1.877-1.112 3.081-2.571 3.081a2.018 2.018 0 01-1.02-.22 1.971 1.971 0 01-.765-.698V87h-1.323v-7.785h1.323V80zm2.976 2.15c0-1.232-.557-1.997-1.483-1.997-.868 0-1.547.665-1.547 1.996s.679 2.023 1.547 2.023c.926.013 1.483-.775 1.483-2.023z"/><path d="M41.445 63.605c2.29 0 4.24 1.48 4.24 4.428s-1.95 4.415-4.24 4.415-4.244-1.467-4.244-4.415 1.95-4.428 4.244-4.428zm0 6.52c.73 0 1.289-.532 1.289-2.092s-.56-2.106-1.289-2.106c-.73 0-1.29.546-1.29 2.106 0 1.56.557 2.093 1.29 2.093zm4.944-2.98v-.26c.084-3.07 1.017-5.629 4.749-5.988l2.507-.233v2.561l-3.08.333c-1.133.14-2.036.563-2.137 2.14.488-.955 1.563-1.265 2.523-1.265 1.876 0 3.566 1.331 3.566 3.883 0 2.748-2.12 4.118-4.139 4.118-2.168.014-3.99-1.556-3.99-5.29zm5.214 1.184c0-1.387-.604-1.793-1.249-1.793-.644 0-1.143.422-1.143 1.793 0 1.234.57 1.797 1.174 1.797s1.218-.486 1.218-1.797zm3.391 1.641h.258c.53 0 1.045-.533 1.174-3.308l.146-2.808h6.903v8.391h-2.863V66.13h-1.405l-.129 1.966c-.159 2.372-1.061 4.149-3.541 4.149h-.543v-2.276zm13.741-4.386a1.207 1.207 0 00-.885.268 1.165 1.165 0 00-.417.81h-2.467c.13-1.593 1.422-3.107 3.97-3.107 2.208 0 3.782.905 3.755 3.713v1.607c-.019 1.125.029 2.25.142 3.37h-2.666v-1.091c-.573.921-1.53 1.294-2.619 1.294-1.506 0-2.751-1.015-2.751-2.512 0-1.95 1.845-2.775 5.088-2.994v-.233c-.003-.938-.532-1.125-1.15-1.125zm-1.075 3.993c0 .359.275.765.946.765.747 0 1.378-.333 1.378-1.624v-.25c-1.52.11-2.324.393-2.324 1.125v-.016zm11.08-.093a8.41 8.41 0 01-1.92.22c-1.72 0-2.765-.876-2.765-2.746v-3.104h2.866v2.619c0 .951.299 1.108 1.116 1.108.238.002.474-.03.703-.094v-3.633h2.866v8.391H78.74v-2.761zm4.567-5.63h2.866v2.965h2.25v-2.965h2.87v8.391h-2.867v-3.15h-2.25v3.15H83.31l-.003-8.39zm9.703 0h2.863v2.449h1.018c2.405 0 3.422.905 3.422 2.931 0 2.262-.902 3.011-3.25 3.011H93.01v-8.39zm3.796 6.285c.587 0 .96-.186.96-.905 0-.639-.373-.825-.947-.825h-.946v1.73h.933zm4.471-6.285h2.863v8.391h-2.863v-8.39zm4.58 0h2.65v4.658l2.653-4.658h2.649v8.39h-2.649v-4.57l-2.653 4.57h-2.65v-8.39zm1.205-2.917h1.696c.071.372.431.562 1.075.562.645 0 1.018-.19 1.076-.562h1.696c-.116 1.154-1.018 1.95-2.779 1.95-1.76 0-2.68-.796-2.764-1.95z"/></g><defs><clipPath id="clip0"><path fill="#fff" transform="translate(17 7)" d="M0 0h116v80H0z"/></clipPath></defs></svg>