<svg width="134" height="93" viewBox="0 0 134 93" fill="none" xmlns="http://www.w3.org/2000/svg"><g clip-path="url(#clip0)"><path fill-rule="evenodd" clip-rule="evenodd" d="M110.966 36.25h.02a23.113 23.113 0 0114.515 5.02 22.578 22.578 0 018.033 12.944 22.351 22.351 0 01-2.066 15.041 22.798 22.798 0 01-11.234 10.367 19.938 19.938 0 01-6.399 1.245c-.937 0-1.611-.139-1.756-.456-.216-.46.529-.905 1.203-1.234 4.847-2.373 5.809-3.017 7.237-3.972.341-.228.708-.474 1.161-.766 4.98-3.117 8.421-9.421 8.421-15.551a18.718 18.718 0 00-5.629-13.294 19.22 19.22 0 00-13.502-5.48c-.999.001-1.996.078-2.982.229a1.985 1.985 0 01-1.585-.45 1.94 1.94 0 01-.504-.668 1.9 1.9 0 01-.172-.816v-.228a18.45 18.45 0 00-2.542-9.226 18.762 18.762 0 00-6.845-6.767 19.062 19.062 0 00-9.344-2.525 19.072 19.072 0 00-9.382 2.382 1.98 1.98 0 01-2.406-.377 1.929 1.929 0 01-.431-.744 24.243 24.243 0 00-8.856-12.31 24.77 24.77 0 00-14.52-4.746c-13.444 0-24.417 10.76-24.417 23.979.004.93.061 1.86.173 2.784a1.91 1.91 0 01-.442 1.464 1.954 1.954 0 01-1.38.69 22.964 22.964 0 00-15.2 7.04 22.383 22.383 0 00-6.216 15.393 21.839 21.839 0 002.476 10.21c1.329 2.386 3.966 5.972 8.966 9.452a53.716 53.716 0 007.839 4.31c1.05.476 1.45.85 1.29 1.21-.4.902-5.103.294-7.752-.773A26.44 26.44 0 014.554 69.97 25.915 25.915 0 010 55.218a26.229 26.229 0 016.62-17.294c4.244-4.79 10.096-7.908 16.482-8.782-.035-.437-.035-.87-.035-1.295C23.066 12.492 35.778 0 51.402 0a28.59 28.59 0 0115.94 4.823A28.026 28.026 0 0177.77 17.659a23.269 23.269 0 019.099-1.864c11.78 0 21.71 8.989 22.697 20.498.466-.042.937-.042 1.399-.042zM27.747 90.777v-2.982h.721l2.293 2.982h1.763l-2.81-3.516 2.614-3.31h-1.763l-1.96 2.653h-.858V83.95h-1.544v6.826h1.544zm8.336.166c-1.685 0-3.41-1.106-3.41-3.566s1.725-3.58 3.41-3.58 3.41 1.117 3.41 3.58c0 2.464-1.725 3.566-3.41 3.566zm1.826-3.566c0-1.574-.862-2.347-1.826-2.347-.964 0-1.826.773-1.826 2.347 0 1.575.862 2.321 1.826 2.321.964 0 1.826-.743 1.826-2.32zm4.46.495h3.087v2.905h1.528V83.95h-1.528v2.726h-3.088V83.95h-1.532v6.826h1.532v-2.905zm12.103 4.518v-1.613h-5.056v1.613H48.03v-2.792h.392c.784 0 1.176-.99 1.285-3.481l.102-2.17h5.044v5.647h1.03v2.792l-1.41.004zm-3.331-7.248l-.063 1.16c-.106 1.803-.36 2.777-.901 3.3h3.135v-4.46H51.14zm10.695.901v4.734h1.532V83.95h-1.532l-3.292 4.757V83.95h-1.532v6.826h1.532l3.292-4.734zm10.178 6.347h-1.391v-1.613h-5.53V83.95h1.525v5.635h2.83V83.95h1.532v5.635h1.03l.004 2.804zm5.968-6.347v4.734h1.532V83.95h-1.532l-3.292 4.757V83.95h-1.532v6.826h1.532l3.292-4.734zm6.148 4.9c-1.685 0-3.41-1.106-3.41-3.566s1.725-3.58 3.41-3.58 3.41 1.117 3.41 3.58c0 2.464-1.721 3.566-3.41 3.566zm1.826-3.566c0-1.574-.862-2.347-1.826-2.347-.964 0-1.826.773-1.826 2.347 0 1.575.862 2.321 1.826 2.321.964 0 1.826-.743 1.826-2.32zm4.441.495h3.084v2.905h1.533V83.95h-1.532v2.726h-3.085V83.95h-1.532v6.826h1.532v-2.905zm9.376 1.815c.783 0 1.426-.318 1.696-.952h1.505a3.094 3.094 0 01-1.183 1.636c-.568.4-1.255.601-1.952.572-2.226 0-3.5-1.674-3.5-3.631 0-2.054 1.431-3.516 3.398-3.516 2.12 0 3.445 1.702 3.319 4h-5.16c.102 1.268 1.003 1.89 1.877 1.89zm1.724-2.994a1.712 1.712 0 00-.519-1.221 1.754 1.754 0 00-1.245-.496 1.812 1.812 0 00-1.276.485 1.765 1.765 0 00-.561 1.232h3.601zm5.243-2.64a2.282 2.282 0 00-.884.81v-.912h-1.528V93h1.528v-3.125a2.312 2.312 0 002.062 1.067c1.685 0 2.97-1.4 2.97-3.58 0-2.182-1.285-3.567-2.97-3.567a2.316 2.316 0 00-1.178.257zm.841.989c1.069 0 1.712.89 1.712 2.32 0 1.45-.643 2.367-1.712 2.352-1.004 0-1.787-.805-1.787-2.352 0-1.547.783-2.32 1.787-2.32zM28.238 65.803c2.645 0 4.899 1.721 4.899 5.148 0 3.427-2.254 5.132-4.899 5.132s-4.902-1.705-4.902-5.132c0-3.427 2.253-5.148 4.902-5.148zm0 7.58c.843 0 1.49-.618 1.49-2.432s-.647-2.448-1.49-2.448c-.842 0-1.489.634-1.489 2.448s.643 2.433 1.49 2.433zm5.711-3.766v.301c0 4.34 2.105 6.165 4.609 6.15 2.331 0 4.78-1.594 4.78-4.788 0-2.967-1.951-4.514-4.118-4.514-1.11 0-2.351.36-2.916 1.47.118-1.833 1.16-2.325 2.47-2.487l3.557-.387v-2.978l-2.896.271c-4.31.418-5.388 3.392-5.486 6.962zm4.581-.406c.745 0 1.442.471 1.442 2.084 0 1.524-.709 2.089-1.407 2.089-.697 0-1.355-.654-1.355-2.089 0-1.593.576-2.084 1.32-2.084zm5.359 3.99h.297c.612 0 1.208-.618 1.356-3.843l.169-3.265h7.974v9.754h-3.307V68.74h-1.622l-.15 2.285c-.183 2.758-1.226 4.823-4.09 4.823h-.627v-2.645zm15.33-5.044c.176-.053.36-.071.544-.053.713 0 1.324.217 1.328 1.308v.27c-3.746.256-5.878 1.215-5.878 3.481 0 1.74 1.438 2.92 3.178 2.92 1.258 0 2.363-.433 3.025-1.504v1.268h3.08a33.59 33.59 0 01-.164-3.918v-1.868c.031-3.264-1.787-4.316-4.338-4.316-2.943 0-4.436 1.76-4.585 3.612h2.849a1.336 1.336 0 01.482-.942 1.37 1.37 0 01.48-.258zm.395 5.478c-.77 0-1.09-.465-1.094-.88.008-.844.936-1.17 2.685-1.297v.29c0 1.5-.73 1.887-1.591 1.887zm11.706-.998a9.654 9.654 0 01-2.218.255c-1.987 0-3.194-1.017-3.194-3.19v-3.609h3.311v3.044c0 1.106.345 1.288 1.29 1.288.274.002.547-.034.81-.108v-4.224h3.312v9.754H71.32v-3.21zm8.585-6.544h-3.311l.004 9.754h3.311v-3.662h2.598v3.662h3.311v-9.754h-3.315v3.446h-2.598v-3.446zm7.898 0h3.307v2.847h1.176c2.778 0 3.954 1.052 3.954 3.407 0 2.63-1.043 3.5-3.754 3.5h-4.683v-9.754zm4.385 7.306c.678 0 1.109-.216 1.109-1.052 0-.742-.431-.959-1.094-.959H91.11v2.011h1.078zm5.165-7.306h3.307v9.754h-3.307v-9.754zm8.354 0h-3.061v9.754h3.061l3.064-5.314v5.314h3.061v-9.754h-3.061l-3.064 5.415v-5.415zm.29-3.392h-1.959c.098 1.342 1.16 2.267 3.193 2.267 2.034 0 3.077-.925 3.21-2.267h-1.96c-.066.433-.497.654-1.242.654-.744 0-1.16-.22-1.242-.654z" fill="#231F20"/></g><defs><clipPath id="clip0"><path fill="#fff" d="M0 0h134v93H0z"/></clipPath></defs></svg>