<svg width="116" height="80" viewBox="0 0 116 80" fill="none" xmlns="http://www.w3.org/2000/svg"><g clip-path="url(#clip0)" fill="#231F20"><path d="M97.494 30.33a6.004 6.004 0 01-.914-.75l-.391-.391a6.396 6.396 0 01-1.133-1.556c-4.004-7.626-10.028-14.046-19.855-14.046a20.3 20.3 0 00-1.985.1c-3.338.332-6.872-1.111-8.873-3.803a24.31 24.31 0 00-6.048-5.735A24.86 24.86 0 0044.497 0c-12.9 0-21.721 9.553-25.052 20.415-.316 1.03-.793 2.037-1.277 3l-.022.042c-.366.725-1.038 1.194-1.785 1.513-4.349 1.856-7.245 3.855-10.631 7.653C2.056 36.743.022 42.025 0 47.499a22.195 22.195 0 003.942 12.69 22.866 22.866 0 0010.547 8.306c2.293.919 6.364 1.44 6.71.666.139-.31-.207-.632-1.116-1.042a46.595 46.595 0 01-6.785-3.706c-4.329-2.994-6.612-6.078-7.762-8.13a18.69 18.69 0 01-2.144-8.784c.015-4.924 1.939-9.658 5.382-13.241 3.443-3.584 8.147-5.749 13.157-6.055a1.723 1.723 0 001.195-.595 1.654 1.654 0 00.383-1.259 20.54 20.54 0 01-.15-2.395c0-11.372 9.499-20.627 21.138-20.627a21.535 21.535 0 0112.57 4.084 20.86 20.86 0 017.665 10.588c.074.238.202.457.373.64a1.727 1.727 0 002.083.324 16.593 16.593 0 018.122-2.049 16.59 16.59 0 018.089 2.172 16.187 16.187 0 015.925 5.821 15.79 15.79 0 012.2 7.937v.196a1.668 1.668 0 00.585 1.277 1.708 1.708 0 001.373.386c.854-.13 1.717-.195 2.582-.196 4.378-.01 8.582 1.686 11.687 4.714 3.106 3.028 4.859 7.14 4.874 11.435 0 5.273-2.979 10.696-7.29 13.378-2.036 1.3-2.073 1.547-7.27 4.075-.584.283-1.228.666-1.041 1.062.125.272.709.392 1.52.392a17.356 17.356 0 005.539-1.071c4.192-1.785 7.628-4.935 9.725-8.918a19.127 19.127 0 001.789-12.939c-.941-4.386-3.398-8.32-6.954-11.135-3.256-2.577-5.279-3.369-9.049-4.251a6.197 6.197 0 01-2.026-.87l-.074-.05zM24.439 75.522a.419.419 0 00-.419.419v1.478a.668.668 0 11-1.336 0v-4.536a.668.668 0 111.336 0v1.12a.494.494 0 00.891.295l1.37-1.844a.593.593 0 11.94.723l-.868 1.093a1.267 1.267 0 00.005 1.582l1.023 1.272a.592.592 0 11-.93.733l-1.68-2.173a.419.419 0 00-.332-.162zm14.912 1.316c0-.69-.56-1.25-1.25-1.25h-.174c-.69 0-1.249.56-1.249 1.25v.586a.663.663 0 01-1.326 0v-4.546a.663.663 0 111.326 0v.51c0 .647.525 1.172 1.173 1.172h.327c.648 0 1.173-.525 1.173-1.172v-.512a.662.662 0 011.323 0v4.55a.662.662 0 01-1.323 0v-.588zm8.416 2.635a.61.61 0 01-.612-.611v-.082a.693.693 0 00-.693-.693h-2.99a.694.694 0 00-.693.694v.093a.6.6 0 11-1.2 0v-1.462a.34.34 0 01.338-.34c.679 0 1.018-.852 1.113-2.994a1.959 1.959 0 011.957-1.867h.497a2 2 0 012 2v2.412c0 .246.2.446.446.446.247 0 .446.2.446.446v1.347a.61.61 0 01-.609.61zm-2.581-6.233c-.513 0-.936.4-.964.912l-.005.086c-.023.4-.056.752-.098 1.063-.096.695.552 1.775 1.254 1.775.43 0 .778-.349.778-.779v-2.092a.965.965 0 00-.965-.965zm9.007 4.847a.663.663 0 01-.664-.663v-.313c0-.954-1.228-1.341-1.775-.56l-.814 1.164a.872.872 0 01-1.587-.5v-4.337a.663.663 0 111.327 0v.314c0 .958 1.233 1.345 1.78.56l.81-1.164a.872.872 0 011.586.498v4.338a.663.663 0 01-.663.663zm8.147.785a.602.602 0 11-1.204 0v-.091a.694.694 0 00-.694-.694H58.35a2 2 0 01-2-2v-3.212a.66.66 0 111.32 0v2.963a1.225 1.225 0 002.448 0v-2.96a.663.663 0 111.327 0v3.738c0 .246.2.446.446.446.247 0 .446.2.447.446l.002 1.364zm5.83-.785a.663.663 0 01-.664-.663v-.313c0-.954-1.228-1.341-1.775-.56l-.814 1.164a.872.872 0 01-1.587-.5v-4.337a.663.663 0 111.326 0v.314c0 .958 1.233 1.345 1.78.56l.81-1.164a.872.872 0 011.586.498v4.338a.663.663 0 01-.663.663zm4.658.143c-1.458 0-2.951-.951-2.951-3.067s1.493-3.081 2.951-3.081c1.459 0 2.952.961 2.952 3.08 0 2.12-1.49 3.068-2.952 3.068zm1.581-3.067c0-1.355-.746-2.02-1.58-2.02-.835 0-1.582.665-1.582 2.02 0 1.354.747 1.996 1.581 1.996.835 0 1.581-.639 1.581-1.996zm6.515 1.675c0-.69-.56-1.25-1.25-1.25h-.17c-.69 0-1.25.56-1.25 1.25v.586a.663.663 0 11-1.326 0v-4.546a.663.663 0 011.326 0v.51c0 .647.525 1.172 1.173 1.172h.324c.648 0 1.173-.525 1.173-1.172v-.51a.663.663 0 111.326 0v4.546a.663.663 0 01-1.326 0v-.586zm5.448.311c.51 0 .95-.154 1.237-.462.177-.19.4-.357.66-.357.435 0 .742.428.487.78a2.69 2.69 0 01-.637.627 2.752 2.752 0 01-1.69.493c-1.926 0-3.029-1.44-3.029-3.124 0-1.767 1.239-3.024 2.941-3.024 1.193 0 2.095.618 2.55 1.594.45.962-.507 1.846-1.57 1.846h-.406c-1.168 0-2.05 1.315-.913 1.584.122.028.246.043.37.043zm.907-2.575c.323 0 .595-.273.468-.57a1.48 1.48 0 00-.332-.48 1.514 1.514 0 00-1.077-.427 1.574 1.574 0 00-1.105.417c-.48.445.056 1.06.71 1.06h1.336zm4.356-2.183c0 .177.265.266.4.153a2.017 2.017 0 011.385-.462c1.459 0 2.571 1.19 2.571 3.067 0 1.877-1.112 3.081-2.571 3.081a2.017 2.017 0 01-1.02-.22c-.27-.14-.765.045-.765.35v1.036c0 .334-.27.604-.603.604h-.058a.662.662 0 01-.662-.662v-6.462c0-.365.297-.661.662-.661h.485c.098 0 .176.079.176.176zm2.975 2.758c0-1.23-.556-1.996-1.482-1.996-.868 0-1.547.665-1.547 1.996s.679 2.023 1.547 2.023c.926.013 1.483-.775 1.483-2.023z"/><path d="M29.389 60.145v-.26c.085-3.07 1.017-5.629 4.749-5.988l1.104-.103a1.284 1.284 0 01.257 2.555l-1.934.21a5.02 5.02 0 00-.39.062c-.655.133.108.812.776.812 1.876 0 3.566 1.331 3.566 3.883 0 2.748-2.12 4.118-4.139 4.118-2.168.014-3.99-1.556-3.99-5.29zm5.214 1.184c0-1.387-.604-1.793-1.249-1.793-.644 0-1.143.422-1.143 1.793 0 1.234.57 1.797 1.174 1.797s1.218-.486 1.218-1.797zm3.391 1.898c0-.142.116-.258.258-.258.53 0 1.045-.532 1.174-3.307l.047-.911a2 2 0 011.997-1.897h3.005a2 2 0 012 2v4.96a1.432 1.432 0 11-2.863 0v-3.959a.725.725 0 00-1.449-.047l-.084 1.288c-.16 2.372-1.062 4.149-3.542 4.149a.543.543 0 01-.543-.543v-1.475zm13.741-4.643a1.207 1.207 0 00-.885.268c-.121.1-.22.224-.293.363-.12.234-.329.447-.592.447h-.674c-.714 0-1.292-.633-.955-1.262.562-1.047 1.75-1.845 3.6-1.845 2.208 0 3.782.905 3.755 3.713v1.607c-.011.658 0 1.316.035 1.974.04.748-.544 1.396-1.293 1.396h-1.024a.243.243 0 01-.242-.243c0-.243-.366-.365-.554-.21-.555.46-1.275.656-2.065.656-1.506 0-2.751-1.015-2.751-2.512 0-1.902 1.757-2.734 4.855-2.977a.252.252 0 00.233-.25c-.003-.938-.532-1.125-1.15-1.125zm-1.075 3.993c0 .359.275.765.946.765.747 0 1.378-.333 1.378-1.624a.23.23 0 00-.25-.23c-1.358.124-2.074.414-2.074 1.105v-.016zm11.08 1.446c0-.787-.737-1.365-1.523-1.329a8.48 8.48 0 01-.398.01c-1.72 0-2.764-.876-2.764-2.746v-1.67a1.433 1.433 0 012.866 0v1.185c0 .951.299 1.108 1.116 1.108.42.003.703-.384.703-.804v-1.49a1.433 1.433 0 012.866 0v5.525c0 .791-.642 1.433-1.433 1.433h-.212a1.222 1.222 0 01-1.221-1.222zm4.567-5.735a1.433 1.433 0 112.866 0v.406a1.125 1.125 0 102.25 0v-.405a1.435 1.435 0 012.87 0v5.523a1.433 1.433 0 11-2.867 0v-.593a1.125 1.125 0 10-2.25 0v.592a1.434 1.434 0 01-2.867.001l-.002-5.524zm9.703-.002c0-.79.64-1.432 1.431-1.432h.208c.676 0 1.224.549 1.224 1.225v.206c0 .562.456 1.018 1.018 1.018 2.405 0 3.422.905 3.422 2.931 0 2.262-.902 3.011-3.25 3.011H78.01a2 2 0 01-2-2v-4.96zm3.796 4.853c.587 0 .96-.186.96-.905 0-.639-.373-.825-.947-.825h-.081a.865.865 0 000 1.73h.068zm4.47-4.853a1.432 1.432 0 012.864 0v5.527a1.432 1.432 0 11-2.863 0v-5.527zm4.581-1.432h2.65v4.658l2.653-4.658h2.649v8.39h-2.65v-4.57l-2.652 4.57h-2.65v-8.39zm1.205-2.917h1.696c.071.372.43.562 1.075.562s1.018-.19 1.076-.562h1.696c-.116 1.154-1.018 1.95-2.779 1.95-1.76 0-2.68-.796-2.764-1.95zm-65.617 2.668c2.29 0 4.24 1.48 4.24 4.428s-1.95 4.415-4.24 4.415-4.244-1.467-4.244-4.415 1.95-4.428 4.244-4.428zm0 6.52c.73 0 1.289-.532 1.289-2.092s-.56-2.106-1.289-2.106c-.73 0-1.29.546-1.29 2.106 0 1.56.557 2.093 1.29 2.093zm6.791 15.105c-1.458 0-2.95-.951-2.95-3.067s1.492-3.081 2.95-3.081c1.46 0 2.952.961 2.952 3.08 0 2.12-1.493 3.068-2.952 3.068zm1.581-3.067c0-1.355-.746-2.02-1.58-2.02-.835 0-1.581.665-1.581 2.02 0 1.354.746 1.996 1.58 1.996.835 0 1.581-.639 1.581-1.996z"/></g><defs><clipPath id="clip0"><path fill="#fff" d="M0 0h116v80H0z"/></clipPath></defs></svg>