<svg width="133" height="91" viewBox="0 0 133 91" fill="none" xmlns="http://www.w3.org/2000/svg"><g clip-path="url(#clip0)" fill="#1D1D1B"><path d="M110.138 36.252c-.459 0-.926 0-1.389.043-.98-11.51-10.836-20.5-22.527-20.5-3.107.005-6.18.64-9.032 1.865A27.985 27.985 0 0066.84 4.823 28.225 28.225 0 0051.019 0C35.51 0 22.893 12.493 22.893 27.848c0 .425 0 .858.035 1.295a26.62 26.62 0 00-16.36 8.782A26.343 26.343 0 000 55.22a26.054 26.054 0 004.52 14.752 26.278 26.278 0 0012.092 9.657c2.63 1.067 7.297 1.675 7.693.773.16-.36-.237-.734-1.28-1.21a53.201 53.201 0 01-7.778-4.309c-4.963-3.48-7.58-7.066-8.9-9.453A21.973 21.973 0 013.89 55.22a22.473 22.473 0 016.17-15.394 22.72 22.72 0 0115.085-7.04 1.952 1.952 0 001.37-.69 1.93 1.93 0 00.44-1.463 24.182 24.182 0 01-.172-2.785c0-13.22 10.89-23.98 24.235-23.98A24.462 24.462 0 0165.43 8.615a24.239 24.239 0 018.789 12.31 1.93 1.93 0 001.137 1.232 1.954 1.954 0 001.679-.11 18.818 18.818 0 0118.586.142 18.686 18.686 0 016.794 6.767 18.565 18.565 0 012.523 9.226v.228a1.917 1.917 0 00.671 1.485 1.946 1.946 0 001.573.45 19.487 19.487 0 012.96-.229c5.02-.011 9.84 1.96 13.401 5.48a18.786 18.786 0 015.587 13.294c0 6.13-3.415 12.435-8.358 15.552-2.334 1.513-2.377 1.799-8.335 4.738-.669.329-1.408.774-1.194 1.234.143.317.812.456 1.742.456a19.652 19.652 0 006.351-1.245 22.696 22.696 0 0011.151-10.367 22.507 22.507 0 002.051-15.042 22.607 22.607 0 00-7.974-12.945 22.827 22.827 0 00-14.407-5.019h-.019z"/><path d="M30.569 69.913c-.086-.657-.564-1.427-1.346-1.427-1.19 0-1.525 1.118-1.525 2.506 0 1.389.39 2.526 1.51 2.526.843 0 1.31-.75 1.407-1.389h3.054c-.335 2.193-2.023 4.116-4.594 4.116-3.111 0-4.757-2.14-4.757-5.233 0-3.095 1.922-5.26 4.773-5.26 2.621 0 4.243 1.957 4.527 4.153l-3.05.008zm4.355 6.077V62.72h3.314v13.27h-3.314zm9.596-10.138c2.652 0 4.908 1.737 4.908 5.194 0 3.458-2.255 5.183-4.908 5.183-2.653 0-4.905-1.721-4.905-5.183 0-3.461 2.252-5.194 4.905-5.194zm0 7.647c.848 0 1.493-.62 1.493-2.453 0-1.833-.645-2.467-1.493-2.467-.848 0-1.49.638-1.49 2.467 0 1.83.646 2.441 1.49 2.441v.012zm9.115 2.731c-.995 0-1.84-.295-2.333-.972-.447-.588-.68-1.5-.68-3.129v-5.99h3.317v5.252c-.047.483.037.971.245 1.411a.959.959 0 00.832.387c.743 0 1.19-.53 1.19-1.996v-5.055h3.302v9.847h-3.306v-1.338a2.762 2.762 0 01-1.047 1.17c-.456.28-.984.423-1.52.412zM70.79 62.72v13.27h-3.315v-1.343a2.899 2.899 0 01-1.108 1.186 2.92 2.92 0 01-1.575.408c-1.992 0-3.89-1.76-3.89-5.164 0-3.403 1.906-5.14 3.89-5.14a2.92 2.92 0 011.575.406c.475.281.86.692 1.108 1.184V62.73l3.314-.012zm-6.348 8.346c0 1.392.599 2.433 1.556 2.433.956 0 1.61-.952 1.61-2.433 0-1.481-.68-2.414-1.61-2.414s-1.54 1.021-1.54 2.414h-.016zM28.95 86.556v-.128c0-1.16-.676-1.547-1.43-1.547a1.26 1.26 0 00-1.277.731 1.24 1.24 0 00-.108.507h-1.498c.105-1.4 1.268-2.356 2.933-2.356 1.665 0 2.944.75 2.905 2.94 0 .344-.023 1.16-.023 1.771-.008.778.06 1.556.202 2.321h-1.396a5.617 5.617 0 01-.124-.928c-.436.738-1.257 1.094-2.268 1.094-1.497 0-2.548-.8-2.548-2.05 0-1.667 2.132-2.1 4.633-2.355zm-3.017 2.355c0 .6.497.956 1.267.956 1.125 0 1.79-.573 1.79-1.73v-.521c-2.175.2-3.057.506-3.057 1.295zm7.601-5.778H32.01v-1.524h1.524v1.524zm0 7.7H32.01v-6.85h1.524v6.85zm4.75-5.356c-.96 0-1.513.387-1.513 1.756v3.59H35.25v-6.839h1.497v1.222a2.05 2.05 0 01.75-.892c.331-.219.72-.337 1.117-.342.13.002.26.01.39.028v1.527a6.868 6.868 0 00-.72-.05zm9.14.851a1.546 1.546 0 00-.572-.912 1.562 1.562 0 00-1.03-.322c-.946 0-1.805.7-1.805 2.32 0 1.621.87 2.321 1.765 2.321a1.59 1.59 0 001.085-.302 1.57 1.57 0 00.607-.943h1.486a3.138 3.138 0 01-1.14 1.835 3.17 3.17 0 01-2.06.671c-2 0-3.319-1.547-3.319-3.577 0-2.03 1.334-3.59 3.38-3.59a3.045 3.045 0 012.01.675 3.014 3.014 0 011.075 1.82l-1.482.004zM53.095 91c-1.68 0-3.396-1.106-3.396-3.578 0-2.471 1.715-3.589 3.396-3.589 1.68 0 3.391 1.122 3.391 3.59 0 2.467-1.715 3.577-3.391 3.577zm1.816-3.578c0-1.578-.86-2.355-1.816-2.355-.957 0-1.82.774-1.82 2.356 0 1.581.859 2.343 1.82 2.343.96 0 1.816-.766 1.816-2.355v.011zm6.439-3.589c1.664 0 2.333 1.067 2.333 2.707v4.301H62.16v-3.94c0-.93-.14-1.834-1.307-1.834-1.167 0-1.599.893-1.599 2.127v3.64h-1.525v-6.85h1.525v.955a2.254 2.254 0 012.096-1.106zm10.026-2.223v9.228H69.85v-.902a2.279 2.279 0 01-2.05 1.068c-1.625 0-2.994-1.389-2.994-3.59 0-2.2 1.369-3.577 2.995-3.577a2.294 2.294 0 012.05 1.067V81.61h1.524zm-4.983 5.8c0 1.451.732 2.356 1.743 2.356 1.011 0 1.778-.773 1.778-2.355 0-1.582-.778-2.344-1.778-2.344s-1.742.905-1.742 2.344zm8.219-4.277h-1.524v-1.524h1.525v1.524zm0 7.7h-1.524v-6.85h1.525v6.85zm3.458-8.655v1.806h1.38v1.106h-1.38v3.729c0 .7.166.866.816.866h.552v1.16H78.31c-1.47 0-1.766-.386-1.766-1.794v-3.96h-1.022v-1.1h1.022v-1.805l1.525-.008zm4.134.955H80.68v-1.524h1.524v1.524zm0 7.7H80.68v-6.85h1.524v6.85zm4.649.167c-1.68 0-3.396-1.106-3.396-3.578 0-2.471 1.715-3.589 3.396-3.589 1.68 0 3.383 1.122 3.383 3.578 0 2.456-1.707 3.59-3.383 3.59zm1.828-3.59c0-1.577-.86-2.355-1.817-2.355s-1.82.774-1.82 2.356c0 1.582.86 2.344 1.82 2.344.96 0 1.817-.754 1.817-2.344zm6.425-3.577c1.664 0 2.333 1.068 2.333 2.708v4.3h-1.524v-3.94c0-.929-.14-1.834-1.307-1.834-1.167 0-1.599.893-1.599 2.127v3.64h-1.525v-6.85h1.525v.955a2.235 2.235 0 012.097-1.106zm6.887 5.898c.778 0 1.42-.317 1.688-.955h1.501a3.091 3.091 0 01-1.172 1.64 3.123 3.123 0 01-1.939.576c-2.213 0-3.481-1.678-3.481-3.64 0-2.06 1.423-3.527 3.38-3.527 2.112 0 3.43 1.706 3.302 4.011h-5.146c.101 1.28 1 1.895 1.867 1.895zm1.715-3.005a1.712 1.712 0 00-1.085-1.593 1.742 1.742 0 00-.669-.124c-.47-.01-.926.164-1.268.485a1.77 1.77 0 00-.56 1.232h3.582zm5.839-1.249c-.96 0-1.513.387-1.513 1.756v3.59h-1.52v-6.839h1.497v1.222a2.064 2.064 0 011.867-1.234c.13.002.26.01.389.028v1.527a6.874 6.874 0 00-.72-.05z"/></g><defs><clipPath id="clip0"><path fill="#fff" d="M0 0h133v91H0z"/></clipPath></defs></svg>