<svg width="116" height="80" viewBox="0 0 116 80" fill="none" xmlns="http://www.w3.org/2000/svg"><g clip-path="url(#clip0)"><path d="M96.06 31.183c-.4 0-.807 0-1.21.037-.856-9.9-9.452-17.633-19.65-17.633-2.709.004-5.389.55-7.876 1.604a24.14 24.14 0 00-9.029-11.042A24.86 24.86 0 0044.497 0c-13.525 0-24.53 10.746-24.53 23.954 0 .366 0 .739.03 1.115-5.527.75-10.594 3.433-14.267 7.554C2.056 36.743.022 42.025 0 47.499a22.195 22.195 0 003.942 12.69 22.866 22.866 0 0010.547 8.306c2.293.919 6.364 1.44 6.71.666.139-.31-.207-.632-1.116-1.042a46.595 46.595 0 01-6.785-3.706c-4.329-2.994-6.612-6.078-7.762-8.13a18.69 18.69 0 01-2.144-8.784c.015-4.924 1.939-9.658 5.382-13.241 3.443-3.584 8.147-5.749 13.157-6.055a1.723 1.723 0 001.195-.595 1.654 1.654 0 00.383-1.259 20.54 20.54 0 01-.15-2.395c0-11.372 9.499-20.627 21.138-20.627a21.535 21.535 0 0112.57 4.084 20.86 20.86 0 017.665 10.588c.074.238.202.457.373.64a1.727 1.727 0 002.083.324 16.593 16.593 0 018.122-2.049 16.59 16.59 0 018.089 2.172 16.187 16.187 0 015.925 5.821 15.79 15.79 0 012.2 7.937v.196a1.668 1.668 0 00.585 1.277 1.708 1.708 0 001.373.386c.854-.13 1.717-.195 2.582-.196 4.378-.01 8.582 1.686 11.687 4.714 3.106 3.028 4.859 7.14 4.874 11.435 0 5.273-2.979 10.696-7.29 13.378-2.036 1.3-2.073 1.547-7.27 4.075-.584.283-1.228.666-1.041 1.062.125.272.709.392 1.52.392a17.356 17.356 0 005.539-1.071c4.192-1.785 7.628-4.935 9.725-8.918a19.127 19.127 0 001.789-12.939c-.941-4.386-3.398-8.32-6.954-11.135a20.089 20.089 0 00-12.566-4.317h-.017z" fill="url(#paint0_linear)"/><path d="M24.02 75.522v2.565h-1.336v-5.872h1.336v2.282h.743l1.696-2.282h1.527l-2.263 2.848 2.432 3.024H26.63l-1.985-2.565h-.624z" fill="url(#paint1_linear)"/><path d="M31.236 78.23c-1.458 0-2.95-.951-2.95-3.067s1.492-3.081 2.95-3.081c1.46 0 2.952.961 2.952 3.08 0 2.12-1.493 3.068-2.952 3.068zm1.581-3.067c0-1.355-.746-2.02-1.58-2.02-.835 0-1.581.665-1.581 2.02 0 1.354.746 1.996 1.58 1.996.835 0 1.581-.639 1.581-1.996z" fill="url(#paint2_linear)"/><path d="M39.351 75.588h-2.673v2.499h-1.326v-5.872h1.326v2.345h2.673v-2.345h1.323v5.872h-1.323v-2.499z" fill="url(#paint3_linear)"/><path d="M47.155 79.474v-1.387H42.78v1.387h-1.2v-2.402h.338c.679 0 1.018-.852 1.113-2.994l.088-1.867h4.366v4.858h.892v2.402l-1.22.003zm-2.883-6.234l-.055.998c-.091 1.55-.312 2.388-.78 2.838h2.714V73.24h-1.88z" fill="url(#paint4_linear)"/><path d="M53.53 78.087v-4.072l-2.85 4.072h-1.327v-5.872h1.327v4.092l2.85-4.092h1.326v5.872h-1.327z" fill="url(#paint5_linear)"/><path d="M62.34 79.474h-1.204v-1.387H56.35v-5.872h1.32v4.847h2.448v-4.847h1.327v4.847h.892l.003 2.412z" fill="url(#paint6_linear)"/><path d="M67.506 78.087v-4.072l-2.85 4.072H63.33v-5.872h1.326v4.092l2.85-4.092h1.326v5.872h-1.326z" fill="url(#paint7_linear)"/><path d="M72.828 78.23c-1.458 0-2.951-.951-2.951-3.067s1.493-3.081 2.951-3.081c1.459 0 2.952.961 2.952 3.08 0 2.12-1.49 3.068-2.952 3.068zm1.581-3.067c0-1.355-.746-2.02-1.58-2.02-.835 0-1.582.665-1.582 2.02 0 1.354.747 1.996 1.581 1.996.835 0 1.581-.639 1.581-1.996z" fill="url(#paint8_linear)"/><path d="M80.924 75.588h-2.67v2.499h-1.326v-5.872h1.326v2.345h2.67v-2.345h1.326v5.872h-1.326v-2.499z" fill="url(#paint9_linear)"/><path d="M86.372 77.149c.678 0 1.235-.273 1.469-.819h1.303a2.664 2.664 0 01-1.025 1.407 2.752 2.752 0 01-1.69.493c-1.926 0-3.029-1.44-3.029-3.124 0-1.767 1.239-3.024 2.941-3.024 1.836 0 2.982 1.464 2.874 3.44h-4.468c.088 1.091.869 1.627 1.625 1.627zm1.493-2.575a1.458 1.458 0 00-.45-1.05 1.514 1.514 0 00-1.077-.427 1.574 1.574 0 00-1.105.417 1.514 1.514 0 00-.486 1.06h3.118z" fill="url(#paint10_linear)"/><path d="M91.635 73a1.97 1.97 0 01.765-.698 2.017 2.017 0 011.02-.22c1.459 0 2.571 1.19 2.571 3.067 0 1.877-1.112 3.081-2.571 3.081a2.017 2.017 0 01-1.02-.22 1.97 1.97 0 01-.765-.698V80h-1.323v-7.785h1.323V73zm2.975 2.15c0-1.232-.556-1.997-1.482-1.997-.868 0-1.547.665-1.547 1.996s.679 2.023 1.547 2.023c.926.013 1.483-.775 1.483-2.023z" fill="url(#paint11_linear)"/><path d="M24.445 56.605c2.29 0 4.24 1.48 4.24 4.428s-1.95 4.415-4.24 4.415-4.244-1.467-4.244-4.415 1.95-4.428 4.244-4.428zm0 6.52c.73 0 1.289-.532 1.289-2.092s-.56-2.106-1.289-2.106c-.73 0-1.29.546-1.29 2.106 0 1.56.557 2.093 1.29 2.093z" fill="url(#paint12_linear)"/><path d="M29.389 60.145v-.26c.085-3.07 1.017-5.629 4.749-5.988l2.507-.233v2.561l-3.08.333c-1.133.14-2.036.563-2.137 2.14.488-.955 1.563-1.265 2.523-1.265 1.876 0 3.566 1.331 3.566 3.883 0 2.748-2.12 4.118-4.139 4.118-2.168.014-3.99-1.556-3.99-5.29zm5.214 1.184c0-1.387-.604-1.793-1.249-1.793-.644 0-1.143.422-1.143 1.793 0 1.234.57 1.797 1.174 1.797s1.218-.486 1.218-1.797z" fill="url(#paint13_linear)"/><path d="M37.994 62.97h.258c.53 0 1.045-.533 1.174-3.308l.146-2.808h6.903v8.391h-2.863V59.13h-1.405l-.129 1.966c-.159 2.372-1.061 4.149-3.541 4.149h-.543v-2.276z" fill="url(#paint14_linear)"/><path d="M51.735 58.584a1.207 1.207 0 00-.885.268 1.165 1.165 0 00-.417.81h-2.466c.128-1.593 1.42-3.107 3.968-3.107 2.209 0 3.783.905 3.756 3.713v1.607c-.019 1.125.029 2.25.142 3.37h-2.666v-1.091c-.573.921-1.53 1.294-2.619 1.294-1.506 0-2.751-1.015-2.751-2.512 0-1.95 1.845-2.775 5.088-2.994v-.233c-.003-.938-.532-1.125-1.15-1.125zm-1.075 3.993c0 .359.275.765.946.765.747 0 1.378-.333 1.378-1.624v-.25c-1.52.11-2.324.393-2.324 1.125v-.016z" fill="url(#paint15_linear)"/><path d="M61.74 62.484a8.41 8.41 0 01-1.92.22c-1.72 0-2.765-.876-2.765-2.746v-3.104h2.866v2.619c0 .951.299 1.108 1.116 1.108.238.002.474-.03.703-.094v-3.633h2.866v8.391H61.74v-2.761z" fill="url(#paint16_linear)"/><path d="M66.307 56.854h2.866v2.965h2.25v-2.965h2.87v8.391h-2.867v-3.15h-2.25v3.15H66.31l-.003-8.39z" fill="url(#paint17_linear)"/><path d="M76.01 56.854h2.863v2.449h1.018c2.405 0 3.422.905 3.422 2.931 0 2.262-.902 3.011-3.25 3.011H76.01v-8.39zm3.796 6.285c.587 0 .96-.186.96-.905 0-.639-.373-.825-.947-.825h-.946v1.73h.933zm4.47-6.285h2.864v8.391h-2.863v-8.39z" fill="url(#paint18_linear)"/><path d="M88.857 56.854h2.65v4.658l2.653-4.658h2.649v8.39h-2.65v-4.57l-2.652 4.57h-2.65v-8.39zm1.205-2.917h1.696c.071.372.43.562 1.075.562s1.018-.19 1.076-.562h1.696c-.116 1.154-1.018 1.95-2.779 1.95-1.76 0-2.68-.796-2.764-1.95z" fill="url(#paint19_linear)"/></g><defs><linearGradient id="paint0_linear" x1="58.011" y1="0" x2="58.011" y2="69.563" gradientUnits="userSpaceOnUse"><stop stop-color="#A0B1FF"/><stop offset="1" stop-color="#FFDCD6"/></linearGradient><linearGradient id="paint1_linear" x1="25.419" y1="72.215" x2="25.419" y2="78.087" gradientUnits="userSpaceOnUse"><stop stop-color="#A0B1FF"/><stop offset="1" stop-color="#FFDCD6"/></linearGradient><linearGradient id="paint2_linear" x1="31.236" y1="72.082" x2="31.236" y2="78.23" gradientUnits="userSpaceOnUse"><stop stop-color="#A0B1FF"/><stop offset="1" stop-color="#FFDCD6"/></linearGradient><linearGradient id="paint3_linear" x1="38.013" y1="72.215" x2="38.013" y2="78.087" gradientUnits="userSpaceOnUse"><stop stop-color="#A0B1FF"/><stop offset="1" stop-color="#FFDCD6"/></linearGradient><linearGradient id="paint4_linear" x1="44.977" y1="72.212" x2="44.977" y2="79.474" gradientUnits="userSpaceOnUse"><stop stop-color="#A0B1FF"/><stop offset="1" stop-color="#FFDCD6"/></linearGradient><linearGradient id="paint5_linear" x1="52.105" y1="72.215" x2="52.105" y2="78.087" gradientUnits="userSpaceOnUse"><stop stop-color="#A0B1FF"/><stop offset="1" stop-color="#FFDCD6"/></linearGradient><linearGradient id="paint6_linear" x1="59.345" y1="72.215" x2="59.345" y2="79.474" gradientUnits="userSpaceOnUse"><stop stop-color="#A0B1FF"/><stop offset="1" stop-color="#FFDCD6"/></linearGradient><linearGradient id="paint7_linear" x1="66.081" y1="72.215" x2="66.081" y2="78.087" gradientUnits="userSpaceOnUse"><stop stop-color="#A0B1FF"/><stop offset="1" stop-color="#FFDCD6"/></linearGradient><linearGradient id="paint8_linear" x1="72.828" y1="72.082" x2="72.828" y2="78.23" gradientUnits="userSpaceOnUse"><stop stop-color="#A0B1FF"/><stop offset="1" stop-color="#FFDCD6"/></linearGradient><linearGradient id="paint9_linear" x1="79.589" y1="72.215" x2="79.589" y2="78.087" gradientUnits="userSpaceOnUse"><stop stop-color="#A0B1FF"/><stop offset="1" stop-color="#FFDCD6"/></linearGradient><linearGradient id="paint10_linear" x1="86.311" y1="72.082" x2="86.311" y2="78.232" gradientUnits="userSpaceOnUse"><stop stop-color="#A0B1FF"/><stop offset="1" stop-color="#FFDCD6"/></linearGradient><linearGradient id="paint11_linear" x1="93.152" y1="72.079" x2="93.152" y2="80" gradientUnits="userSpaceOnUse"><stop stop-color="#A0B1FF"/><stop offset="1" stop-color="#FFDCD6"/></linearGradient><linearGradient id="paint12_linear" x1="24.443" y1="56.605" x2="24.443" y2="65.448" gradientUnits="userSpaceOnUse"><stop stop-color="#A0B1FF"/><stop offset="1" stop-color="#FFDCD6"/></linearGradient><linearGradient id="paint13_linear" x1="33.453" y1="53.664" x2="33.453" y2="65.435" gradientUnits="userSpaceOnUse"><stop stop-color="#A0B1FF"/><stop offset="1" stop-color="#FFDCD6"/></linearGradient><linearGradient id="paint14_linear" x1="42.234" y1="56.854" x2="42.234" y2="65.245" gradientUnits="userSpaceOnUse"><stop stop-color="#A0B1FF"/><stop offset="1" stop-color="#FFDCD6"/></linearGradient><linearGradient id="paint15_linear" x1="51.815" y1="56.555" x2="51.815" y2="65.448" gradientUnits="userSpaceOnUse"><stop stop-color="#A0B1FF"/><stop offset="1" stop-color="#FFDCD6"/></linearGradient><linearGradient id="paint16_linear" x1="60.83" y1="56.854" x2="60.83" y2="65.245" gradientUnits="userSpaceOnUse"><stop stop-color="#A0B1FF"/><stop offset="1" stop-color="#FFDCD6"/></linearGradient><linearGradient id="paint17_linear" x1="70.299" y1="56.854" x2="70.299" y2="65.245" gradientUnits="userSpaceOnUse"><stop stop-color="#A0B1FF"/><stop offset="1" stop-color="#FFDCD6"/></linearGradient><linearGradient id="paint18_linear" x1="81.575" y1="56.854" x2="81.575" y2="65.245" gradientUnits="userSpaceOnUse"><stop stop-color="#A0B1FF"/><stop offset="1" stop-color="#FFDCD6"/></linearGradient><linearGradient id="paint19_linear" x1="92.833" y1="53.937" x2="92.833" y2="65.245" gradientUnits="userSpaceOnUse"><stop stop-color="#A0B1FF"/><stop offset="1" stop-color="#FFDCD6"/></linearGradient><clipPath id="clip0"><path fill="#fff" d="M0 0h116v80H0z"/></clipPath></defs></svg>