<svg width="24" height="24" viewBox="0 0 24 24" fill="none" xmlns="http://www.w3.org/2000/svg"><g clip-path="url(#clip0)"><path fill-rule="evenodd" clip-rule="evenodd" d="M2 12C2 6.477 6.477 2 12 2s10 4.477 10 10-4.477 10-10 10S2 17.523 2 12zM12 0C5.373 0 0 5.373 0 12s5.373 12 12 12 12-5.373 12-12S18.627 0 12 0zm5.927 7.375a1 1 0 00-1.302-1.302L9.504 8.95a1 1 0 00-.553.553l-2.878 7.121a1 1 0 001.302 1.302l7.121-2.879a1 1 0 00.552-.552l2.88-7.121zM8.81 15.19l1.837-4.543L15.19 8.81l-1.837 4.543L8.81 15.19z" fill="#151515"/></g><defs><clipPath id="clip0"><path fill="#fff" d="M0 0h24v24H0z"/></clipPath></defs></svg>