<svg width="64" height="64" viewBox="0 0 64 64" fill="none" xmlns="http://www.w3.org/2000/svg"><path fill-rule="evenodd" clip-rule="evenodd" d="M9.437 15.46C5.779 17.309 4 20.355 4 24.837c0 3.217.839 5.475 2.819 7.46 1.88 1.95 3.692 2.737 6.611 2.908 3.658.206 5.638-.513 8.055-2.977 2.18-2.224 2.986-4.243 2.986-7.39 0-2.875-.772-4.962-2.617-7.05-2.182-2.497-4.195-3.387-7.652-3.387-2.35 0-2.987.137-4.765 1.06zm7.752 6.81c1.04 1.198 1.208 2.874.403 4.448-.705 1.403-1.78 2.053-3.39 2.053-2.718 0-4.698-2.806-3.725-5.2 1.275-3.046 4.564-3.696 6.712-1.301zm13.323 27.1V14.674l8.49.136c7.652.137 8.659.24 10.471.924 7.014 2.6 11.343 8.794 11.343 16.288 0 7.596-4.363 13.755-11.51 16.288-1.98.718-2.92.786-10.471.923l-8.323.137zm22.485-21.112c-1.007-2.772-3.591-5.372-6.075-6.125-1.14-.342-3.087-.547-5.403-.547h-3.624v20.94l4.296-.136c3.825-.103 4.43-.205 5.973-1.027 4.53-2.395 6.645-8.143 4.833-13.105z" fill="#000"/></svg>