<svg width="96" height="32" viewBox="0 0 96 32" fill="none" xmlns="http://www.w3.org/2000/svg"><path d="M60.373 7.525c-1.375.445-2.265 1.044-3.339 2.173-1.09 1.18-1.728 2.446-2.08 4.089-.705 3.387.167 6.655 2.332 8.777 1.829 1.796 3.34 2.326 6.292 2.224 1.762-.069 2.064-.12 3.088-.599 1.275-.616 2.785-1.985 3.423-3.097.42-.718 1.057-2.566 1.057-3.045 0-.188-.37-.24-1.795-.24h-1.813l-.319.805c-.738 1.83-2.08 2.686-4.211 2.686-1.494 0-2.114-.24-3.07-1.164-.773-.736-1.175-1.574-1.41-2.994-.453-2.669.553-5.047 2.55-6.108.755-.41 3.004-.427 3.876-.034.957.428 1.762 1.266 2.182 2.276l.402.94h1.813l.294.001c.879.002 1.29.003 1.421-.192.116-.171.017-.493-.168-1.098l-.07-.233c-.437-1.42-1.008-2.344-2.065-3.388-1.627-1.557-3.12-2.104-5.755-2.087-1.141 0-1.98.103-2.635.308z" fill="#000"/><path fill-rule="evenodd" clip-rule="evenodd" d="M2.718 7.73C.89 8.654 0 10.177 0 12.418c0 1.608.42 2.738 1.41 3.73.94.975 1.845 1.369 3.305 1.454 1.83.103 2.82-.256 4.027-1.488 1.09-1.112 1.494-2.122 1.494-3.696 0-1.437-.386-2.48-1.31-3.524C7.837 7.644 6.83 7.2 5.102 7.2c-1.175 0-1.493.068-2.383.53zm3.876 3.405c.52.599.604 1.437.202 2.224-.353.702-.89 1.027-1.695 1.027-1.36 0-2.35-1.403-1.863-2.6.638-1.524 2.283-1.849 3.356-.651zm6.662 13.55V7.337l4.245.068c3.826.069 4.33.12 5.235.462 3.508 1.3 5.672 4.397 5.672 8.144 0 3.798-2.181 6.878-5.755 8.144-.99.359-1.46.393-5.236.462l-4.161.068zM24.498 14.13c-.503-1.386-1.795-2.686-3.037-3.063-.57-.17-1.543-.273-2.701-.273h-1.813v10.47l2.148-.068c1.913-.051 2.215-.103 2.987-.513 2.265-1.198 3.322-4.072 2.416-6.553zm10.085-6.383c-.721 2.053-5.554 16.562-5.554 16.716 0 .137.503.188 1.88.154l1.862-.052.587-1.762.57-1.745h6.947l1.141 3.593h1.897c1.04 0 1.896-.034 1.896-.069 0-.085-5.437-16.441-5.622-16.92-.1-.257-.402-.29-2.785-.29-2.618 0-2.685 0-2.819.375zm4.145 6.587l1.174 3.645h-2.517c-1.946 0-2.5-.052-2.433-.223l1.225-3.747c.638-1.95 1.191-3.49 1.259-3.421.067.068.637 1.762 1.292 3.746z" fill="#000"/><path d="M48.326 24.651V7.371h3.523v17.28h-3.523zm25.504 0h3.692v-7.186h7.215v7.186h3.692V7.371h-3.692v7.015h-7.215V7.37h-3.691v17.28zm18.123 0V7.371h3.524v17.28h-3.524z" fill="#000"/></svg>