<svg width="24" height="24" viewBox="0 0 24 24" fill="none" xmlns="http://www.w3.org/2000/svg"><path fill-rule="evenodd" clip-rule="evenodd" d="M2 2a2 2 0 00-2 2v15a1 1 0 001 1h2.17a3.001 3.001 0 005.66 0h7.34a3.001 3.001 0 005.66 0H23a1 1 0 001-1v-7a1 1 0 00-.142-.514l-3-5A1 1 0 0020 6h-4V4a2 2 0 00-2-2H2zm19.83 16H22v-5h-6v5h.17a3.001 3.001 0 015.66 0zM14 18V4H2v14h1.17a3.001 3.001 0 015.66 0H14zm-9 1a1 1 0 102 0 1 1 0 00-2 0zm16.234-8H16V8h3.434l1.8 3zM19 18a1 1 0 100 2 1 1 0 000-2z" fill="#151515"/></svg>