<svg width="24" height="24" viewBox="0 0 24 24" fill="none" xmlns="http://www.w3.org/2000/svg"><path fill-rule="evenodd" clip-rule="evenodd" d="M13 23a1 1 0 00.929-.629L17.277 14H20a3 3 0 003-3V4a3 3 0 00-3-3H5c-.545 0-1.12.05-1.644.292-.565.26-.967.694-1.25 1.26-.594 1.188-.852 2.86-.978 4.496C1 8.712 1 10.493 1 11.982v.043c0 .261-.002.987.382 1.659C1.84 14.484 2.705 15 4 15h5v5c0 .602.259 1.37.92 1.984C10.599 22.61 11.613 23 13 23zm3-20H5c-.454 0-.68.05-.806.108-.085.04-.183.106-.3.34-.406.812-.648 2.14-.772 3.754C3.001 8.782 3 10.492 3 12c0 .264.015.51.118.691.04.069.093.13.193.182.106.057.313.127.69.127H10a1 1 0 011 1v6c0 .065.041.296.28.516.167.156.484.351 1.061.438l3.66-9.147V3zm2 9V3h2a1 1 0 011 1v7a1 1 0 01-1 1h-2z" fill="#151515"/></svg>