<svg width="24" height="24" viewBox="0 0 24 24" fill="none" xmlns="http://www.w3.org/2000/svg"><g clip-path="url(#clip0)"><path fill-rule="evenodd" clip-rule="evenodd" d="M2.539 12.5a14.61 14.61 0 01-.354-.5 16.727 16.727 0 012.372-2.769C6.332 7.574 8.85 6 12 6c3.15 0 5.668 1.574 7.443 3.231A16.736 16.736 0 0121.815 12a16.734 16.734 0 01-2.372 2.769C17.668 16.425 15.15 18 12 18c-3.15 0-5.668-1.575-7.443-3.231a16.724 16.724 0 01-2.018-2.27zm21.329-.997L23 12l.868.497-.002.003-.004.006-.011.02a7.247 7.247 0 01-.195.316c-.134.207-.33.498-.586.846a18.726 18.726 0 01-2.263 2.543C18.832 18.074 15.85 20 12 20c-3.85 0-6.832-1.925-8.807-3.769A18.73 18.73 0 01.93 13.688a16.07 16.07 0 01-.74-1.092 6.046 6.046 0 01-.04-.07l-.012-.02-.004-.006-.001-.002v-.001L1 12a107.85 107.85 0 01-.868-.497l.002-.003.004-.006.011-.02.042-.07a16.07 16.07 0 01.739-1.091 18.728 18.728 0 012.263-2.544C5.168 5.926 8.15 4 12 4c3.85 0 6.832 1.926 8.807 3.769.993.926 1.752 1.85 2.263 2.543a16.038 16.038 0 01.74 1.092l.04.07.012.02.004.006.001.002v.001zM23 12l.868-.496a1 1 0 010 .992L23 12zM.132 11.504L1 12l-.868.496a1 1 0 010-.992zM10 12a2 2 0 114 0 2 2 0 01-4 0zm2-4a4 4 0 100 8 4 4 0 000-8z" fill="#151515"/></g><defs><clipPath id="clip0"><path fill="#fff" d="M0 0h24v24H0z"/></clipPath></defs></svg>