<svg width="24" height="24" viewBox="0 0 24 24" fill="none" xmlns="http://www.w3.org/2000/svg"><g clip-path="url(#clip0)"><path fill-rule="evenodd" clip-rule="evenodd" d="M4.78 22.625l16-20-1.56-1.25-2.807 3.508a11.662 11.662 0 00-3.21-.82A11.388 11.388 0 0012 4C8.15 4 5.168 5.926 3.193 7.769A18.728 18.728 0 00.93 10.312a16.07 16.07 0 00-.74 1.092l-.04.07-.012.02-.004.006-.001.002v.001L1 12l-.868-.496a1 1 0 000 .992L1 12l-.868.496v.002l.002.002.004.007.012.02a6.808 6.808 0 00.203.328c.14.216.344.519.611.879a18.676 18.676 0 002.361 2.62 15.672 15.672 0 002.44 1.84l-2.546 3.181 1.562 1.25zm2.246-6.009a13.53 13.53 0 01-2.352-1.739A16.683 16.683 0 012.186 12a16.727 16.727 0 012.372-2.769C6.332 7.574 8.85 6 12 6a9.39 9.39 0 013.1.524L13.639 8.35a4 4 0 00-4.84 6.05l-1.773 2.216zm3.11-3.887a2 2 0 012.165-2.706l-2.165 2.706zm9.418-6.06l.757.654a18.51 18.51 0 013.311 3.784 11.117 11.117 0 01.226.362l.014.023.004.008.001.002v.001h.001L23 12l.868.497-.002.003-.004.006-.011.02-.016.027-.026.043a16.038 16.038 0 01-.739 1.091 18.726 18.726 0 01-2.263 2.544C18.832 18.074 15.85 20 12 20c-.373 0-.738-.018-1.096-.053l-.996-.096.193-1.99.995.096c.295.028.596.043.904.043 3.15 0 5.668-1.575 7.443-3.231A16.734 16.734 0 0021.815 12a16.51 16.51 0 00-2.81-3.163l-.758-.653 1.307-1.514zM23 12l.868-.496a1 1 0 010 .992L23 12z" fill="#151515"/></g><defs><clipPath id="clip0"><path fill="#fff" d="M0 0h24v24H0z"/></clipPath></defs></svg>