<svg width="24" height="24" viewBox="0 0 24 24" fill="none" xmlns="http://www.w3.org/2000/svg"><path fill-rule="evenodd" clip-rule="evenodd" d="M15.697 3h-.954c-2.652 0-4.81 2.202-4.81 4.91v2.07H8.304a.309.309 0 00-.304.312v2.483c0 .171.136.31.304.31h1.63v7.603c0 .172.136.312.304.312h2.43c.169 0 .305-.14.305-.312v-7.603h2.418a.307.307 0 00.305-.31v-2.483a.308.308 0 00-.305-.312h-2.418V7.91c0-.996.794-1.806 1.769-1.806h.955c.167 0 .303-.14.303-.311V3.309A.307.307 0 0015.697 3z" fill="#151515"/></svg>