<svg width="24" height="24" viewBox="0 0 24 24" fill="none" xmlns="http://www.w3.org/2000/svg"><path fill-rule="evenodd" clip-rule="evenodd" d="M12.439 5.12a5.949 5.949 0 018.652-.483c2.43 2.299 2.557 6.16.287 8.617l-2.567 2.78c-1.207 1.306-2.755 2.743-3.987 3.843a101.793 101.793 0 01-2.14 1.854l-.032.028-.01.007-.001.002h-.001L12 21l-.64.769v-.001l-.003-.002-.009-.007-.033-.028a43.066 43.066 0 01-.585-.496c-.39-.334-.935-.806-1.554-1.358-1.232-1.1-2.78-2.536-3.987-3.843l-2.567-2.78C.352 10.796.48 6.936 2.91 4.637a5.949 5.949 0 018.652.484L12 5.64l.439-.518zM12 21l-.64.769a1 1 0 001.28 0L12 21zm0-1.31c.38-.326.902-.779 1.492-1.306 1.22-1.087 2.71-2.473 3.85-3.707l2.566-2.78c1.529-1.654 1.44-4.263-.192-5.807a3.949 3.949 0 00-5.751.324l-.763-.647.763.647-1.202 1.418a1 1 0 01-1.526 0l-1.202-1.418a3.949 3.949 0 00-5.751-.324c-1.633 1.545-1.72 4.153-.193 5.807l2.567 2.78c1.14 1.235 2.63 2.62 3.85 3.707.59.527 1.112.98 1.492 1.305z" fill="#151515"/></svg>