<svg width="24" height="24" viewBox="0 0 24 24" fill="none" xmlns="http://www.w3.org/2000/svg"><path fill-rule="evenodd" clip-rule="evenodd" d="M21.089 4.637a5.948 5.948 0 00-8.651.484l-.44.518-.438-.518a5.948 5.948 0 00-8.651-.484c-2.43 2.298-2.557 6.159-.287 8.617l2.567 2.779c1.206 1.307 2.754 2.743 3.986 3.843a102.294 102.294 0 002.14 1.854l.032.028.009.007.002.002h.001L12 21l-.64.769a1 1 0 001.28 0L12 21l.64.768.003-.002.008-.007.033-.028a180.142 180.142 0 00.585-.496c.39-.334.935-.806 1.554-1.358 1.233-1.1 2.78-2.537 3.987-3.843l2.567-2.78c2.27-2.457 2.142-6.318-.287-8.616z" fill="#151515"/></svg>