<svg width="24" height="24" viewBox="0 0 24 24" fill="none" xmlns="http://www.w3.org/2000/svg"><path fill-rule="evenodd" clip-rule="evenodd" d="M3 1h5c1.135 0 2.026.215 2.785.557.727.327 1.302.758 1.787 1.122l.028.021c.51.382.926.69 1.435.92.49.22 1.1.38 1.965.38h5a1 1 0 011 1v11a1 1 0 01-1 1h-5c-1.135 0-2.026-.215-2.785-.557-.727-.327-1.302-.758-1.787-1.122L11.4 15.3c-.51-.382-.926-.69-1.435-.92-.49-.22-1.1-.38-1.965-.38H4v9H2V2a1 1 0 011-1zm17 14V6h-4c-1.135 0-2.026-.215-2.785-.557-.727-.327-1.302-.758-1.787-1.122L11.4 4.3c-.51-.382-.926-.69-1.435-.92C9.475 3.16 8.865 3 8 3H4v9h4c1.135 0 2.026.215 2.785.557.727.327 1.302.758 1.787 1.122l.028.021c.51.382.926.69 1.435.92.49.22 1.1.38 1.965.38h4z" fill="#151515"/></svg>