<svg width="24" height="24" viewBox="0 0 24 24" fill="none" xmlns="http://www.w3.org/2000/svg"><path fill-rule="evenodd" clip-rule="evenodd" d="M5 0a2 2 0 00-2 2v3a1 1 0 002 0V2h14v3a1 1 0 102 0V2a2 2 0 00-2-2H5zm0 19a1 1 0 10-2 0v3a2 2 0 002 2h14a2 2 0 002-2v-3a1 1 0 10-2 0v3H5v-3zm4.49-7.279c.205 0 .366.059.483.176.125.11.187.264.187.462v2.145c0 .293-.025.52-.077.682a.727.727 0 01-.242.385c-.117.095-.293.176-.528.242a6.298 6.298 0 01-.99.209 7.554 7.554 0 01-1.045.077c-.82 0-1.532-.158-2.134-.473a3.34 3.34 0 01-1.386-1.375c-.322-.601-.484-1.313-.484-2.134 0-.807.158-1.507.473-2.101A3.34 3.34 0 015.122 8.63c.594-.323 1.287-.484 2.08-.484 1.019 0 1.862.264 2.53.792.11.088.186.176.23.264a.735.735 0 01.066.33c0 .19-.055.356-.165.495a.46.46 0 01-.374.198.768.768 0 01-.264-.044 2.02 2.02 0 01-.275-.143 3.82 3.82 0 00-.847-.407 2.814 2.814 0 00-.847-.121c-1.496 0-2.244.869-2.244 2.607 0 .895.195 1.562.583 2.002.39.44.976.66 1.76.66.426 0 .847-.055 1.265-.165v-1.705H7.608c-.212 0-.377-.051-.495-.154-.117-.103-.176-.25-.176-.44s.06-.337.176-.44c.118-.103.283-.154.495-.154H9.49zm3.424 4.345c-.264 0-.473-.077-.627-.231-.155-.154-.232-.363-.232-.627V9.037c0-.257.078-.462.232-.616.153-.154.362-.231.627-.231.264 0 .473.077.627.231.153.154.23.36.23.616v6.171c0 .264-.077.473-.23.627-.155.154-.364.231-.627.231zm3.067-.231a.87.87 0 00.627.231c.257 0 .459-.077.605-.231.154-.154.231-.363.231-.627v-2.475h2.673c.28 0 .484-.055.616-.165.132-.11.198-.279.198-.506 0-.235-.066-.407-.198-.517-.132-.11-.337-.165-.616-.165h-2.673V9.598h2.893c.28 0 .484-.055.616-.165.132-.11.198-.279.198-.506 0-.235-.066-.407-.198-.517-.132-.11-.337-.165-.616-.165h-3.784c-.256 0-.454.07-.594.209-.139.14-.209.337-.209.594v6.16a.87.87 0 00.231.627z" fill="#151515"/></svg>