<svg width="24" height="24" viewBox="0 0 24 24" fill="none" xmlns="http://www.w3.org/2000/svg"><path fill-rule="evenodd" clip-rule="evenodd" d="M16.583 3.756c-.567-.567-1.374-.55-1.876-.049-.64.641-1.084 1.687-1.364 2.684-.053.187-.099.368-.138.537.21-.024.435-.055.67-.095 1.086-.188 2.152-.548 2.748-1.144.507-.506.521-1.372-.04-1.933zM22 7h-3.863c1.217-1.325 1.136-3.382-.14-4.658-1.305-1.306-3.38-1.373-4.704-.049-.563.563-.985 1.262-1.301 1.959-.317-.697-.738-1.396-1.3-1.959-1.325-1.324-3.4-1.257-4.705.049C4.711 3.618 4.63 5.675 5.847 7H2a1 1 0 00-1 1v4a1 1 0 001 1h1v8a1 1 0 001 1h16a1 1 0 001-1v-8h1a1 1 0 001-1V8a1 1 0 00-1-1zm-9 6h6v7h-6v-7zm0-2h8V9h-8v2zm-2-2v2H3V9h8zm0 4v7H5v-7h6zM9.277 3.707c-.502-.502-1.31-.518-1.876.049-.561.561-.547 1.427-.04 1.933.595.596 1.662.956 2.748 1.144.235.04.46.071.67.095-.04-.17-.085-.35-.138-.537-.28-.997-.723-2.043-1.364-2.684z" fill="#151515"/></svg>