<svg width="40" height="40" viewBox="0 0 40 40" fill="none" xmlns="http://www.w3.org/2000/svg"><g clip-path="url(#clip0)"><path fill-rule="evenodd" clip-rule="evenodd" d="M18.239 20.439v4.763h-1.525V13.438h4.044a3.686 3.686 0 012.619 1.019 3.25 3.25 0 011.094 2.483 3.233 3.233 0 01-1.094 2.496c-.707.669-1.58 1.002-2.62 1.002H18.24zm0-5.552v4.106h2.557a2.03 2.03 0 001.509-.608 2.005 2.005 0 00.612-1.438 1.99 1.99 0 00-.613-1.437 1.989 1.989 0 00-1.508-.624h-2.557zm9.745 2.003c1.127 0 2.017.3 2.67.896.651.597.977 1.416.977 2.456v4.96h-1.459v-1.117h-.066c-.632.92-1.471 1.38-2.52 1.38-.894 0-1.643-.263-2.245-.788a2.499 2.499 0 01-.904-1.971c0-.833.318-1.496.953-1.988.635-.491 1.483-.738 2.544-.74.905 0 1.651.165 2.237.494v-.346a1.709 1.709 0 00-.63-1.337 2.171 2.171 0 00-1.471-.551c-.852 0-1.526.356-2.023 1.068l-1.343-.838c.74-1.052 1.832-1.577 3.28-1.577zm-1.973 5.848a1.197 1.197 0 00.506.986 1.87 1.87 0 001.185.394 2.443 2.443 0 001.715-.706c.505-.47.758-1.024.758-1.658-.476-.376-1.139-.563-1.989-.563-.62 0-1.136.148-1.55.444-.417.3-.624.665-.624 1.103z" fill="#5F6368"/><path d="M34.911 28.75l5.092-11.596h-1.66l-2.354 5.781h-.033l-2.42-5.781H31.88l3.348 7.538-1.89 4.058h1.574z" fill="#5F6368"/><path d="M13.367 19.412c.001-.46-.038-.92-.117-1.374H6.82v2.602h3.683a3.113 3.113 0 01-1.362 2.054v1.69h2.198c1.287-1.177 2.028-2.916 2.028-4.972z" fill="#4285F4"/><path d="M6.82 26.016c1.84 0 3.389-.599 4.519-1.631l-2.198-1.69c-.612.411-1.4.646-2.322.646-1.778 0-3.288-1.188-3.828-2.79H.727v1.742A6.78 6.78 0 003.24 25.01a6.864 6.864 0 003.58 1.006z" fill="#34A853"/><path d="M2.99 20.551a4.015 4.015 0 010-2.586v-1.742H.727a6.708 6.708 0 000 6.07l2.265-1.742z" fill="#FBBC04"/><path d="M6.82 15.175a3.72 3.72 0 012.615 1.014l1.946-1.93A6.585 6.585 0 006.82 12.5a6.865 6.865 0 00-3.579 1.007 6.78 6.78 0 00-2.513 2.717l2.264 1.741c.54-1.6 2.05-2.79 3.828-2.79z" fill="#EA4335"/></g><defs><clipPath id="clip0"><path fill="#fff" d="M0 0h40v40H0z"/></clipPath></defs></svg>