<svg width="68" height="68" viewBox="0 0 68 68" fill="none" xmlns="http://www.w3.org/2000/svg"><rect width="68" height="68" rx="34" fill="#000"/><path fill-rule="evenodd" clip-rule="evenodd" d="M32.669 18.7a.888.888 0 00-.827.563L27.53 30.241h-4.182a2.663 2.663 0 00-2.663 2.663v9.766a2.663 2.663 0 002.663 2.663h4.43a.21.21 0 00.009 0h15.092c.672 0 1.3-.077 1.849-.391.564-.323.92-.822 1.204-1.391.7-1.4 1.032-3.405 1.201-5.428.172-2.052.185-4.251.185-6.106 0-.37-.051-1.23-.532-2.024-.524-.865-1.485-1.527-3.02-1.527h-6.214V22.25c0-1.404-1.516-3.551-4.882-3.551zm-3.995 24.858h14.204c.565 0 .82-.073.967-.158.133-.075.288-.222.498-.643.538-1.075.852-2.783 1.02-4.782.164-1.97.178-4.101.178-5.958 0-.249-.043-.72-.275-1.104-.188-.312-.56-.672-1.5-.672h-7.102a.888.888 0 01-.888-.888v-7.102c0-.226-.45-1.533-2.514-1.746l-4.588 11.68v11.373zm-1.776-11.541v11.541h-3.551a.888.888 0 01-.888-.888v-9.766c0-.49.398-.887.888-.887h3.55z" fill="#fff"/></svg>