<svg width="24" height="24" viewBox="0 0 24 24" fill="none" xmlns="http://www.w3.org/2000/svg"><path fill-rule="evenodd" clip-rule="evenodd" d="M2 3.5a1.5 1.5 0 103 0 1.5 1.5 0 00-3 0zM11.5 5a1.5 1.5 0 110-3 1.5 1.5 0 010 3zm8 0a1.5 1.5 0 110-3 1.5 1.5 0 010 3zm-8 8a1.5 1.5 0 110-3 1.5 1.5 0 010 3zm6.5-1.5a1.5 1.5 0 103 0 1.5 1.5 0 00-3 0zM3.5 13a1.5 1.5 0 110-3 1.5 1.5 0 010 3zm6.5 6.5a1.5 1.5 0 103 0 1.5 1.5 0 00-3 0zm9.5 1.5a1.5 1.5 0 110-3 1.5 1.5 0 010 3zM2 19.5a1.5 1.5 0 103 0 1.5 1.5 0 00-3 0z" fill="#151515"/></svg>