<svg width="68" height="68" viewBox="0 0 68 68" fill="none" xmlns="http://www.w3.org/2000/svg"><rect width="68" height="68" rx="34" fill="#000"/><path d="M35.28 28.327a1.26 1.26 0 11-2.52 0 1.26 1.26 0 012.52 0zm-.414 3.94h-1.734v8.666h1.734v-8.666z" fill="#fff"/><path fill-rule="evenodd" clip-rule="evenodd" d="M19.266 34c0-8.137 6.596-14.733 14.733-14.733S48.732 25.863 48.732 34 42.136 48.733 34 48.733 19.266 42.137 19.266 34zm14.733-13c-7.18 0-13 5.82-13 13s5.82 13 13 13 13-5.82 13-13-5.82-13-13-13z" fill="#fff"/></svg>