<svg width="24" height="24" viewBox="0 0 24 24" fill="none" xmlns="http://www.w3.org/2000/svg"><g clip-path="url(#clip0)"><path fill-rule="evenodd" clip-rule="evenodd" d="M12 2C6.477 2 2 6.477 2 12s4.477 10 10 10 10-4.477 10-10S17.523 2 12 2zM0 12C0 5.373 5.373 0 12 0s12 5.373 12 12-5.373 12-12 12S0 18.627 0 12zm12.427-4c-.727 0-1.293.43-1.492.954l-.354.935-1.87-.708.354-.935C9.573 6.905 10.913 6 12.427 6 14.333 6 16 7.458 16 9.4c0 .795-.204 1.566-.709 2.194-.507.631-1.236 1.016-2.093 1.187a.287.287 0 00-.078.024.344.344 0 00-.04.094 1.91 1.91 0 00-.066.43A10.51 10.51 0 0013 14v1h-2v-1.065c0-.45-.001-1.085.171-1.634.098-.312.264-.646.553-.93a2.122 2.122 0 011.082-.552c.505-.1.775-.29.926-.478.154-.191.268-.484.268-.941 0-.709-.638-1.4-1.573-1.4zm.688 4.808l.004-.003-.002.002h-.002v.001zM12 18a1 1 0 100-2 1 1 0 000 2z" fill="currentColor"/></g><defs><clipPath id="clip0"><path fill="#fff" d="M0 0h24v24H0z"/></clipPath></defs></svg>