<svg width="68" height="68" viewBox="0 0 68 68" fill="none" xmlns="http://www.w3.org/2000/svg"><rect width="68" height="68" rx="34" fill="#000"/><path d="M27.957 33.694c.716 0 1.296-.578 1.296-1.291s-.58-1.292-1.296-1.292c-.715 0-1.295.578-1.295 1.292 0 .713.58 1.291 1.295 1.291zm7.34-1.291c0 .713-.58 1.291-1.295 1.291a1.293 1.293 0 01-1.296-1.291c0-.713.58-1.292 1.296-1.292.715 0 1.295.578 1.295 1.292zm4.749 1.291c.715 0 1.295-.578 1.295-1.291s-.58-1.292-1.295-1.292-1.295.578-1.295 1.292c0 .713.58 1.291 1.295 1.291z" fill="#fff"/><path fill-rule="evenodd" clip-rule="evenodd" d="M23.208 20.778a4.312 4.312 0 00-4.317 4.305v14.64a4.311 4.311 0 004.317 4.305h1.727v5.166a.865.865 0 001.359.705l8.412-5.871h10.09a4.311 4.311 0 004.317-4.306V25.083a4.312 4.312 0 00-4.318-4.305H23.208zm-2.59 4.305a2.587 2.587 0 012.59-2.583h21.587a2.586 2.586 0 012.59 2.583v14.64a2.587 2.587 0 01-2.59 2.583H34.161l-7.499 5.235v-5.235h-3.454a2.587 2.587 0 01-2.59-2.584V25.083z" fill="#fff"/></svg>