<svg width="24" height="24" viewBox="0 0 24 24" fill="none" xmlns="http://www.w3.org/2000/svg"><path fill-rule="evenodd" clip-rule="evenodd" d="M12 9a3 3 0 100 6 3 3 0 000-6zm-5 3a5 5 0 1110 0 5 5 0 01-10 0z" fill="#151515"/><path d="M4.44 7.48l-.629.778.629-.778zm.292 1.168l-.921-.39.92.39zm-.192.453l.92.39-.92-.39zm-1.044.601l-.123.993.123-.993zm-.039 4.447l.106.995-.106-.995zm1.033.62l-.927.375.927-.375zm.184.456l.927-.375-.927.375zm-.312 1.163l.615.788-.615-.788zm3.117 3.172l-.778-.628.778.628zm1.169-.292l-.391.92.39-.92zm.452.192l.39-.92-.39.92zm.602 1.043l.992.123-.992-.123zm4.447.04l-.995.105.995-.106zm.62-1.033l-.375-.928.375.928zm.455-.184l.375.927-.375-.927zm1.163.312l.789-.615-.789.615zm3.173-3.117l.628-.778-.628.778zm-.292-1.169l.92.39-.92-.39zm.192-.452l-.92-.39.92.39zm1.043-.602l-.123.992.123-.992zm.039-4.447l-.106-.995.106.995zm-1.033-.62l-.927.375.927-.375zm-.184-.456l.927-.374-.927.374zm.312-1.163l-.615-.788.615.788zM16.52 4.44l-.778-.628.778.628zm-1.168.292l-.391.92.39-.92zm-.453-.192l.39-.92-.39.92zm-.601-1.043l-.993-.123.992.123zm-4.448-.04l-.994.106.994-.105zm-.62 1.034l.375.927-.375-.927zm-.455.184L8.4 3.747l.375.928zm-1.163-.313l.788-.615-.788.615zm6.847-2.173l-.992-.123.992.123zm4.184 1.043l.604-.797-.604.797zm-1.295.184l-.778-.629.778.63zm3.535 2.094l-.807.591.807-.59zm2.015 4.988l-.99.135.99-.135zm-1.046-.786l.106.994-.106-.994zm-1.084 8.932l-.797-.605.797.605zm-.184-1.296l.628-.778-.628.778zm-3.387 3.328l-.788.615.788-.615zm1.292.207l-.59-.807.59.807zm3.322-6.423l.123-.993-.123.993zm1.06-.767l-.989-.153.989.153zm-9.37 9.205l-.134-.99.135.99zm.787-1.046l.994-.105-.994.105zm-8.932-1.084l-.604.796.604-.796zm1.296-.184l-.778-.629.778.629zm-3.328-3.387l.615.789-.615-.789zm6.983 5.674l-.153.988.153-.989zm-8.16-8.583l.106.995-.105-.995zm.042-4.747l-.123.992.123-.992zm-1.06.767l-.988-.153.988.153zm8.582-8.16l.995-.106-.995.106zm-4.2.97L4.92 2.31l.59.806zm1.291.206l.789-.615-.789.615zM3.416 6.653l.628-.778-.628.778zm.612-.691a10.064 10.064 0 012.073-2.038L4.92 2.311a12.034 12.034 0 00-2.485 2.442l1.593 1.209zm1.04.74l-1.024-.827L2.787 7.43l1.024.828 1.257-1.556zm.584 2.337a2 2 0 00-.584-2.337L3.811 8.258l1.841.781zm-.192.453l.192-.453-1.841-.781-.192.452 1.841.782zm-2.087 1.203A2 2 0 005.46 9.492L3.62 8.71h-.001l-.246 1.985zm-1.307-.162l1.307.162.246-1.985-1.307-.162-.246 1.985zM2 12c0-.524.04-1.038.118-1.54L.14 10.155A12.084 12.084 0 000 12h2zm.093 1.367A10.098 10.098 0 012 12H0c0 .555.038 1.102.111 1.638l1.982-.27zm.16 1.916l1.31-.14-.211-1.988-1.31.139.211 1.989zm1.31-.14l1.854-.748a2 2 0 00-2.065-1.24l.21 1.989zm0 0l.184.456L5.6 14.85l-.184-.455-1.854.749zm.184.456l1.23 1.578A2 2 0 005.6 14.85l-1.854.75zm0 0l-1.038.81 1.23 1.577 1.038-.81-1.23-1.577zm2.214 4.372A10.066 10.066 0 013.924 17.9L2.31 19.08a12.06 12.06 0 002.442 2.485l1.209-1.593zm.74-1.04l-.827 1.024 1.556 1.257.827-1.023L6.7 18.93zm2.337-.583a2 2 0 00-2.337.584l1.556 1.257.781-1.841zm.453.192l-.453-.192-.781 1.84.452.193.782-1.841zm1.203 2.086a2 2 0 00-1.203-2.086l-.782 1.84 1.985.246zm-.162 1.308l.162-1.308-1.985-.245-.162 1.307 1.985.246zM12 22c-.524 0-1.039-.04-1.54-.118l-.306 1.977A12.09 12.09 0 0012 24v-2zm1.367-.093A10.09 10.09 0 0112 22v2c.555 0 1.101-.038 1.637-.11l-.27-1.983zm1.915-.16l-.139-1.31-1.989.21.14 1.31 1.988-.21zm-.139-1.31l-.75-1.855a2 2 0 00-1.239 2.066l1.99-.211zm0 0l.456-.184-.75-1.855-.455.184.75 1.855zm.456-.184l1.577-1.23a2 2 0 00-2.326-.625l.749 1.855zm0 0l.81 1.038 1.577-1.23-.81-1.038-1.577 1.23zm4.372-2.214a10.066 10.066 0 01-2.073 2.037l1.182 1.614c.942-.69 1.78-1.513 2.485-2.442L19.97 18.04zm-1.04-.74l1.024.827 1.257-1.556-1.024-.827-1.257 1.555zm-.584-2.338a2 2 0 00.584 2.337l1.257-1.555-1.84-.782zm.192-.452l-.192.452 1.841.782.192-.453-1.84-.78zm2.087-1.203a2 2 0 00-2.087 1.203l1.841.781.246-1.984zm1.308.162l-1.308-.162-.246 1.985 1.308.161.246-1.985zM22 12c0 .524-.04 1.039-.118 1.54l1.977.305c.093-.602.141-1.218.141-1.845h-2zm-.093-1.367c.061.446.093.903.093 1.367h2c0-.555-.038-1.102-.11-1.638l-1.983.27zm-1.26.212l1.31-.139-.21-1.989-1.31.14.21 1.988zm-2.065-1.24a2 2 0 002.065 1.24l-.21-1.989-1.855.75zm-.184-.455l.184.456 1.854-.75-.184-.455-1.854.749zm.624-2.326a2 2 0 00-.624 2.326l1.854-.75-1.23-1.576zm1.039-.81l-1.039.81 1.23 1.577 1.039-.81-1.23-1.577zm-2.022-1.986a10.066 10.066 0 012.037 2.073L21.69 4.92a12.062 12.062 0 00-2.443-2.485L18.04 4.028zm-.741 1.04l.827-1.023-1.555-1.258-.828 1.025 1.556 1.257zm-2.337.585a2 2 0 002.337-.584l-1.556-1.257-.781 1.84zm-.453-.192l.453.192.781-1.841-.452-.192-.781 1.84zm-1.203-2.087A2 2 0 0014.51 5.46l.78-1.841-1.984-.246zm.162-1.308l-.162 1.308 1.985.246.162-1.308-1.985-.246zM12 2c.524 0 1.038.04 1.54.118L13.845.14A12.085 12.085 0 0012 0v2zm-1.368.093C11.08 2.032 11.536 2 12 2V0c-.555 0-1.102.038-1.638.111l.27 1.982zm-1.915.16l.139 1.31 1.989-.21-.14-1.31-1.988.21zm.139 1.31l.75 1.855a2 2 0 001.239-2.066l-1.99.211zm0 0l-.456.184.75 1.855.455-.184-.75-1.855zm-.456.184l-1.577 1.23a2 2 0 002.326.625L8.4 3.747zm0 0L7.59 2.71 6.015 3.94l.809 1.038L8.4 3.747zm7.052-1.435c.122-.989-.518-2.003-1.607-2.171l-.306 1.977a.11.11 0 01-.066-.04c-.008-.01-.006-.015-.006-.012l1.985.246zm3.795.123c-.877-.666-2.05-.422-2.677.352l1.555 1.258c.003-.003 0 .002-.013.004a.11.11 0 01-.073-.02l1.209-1.594zm2.044 5.156c.785-.613 1.05-1.782.399-2.671L20.076 6.1a.11.11 0 01-.02-.074c.003-.013.007-.015.005-.013l1.23 1.577zm2.598 2.771c-.149-1.091-1.152-1.75-2.142-1.645l.21 1.99c.004-.001-.001 0-.012-.007a.087.087 0 01-.022-.026.112.112 0 01-.016-.041l1.982-.27zm-2.325 8.886c.666-.877.423-2.051-.352-2.678l-1.257 1.556c.003.002-.002 0-.004-.014a.11.11 0 01.02-.073l1.593 1.21zm-5.155 2.043c.612.786 1.782 1.05 2.67.4l-1.18-1.615a.11.11 0 01.073-.02c.013.003.016.008.014.005l-1.578 1.23zm5.28-5.839c.988.123 2.002-.518 2.17-1.607l-1.977-.305a.113.113 0 01.016-.04.09.09 0 01.023-.026c.01-.008.016-.006.013-.007l-.246 1.985zm-8.052 8.437c1.092-.149 1.75-1.152 1.645-2.142l-1.989.21c0 .004-.001-.001.007-.012a.093.093 0 01.025-.022.112.112 0 01.042-.015l.27 1.981zm-8.885-2.325c.877.666 2.051.423 2.678-.352l-1.556-1.257c-.002.003 0-.002.014-.004a.089.089 0 01.033.002c.016.004.03.01.04.018l-1.21 1.593zM2.709 16.41c-.786.612-1.05 1.782-.399 2.67l1.614-1.18a.11.11 0 01.02.073c-.003.013-.008.016-.005.014l-1.23-1.577zm5.838 5.28c-.122.988.518 2.002 1.607 2.17l.306-1.977a.111.111 0 01.066.039c.008.01.006.016.006.013l-1.985-.246zM.111 13.637c.15 1.091 1.152 1.75 2.142 1.645l-.21-1.99c-.004.001.001 0 .012.007a.091.091 0 01.022.026.112.112 0 01.016.041l-1.982.27zm2.2-5.09c-.988-.122-2.002.518-2.17 1.607l1.977.306a.112.112 0 01-.016.04.09.09 0 01-.023.026c-.011.008-.016.006-.013.006l.246-1.985zM10.361.11C9.27.26 8.611 1.262 8.717 2.252l1.989-.21c0-.004.001.001-.007.012a.111.111 0 01-.067.038L10.362.11zm-4.26 3.813a.11.11 0 01-.074.02c-.013-.002-.015-.007-.013-.005L7.59 2.71c-.613-.785-1.783-1.049-2.671-.398L6.1 3.924zm-3.666.829c-.666.877-.423 2.051.352 2.677l1.257-1.555c-.002-.002.003 0 .005.013a.089.089 0 01-.003.034.11.11 0 01-.018.04l-1.593-1.21z" fill="#151515"/></svg>