<svg width="24" height="24" viewBox="0 0 24 24" fill="none" xmlns="http://www.w3.org/2000/svg"><path fill-rule="evenodd" clip-rule="evenodd" d="M11.553 1.106a1 1 0 01.894 0L17.2 3.482l5.247 2.624A1 1 0 0123 7v10a1 1 0 01-.553.894l-5 2.5-5 2.5a1 1 0 01-.894 0l-10-5A1 1 0 011 17V7a1 1 0 01.553-.894l10-5zM3 8.618v7.764l8 4v-7.764l-4.447-2.224L3 8.618zm10 4v7.764l3.553-1.776L21 16.382V8.618l-8 4zM19.764 7L12 10.882 9.192 9.478 16.764 5.5l3 1.5zM14.56 4.398L12 3.118 4.236 7 6.99 8.376l7.572-3.978z" fill="currentColor"/></svg>