<svg width="103" height="103" viewBox="0 0 103 103" fill="none" xmlns="http://www.w3.org/2000/svg"><path d="M86.263 38.196h7.725V9.012H64.804v7.726H80.8l-30.47 30.47 5.462 5.463L86.262 22.2v15.996z" fill="#D1D8E1"/><path d="M16.738 22.317c0-.711.576-1.288 1.287-1.288H46.78v-7.725H18.025a9.013 9.013 0 00-9.012 9.013v62.658a9.012 9.012 0 009.012 9.012h62.659a9.012 9.012 0 009.012-9.012V56.22h-7.725v28.754c0 .711-.576 1.288-1.288 1.288H18.025a1.288 1.288 0 01-1.287-1.288V22.317z" fill="#D1D8E1"/><path d="M9 37V23c0-5.523 4.477-10 10-10h14" stroke="#000" stroke-width="2" stroke-linecap="round" stroke-linejoin="round"/></svg>