<svg width="120" height="120" viewBox="0 0 120 120" fill="none" xmlns="http://www.w3.org/2000/svg"><path fill-rule="evenodd" clip-rule="evenodd" d="M3 0a3 3 0 00-3 3v114a3 3 0 003 3h114c1.656 0 3-1.344 3-3V3a3 3 0 00-3-3H3zM2 3a1 1 0 011-1h114a1 1 0 011 1v114a1 1 0 01-1 1h-9.627L29.877 50.9a7 7 0 00-9.533.344L2 69.6V3zm26.568 49.412L104.317 118H3a1 1 0 01-1-1V72.43l19.759-19.772a5 5 0 016.81-.246zM61 39.5C61 28.73 69.73 20 80.5 20S100 28.73 100 39.5 91.27 59 80.5 59 61 50.27 61 39.5zM80.5 18C68.626 18 59 27.626 59 39.5S68.626 61 80.5 61 102 51.374 102 39.5 92.374 18 80.5 18z" fill="#000"/></svg>