<svg width="24" height="24" viewBox="0 0 24 24" fill="none" xmlns="http://www.w3.org/2000/svg"><path fill-rule="evenodd" clip-rule="evenodd" d="M12.777 7.01a5 5 0 10-1.467 9.893 5 5 0 001.467-9.892zm-2.115 2.284a3 3 0 112.763 5.325 3 3 0 01-2.763-5.325z" fill="#151515"/><path fill-rule="evenodd" clip-rule="evenodd" d="M7 1a6 6 0 00-6 6v10a6 6 0 006 6h10a6 6 0 006-6V7a6 6 0 00-6-6H7zM3 7a4 4 0 014-4h10a4 4 0 014 4v10a4 4 0 01-4 4H7a4 4 0 01-4-4V7z" fill="#151515"/><path d="M19 6.5a1.5 1.5 0 11-3 0 1.5 1.5 0 013 0z" fill="#151515"/></svg>