<svg width="24" height="24" viewBox="0 0 24 24" fill="none" xmlns="http://www.w3.org/2000/svg"><path fill-rule="evenodd" clip-rule="evenodd" d="M5 0a2 2 0 00-2 2v3a1 1 0 002 0V2h14v3a1 1 0 102 0V2a2 2 0 00-2-2H5zm0 19a1 1 0 10-2 0v3a2 2 0 002 2h14a2 2 0 002-2v-3a1 1 0 10-2 0v3H5v-3zm15.882-7.103c-.117-.117-.279-.176-.484-.176h-1.881c-.213 0-.378.051-.495.154-.117.103-.176.25-.176.44s.059.337.176.44c.117.103.282.154.495.154h1.012v1.705a4.95 4.95 0 01-1.265.165c-.785 0-1.371-.22-1.76-.66-.389-.44-.583-1.107-.583-2.002 0-1.738.748-2.607 2.244-2.607.308 0 .59.04.847.121.257.08.539.216.847.407.11.066.202.114.275.143a.75.75 0 00.264.044.46.46 0 00.374-.198.775.775 0 00.165-.495.735.735 0 00-.066-.33.828.828 0 00-.231-.264c-.667-.528-1.51-.792-2.53-.792-.792 0-1.485.161-2.079.484a3.34 3.34 0 00-1.375 1.386c-.315.594-.473 1.294-.473 2.101 0 .821.161 1.533.484 2.134a3.34 3.34 0 001.386 1.375c.601.315 1.313.473 2.134.473.33 0 .678-.026 1.045-.077.374-.051.704-.121.99-.209.235-.066.41-.147.528-.242a.726.726 0 00.242-.385c.051-.161.077-.389.077-.682v-2.145c0-.198-.062-.352-.187-.462zM3.093 16.066c-.337.015-.594-.037-.77-.154-.168-.117-.253-.297-.253-.539 0-.22.055-.381.165-.484.11-.11.283-.172.517-.187l.352-.022c.528-.022.792-.334.792-.935V9.037c0-.257.081-.462.242-.616a.87.87 0 01.627-.231c.257 0 .462.077.616.231.162.154.242.36.242.616v4.686c0 1.452-.726 2.226-2.178 2.321l-.352.022zm4.928 0c-.264 0-.473-.077-.627-.231-.154-.154-.231-.363-.231-.627v-6.16c0-.257.07-.455.209-.594.14-.14.337-.209.594-.209h2.76c.844 0 1.5.213 1.97.638.47.425.704 1.02.704 1.782 0 .763-.235 1.357-.704 1.782-.47.425-1.126.638-1.97.638H8.88v2.123c0 .264-.077.473-.231.627-.154.154-.363.231-.627.231zm2.486-4.279c.858 0 1.287-.37 1.287-1.111 0-.748-.43-1.122-1.287-1.122H8.879v2.233h1.628z" fill="#151515"/></svg>