<svg width="80" height="80" viewBox="0 0 80 80" fill="none" xmlns="http://www.w3.org/2000/svg"><path d="M.625 64h8.32l3.584-10.304h18.816L34.993 64h8.896L26.481 17.6h-8.576L.625 64zm21.248-36.992l7.04 19.904H14.897l6.976-19.904zm47.289 23.424c0 5.888-3.328 8.704-8.96 8.704-3.84 0-6.335-1.792-6.335-4.8 0-3.904 4.416-5.504 15.295-6.528v2.624zm-10.624 14.4c5.12 0 9.088-1.728 11.329-5.504.191 2.368.383 3.2.64 4.672h6.975c-.704-2.88-1.023-7.424-1.023-11.776 0-3.136.127-7.232.127-8.896.192-11.008-6.272-14.784-14.527-14.784-8.32 0-14.145 4.864-14.656 11.84h7.488c.192-4.16 3.072-6.208 6.912-6.208s7.168 1.792 7.168 7.68v.64c-12.545 1.344-23.169 3.392-23.169 12.032 0 6.272 5.248 10.304 12.736 10.304z" fill="#000"/></svg>