<svg width="24" height="24" viewBox="0 0 24 24" fill="none" xmlns="http://www.w3.org/2000/svg"><path fill-rule="evenodd" clip-rule="evenodd" d="M11 1a1 1 0 00-.928.629L6.723 10H4a3 3 0 00-3 3v7a3 3 0 003 3h15c.546 0 1.12-.05 1.644-.292.565-.26.967-.694 1.25-1.26.594-1.189.852-2.86.978-4.496.128-1.664.128-3.445.128-4.934v-.043c0-.261.002-.987-.382-1.659C22.161 9.516 21.295 9 20 9h-5V4c0-.602-.259-1.37-.92-1.984C13.402 1.39 12.387 1 11 1zM8 21h11c.454 0 .68-.05.806-.108.085-.04.183-.106.3-.34.406-.811.648-2.14.772-3.754C21 15.218 21 13.508 21 12c0-.264-.015-.51-.118-.691a.449.449 0 00-.193-.182C20.583 11.07 20.377 11 20 11h-6a1 1 0 01-1-1V4c0-.065-.041-.296-.28-.516-.167-.156-.484-.351-1.061-.438L8 12.193V21zm-2-9v9H4a1 1 0 01-1-1v-7a1 1 0 011-1h2z" fill="#151515"/></svg>