<svg width="24" height="24" viewBox="0 0 24 24" fill="none" xmlns="http://www.w3.org/2000/svg"><path d="M19.657 3H4.343A1.335 1.335 0 003 4.297V19.65a1.328 1.328 0 001.343 1.298h15.314A1.328 1.328 0 0021 19.65V4.297A1.335 1.335 0 0019.657 3zM8.332 18.308h-2.64V9.75h2.64v8.558zm-1.29-9.75A1.552 1.552 0 015.49 7.041 1.5 1.5 0 017.043 5.49a1.553 1.553 0 010 3.097v-.03zm11.318 9.697h-2.61V14.07c0-.998 0-2.295-1.395-2.295s-1.605 1.095-1.605 2.197v4.238h-2.67V9.75h2.49v1.125h.053a2.79 2.79 0 012.542-1.395c2.693 0 3.195 1.8 3.195 4.088v4.687z" fill="#151515"/></svg>