<svg width="24" height="24" viewBox="0 0 24 24" fill="none" xmlns="http://www.w3.org/2000/svg"><path fill-rule="evenodd" clip-rule="evenodd" d="M5 9c0-3.502 2.662-7 7-7s7 3.498 7 7c0 1.293-.436 2.765-1.155 4.293-.714 1.518-1.676 3.024-2.654 4.369A44.476 44.476 0 0112 21.548a44.47 44.47 0 01-3.191-3.886c-.978-1.345-1.94-2.851-2.654-4.369C5.435 11.765 5 10.293 5 9zm6.293 14.707L12 23l-.707.707a1 1 0 001.414 0L12 23l.707.707h.001l.002-.002.005-.006.02-.02.026-.026.045-.046.263-.274a46.49 46.49 0 003.74-4.495c1.022-1.405 2.06-3.024 2.846-4.694C20.435 12.486 21 10.708 21 9c0-4.44-3.397-9-9-9S3 4.56 3 9c0 1.707.564 3.485 1.345 5.145.786 1.67 1.824 3.288 2.846 4.693a46.489 46.489 0 004.003 4.769l.072.073.019.02.005.005.002.001zM12 11a2 2 0 100-4 2 2 0 000 4z" fill="#151515"/></svg>