<svg width="24" height="24" viewBox="0 0 24 24" fill="none" xmlns="http://www.w3.org/2000/svg"><path fill-rule="evenodd" clip-rule="evenodd" d="M22.946 1.676a1.003 1.003 0 00-1.334-.598.994.994 0 00-.173.094l-5.51 3.674-7.467-3.733a.994.994 0 00-.57-.107.994.994 0 00-.453.166l-5.98 3.986A1.003 1.003 0 001 6.016v15.97a.996.996 0 00.542.903.992.992 0 00.786.056.995.995 0 00.237-.12l5.507-3.671 7.464 3.732a.995.995 0 001.028-.06l5.974-3.983a1.01 1.01 0 00.334-.352.993.993 0 00.128-.506V2.014a.994.994 0 00-.054-.338zM21 17.465V3.869l-4 2.666v13.596l4-2.666zm-6 2.917V6.618l-6-3v13.764l6 3zm-8-2.917V3.869L3 6.535v13.596l4-2.666z" fill="#151515"/></svg>