<svg width="40" height="40" viewBox="0 0 40 40" fill="none" xmlns="http://www.w3.org/2000/svg"><path fill-rule="evenodd" clip-rule="evenodd" d="M25.074 28.427H14.927V10.28h10.147v18.148z" fill="#F36523"/><path fill-rule="evenodd" clip-rule="evenodd" d="M38.75 19.298a11.434 11.434 0 01-1.745 6.122 11.551 11.551 0 01-4.758 4.263A11.654 11.654 0 0120 28.378a11.594 11.594 0 003.261-4.037 11.508 11.508 0 000-10.087A11.593 11.593 0 0020 10.218a11.654 11.654 0 0112.246-1.305 11.551 11.551 0 014.758 4.263 11.435 11.435 0 011.746 6.122z" fill="#FA9F1B"/><path fill-rule="evenodd" clip-rule="evenodd" d="M15.574 19.299a11.475 11.475 0 011.161-5.045A11.56 11.56 0 0120 10.219 11.654 11.654 0 007.753 8.914a11.55 11.55 0 00-4.758 4.263 11.434 11.434 0 00-1.745 6.122 11.435 11.435 0 001.745 6.122 11.551 11.551 0 004.758 4.263A11.653 11.653 0 0020 28.378a11.56 11.56 0 01-3.265-4.034 11.475 11.475 0 01-1.161-5.045z" fill="#E71B26"/></svg>