<svg width="40" height="40" viewBox="0 0 40 40" fill="none" xmlns="http://www.w3.org/2000/svg"><path fill-rule="evenodd" clip-rule="evenodd" d="M22.27 16.057l-2.526 4.852h-.257v-5.907h-3.59V25h3.047c.385.005.763-.092 1.092-.279a1.99 1.99 0 00.77-.777l2.527-4.853h.256v5.91h3.591V15h-3.047a2.167 2.167 0 00-1.092.28 1.983 1.983 0 00-.77.777v-.001zm-13.47.257L7.307 20.91h-.256l-1.495-4.596a1.926 1.926 0 00-.756-.96 2.136 2.136 0 00-1.215-.352H0V25h3.589v-5.91h.257L5.897 25h2.564l2.052-5.909h.256v5.91h3.59V15h-3.586a2.136 2.136 0 00-1.216.353c-.355.236-.62.573-.757.96zm19.915 3.231V25h3.583v-3.182h3.853a4.023 4.023 0 002.19-.607 3.652 3.652 0 001.433-1.665H28.718l-.003-.001z" fill="#3BA634"/><path fill-rule="evenodd" clip-rule="evenodd" d="M36.154 15.001h-7.949a5.181 5.181 0 001.992 2.975 5.81 5.81 0 003.553 1.116h6.174c.05-.225.076-.453.076-.683a3.417 3.417 0 00-1.17-2.45 3.89 3.89 0 00-2.676-.958z" fill="#009BDB"/></svg>