<svg width="180" height="40" viewBox="0 0 180 40" fill="none" xmlns="http://www.w3.org/2000/svg"><g clip-path="url(#clip0)"><path d="M81.797 4.735v9.288H80.31V3.363h2.496l2.715 8.89 2.715-8.89h2.496v10.66h-1.486V4.735l-2.933 9.288H84.73l-2.932-9.288zm11.096 3.957a5.03 5.03 0 011.208-3.944 4.995 4.995 0 013.746-1.698 4.977 4.977 0 013.746 1.698 5.036 5.036 0 011.208 3.944 5.036 5.036 0 01-1.208 3.944 4.989 4.989 0 01-3.746 1.699 4.976 4.976 0 01-3.746-1.699 5.018 5.018 0 01-1.208-3.944zm8.422 0c0-2.745-1.526-4.256-3.448-4.256s-3.448 1.531-3.448 4.256c0 2.725 1.506 4.257 3.448 4.257s3.448-1.512 3.448-4.257zm7.668-1.113c2.358 0 3.784.975 3.784 3.143 0 2.168-1.585 3.301-3.784 3.301h-3.963V3.363h7.133v1.292h-5.667v2.924h2.497zm2.258 3.163c0-1.433-.871-1.99-2.377-1.99h-2.378v3.978h2.497c1.466 0 2.318-.696 2.318-1.989m4.955 3.282h-1.486V3.363h1.486v8.453l5.706-8.454h1.487v10.661h-1.487V5.55l-5.706 8.473zm16.505-9.368h-3.765v1.87c-.179 4.614-.912 7.498-3.091 7.498h-.436V12.73h.218c1.407 0 1.763-3.023 1.882-6.663V3.362h6.579v10.661h-1.387V4.655zm5.688-1.293V7.34h1.565c2.656-.04 4.637.617 4.637 3.322s-1.981 3.361-4.538 3.361h-3.15V3.363h1.486zm4.538 7.3c0-1.77-1.288-1.99-2.913-1.99h-1.625v4.058h1.625c1.625 0 2.913-.338 2.913-1.989m11.888 3.282h-1.487V9.19h-5.587v4.833h-1.487V3.363h1.487v4.534h5.587V3.362h1.487v10.661zm2.159-5.331a5.036 5.036 0 01.18-2.102 4.998 4.998 0 014.774-3.54 4.979 4.979 0 013.746 1.698 5.038 5.038 0 011.027 1.842c.208.68.269 1.396.18 2.102a5.036 5.036 0 01-.18 2.103 4.997 4.997 0 01-4.773 3.54 4.979 4.979 0 01-3.747-1.698 5.038 5.038 0 01-1.027-1.842 5.036 5.036 0 01-.18-2.103zm8.421 0c0-2.745-1.506-4.256-3.448-4.256s-3.487 1.531-3.487 4.256c0 2.725 1.526 4.257 3.448 4.257s3.448-1.512 3.448-4.257m10.939-5.33v1.293h-5.726v3.242h5.389V9.19h-5.389v3.54h5.726v1.293h-7.212V3.363h7.212zM46.486.656a19.926 19.926 0 017.723 1.416 19.986 19.986 0 016.584 4.292 19.715 19.715 0 014.3 6.266 19.018 19.018 0 011.545 7.697 18.939 18.939 0 01-1.545 7.698 19.535 19.535 0 01-4.317 6.281 19.45 19.45 0 01-6.384 4.142 19.749 19.749 0 01-7.925 1.551h-14.98V.656h15zm5.033 30.97a10.917 10.917 0 003.805-2.606 12.34 12.34 0 002.437-3.978c.595-1.52.891-3.141.872-4.774a12.88 12.88 0 00-.872-4.814 12.138 12.138 0 00-2.437-3.878 11.63 11.63 0 00-3.805-2.606 13.272 13.272 0 00-5.033-1.014h-6.994V32.62h6.994c1.73.04 3.448-.3 5.033-.995zM11.889 0c-2.351 0-4.65.7-6.605 2.011A11.925 11.925 0 00.905 7.367a11.983 11.983 0 00-.677 6.896 11.948 11.948 0 003.254 6.11A11.875 11.875 0 009.57 23.64c2.306.46 4.696.225 6.869-.679a11.9 11.9 0 005.335-4.395 11.966 11.966 0 00-1.478-15.07A11.866 11.866 0 0011.889 0zm0 16.947a4.902 4.902 0 01-2.7-.865 4.93 4.93 0 01-1.775-2.217 4.95 4.95 0 011.08-5.338 4.897 4.897 0 015.318-1.085 4.917 4.917 0 012.21 1.782 4.946 4.946 0 01-.578 6.279 4.914 4.914 0 01-3.555 1.444z" fill="#231F20"/><path d="M179.999 34.737H80.291V40h99.708v-5.263z" fill="url(#paint0_linear)"/><path d="M81.797 29.34h.99a1.304 1.304 0 001.269-.717l.198-.378-3.963-8.473h1.605l3.091 6.922 2.854-6.922h1.644l-3.963 8.911a2.963 2.963 0 01-1.048 1.42 2.945 2.945 0 01-1.666.569h-1.09l.079-1.333zm15.615-8.275h-5.31v9.348h-1.487V19.772h8.283v10.641h-1.486v-9.348zm12.027 1.929c0 2.646-1.803 3.223-4.399 3.223h-1.823v4.216h-1.506V19.772h3.309c2.596 0 4.399.577 4.399 3.222h.02zm-6.242 1.99h1.982c1.545 0 2.774-.16 2.774-1.99s-1.229-1.989-2.774-1.989h-1.982v3.978zm11.177-5.212l3.963 10.661h-1.605l-.832-2.307h-4.835l-.832 2.307h-1.526l3.963-10.661h1.704zm1.09 7.061l-1.982-5.55-1.981 5.55h3.963zm8.222-7.061c1.981 0 3.725.517 3.725 2.626a2.645 2.645 0 01-1.169 2.347 2.52 2.52 0 011.605 2.526c0 2.267-1.684 3.162-3.805 3.162h-4.181V19.772h3.825zm.218 4.555c1.228 0 1.981-.478 1.981-1.73 0-1.254-.812-1.572-1.981-1.572h-2.557v3.302h2.557zm.158 4.833c1.506 0 2.259-.656 2.259-1.87 0-1.213-.753-1.77-2.358-1.77h-2.616v3.64h2.715zm12.187-8.095h-3.745v1.85c-.159 4.614-.892 7.518-3.072 7.518h-.455V29.14h.218c1.406 0 1.783-3.043 1.981-6.683v-2.685h6.658v10.661h-1.506l-.079-9.368zm11.512-1.293v1.293h-5.707v3.222h5.37V25.6h-5.37v3.52h5.707v1.293h-7.193V19.772h7.193zm10.699 10.641h-1.486V25.58h-5.568v4.833H149.9V19.772h1.506v4.515h5.568v-4.515h1.486v10.641zm4.321 0h-1.506V19.772h1.506v8.454l5.707-8.454h1.486v10.641h-1.486V21.96l-5.707 8.453zM180 19.772v1.293h-5.727v3.222h5.39V25.6h-5.39v3.52H180v1.293h-7.213V19.772H180z" fill="#231F20"/></g><defs><linearGradient id="paint0_linear" x1="79.467" y1="36.534" x2="179.175" y2="36.534" gradientUnits="userSpaceOnUse"><stop stop-color="#CFE9DC"/><stop offset=".21" stop-color="#CFE9DC"/><stop offset=".37" stop-color="#C7E3DD"/><stop offset=".61" stop-color="#B0D3DF"/><stop offset=".92" stop-color="#8BBAE2"/><stop offset=".94" stop-color="#87B7E2"/><stop offset="1" stop-color="#87B7E2"/></linearGradient><clipPath id="clip0"><path fill="#fff" d="M0 0h180v40H0z"/></clipPath></defs></svg>