<svg width="159" height="40" viewBox="0 0 159 40" fill="none" xmlns="http://www.w3.org/2000/svg"><g clip-path="url(#clip0)"><path d="M46.881.657a20.247 20.247 0 017.788 1.416 20.173 20.173 0 016.64 4.292 19.71 19.71 0 014.337 6.266 18.881 18.881 0 011.558 7.697 18.801 18.801 0 01-1.558 7.698 19.531 19.531 0 01-4.353 6.28 19.634 19.634 0 01-6.438 4.143A20.066 20.066 0 0146.86 40H31.754V.657H46.88zm5.076 30.97a11.012 11.012 0 003.837-2.607 12.323 12.323 0 002.458-3.978c.6-1.52.898-3.14.879-4.773.02-1.646-.28-3.28-.88-4.814a12.126 12.126 0 00-2.457-3.879 11.733 11.733 0 00-3.837-2.605 13.483 13.483 0 00-5.076-1.015h-7.054v24.665h7.054c1.745.04 3.477-.3 5.076-.995zM11.99 0C9.619 0 7.3.7 5.329 2.011A11.947 11.947 0 00.913 7.367a11.883 11.883 0 00-.683 6.896 11.917 11.917 0 003.282 6.11A12.007 12.007 0 009.65 23.64c2.326.46 4.736.225 6.927-.679a11.979 11.979 0 005.381-4.395 11.895 11.895 0 00-1.49-15.07A12.019 12.019 0 0011.99 0zm0 16.947a4.972 4.972 0 01-2.723-.865 4.937 4.937 0 01-1.79-2.217 4.911 4.911 0 011.09-5.338 4.977 4.977 0 015.364-1.085 4.951 4.951 0 012.226 1.782 4.918 4.918 0 01-.582 6.279 4.958 4.958 0 01-3.585 1.444z" fill="#231F20"/><path d="M154 35H82v5h72v-5z" fill="url(#paint0_linear)"/><path d="M88.217 13l4.494-8.47L90.919 13H92.5l2.156-10.15h-2.632l-4.256 8.232-.812-8.232h-2.492L82.309 13h1.582l1.792-8.47.896 8.47h1.638zm8.494-4.088c0-2.114 1.204-4.914 3.822-4.914 1.848 0 2.632 1.372 2.632 2.94 0 2.114-1.204 4.914-3.822 4.914-1.834 0-2.632-1.372-2.632-2.94zm8.092-2.058c0-2.618-1.54-4.186-4.06-4.186-3.696 0-5.656 3.248-5.656 6.328 0 2.618 1.54 4.186 4.06 4.186 3.696 0 5.656-3.248 5.656-6.328zm6.942-4.382c1.722 0 2.688-.798 2.912-1.876h-1.204c-.07.49-.63.994-1.652.994-.952 0-1.4-.434-1.4-.994h-1.134c0 1.176.91 1.876 2.478 1.876zM106.887 13l6.79-7.686L112.039 13h1.568l2.128-10.15h-1.54l-6.804 7.7 1.638-7.7h-1.568L105.333 13h1.554zM83.919 29l.98-4.564h1.274L88.567 29h1.694l-2.73-5.222 4.676-4.928h-1.932l-3.976 4.228h-1.134l.882-4.228h-1.582L82.337 29h1.582z" fill="#151515"/><path d="M92.87 24.912c0-2.114 1.203-4.914 3.821-4.914 1.848 0 2.632 1.372 2.632 2.94 0 2.114-1.204 4.914-3.822 4.914-1.834 0-2.632-1.372-2.632-2.94zm8.091-2.058c0-2.618-1.54-4.186-4.06-4.186-3.696 0-5.656 3.248-5.656 6.328 0 2.618 1.54 4.186 4.06 4.186 3.696 0 5.656-3.248 5.656-6.328zm6.41 6.146l4.494-8.47-1.792 8.47h1.582l2.156-10.15h-2.632l-4.256 8.232-.812-8.232h-2.492L101.463 29h1.582l1.792-8.47.896 8.47h1.638zm11.91.378l.252-1.106c3.346-.154 5.502-2.296 5.502-5.082 0-2.002-1.372-3.528-3.682-3.64l.252-1.26h-1.568l-.252 1.26c-3.262.154-5.502 2.212-5.502 5.012 0 2.016 1.372 3.5 3.682 3.612l-.252 1.204h1.568zm-1.036-2.506c-1.456-.112-2.338-.826-2.338-2.394 0-2.156 1.61-3.472 3.598-3.626l-1.26 6.02zm2.828-6.02c1.456.126 2.31.812 2.31 2.38 0 2.114-1.554 3.486-3.57 3.64l1.26-6.02zm6.536 4.06c0-2.114 1.204-4.914 3.822-4.914 1.848 0 2.632 1.372 2.632 2.94 0 2.114-1.204 4.914-3.822 4.914-1.834 0-2.632-1.372-2.632-2.94zm8.092-2.058c0-2.618-1.54-4.186-4.06-4.186-3.696 0-5.656 3.248-5.656 6.328 0 2.618 1.54 4.186 4.06 4.186 3.696 0 5.656-3.248 5.656-6.328zm2.658-4.004L136.203 29h1.596l.84-3.934h1.484c2.8 0 5.012-.7 5.012-3.654 0-1.988-1.638-2.562-3.696-2.562h-3.08zm1.316 1.316h1.54c1.218 0 2.24.196 2.24 1.386 0 1.862-1.456 2.17-2.968 2.17h-1.568l.756-3.556zM146.871 29h1.596l1.876-8.778h3.248l.294-1.372h-8.106l-.28 1.372h3.248L146.871 29z" fill="#151515"/></g><defs><linearGradient id="paint0_linear" x1="82.215" y1="37.708" x2="154.001" y2="37.708" gradientUnits="userSpaceOnUse"><stop stop-color="#A0B1FF"/><stop offset="1" stop-color="#FFDCD6"/></linearGradient><clipPath id="clip0"><path fill="#fff" d="M0 0h159v40H0z"/></clipPath></defs></svg>