<svg width="159" height="40" viewBox="0 0 159 40" fill="none" xmlns="http://www.w3.org/2000/svg"><g clip-path="url(#clip0)"><path d="M46.881.657a20.247 20.247 0 017.788 1.416 20.173 20.173 0 016.64 4.292 19.71 19.71 0 014.337 6.266 18.881 18.881 0 011.558 7.697 18.801 18.801 0 01-1.558 7.698 19.531 19.531 0 01-4.353 6.28 19.634 19.634 0 01-6.438 4.143A20.066 20.066 0 0146.86 40H31.754V.657H46.88zm5.076 30.97a11.012 11.012 0 003.837-2.607 12.323 12.323 0 002.458-3.978c.6-1.52.898-3.14.879-4.773.02-1.646-.28-3.28-.88-4.814a12.126 12.126 0 00-2.457-3.879 11.733 11.733 0 00-3.837-2.605 13.483 13.483 0 00-5.076-1.015h-7.054v24.665h7.054c1.745.04 3.477-.3 5.076-.995zM82.55 4.535v9.627h-1.558V3.122h2.618l2.838 9.21 2.837-9.21h2.618v11.04h-1.579V4.535l-3.057 9.627h-1.659l-3.057-9.627zm11.591 4.097a5.189 5.189 0 011.311-4.039 5.235 5.235 0 013.895-1.729 5.254 5.254 0 013.895 1.73 5.207 5.207 0 011.311 4.038 5.194 5.194 0 01-1.311 4.04 5.235 5.235 0 01-3.895 1.729 5.256 5.256 0 01-3.895-1.73 5.206 5.206 0 01-1.31-4.039zm8.833 0c0-2.844-1.599-4.395-3.617-4.395S95.74 5.788 95.74 8.632c0 2.845 1.599 4.436 3.617 4.436s3.617-1.571 3.617-4.436zm5.395 5.53h-1.558V3.122h1.558v8.812l5.995-8.772h1.539v11h-1.559V5.39l-5.975 8.772zm3.018-11.656c-1.759 0-2.618-.796-2.778-1.83h1.179c0 .577.659.895 1.619.895.959 0 1.518-.338 1.638-.895h1.179c-.12 1.034-1.019 1.83-2.837 1.83zM82.55 25.142v5.032h-1.558v-11.06h1.559v4.695h1.119l3.737-4.694h1.878l-4.276 5.231 4.436 5.828h-1.858l-3.877-5.032h-1.16zm7.374-.497a5.187 5.187 0 011.311-4.04 5.236 5.236 0 013.895-1.729 5.258 5.258 0 013.895 1.73 5.2 5.2 0 011.311 4.038 5.194 5.194 0 01-1.31 4.04 5.234 5.234 0 01-3.896 1.729 5.256 5.256 0 01-3.895-1.73 5.205 5.205 0 01-1.31-4.038zm8.813 0c0-2.865-1.579-4.416-3.597-4.416s-3.617 1.551-3.617 4.416c0 2.864 1.579 4.415 3.617 4.415 2.038 0 3.597-1.571 3.597-4.415zm5.335-4.098v9.627h-1.558v-11.06h2.617l2.838 9.21 2.818-9.21h2.618v11.06h-1.559v-9.627l-3.058 9.627h-1.658l-3.058-9.627zm22.862 4.098a4.61 4.61 0 01-3.065 4.371 4.657 4.657 0 01-1.871.263v1.293h-1.579V29.28a4.728 4.728 0 01-3.335-1.375 4.685 4.685 0 01-1.381-3.319c0-1.245.497-2.439 1.381-3.32a4.728 4.728 0 013.335-1.374v-1.373h1.579v1.373a4.693 4.693 0 013.513 1.302c.463.447.829.984 1.074 1.578a4.63 4.63 0 01.349 1.874zm-9.872 0a3.268 3.268 0 00.95 2.407 3.306 3.306 0 002.407.974v-6.842a3.29 3.29 0 00-2.428.981 3.266 3.266 0 00-.929 2.44v.04zm8.273-.04a3.264 3.264 0 00-.929-2.426 3.296 3.296 0 00-2.408-.995v6.802a3.291 3.291 0 002.4-.975 3.264 3.264 0 00.937-2.406zm3.037.04a5.177 5.177 0 011.311-4.04 5.234 5.234 0 013.894-1.729 5.234 5.234 0 014.983 3.61c.225.696.302 1.431.223 2.159a5.194 5.194 0 01-1.311 4.039 5.231 5.231 0 01-3.895 1.729 5.257 5.257 0 01-3.894-1.73 5.178 5.178 0 01-1.311-4.04zm8.832 0c0-2.865-1.598-4.416-3.617-4.416-2.018 0-3.696 1.65-3.696 4.416 0 2.764 1.598 4.415 3.616 4.415 2.019 0 3.617-1.571 3.617-4.415m12.012-2.189c0 2.745-1.898 3.342-4.616 3.342h-1.998v4.376h-1.559v-11.06h3.477c2.718 0 4.616.617 4.616 3.342h.08zm-6.614 1.99h1.998c1.619 0 2.897-.18 2.897-1.99s-1.278-1.989-2.897-1.989h-1.998v3.978zm6.833-3.979v-1.352h8.793v1.352h-3.617v9.707h-1.559v-9.707h-3.617z" fill="#231F20"/><path d="M159 35H82v5h77v-5z" fill="url(#paint0_linear)"/></g><defs><linearGradient id="paint0_linear" x1="82.23" y1="37.708" x2="159.001" y2="37.708" gradientUnits="userSpaceOnUse"><stop stop-color="#A0B1FF"/><stop offset="1" stop-color="#FFDCD6"/></linearGradient><clipPath id="clip0"><path fill="#fff" d="M0 0h159v40H0z"/></clipPath></defs></svg>