<svg width="329" height="141" viewBox="0 0 329 141" fill="none" xmlns="http://www.w3.org/2000/svg"><mask id="a" fill="#fff"><path d="M59 1a19 19 0 100 38 19 19 0 000-38zm0 26.98a7.853 7.853 0 11.255-15.704A7.853 7.853 0 0159 27.98z"/></mask><path d="M59 1h1V0h-1v1zm19 19h1-1zM59 1h-1v1h1V1zm7.98 19l-1 .016 1-.016zM59 0a20 20 0 00-11.111 3.37l1.11 1.664A18 18 0 0159 2V0zM47.889 3.37a20 20 0 00-7.367 8.976l1.848.766A18 18 0 0149 5.034L47.889 3.37zm-7.367 8.976a20 20 0 00-1.138 11.556l1.962-.39a18 18 0 011.024-10.4l-1.848-.766zm-1.138 11.556a20 20 0 005.474 10.24l1.414-1.414a17.999 17.999 0 01-4.926-9.216l-1.962.39zm5.474 10.24a20 20 0 0010.24 5.474l.39-1.962a17.999 17.999 0 01-9.216-4.926l-1.414 1.414zm10.24 5.474a20 20 0 0011.556-1.138l-.766-1.848a18 18 0 01-10.4 1.024l-.39 1.962zm11.556-1.138a20 20 0 008.975-7.367l-1.663-1.11a18 18 0 01-8.078 6.629l.766 1.848zm8.975-7.367A20 20 0 0079 20h-2a18 18 0 01-3.034 10l1.663 1.111zM79 20a20 20 0 00-5.858-14.142l-1.414 1.414A18 18 0 0177 20h2zM73.142 5.858A20 20 0 0059 0v2a18 18 0 0112.728 5.272l1.414-1.414zM60 1h-2 2zm-.984 25.98a6.853 6.853 0 01-3.765-1.2l-1.131 1.648a8.854 8.854 0 004.864 1.552l.032-2zm-3.765-1.2a6.854 6.854 0 01-2.476-3.081l-1.854.75a8.853 8.853 0 003.199 3.98l1.131-1.65zm-2.476-3.081a6.853 6.853 0 01-.363-3.936l-1.96-.398a8.853 8.853 0 00.469 5.084l1.854-.75zm-.363-3.936a6.852 6.852 0 011.87-3.481l-1.414-1.415a8.853 8.853 0 00-2.416 4.498l1.96.398zm1.87-3.481a6.853 6.853 0 013.481-1.87l-.398-1.96a8.853 8.853 0 00-4.498 2.415l1.415 1.415zm3.481-1.87a6.854 6.854 0 013.936.363l.75-1.854a8.853 8.853 0 00-5.084-.47l.398 1.96zm3.936.363a6.854 6.854 0 013.08 2.476l1.65-1.131a8.853 8.853 0 00-3.98-3.199l-.75 1.854zm3.08 2.476a6.852 6.852 0 011.201 3.765l2-.032a8.854 8.854 0 00-1.552-4.864l-1.648 1.13zm1.201 3.765a6.852 6.852 0 01-.5 2.683l1.854.75c.446-1.1.665-2.279.646-3.465l-2 .032zm-.5 2.683a6.853 6.853 0 01-1.506 2.275l1.414 1.414a8.855 8.855 0 001.946-2.939l-1.853-.75zm-1.506 2.275a6.853 6.853 0 01-2.275 1.506l.75 1.854a8.855 8.855 0 002.939-1.946l-1.414-1.414zm-2.275 1.506a6.853 6.853 0 01-2.683.5l-.032 2c1.186.02 2.365-.2 3.465-.646l-.75-1.854z" fill="#D1D8E1" mask="url(#a)"/><mask id="b" fill="#fff"><path d="M59 102a18.998 18.998 0 00-18.635 22.707A19 19 0 1059 102zm0 26.98a7.856 7.856 0 01-7.152-4.906A7.853 7.853 0 1159 128.98z"/></mask><path d="M59 102h1v-1h-1v1zm19 19h1-1zm-19-19h-1v1h1v-1zm7.98 19l-1 .016 1-.016zM59 101a19.998 19.998 0 00-11.111 3.371l1.11 1.663A18 18 0 0159 103v-2zm-11.111 3.371a19.998 19.998 0 00-7.367 8.975l1.848.766a17.996 17.996 0 016.63-8.078l-1.111-1.663zm-7.367 8.975a20.002 20.002 0 00-1.138 11.556l1.962-.39a18 18 0 011.024-10.4l-1.848-.766zm-1.138 11.556a20 20 0 005.474 10.24l1.414-1.414a18 18 0 01-4.926-9.216l-1.962.39zm5.474 10.24a20.003 20.003 0 0010.24 5.474l.39-1.962a17.998 17.998 0 01-9.216-4.926l-1.414 1.414zm10.24 5.474c3.88.771 7.901.375 11.556-1.138l-.766-1.848a18 18 0 01-10.4 1.024l-.39 1.962zm11.556-1.138a20.003 20.003 0 008.975-7.367L73.966 131a18.006 18.006 0 01-8.078 6.63l.766 1.848zm8.975-7.367A19.998 19.998 0 0079 121h-2a18 18 0 01-3.034 10l1.663 1.111zM79 121a20 20 0 00-5.858-14.142l-1.414 1.414A18 18 0 0177 121h2zm-5.858-14.142A19.999 19.999 0 0059 101v2a18 18 0 0112.728 5.272l1.414-1.414zM60 102h-2 2zm-.984 25.98a6.85 6.85 0 01-3.765-1.201l-1.131 1.649a8.848 8.848 0 004.864 1.552l.032-2zm-3.765-1.201a6.854 6.854 0 01-2.476-3.08l-1.854.75a8.848 8.848 0 003.199 3.979l1.131-1.649zm-2.476-3.08a6.856 6.856 0 01-.363-3.936l-1.96-.398a8.853 8.853 0 00.469 5.084l1.854-.75zm-.363-3.936a6.848 6.848 0 011.87-3.481l-1.414-1.415a8.856 8.856 0 00-2.416 4.498l1.96.398zm1.87-3.481a6.844 6.844 0 013.481-1.87l-.398-1.96a8.855 8.855 0 00-4.498 2.415l1.415 1.415zm3.481-1.87a6.852 6.852 0 013.936.363l.75-1.854a8.849 8.849 0 00-5.084-.469l.398 1.96zm3.936.363a6.853 6.853 0 013.08 2.476l1.65-1.131a8.85 8.85 0 00-3.98-3.199l-.75 1.854zm3.08 2.476a6.851 6.851 0 011.201 3.765l2-.032a8.85 8.85 0 00-1.552-4.864l-1.649 1.131zm1.201 3.765a6.854 6.854 0 01-.5 2.683l1.854.75c.446-1.1.665-2.279.646-3.465l-2 .032zm-.5 2.683a6.863 6.863 0 01-1.506 2.275l1.414 1.414a8.854 8.854 0 001.946-2.939l-1.853-.75zm-1.506 2.275a6.85 6.85 0 01-2.275 1.506l.75 1.854a8.852 8.852 0 002.939-1.946l-1.414-1.414zm-2.275 1.506a6.847 6.847 0 01-2.683.5l-.032 2a8.846 8.846 0 003.465-.646l-.75-1.854z" fill="#D1D8E1" mask="url(#b)"/><mask id="c" fill="#fff"><path d="M20 39a19 19 0 100 38 19 19 0 000-38zm0 26.98a7.853 7.853 0 11.255-15.704A7.853 7.853 0 0120 65.98z"/></mask><path d="M20 39h1v-1h-1v1zm19 19h1-1zM20 39h-1v1h1v-1zm7.98 19l-1 .016 1-.016zM20 38a20 20 0 00-11.111 3.37l1.11 1.663A18 18 0 0120 40v-2zM8.889 41.37a20 20 0 00-7.367 8.976l1.848.766A18 18 0 0110 43.033l-1.111-1.662zm-7.367 8.976A20 20 0 00.384 61.902l1.962-.39a18 18 0 011.024-10.4l-1.848-.766zM.384 61.902a20 20 0 005.474 10.24l1.414-1.414a18 18 0 01-4.926-9.216l-1.962.39zm5.474 10.24a20 20 0 0010.24 5.474l.39-1.962a18 18 0 01-9.216-4.926l-1.414 1.414zm10.24 5.474a20 20 0 0011.556-1.138l-.766-1.848a18 18 0 01-10.4 1.024l-.39 1.962zm11.556-1.138a20 20 0 008.975-7.367l-1.662-1.11a18 18 0 01-8.079 6.629l.766 1.848zm8.975-7.367A20 20 0 0040 58h-2a18 18 0 01-3.033 10l1.662 1.111zM40 58a20 20 0 00-5.858-14.142l-1.414 1.414A18 18 0 0138 58h2zm-5.858-14.142A20 20 0 0020 38v2a18 18 0 0112.728 5.272l1.414-1.414zM21 39h-2 2zm-.984 25.98a6.853 6.853 0 01-3.765-1.2l-1.131 1.648a8.854 8.854 0 004.864 1.552l.032-2zm-3.765-1.2a6.854 6.854 0 01-2.476-3.081l-1.854.75a8.853 8.853 0 003.199 3.98l1.131-1.65zm-2.476-3.081a6.853 6.853 0 01-.363-3.936l-1.96-.398a8.853 8.853 0 00.469 5.084l1.854-.75zm-.363-3.936a6.852 6.852 0 011.87-3.481l-1.415-1.414a8.853 8.853 0 00-2.415 4.497l1.96.398zm1.87-3.481a6.853 6.853 0 013.481-1.87l-.398-1.96a8.853 8.853 0 00-4.497 2.416l1.414 1.414zm3.481-1.87a6.854 6.854 0 013.936.363l.75-1.854a8.853 8.853 0 00-5.084-.47l.398 1.96zm3.936.363a6.854 6.854 0 013.08 2.476l1.65-1.131a8.853 8.853 0 00-3.98-3.199l-.75 1.854zm3.08 2.476a6.852 6.852 0 011.201 3.765l2-.032a8.854 8.854 0 00-1.552-4.864l-1.648 1.13zm1.201 3.765a6.852 6.852 0 01-.5 2.683l1.854.75c.446-1.1.665-2.279.646-3.465l-2 .032zm-.5 2.683a6.853 6.853 0 01-1.506 2.275l1.414 1.414a8.855 8.855 0 001.946-2.939l-1.854-.75zm-1.506 2.275a6.853 6.853 0 01-2.275 1.507l.75 1.853a8.855 8.855 0 002.939-1.946l-1.414-1.414zm-2.275 1.507a6.853 6.853 0 01-2.683.5l-.032 1.999c1.186.02 2.365-.2 3.465-.646l-.75-1.853z" fill="#D1D8E1" mask="url(#c)"/><mask id="d" fill="#fff"><path d="M309 39a19 19 0 100 38.002A19 19 0 00309 39zm0 26.98a7.855 7.855 0 01-7.568-9.416 7.85 7.85 0 016.132-6.132A7.853 7.853 0 11309 65.98z"/></mask><path d="M309 39h1v-1h-1v1zm19 19h1-1zm-19-19h-1v1h1v-1zm7.98 19l-1 .016 1-.016zM309 38a19.998 19.998 0 00-11.111 3.37L299 43.034A18 18 0 01309 40v-2zm-11.111 3.37a20.003 20.003 0 00-7.367 8.976l1.848.766c1.363-3.29 3.67-6.1 6.63-8.079l-1.111-1.662zm-7.367 8.976a20.012 20.012 0 00-1.138 11.556l1.962-.39a18 18 0 011.024-10.4l-1.848-.766zm-1.138 11.556a20.003 20.003 0 005.474 10.24l1.414-1.414a17.998 17.998 0 01-4.926-9.216l-1.962.39zm5.474 10.24a20 20 0 0010.24 5.474l.39-1.962a18 18 0 01-9.216-4.926l-1.414 1.414zm10.24 5.474c3.88.771 7.901.375 11.556-1.138l-.766-1.848a18 18 0 01-10.4 1.024l-.39 1.962zm11.556-1.138a19.998 19.998 0 008.975-7.367l-1.663-1.11a17.996 17.996 0 01-8.078 6.629l.766 1.848zm8.975-7.367A19.998 19.998 0 00329 58h-2a18 18 0 01-3.034 10l1.663 1.111zM329 58a19.999 19.999 0 00-5.858-14.142l-1.414 1.414A17.998 17.998 0 01327 58h2zm-5.858-14.142A20 20 0 00309 38v2a18 18 0 0112.728 5.272l1.414-1.414zM310 39h-2 2zm-.984 25.98a6.852 6.852 0 01-3.765-1.2l-1.131 1.648a8.85 8.85 0 004.864 1.552l.032-2zm-3.765-1.2a6.853 6.853 0 01-2.476-3.081l-1.854.75a8.85 8.85 0 003.199 3.98l1.131-1.65zm-2.476-3.081a6.852 6.852 0 01-.363-3.936l-1.96-.398a8.849 8.849 0 00.469 5.084l1.854-.75zm-.363-3.936a6.851 6.851 0 011.87-3.481l-1.415-1.414a8.854 8.854 0 00-2.415 4.497l1.96.398zm1.87-3.481a6.848 6.848 0 013.481-1.87l-.398-1.96a8.856 8.856 0 00-4.498 2.416l1.415 1.414zm3.481-1.87a6.856 6.856 0 013.936.363l.75-1.854a8.853 8.853 0 00-5.084-.47l.398 1.96zm3.936.363a6.854 6.854 0 013.08 2.476l1.649-1.131a8.848 8.848 0 00-3.979-3.199l-.75 1.854zm3.08 2.476a6.85 6.85 0 011.201 3.765l2-.032a8.848 8.848 0 00-1.552-4.864l-1.649 1.131zm1.201 3.765a6.847 6.847 0 01-.5 2.683l1.854.75c.446-1.1.665-2.279.646-3.465l-2 .032zm-.5 2.683a6.85 6.85 0 01-1.506 2.275l1.414 1.414a8.852 8.852 0 001.946-2.939l-1.854-.75zm-1.506 2.275a6.863 6.863 0 01-2.275 1.507l.75 1.853a8.854 8.854 0 002.939-1.946l-1.414-1.414zm-2.275 1.507a6.856 6.856 0 01-2.683.5l-.032 1.999c1.186.02 2.365-.2 3.465-.646l-.75-1.853z" fill="#D1D8E1" mask="url(#d)"/><path stroke="#D1D8E1" d="M.5.5h328v140H.5z"/><g clip-path="url(#clip0)"><path d="M113.417 40.018c4.172-.07 8.318.677 12.196 2.195a31.624 31.624 0 0110.398 6.653 30.536 30.536 0 016.791 9.712 29 29 0 012.441 11.93 28.884 28.884 0 01-2.441 11.932 30.271 30.271 0 01-6.816 9.736 30.785 30.785 0 01-10.083 6.42A31.696 31.696 0 01113.385 101H89.727V40.018h23.69zm7.948 48.003a17.257 17.257 0 006.009-4.04 19.073 19.073 0 003.849-6.165 19.341 19.341 0 001.377-7.4c.03-2.55-.437-5.083-1.377-7.46a18.765 18.765 0 00-3.849-6.013 18.392 18.392 0 00-6.009-4.038 21.3 21.3 0 00-7.948-1.573H102.37v38.23h11.047a19.021 19.021 0 007.948-1.541zM58.777 40a18.978 18.978 0 00-10.432 3.117 18.56 18.56 0 00-6.916 8.302 18.243 18.243 0 00-1.068 10.688A18.415 18.415 0 0045.5 71.58a18.867 18.867 0 009.614 5.062 19.04 19.04 0 0010.848-1.053 18.719 18.719 0 008.427-6.813 18.303 18.303 0 003.165-10.277 18.36 18.36 0 00-5.5-13.08A18.92 18.92 0 0058.777 40zm0 26.267a7.842 7.842 0 01-4.264-1.34 7.668 7.668 0 01-2.804-3.436 7.539 7.539 0 01-.412-4.39 7.612 7.612 0 012.118-3.885 7.797 7.797 0 013.943-2.086 7.87 7.87 0 014.457.405 7.74 7.74 0 013.488 2.763 7.547 7.547 0 01.794 7.194c-.39.95-.97 1.812-1.706 2.537a7.773 7.773 0 01-2.576 1.681 7.864 7.864 0 01-3.038.558zm110.5-20.237v14.92h-2.441V43.84h4.1l4.443 14.274 4.444-14.275h4.1V60.95h-2.472V46.03l-4.789 14.922h-2.597l-4.788-14.922zm18.153 6.35a7.958 7.958 0 01.35-3.345 8.037 8.037 0 011.702-2.916 8.196 8.196 0 012.761-1.979 8.302 8.302 0 016.678 0 8.196 8.196 0 012.761 1.98 8.037 8.037 0 011.702 2.915 7.958 7.958 0 01.35 3.345 7.957 7.957 0 01-.35 3.346 8.037 8.037 0 01-1.702 2.915 8.198 8.198 0 01-2.761 1.98 8.302 8.302 0 01-6.678 0 8.198 8.198 0 01-2.761-1.98 8.037 8.037 0 01-1.702-2.915 7.957 7.957 0 01-.35-3.346zm13.832 0c0-4.408-2.504-6.813-5.664-6.813-3.161 0-5.665 2.405-5.665 6.813 0 4.41 2.504 6.876 5.665 6.876 3.16 0 5.664-2.436 5.664-6.876zm8.448 8.57h-2.44V43.84h2.44v13.658l9.389-13.596h2.41V60.95h-2.441V47.355L209.71 60.95zm4.726-18.066c-2.754 0-4.1-1.233-4.35-2.836h1.846c0 .894 1.033 1.387 2.535 1.387 1.502 0 2.379-.524 2.566-1.387h1.847c-.188 1.603-1.596 2.836-4.444 2.836zM169.277 77.97v7.8h-2.441V68.628h2.441v7.276h1.752l5.853-7.276h2.941l-6.697 8.108 6.948 9.034h-2.911l-6.071-7.8h-1.815zm11.549-.771a7.974 7.974 0 01.35-3.346 8.054 8.054 0 011.703-2.915 8.192 8.192 0 012.76-1.98 8.305 8.305 0 016.679 0 8.192 8.192 0 012.76 1.98 8.054 8.054 0 011.703 2.915 7.974 7.974 0 01.35 3.346 7.974 7.974 0 01-.35 3.346 8.053 8.053 0 01-1.703 2.915 8.192 8.192 0 01-2.76 1.98 8.306 8.306 0 01-6.679 0 8.192 8.192 0 01-2.76-1.98 8.053 8.053 0 01-1.703-2.915 7.974 7.974 0 01-.35-3.346zm13.801 0c0-4.44-2.472-6.844-5.633-6.844s-5.664 2.404-5.664 6.844 2.472 6.844 5.664 6.844c3.192 0 5.633-2.435 5.633-6.844zm8.355-6.351V85.77h-2.441V68.628h4.1l4.443 14.274 4.413-14.274h4.1V85.77h-2.441V70.848l-4.788 14.922h-2.598l-4.788-14.922zm35.801 6.352a7.067 7.067 0 01-.585 2.857 7.153 7.153 0 01-1.693 2.39 7.289 7.289 0 01-2.522 1.527 7.361 7.361 0 01-2.93.409v2.004h-2.472v-2.004a7.445 7.445 0 01-5.223-2.132 7.222 7.222 0 01-2.163-5.144c0-1.93.778-3.78 2.163-5.145a7.445 7.445 0 015.223-2.131v-2.128h2.472v2.128a7.425 7.425 0 012.965.442c.947.348 1.81.884 2.536 1.576a7.2 7.2 0 011.682 2.445c.384.921.57 1.91.547 2.905zm-15.46 0a5.02 5.02 0 00.356 2.015 5.077 5.077 0 001.133 1.715c.491.49 1.079.877 1.727 1.136a5.23 5.23 0 002.042.374V71.835a5.205 5.205 0 00-2.063.37 5.135 5.135 0 00-1.74 1.151 5.005 5.005 0 00-1.455 3.781v.062zm12.956-.063a5.016 5.016 0 00-.333-2.027 5.097 5.097 0 00-1.121-1.732 5.163 5.163 0 00-1.725-1.155 5.229 5.229 0 00-2.047-.388v10.544a5.205 5.205 0 002.038-.375 5.138 5.138 0 001.721-1.137 5.062 5.062 0 001.124-1.716 4.988 4.988 0 00.343-2.013zm4.756.062a7.974 7.974 0 01.35-3.346 8.054 8.054 0 011.703-2.915 8.192 8.192 0 012.76-1.98 8.305 8.305 0 016.679 0 8.192 8.192 0 012.76 1.98 8.054 8.054 0 011.703 2.915 7.974 7.974 0 01.35 3.346 7.974 7.974 0 01-.35 3.346 8.053 8.053 0 01-1.703 2.915 8.192 8.192 0 01-2.76 1.98 8.306 8.306 0 01-6.679 0 8.192 8.192 0 01-2.76-1.98 8.053 8.053 0 01-1.703-2.915 7.974 7.974 0 01-.35-3.346zm13.832 0c0-4.44-2.503-6.844-5.664-6.844-3.161 0-5.789 2.559-5.789 6.844s2.503 6.844 5.664 6.844c3.161 0 5.664-2.435 5.664-6.844m18.809-3.392c0 4.255-2.973 5.18-7.229 5.18h-3.129v6.783h-2.441V68.628h5.445c4.256 0 7.229.956 7.229 5.18h.125zm-10.358 3.084h3.129c2.535 0 4.538-.278 4.538-3.084 0-2.805-2.003-3.083-4.538-3.083h-3.129v6.166zm10.703-6.167v-2.096h13.77v2.096h-5.664V85.77h-2.441V70.724h-5.665z" fill="#231F20"/><path d="M288.999 93.25H168.414V101h120.585v-7.75z" fill="url(#paint0_linear)"/></g><path stroke="#D1D8E1" d="M39.5 39.5h250v62h-250z"/><defs><linearGradient id="paint0_linear" x1="168.775" y1="97.448" x2="289" y2="97.448" gradientUnits="userSpaceOnUse"><stop stop-color="#A0B1FF"/><stop offset="1" stop-color="#FFDCD6"/></linearGradient><clipPath id="clip0"/></defs></svg>