<svg width="24" height="24" viewBox="0 0 24 24" fill="none" xmlns="http://www.w3.org/2000/svg"><path fill-rule="evenodd" clip-rule="evenodd" d="M13 1V0h-2v3.062A8.001 8.001 0 004 11v5.188c0 .503-.013.998-.17 1.365a.672.672 0 01-.234.311C3.51 17.922 3.339 18 3 18a1 1 0 100 2h5a4 4 0 008 0h5a1 1 0 100-2c-.34 0-.51-.078-.596-.136a.671.671 0 01-.234-.311c-.157-.367-.17-.862-.17-1.366V11a8.001 8.001 0 00-7-7.938V1zm-1.004 4h.008A6 6 0 0118 11v5.234c0 .385-.001 1.085.207 1.766H5.793C6 17.319 6 16.62 6 16.234V11a6 6 0 015.996-6zM12 22a2 2 0 01-2-2h4a2 2 0 01-2 2z" fill="#151515"/></svg>