<svg width="24" height="24" viewBox="0 0 24 24" fill="none" xmlns="http://www.w3.org/2000/svg"><path fill-rule="evenodd" clip-rule="evenodd" d="M17.685 14.111c-.62.636-1.363 1.096-2.19 1.417-.781.302-1.637.455-2.485.558.128.138.188.207.268.287 1.151 1.157 2.307 2.309 3.454 3.47.39.394.473.885.257 1.347-.235.502-.762.833-1.278.796-.327-.022-.583-.185-.81-.413-.868-.875-1.753-1.734-2.604-2.624-.247-.259-.366-.21-.585.014-.873.9-1.761 1.787-2.654 2.668-.401.396-.878.468-1.344.241-.494-.24-.808-.745-.784-1.252.017-.344.186-.606.421-.84a3029.6 3029.6 0 003.41-3.42c.076-.075.146-.155.255-.273-1.55-.161-2.946-.544-4.141-1.481-.15-.115-.303-.229-.437-.357-.524-.504-.577-1.081-.163-1.676.355-.505.95-.643 1.568-.353.12.06.233.129.342.206 2.23 1.533 5.291 1.575 7.528.068.222-.17.46-.308.734-.38.534-.137 1.032.061 1.318.526.327.536.324 1.056-.08 1.471zm-5.725-1.988c-2.764-.01-5.03-2.303-5.013-5.073C6.962 4.25 9.23 1.991 12.02 2c2.796.007 5.041 2.296 5.027 5.126-.014 2.765-2.296 5.007-5.088 4.997zm.04-7.54a2.469 2.469 0 00-2.476 2.503 2.462 2.462 0 002.49 2.452 2.458 2.458 0 002.458-2.482A2.465 2.465 0 0012 4.584z" fill="#151515"/></svg>