<svg width="24" height="24" viewBox="0 0 24 24" fill="none" xmlns="http://www.w3.org/2000/svg"><g clip-path="url(#clip0)"><path d="M20.807 13.678c-.956 0-2.129.11-3.492.325-1.903-1.764-3.889-4.34-5.29-6.87 1.39-5.114.635-5.813.387-6.18-.107-.159-.5-.663-1.301-.832-.282-.059-.828-.034-1.067.035-.598.175-.92.578-1.179 1.104-.735 1.502.274 4.062 1.312 6.036-.887 3.082-2.375 6.772-3.94 9.766C2.298 18.64.205 20.19.015 21.667c-.068.538.077 1.327 1.16 2.037.296.193.643.296 1.005.296.91 0 1.83-.609 2.893-1.914.776-.952 1.609-2.25 2.478-3.862 2.785-1.064 6.23-2.026 9.18-2.564 1.643 1.378 3.114 2.076 4.378 2.076.932 0 1.73-.375 2.309-1.082.602-.737.74-1.397.405-1.963-.4-.68-1.387-1.013-3.015-1.013zM2.202 22.466c-.448-.056-.458-.546-.448-.628.064-.506.97-1.402 3.192-2.493-1.684 2.718-2.296 3.178-2.744 3.121zM10.73 1.641c.248-.073 1.086 1 .1 2.922C10 3 10.48 1.713 10.729 1.64zM8.579 16.2a59.539 59.539 0 002.78-6.872c1.169 1.833 2.571 3.612 3.975 5.037A57.437 57.437 0 008.58 16.2zm13.41-.342c-.321.392-.86.42-1.253.308-.69-.198-.761-.288-1.608-.858a17.115 17.115 0 011.883-.098c.924 0 1.18.047 1.221.179 0 .094-.089.28-.244.47z" fill="#151515"/></g><defs><clipPath id="clip0"><path fill="#fff" d="M0 0h24v24H0z"/></clipPath></defs></svg>