<svg width="24" height="24" viewBox="0 0 24 24" fill="none" xmlns="http://www.w3.org/2000/svg"><path fill-rule="evenodd" clip-rule="evenodd" d="M5 0a2 2 0 00-2 2v3a1 1 0 002 0V2h14v3a1 1 0 102 0V2a2 2 0 00-2-2H5zm0 19a1 1 0 10-2 0v3a2 2 0 002 2h14a2 2 0 002-2v-3a1 1 0 10-2 0v3H5v-3zm-2.61-2.934c-.264 0-.473-.077-.627-.231-.154-.154-.23-.363-.23-.627v-6.16c0-.257.069-.455.208-.594.14-.14.338-.209.594-.209h2.761c.844 0 1.5.213 1.97.638.469.425.703 1.02.703 1.782 0 .763-.234 1.357-.704 1.782-.47.425-1.125.638-1.969.638H3.25v2.123c0 .264-.077.473-.23.627-.155.154-.364.231-.628.231zm2.486-4.279c.858 0 1.287-.37 1.287-1.111 0-.748-.429-1.122-1.287-1.122H3.25v2.233h1.628zM9.904 16c-.257 0-.455-.07-.594-.209-.14-.14-.21-.337-.21-.594V9.048c0-.257.07-.455.21-.594.14-.14.337-.209.594-.209h2.21c.844 0 1.57.154 2.179.462a3.226 3.226 0 011.397 1.331c.322.58.484 1.272.484 2.079 0 .807-.162 1.503-.484 2.09a3.161 3.161 0 01-1.386 1.331c-.609.308-1.338.462-2.19.462h-2.21zm2.09-1.386c1.65 0 2.475-.832 2.475-2.497 0-1.657-.825-2.486-2.475-2.486h-1.177v4.983h1.177zm5.948 1.221a.87.87 0 00.627.231c.256 0 .458-.077.605-.231.154-.154.23-.363.23-.627v-2.475h2.674c.278 0 .483-.055.616-.165.132-.11.198-.279.198-.506 0-.235-.066-.407-.198-.517-.133-.11-.338-.165-.616-.165h-2.674V9.598h2.893c.28 0 .485-.055.616-.165.133-.11.198-.279.198-.506 0-.235-.066-.407-.198-.517-.131-.11-.337-.165-.616-.165h-3.784c-.256 0-.454.07-.594.209-.139.14-.209.337-.209.594v6.16a.87.87 0 00.232.627z" fill="#151515"/></svg>