<svg width="24" height="24" viewBox="0 0 24 24" fill="none" xmlns="http://www.w3.org/2000/svg"><path fill-rule="evenodd" clip-rule="evenodd" d="M4.188 3.293A1 1 0 014.895 3h4.473a1 1 0 01.895.553l1.79 3.579a1 1 0 01.105.447v.895a1 1 0 01-.293.707l-1.322 1.322c.56 1.198 1.85 3.044 3.946 3.963l1.33-1.331a1 1 0 01.707-.293h.895a1 1 0 01.447.106l3.58 1.79a1 1 0 01.552.894v4.473a1 1 0 01-.293.707l-.895.895a1 1 0 01-.707.293C10.658 22 3 14.342 3 4.895a1 1 0 01.293-.707l.895-.895zM5.309 5l-.304.304c.213 8.017 6.674 14.478 14.691 14.69l.304-.303V16.25l-2.815-1.408h-.244l-1.497 1.497a1 1 0 01-1.023.241c-3.625-1.208-5.496-4.484-6.001-6a1 1 0 01.241-1.024l1.497-1.497v-.244L8.75 5H5.31z" fill="#151515"/></svg>