<svg width="24" height="24" viewBox="0 0 24 24" fill="none" xmlns="http://www.w3.org/2000/svg"><path fill-rule="evenodd" clip-rule="evenodd" d="M5 0a2 2 0 00-2 2v3a1 1 0 102 0V2h14v3a1 1 0 102 0V2a2 2 0 00-2-2H5zm0 19a1 1 0 10-2 0v3a2 2 0 002 2h14a2 2 0 002-2v-3a1 1 0 10-2 0v3H5v-3zm17.998-7.103c-.117-.117-.278-.176-.483-.176h-1.881c-.213 0-.378.051-.495.154-.118.103-.177.25-.177.44s.06.337.177.44c.117.103.282.154.495.154h1.011v1.705a4.95 4.95 0 01-1.264.165c-.785 0-1.372-.22-1.76-.66-.39-.44-.583-1.107-.583-2.002 0-1.738.747-2.607 2.244-2.607.308 0 .59.04.846.121.257.08.54.216.848.407.11.066.201.114.274.143a.76.76 0 00.265.044.46.46 0 00.373-.198.775.775 0 00.165-.495.735.735 0 00-.066-.33.828.828 0 00-.23-.264c-.668-.528-1.511-.792-2.53-.792-.793 0-1.486.161-2.08.484a3.34 3.34 0 00-1.374 1.386c-.316.594-.474 1.294-.474 2.101 0 .821.162 1.533.485 2.134a3.34 3.34 0 001.386 1.375c.6.315 1.312.473 2.133.473.33 0 .679-.026 1.046-.077.373-.051.703-.121.99-.209.234-.066.41-.147.527-.242a.726.726 0 00.242-.385c.052-.161.078-.389.078-.682v-2.145c0-.198-.063-.352-.188-.462zM14.166 8.19a.75.75 0 01.583.242.818.818 0 01.231.605v6.171a.87.87 0 01-.231.627.768.768 0 01-.583.231.795.795 0 01-.638-.286l-3.685-4.719v4.147c0 .257-.073.466-.22.627-.14.154-.33.231-.572.231a.768.768 0 01-.583-.231c-.147-.161-.22-.37-.22-.627V9.037c0-.25.073-.451.22-.605a.785.785 0 01.594-.242c.271 0 .48.095.627.286l3.685 4.686V9.037c0-.25.073-.451.22-.605a.737.737 0 01.572-.242zM1.758 16.066c-.264 0-.473-.077-.627-.231-.154-.154-.23-.363-.23-.627v-6.16c0-.257.07-.455.208-.594.14-.14.338-.209.594-.209h2.761c.844 0 1.5.213 1.97.638.469.425.703 1.02.703 1.782 0 .763-.234 1.357-.704 1.782-.469.425-1.125.638-1.969.638H2.616v2.123c0 .264-.077.473-.23.627-.155.154-.364.231-.628.231zm2.486-4.279c.858 0 1.287-.37 1.287-1.111 0-.748-.429-1.122-1.287-1.122H2.616v2.233h1.628z" fill="#151515"/></svg>