<svg width="24" height="24" viewBox="0 0 24 24" fill="none" xmlns="http://www.w3.org/2000/svg"><path fill-rule="evenodd" clip-rule="evenodd" d="M5 0a2 2 0 00-2 2v3a1 1 0 002 0V2h14v3a1 1 0 102 0V2a2 2 0 00-2-2H5zm0 19a1 1 0 10-2 0v3a2 2 0 002 2h14a2 2 0 002-2v-3a1 1 0 10-2 0v3H5v-3zm7.472-2.901c-.77 0-1.44-.161-2.013-.484a3.362 3.362 0 01-1.309-1.386c-.308-.601-.462-1.305-.462-2.112 0-.807.154-1.507.462-2.101a3.276 3.276 0 011.31-1.386c.571-.323 1.242-.484 2.012-.484s1.438.161 2.002.484a3.257 3.257 0 011.32 1.386c.308.594.462 1.294.462 2.101 0 .807-.154 1.51-.462 2.112a3.342 3.342 0 01-1.32 1.386c-.564.323-1.232.484-2.002.484zm0-1.331c.646 0 1.152-.227 1.518-.682.374-.455.561-1.111.561-1.969 0-.858-.183-1.51-.55-1.958-.366-.455-.876-.682-1.529-.682-.652 0-1.162.227-1.529.682-.36.447-.539 1.1-.539 1.958 0 .858.184 1.514.55 1.969.367.455.873.682 1.518.682zM1.652 16c-.257 0-.455-.07-.594-.209-.14-.14-.21-.337-.21-.594V9.048c0-.257.07-.455.21-.594.139-.14.337-.209.594-.209h2.21c.844 0 1.57.154 2.179.462a3.226 3.226 0 011.397 1.331c.322.58.484 1.272.484 2.079 0 .807-.162 1.503-.484 2.09a3.16 3.16 0 01-1.386 1.331c-.609.308-1.339.462-2.19.462h-2.21zm2.09-1.386c1.65 0 2.475-.832 2.475-2.497 0-1.657-.825-2.486-2.475-2.486H2.565v4.983h1.177zm15.056 1.001c.573.323 1.24.484 2.003.484.96 0 1.789-.264 2.486-.792a.768.768 0 00.22-.253.71.71 0 00.076-.341.73.73 0 00-.164-.484.462.462 0 00-.386-.209.678.678 0 00-.253.044 1.285 1.285 0 00-.274.132c-.323.19-.605.33-.848.418-.242.08-.498.121-.77.121-1.415 0-2.123-.873-2.123-2.618 0-.865.177-1.514.529-1.947.359-.44.89-.66 1.595-.66.285 0 .553.044.803.132.249.08.52.216.814.407.095.066.18.114.253.143.08.022.172.033.274.033a.47.47 0 00.386-.198.775.775 0 00.165-.495.735.735 0 00-.067-.33.828.828 0 00-.23-.264c-.697-.528-1.526-.792-2.486-.792-.763 0-1.43.161-2.002.484a3.257 3.257 0 00-1.32 1.386c-.308.594-.462 1.294-.462 2.101 0 .807.154 1.51.462 2.112a3.257 3.257 0 001.32 1.386z" fill="#151515"/></svg>