<svg width="24" height="24" viewBox="0 0 24 24" fill="none" xmlns="http://www.w3.org/2000/svg"><path fill-rule="evenodd" clip-rule="evenodd" d="M5 0a2 2 0 00-2 2v3a1 1 0 002 0V2h14v3a1 1 0 102 0V2a2 2 0 00-2-2H5zm0 19a1 1 0 10-2 0v3a2 2 0 002 2h14a2 2 0 002-2v-3a1 1 0 10-2 0v3H5v-3zm6.684-2.934c-.264 0-.473-.077-.627-.231-.154-.154-.231-.363-.231-.627V9.037c0-.257.077-.462.23-.616.155-.154.364-.231.628-.231s.473.077.627.23c.154.155.23.36.23.617v6.17c0 .265-.076.474-.23.628-.154.154-.363.23-.627.23zm-3.326-1.42c.279 0 .484.056.616.166.132.11.198.279.198.506 0 .235-.066.407-.198.517-.132.11-.337.165-.616.165H3.815a.767.767 0 01-.55-.198.723.723 0 01-.198-.517c0-.213.073-.418.22-.616L6.95 9.598H3.892c-.279 0-.484-.055-.616-.165-.132-.11-.198-.279-.198-.506 0-.235.066-.407.198-.517.132-.11.337-.165.616-.165H8.27c.227 0 .407.07.539.209.14.132.209.3.209.506 0 .22-.07.425-.21.616l-3.673 5.07h3.223zm6.614 1.189c.154.154.363.23.627.23s.473-.076.627-.23c.154-.154.23-.363.23-.627v-2.123h1.849c.843 0 1.5-.213 1.969-.638.469-.425.704-1.02.704-1.782 0-.763-.235-1.357-.704-1.782-.47-.425-1.126-.638-1.97-.638h-2.76c-.257 0-.455.07-.594.209-.14.14-.21.337-.21.594v6.16c0 .264.078.473.232.627zm4.4-5.16c0 .742-.43 1.112-1.287 1.112h-1.628V9.554h1.628c.858 0 1.287.374 1.287 1.122z" fill="#151515"/></svg>