<svg width="24" height="24" viewBox="0 0 24 24" fill="none" xmlns="http://www.w3.org/2000/svg"><path fill-rule="evenodd" clip-rule="evenodd" d="M5 0a2 2 0 00-2 2v3a1 1 0 002 0V2h14v3a1 1 0 102 0V2a2 2 0 00-2-2H5zm0 19a1 1 0 10-2 0v3a2 2 0 002 2h14a2 2 0 002-2v-3a1 1 0 10-2 0v3H5v-3zm-2.28-2.934c-.265 0-.474-.077-.628-.231-.154-.154-.23-.363-.23-.627v-6.16c0-.257.069-.455.208-.594.14-.14.338-.209.594-.209h2.761c.844 0 1.5.213 1.97.638.469.425.703 1.02.703 1.782 0 .763-.234 1.357-.704 1.782-.469.425-1.125.638-1.969.638H3.577v2.123c0 .264-.077.473-.23.627-.155.154-.364.231-.628.231zm2.485-4.279c.858 0 1.287-.37 1.287-1.111 0-.748-.429-1.122-1.287-1.122H3.577v2.233h1.628zm5.082 4.279c-.264 0-.473-.077-.627-.231-.154-.154-.231-.363-.231-.627v-6.16c0-.257.07-.455.209-.594.14-.14.337-.209.594-.209h2.761c.843 0 1.5.213 1.969.638.47.425.704 1.02.704 1.782 0 .763-.235 1.357-.704 1.782-.47.425-1.126.638-1.969.638h-1.848v2.123c0 .264-.077.473-.231.627-.154.154-.363.231-.627.231zm2.486-4.279c.858 0 1.287-.37 1.287-1.111 0-.748-.429-1.122-1.287-1.122h-1.628v2.233h1.628zm6.087 4.037a.87.87 0 00.627.231c.264 0 .473-.077.627-.231.153-.154.23-.36.23-.616V9.642h1.782c.543 0 .814-.235.814-.704 0-.462-.27-.693-.814-.693h-5.28c-.542 0-.814.231-.814.693 0 .47.272.704.814.704h1.782v5.566c0 .257.078.462.232.616z" fill="#151515"/></svg>