<svg width="24" height="24" viewBox="0 0 24 24" fill="none" xmlns="http://www.w3.org/2000/svg"><path fill-rule="evenodd" clip-rule="evenodd" d="M5 0a2 2 0 00-2 2v3a1 1 0 002 0V2h14v3a1 1 0 102 0V2a2 2 0 00-2-2H5zm0 19a1 1 0 10-2 0v3a2 2 0 002 2h14a2 2 0 002-2v-3a1 1 0 10-2 0v3H5v-3zm12.561-3.099a6.303 6.303 0 001.617.198c.623 0 1.17-.099 1.639-.297.477-.198.843-.477 1.1-.836.264-.36.396-.774.396-1.243 0-.601-.22-1.074-.66-1.419-.433-.345-1.148-.627-2.145-.847a7.863 7.863 0 01-.99-.275c-.227-.088-.392-.187-.495-.297a.675.675 0 01-.143-.44c0-.3.128-.535.385-.704.257-.176.609-.264 1.056-.264.389 0 .708.048.957.143.257.095.535.238.836.429.125.073.22.121.286.143a.8.8 0 00.231.033c.147 0 .275-.07.385-.209a.73.73 0 00.176-.484.646.646 0 00-.077-.33.784.784 0 00-.231-.275c-.675-.52-1.533-.781-2.574-.781a3.9 3.9 0 00-1.606.319 2.64 2.64 0 00-1.111.869 2.075 2.075 0 00-.396 1.243c0 .418.092.774.275 1.067.19.293.488.539.891.737.41.198.957.367 1.639.506.609.125 1.03.257 1.265.396.242.14.363.323.363.55 0 .3-.128.532-.385.693-.257.161-.627.242-1.111.242a4.05 4.05 0 01-1.067-.132 3.855 3.855 0 01-.957-.44 1.187 1.187 0 00-.286-.132.617.617 0 00-.231-.044c-.147 0-.279.07-.396.209-.11.14-.165.3-.165.484 0 .14.022.257.066.352a.866.866 0 00.242.253c.315.25.722.444 1.221.583zm-9.389-1.133c.14.161.21.33.21.506 0 .213-.085.4-.254.561a.788.788 0 01-.56.231.708.708 0 01-.562-.275l-2.068-2.53-2.09 2.53c-.161.183-.348.275-.56.275a.813.813 0 01-.562-.231.77.77 0 01-.242-.561c0-.183.066-.352.198-.506l2.255-2.684L1.76 9.477a.767.767 0 01-.209-.506c0-.213.081-.396.242-.55a.794.794 0 01.561-.242c.22 0 .411.095.572.286l2.013 2.431L6.93 8.465c.162-.19.352-.286.572-.286.206 0 .389.08.55.242a.72.72 0 01.253.55.761.761 0 01-.198.506l-2.178 2.607 2.244 2.684zM10.656 16c-.256 0-.454-.07-.594-.209-.14-.14-.209-.337-.209-.594v-6.16c0-.257.077-.462.231-.616.154-.154.363-.231.627-.231s.473.077.627.231c.154.154.231.36.231.616v5.566h2.816c.536 0 .803.235.803.704 0 .462-.267.693-.803.693h-3.729z" fill="#151515"/></svg>