<svg width="24" height="24" viewBox="0 0 24 24" fill="none" xmlns="http://www.w3.org/2000/svg"><path fill-rule="evenodd" clip-rule="evenodd" d="M5 0a2 2 0 00-2 2v3a1 1 0 002 0V2h14v3a1 1 0 102 0V2a2 2 0 00-2-2H5zm0 19a1 1 0 10-2 0v3a2 2 0 002 2h14a2 2 0 002-2v-3a1 1 0 10-2 0v3H5v-3zm2.292-4.232c.139.161.209.33.209.506 0 .213-.085.4-.253.561a.788.788 0 01-.561.231.708.708 0 01-.561-.275l-2.068-2.53-2.09 2.53c-.162.183-.349.275-.561.275a.813.813 0 01-.561-.231.77.77 0 01-.242-.561.76.76 0 01.198-.506l2.255-2.684L.879 9.477a.767.767 0 01-.21-.506c0-.213.081-.396.243-.55a.794.794 0 01.56-.242c.22 0 .411.095.573.286l2.013 2.431 1.99-2.431c.162-.19.353-.286.573-.286.205 0 .388.08.55.242a.72.72 0 01.253.55.761.761 0 01-.198.506l-2.178 2.607 2.244 2.684zm8.346-6.578a.75.75 0 01.583.242.818.818 0 01.231.605v6.248c0 .242-.07.433-.209.572a.744.744 0 01-.55.209.73.73 0 01-.539-.209c-.139-.14-.209-.33-.209-.572v-3.883l-1.562 2.937c-.102.19-.216.33-.34.418a.695.695 0 01-.43.132.725.725 0 01-.429-.132 1.189 1.189 0 01-.34-.418l-1.563-2.882v3.828c0 .235-.07.425-.209.572a.744.744 0 01-.55.209.73.73 0 01-.539-.209c-.139-.14-.209-.33-.209-.572V9.037c0-.25.074-.451.22-.605a.785.785 0 01.594-.242c.352 0 .62.187.803.561l2.233 4.235 2.222-4.235c.198-.374.462-.561.792-.561zm2.803 7.601c.14.14.338.209.594.209h3.73c.534 0 .802-.231.802-.693 0-.47-.268-.704-.803-.704h-2.816V9.037c0-.257-.077-.462-.23-.616-.155-.154-.364-.231-.628-.231s-.473.077-.627.231c-.154.154-.23.36-.23.616v6.16c0 .257.069.455.208.594z" fill="#151515"/></svg>