<svg width="80" height="80" viewBox="0 0 80 80" fill="none" xmlns="http://www.w3.org/2000/svg"><path fill-rule="evenodd" clip-rule="evenodd" d="M39 66v-7.95l-17-.024V66h-2v-7.977L3 58l.003-2L20 56.023V40h-8c-5.632 0-9-4.531-9-9s3.368-9 9-9h8v-8h2v8h17v-8h2v8h17v-8h2v8h16v2H60v14h7c2.868 0 5.138 1.443 6.662 3.382C75.172 43.306 76 45.772 76 48c0 2.228-.827 4.694-2.337 6.627-1.52 1.947-3.784 3.41-6.645 3.461H67l-7-.009V66h-2v-7.924l-17-.023V66h-2zm21-9.921l6.992.01c2.135-.041 3.868-1.121 5.095-2.693C73.327 51.806 74 49.772 74 48c0-1.773-.673-3.806-1.911-5.382C70.863 41.058 69.133 40 67 40h-7v16.079zM58 40v16.076l-17-.023V40h17zm0-2V24H41v14h17zM39 56.05V40H22v16.026l17 .024zM22 24h17v14H22V24zm-2 0h-8c-4.367 0-7 3.469-7 7s2.633 7 7 7h8V24z" fill="#151515"/></svg>