<svg width="80" height="80" viewBox="0 0 80 80" fill="none" xmlns="http://www.w3.org/2000/svg"><path fill-rule="evenodd" clip-rule="evenodd" d="M39 3h1c10.543 0 19.064 8.374 19.064 18.935 0 7.485-4.302 13.942-10.554 17.065H77v1c0 10.5-8.373 19.064-18.936 19.064-7.484 0-13.942-4.302-17.064-10.554V77h-1c-10.501 0-19.065-8.373-19.065-18.936 0-7.484 4.303-13.942 10.554-17.064H3v-1c0-10.545 8.415-19.065 18.935-19.065 7.485 0 13.942 4.303 17.065 10.554V3zm-.029 36c-.517-8.945-7.926-16.065-17.036-16.065-9.065 0-16.397 7.078-16.907 16.065h33.943zM39 41.029v33.943c-8.954-.509-16.065-7.807-16.065-16.908 0-9.109 7.12-16.518 16.065-17.035zm2.029-.03h33.943c-.509 8.954-7.807 16.065-16.908 16.065-9.109 0-16.518-7.119-17.035-16.064zm-.03-2.028V5.028c8.988.507 16.065 7.804 16.065 16.907 0 9.11-7.119 16.519-16.064 17.036z" fill="#151515"/></svg>