<svg width="80" height="81" viewBox="0 0 80 81" fill="none" xmlns="http://www.w3.org/2000/svg"><path fill-rule="evenodd" clip-rule="evenodd" d="M14.241 4h51.517l-.899 1.511-12.103 20.34-11.89 20.648L40 48.004l-.867-1.505L27.24 25.851 15.14 5.51 14.241 4zm3.517 2l11.204 18.834.008.012L40 43.996l11.027-19.15.003-.006.004-.006L62.241 6H17.758zm22.237 48.097l.853 1.376 5.968 9.628.007.012.007.012 6.034 10.372L53.74 77H26.256l.88-1.505 6.072-10.373.006-.01.005-.009 5.928-9.627.848-1.379zm.006 3.806l-5.073 8.24L29.744 75H50.26l-5.152-8.858L40 57.902z" fill="#151515"/></svg>