<svg width="80" height="81" viewBox="0 0 80 81" fill="none" xmlns="http://www.w3.org/2000/svg"><path fill-rule="evenodd" clip-rule="evenodd" d="M17.258 34.902l3.67 10.605H9.717l3.629-10.686c.766-2.218 1.33-4.516 1.855-6.653h.12l.096.362c.534 2.021 1.08 4.089 1.84 6.372zM4.92 60.829l3.83-11.613h13.105l3.911 11.613h5.08l-12.58-36.895h-5.685L0 60.829h4.92zm36.25-18.387V35.99h-1.734v6.452h-6.21v1.653h6.21v6.452h1.734v-6.452h6.21v-1.653h-6.21zM57.5 35.99v6.452h6.17v1.653H57.5v6.452h-1.734v-6.452h-6.21v-1.653h6.21V35.99H57.5zm14.556 6.452V35.99h1.774v6.452H80v1.653h-6.17v6.452h-1.774v-6.452h-6.17v-1.653h6.17z" fill="#151515"/></svg>