<svg width="80" height="80" viewBox="0 0 80 80" fill="none" xmlns="http://www.w3.org/2000/svg"><path fill-rule="evenodd" clip-rule="evenodd" d="M41 11V2h-2v9h2zM19.152 8.53l5 8 1.696-1.06-5-8-1.696 1.06zm40-1.06l-5 8 1.696 1.06 5-8-1.696-1.06zM40 15c-6.946 0-13.196 2.98-17.718 7.503-4.533 4.532-7.277 10.606-7.277 17.497h2c0-6.334 2.514-11.906 6.691-16.083C27.884 19.729 33.64 17 40 17c6.36 0 12.127 2.73 16.314 6.917l.003.003C60.49 28.053 63 33.662 63 40h2c0-6.887-2.736-13.003-7.273-17.5C53.205 17.98 46.945 15 40 15zM14.496 26.132l-7-4-.992 1.736 7 4 .992-1.736zm58.008-4l-7 4 .992 1.736 7-4-.992-1.736zM40 44H4v2h13.656l-7.773 8.106 1.444 1.384 9.1-9.49h17.836l-8.794 15.145-13.042 3.617.534 1.927 11.072-3.07-6.898 11.879 1.73 1.004 6.895-11.875 2.86 11.343 1.939-.489-3.36-13.33 8.776-15.117 8.285 15.108-3.224 13.431 1.945.467 2.71-11.29 6.432 11.73 1.754-.96-6.516-11.882 11.383 3.33.561-1.92L50 61.156 41.69 46h17.87l9.018 9.837 1.474-1.352L62.273 46H76v-2H40z" fill="#151515"/></svg>