<svg width="80" height="80" viewBox="0 0 80 80" fill="none" xmlns="http://www.w3.org/2000/svg"><path fill-rule="evenodd" clip-rule="evenodd" d="M19 23a5 5 0 1110 0 5 5 0 01-10 0zm11.93-1a7.001 7.001 0 00-13.86 0H3v2h14.07a7.001 7.001 0 0013.86 0H77v-2H30.93zM61 40a5 5 0 10-10 0 5 5 0 0010 0zM3 39h46.07a7.001 7.001 0 0113.86 0H77v2H62.93a7.001 7.001 0 01-13.86 0H3v-2zm21 13a5 5 0 100 10 5 5 0 000-10zm6.93 4a7.001 7.001 0 00-13.86 0H3v2h14.07a7.001 7.001 0 0013.86 0H77v-2H30.93z" fill="#151515"/></svg>