<svg width="80" height="80" viewBox="0 0 80 80" fill="none" xmlns="http://www.w3.org/2000/svg"><path fill-rule="evenodd" clip-rule="evenodd" d="M40 1.538l.73.778 15 16 .684.73-1.46 1.367-.683-.73L41 5.53V78h-2V5.529L25.73 19.684l-.684.73-1.46-1.368.685-.73 15-16 .73-.778zM15 25.586l.707.707 10 10 .707.707L25 38.414l-.707-.707L16 29.414V78h-2V29.414l-8.293 8.293-.707.707L3.586 37l.707-.707 10-10 .707-.707zm50 0l.707.707 10 10 .707.707L75 38.414l-.707-.707L66 29.414V78h-2V29.414l-8.293 8.293-.707.707L53.586 37l.707-.707 10-10 .707-.707z" fill="#151515"/></svg>