<svg width="80" height="80" viewBox="0 0 80 80" fill="none" xmlns="http://www.w3.org/2000/svg"><path fill-rule="evenodd" clip-rule="evenodd" d="M40 3h-1v28.49c-3.122-6.252-9.58-10.555-17.064-10.555C11.414 20.935 3 29.497 3 40v1h28.49c-6.252 3.122-10.554 9.58-10.554 17.064C20.936 68.627 29.499 77 40 77h1V48.51a19.12 19.12 0 0010.25 9.302v-2.16C45.5 53.144 41.408 47.563 41.029 41h33.943c-.398 7.058-4.984 12.938-11.343 15.137v2.104C71.422 55.863 77 48.605 77 40v-1H48.51c6.252-3.123 10.555-9.58 10.555-17.065C59.065 11.374 50.543 3 40 3zM21.936 22.935c9.109 0 16.518 7.12 17.035 16.065H5.028c.512-8.952 7.845-16.065 16.908-16.065zM39 74.972V41.029c-8.945.517-16.064 7.926-16.064 17.035 0 9.101 7.11 16.399 16.064 16.908zm2-69.944v33.943c8.945-.517 16.065-7.926 16.065-17.036 0-9.103-7.077-16.4-16.065-16.907z" fill="#151515"/><path d="M54.355 69.758l-2.016 6.452h-2.581l6.572-20.565h2.984l6.573 20.565h-2.661l-2.057-6.452h-6.814zm6.33-2.056l-1.895-5.928c-.444-1.33-.726-2.58-1.008-3.75h-.04c-.283 1.17-.565 2.46-.968 3.71l-1.895 5.968h5.806z" fill="#151515"/></svg>