<svg width="80" height="81" viewBox="0 0 80 81" fill="none" xmlns="http://www.w3.org/2000/svg"><path fill-rule="evenodd" clip-rule="evenodd" d="M63.027 5.56l.706.76 13 14 .68.732-1.465 1.361-.68-.733-11.29-12.157c-.339 19.46-4.652 35.345-14.09 46.498C40.018 67.685 24.698 74 3 74H2v-2h1c21.303 0 35.981-6.185 45.362-17.27 9.03-10.673 13.29-26.049 13.617-45.295L49.708 21.707l-.707.707L47.586 21l.707-.707 14-14 .734-.734z" fill="#151515"/><path fill-rule="evenodd" clip-rule="evenodd" d="M16 14.047v20.91a.176.176 0 00.042.043H21v19.607c.152-.217.35-.545.598-1.04l11.494-24.985.006-.015.008-.014c.253-.508.489-.98.662-1.384.026-.06.05-.116.07-.169H27a1 1 0 01-.894-1.447l5.5-11c.11-.223.19-.405.248-.553h-15.81a.174.174 0 00-.044.047zm16-.545V13.5v.002zm2.26 13.546l-.003-.001a.024.024 0 01.003.001zM21.052 55.316zm-6.45-42.705c.33-.333.822-.611 1.398-.611h16c.38 0 .78.08 1.12.242.25.12.88.495.88 1.258 0 .266-.05.838-.606 1.947L28.618 25H34c.38 0 .78.08 1.12.242.25.12.88.495.88 1.258 0 .27-.064.536-.13.752a6.99 6.99 0 01-.263.704c-.2.465-.46.987-.704 1.474l-.001.003-11.494 24.985-.006.015-.008.014c-.512 1.026-.967 1.692-1.457 2.084a2.065 2.065 0 01-.825.411c-.248.059-.474.058-.593.058H20.5c-.494 0-.864-.253-1.088-.55a1.94 1.94 0 01-.326-.75C19 55.306 19 54.88 19 54.681V37h-3c-.575 0-1.067-.278-1.395-.605-.328-.328-.605-.82-.605-1.395V14.015c0-.576.271-1.07.602-1.404z" fill="#151515"/></svg>