<svg width="80" height="80" viewBox="0 0 80 80" fill="none" xmlns="http://www.w3.org/2000/svg"><path fill-rule="evenodd" clip-rule="evenodd" d="M28 11c0-4.552 3.448-8 8-8s8 3.448 8 8v40.44c3.785 2.436 6 6.79 6 11.56 0 7.5-5.398 14-14 14s-14-6.5-14-14c0-4.77 2.215-9.124 6-11.56V11zm8-6c-3.448 0-6 2.552-6 6v41l-.5.865C26.096 54.837 24 58.66 24 63c0 6.5 4.602 12 12 12s12-5.5 12-12c0-4.34-2.095-8.164-5.5-10.135L42 52V11c0-3.448-2.552-6-6-6zm21 8h-8v-2h8v2zm0 8h-8v-2h8v2zM35 64V20h2v44h-2zm22-35h-8v-2h8v2zm0 8h-8v-2h8v2zm0 8h-8v-2h8v2z" fill="#151515"/></svg>