<svg width="80" height="80" viewBox="0 0 80 80" fill="none" xmlns="http://www.w3.org/2000/svg"><path fill-rule="evenodd" clip-rule="evenodd" d="M25.57 8.657c-.22.513-.47 1.051-.755 1.604-1.687 3.27-4.626 7.115-9.595 9.171l-.765-1.848c4.386-1.815 7.027-5.224 8.583-8.24a22.903 22.903 0 001.575-3.907 18.62 18.62 0 00.383-1.51l.014-.076.003-.017v-.002h.002l1.88-.273h.002l.005.01.028.052c.026.05.068.128.127.23.117.203.3.503.555.873.509.74 1.3 1.758 2.418 2.837 2.23 2.155 5.76 4.563 10.958 5.529l-.366 1.966C34.973 14.006 31.1 11.376 28.64 9c-.44-.425-.835-.842-1.186-1.24.563 3.736 1.44 6.971 2.756 9.93 1.745 3.922 4.286 7.407 7.98 10.943h.002C46.136 36.266 57.168 39 65.998 39v2c-8.828 0-19.823 2.735-27.767 10.367h-.001c-3.716 3.558-6.266 7.043-8.016 10.96-1.32 2.954-2.197 6.181-2.76 9.913.35-.398.745-.815 1.185-1.24 2.46-2.376 6.333-5.005 11.982-6.055l.366 1.966c-5.198.966-8.728 3.373-10.958 5.528a18.75 18.75 0 00-2.418 2.837 13.308 13.308 0 00-.682 1.103.611.611 0 00-.028.053l-.005.009h-.002l-1.88-.273h-.001v-.002l-.004-.017a11.614 11.614 0 00-.082-.393 18.629 18.629 0 00-.315-1.193 22.901 22.901 0 00-1.575-3.907c-1.556-3.016-4.197-6.425-8.583-8.24l.765-1.848c4.969 2.056 7.908 5.9 9.595 9.171.285.553.536 1.092.755 1.605.587-3.623 1.483-6.843 2.819-9.832 1.874-4.196 4.593-7.888 8.458-11.589 5.66-5.436 12.732-8.498 19.544-9.922-6.827-1.423-13.921-4.485-19.584-9.924-3.846-3.682-6.555-7.374-8.424-11.575-1.332-2.993-2.226-6.219-2.813-9.845z" fill="#151515"/></svg>