<svg width="80" height="80" viewBox="0 0 80 80" fill="none" xmlns="http://www.w3.org/2000/svg"><path fill-rule="evenodd" clip-rule="evenodd" d="M40 3c-3.572 0-7 .71-10.114 2.005l-.006.003a27.11 27.11 0 00-8.488 5.715 26.363 26.363 0 00-5.76 8.52C14.303 22.392 14 25.528 14 29v7.07c-1.756.25-2.842 1.13-3.45 1.734C9.61 38.736 9 40.03 9 41.446v30.416c0 1.397.596 2.74 1.56 3.652A5.176 5.176 0 0014.207 77h51.625a5.2 5.2 0 003.658-1.496A5.117 5.117 0 0071 71.862V41.446c0-1.4-.598-2.737-1.51-3.642A6.078 6.078 0 0066 36.069V29c0-3.46-.26-6.6-1.592-9.758a26.365 26.365 0 00-5.76-8.519 26.563 26.563 0 00-8.575-5.718A26.107 26.107 0 0040 3zm24 26v7H16v-7c0-3.36.297-6.187 1.476-8.982v-.003a24.366 24.366 0 015.326-7.872 25.113 25.113 0 017.855-5.292A24.31 24.31 0 0140 5c3.304 0 6.431.656 9.306 1.852h.002a24.563 24.563 0 017.93 5.29 24.366 24.366 0 015.326 7.873v.003C63.742 22.807 64 25.63 64 29zM11.959 39.223C12.456 38.73 13.356 38 15 38h50c1.652 0 2.593.737 3.082 1.223.545.541.918 1.373.918 2.223v30.416c0 .857-.338 1.647-.918 2.223a3.202 3.202 0 01-2.25.915H14.209c-.87 0-1.668-.338-2.25-.915l-.009-.01-.01-.009a3.084 3.084 0 01-.94-2.204V41.446c0-.833.36-1.629.959-2.223zM40 43a8 8 0 00-5.638 2.3C32.924 46.724 32 48.72 32 50.9c0 1.29.303 2.547.876 3.643.438.865 1.206 1.9 2.124 2.864v6.62c0 .976 0 2.319 1.275 3.662.31.326.66.676 1.109.926.48.267 1 .385 1.616.385h1.995c.614 0 1.136-.117 1.617-.384.45-.25.802-.6 1.113-.927C45 66.346 45 65.003 45 64.027V57.4c.898-.968 1.649-1.992 2.111-2.833l.005-.008.005-.01A7.76 7.76 0 0048 50.902a7.876 7.876 0 00-2.323-5.602l-.011-.01-.011-.01C44.192 43.913 42.235 43 40 43zm-4.23 3.72A6 6 0 0140 45c1.662 0 3.142.674 4.28 1.73A5.877 5.877 0 0146 50.9a5.762 5.762 0 01-.646 2.712c-.409.74-1.152 1.746-2.07 2.69l-.284.292V64c0 .917-.012 1.56-.725 2.311-.301.317-.474.467-.634.556-.13.073-.305.133-.646.133H39c-.341 0-.514-.06-.642-.132-.16-.088-.33-.238-.633-.557C37.012 65.561 37 64.917 37 64v-7.414l-.293-.293c-.951-.951-1.69-1.947-2.05-2.658l-.003-.007-.003-.007A5.874 5.874 0 0134 50.9c0-1.61.683-3.104 1.77-4.181z" fill="#151515"/></svg>