<svg width="80" height="80" viewBox="0 0 80 80" fill="none" xmlns="http://www.w3.org/2000/svg"><path fill-rule="evenodd" clip-rule="evenodd" d="M40.193 11.33V2.864h-2v8.468h2zM21.23 7.92l4.234 7.339 1.732-1-4.234-7.338-1.732.999zm37.177-.193l-4.233 7.339 1.732 1 4.234-7.34-1.733-.999zM40 15.451c-6.763 0-12.944 2.731-17.361 7.19A24.466 24.466 0 0015.45 40c0 6.763 2.73 12.944 7.19 17.361a24.466 24.466 0 0017.358 7.187v-2a22.466 22.466 0 01-15.946-6.602l-.003-.003C19.96 51.893 17.45 46.219 17.45 40a22.466 22.466 0 016.602-15.946l.004-.004c4.05-4.088 9.723-6.599 15.942-6.599a22.56 22.56 0 0115.987 6.603A22.563 22.563 0 0162.588 40h2A24.563 24.563 0 0057.4 22.64 24.56 24.56 0 0040 15.45zM15.257 25.505L7.918 21.27l-.999 1.732 7.339 4.234 1-1.732zM72.08 21.27l-7.338 4.234 1 1.732 7.338-4.234-1-1.732zM11.33 39.806H2.862v2h8.468v-2zm65.806 0H68.67v2h8.468v-2zM15.064 54.174l-7.339 4.234 1 1.732 7.339-4.234-1-1.732zm10.4 10.568l-4.234 7.339 1.732 1 4.234-7.34-1.732-.999zm14.729 12.395v-8.468h-2v8.468h2zM53.991 46h-1v16h-3.992v2h3.992v5H49v2h3.991v6h2v-6H63v-2h-8.009v-5h11.008c2.388 0 4.179-1.215 5.333-2.945C72.466 59.354 73 57.148 73 55c0-2.148-.534-4.354-1.668-6.055C70.178 47.215 68.387 46 66 46H53.99zm12.008 16H54.992V48H66c1.613 0 2.822.785 3.669 2.055C70.535 51.354 71 53.148 71 55c0 1.852-.465 3.646-1.331 4.945-.849 1.27-2.057 2.055-3.67 2.055z" fill="#151515"/></svg>