<svg width="80" height="80" viewBox="0 0 80 80" fill="none" xmlns="http://www.w3.org/2000/svg"><path fill-rule="evenodd" clip-rule="evenodd" d="M60.111 5.34c-8.956-1.27-20.769-.527-32.322 7.497C16.26 20.877 11.48 31.864 9.582 40.883A54.824 54.824 0 008.419 52.68a54.704 54.704 0 018.614-13.141C27.777 27.4 42.7 21 56 21h1v2h-1c-12.699 0-27.084 6.132-37.47 17.864-4.255 4.803-7.4 10.146-9.583 15.636l.239.107c.695.31 1.72.737 3.026 1.201 2.613.929 6.343 2 10.797 2.569 8.901 1.136 20.666.26 32.227-7.77 11.533-8.044 16.365-18.9 18.318-27.78a53.502 53.502 0 001.24-11.208 43.669 43.669 0 00-.108-3.318c-.02-.263-.04-.484-.056-.661a29.038 29.038 0 00-.594-.283 43.073 43.073 0 00-3.052-1.262A52.775 52.775 0 0060.111 5.34zm15.453 3.652l.991-.135v.002l.001.006.003.019.008.067.029.253c.023.22.054.539.084.949.06.82.119 2.003.114 3.472a55.496 55.496 0 01-1.286 11.63c-2.03 9.225-7.075 20.585-19.13 28.993h-.001c-12.069 8.383-24.367 9.293-33.621 8.112a54.327 54.327 0 01-11.214-2.668 44.23 44.23 0 01-3.301-1.318C6.009 64.644 5 71.045 5 77v1H3v-1c0-6.426 1.133-13.36 3.657-20.12l-.01-.093a30.258 30.258 0 01-.092-.966 47.123 47.123 0 01-.14-3.532 56.823 56.823 0 011.21-11.818c1.971-9.36 6.96-20.864 19.02-29.275l.002-.001C38.722 2.808 51.082 2.039 60.392 3.36a54.77 54.77 0 0111.29 2.86c1.37.508 2.45.977 3.194 1.321a28.707 28.707 0 011.08.527l.06.031.017.01.005.002.001.001-.475.88zm0 0l.477-.88.445.242.069.502-.99.136z" fill="#151515"/></svg>