<svg width="80" height="80" viewBox="0 0 80 80" fill="none" xmlns="http://www.w3.org/2000/svg"><path fill-rule="evenodd" clip-rule="evenodd" d="M9.077 54.849c.512.219 1.05.469 1.603.754 3.27 1.687 7.116 4.627 9.172 9.596l-1.848.764c-1.815-4.386-5.225-7.027-8.24-8.582a22.896 22.896 0 00-3.908-1.575 18.674 18.674 0 00-1.51-.383 5.198 5.198 0 00-.076-.015l-.017-.003h-.001v-.002l-.273-1.88-.001-.001.01-.005.053-.028c.05-.027.127-.069.229-.127.203-.118.503-.301.873-.555a18.802 18.802 0 002.837-2.418c2.156-2.231 4.563-5.761 5.529-10.959l1.966.366c-1.05 5.65-3.679 9.522-6.056 11.982-.425.44-.842.835-1.24 1.187 3.736-.564 6.971-1.44 9.93-2.757 3.922-1.745 7.407-4.286 10.943-7.98l.001-.001c7.631-7.944 10.366-18.978 10.366-27.808h2c0 8.829 2.735 19.823 10.367 27.768h.001c3.557 3.716 7.043 6.267 10.96 8.017 2.953 1.32 6.18 2.196 9.912 2.76a21.715 21.715 0 01-1.239-1.186c-2.377-2.46-5.006-6.333-6.056-11.982l1.966-.366c.966 5.198 3.373 8.728 5.528 10.959a18.752 18.752 0 002.837 2.418 13.324 13.324 0 001.103.682l.053.028.01.004-.001.003-.273 1.879v.002h-.002l-.016.003a11.15 11.15 0 00-.393.082 18.27 18.27 0 00-1.193.316 22.892 22.892 0 00-3.908 1.575c-3.015 1.555-6.425 4.196-8.24 8.582l-1.848-.764c2.056-4.97 5.901-7.909 9.172-9.596a24.542 24.542 0 011.604-.755c-3.623-.587-6.842-1.482-9.832-2.818-4.196-1.875-7.887-4.593-11.588-8.459-5.437-5.66-8.498-12.731-9.923-19.544-1.423 6.827-4.484 13.922-9.924 19.585-3.681 3.846-7.374 6.554-11.574 8.423-2.994 1.332-6.22 2.227-9.845 2.814z" fill="#151515"/></svg>