<svg width="80" height="80" viewBox="0 0 80 80" fill="none" xmlns="http://www.w3.org/2000/svg"><path fill-rule="evenodd" clip-rule="evenodd" d="M40.014 2.839l.812 1.196c1.756 2.586 4.502 5.208 7.727 8.065.815.722 1.66 1.458 2.522 2.21 2.516 2.193 5.187 4.521 7.72 7.02 6.814 6.716 12.89 14.895 12.89 25.807 0 17.52-14.274 29.992-31.686 29.992S8.313 64.698 8.313 47.137c0-10.909 6.011-19.097 12.797-25.821 2.606-2.583 5.36-4.981 7.951-7.237a471.51 471.51 0 002.284-1.998c3.236-2.855 6.017-5.477 7.836-8.06l.833-1.182zM22.517 22.736c-6.662 6.602-12.204 14.302-12.204 24.401 0 16.31 13.227 27.992 29.686 27.992 16.458 0 29.685-11.721 29.685-27.992 0-10.096-5.598-17.784-12.292-24.384-2.486-2.45-5.089-4.719-7.594-6.902-.872-.76-1.732-1.51-2.572-2.254-2.79-2.472-5.359-4.883-7.24-7.317-1.924 2.423-4.517 4.83-7.318 7.301-.761.671-1.538 1.349-2.325 2.034-2.583 2.249-5.27 4.589-7.826 7.121z" fill="#151515"/></svg>