<svg width="80" height="80" viewBox="0 0 80 80" fill="none" xmlns="http://www.w3.org/2000/svg"><path fill-rule="evenodd" clip-rule="evenodd" d="M32.444 2.468h15.114l.288.505 6.648 11.672h13.947l.288.5 7.016 12.178.287.498-.285.499-6.712 11.715 6.671 11.645.285.497-.285.498-6.975 12.177-.289.503h-13.95l-6.688 11.674-.288.503h-15.07l-.289-.503-6.687-11.674H11.558l-.288-.503-6.975-12.178-.285-.497.285-.497L10.985 40l-6.69-11.68-.285-.497.285-.497 6.975-12.178.288-.503h13.95l6.648-11.672.288-.505zM12.718 41L6.315 52.177l6.403 11.178H25.47l6.404-11.18L25.508 41h-12.79zm20.887 12.177l-6.403 11.178 6.403 11.177h12.752l6.403-11.177-6.403-11.178H33.605zm20.889 10.178h12.79l6.403-11.178L67.284 41H54.532l-6.404 11.179 6.365 11.176zM54.531 39h12.793l6.402-11.176-6.441-11.179H54.493l-6.365 11.176L54.532 39zM52.76 15.644l-6.404 11.179h-12.75L27.24 15.645l6.365-11.177h12.79l6.365 11.176zM31.873 27.82L25.47 39H12.718L6.315 27.823l6.403-11.178h12.79l6.366 11.176zm1.772 23.356h12.712l6.423-11.212-6.383-11.143h-12.79L27.24 40l6.404 11.178z" fill="#151515"/></svg>