<svg width="80" height="80" viewBox="0 0 80 80" fill="none" xmlns="http://www.w3.org/2000/svg"><path fill-rule="evenodd" clip-rule="evenodd" d="M40 10a7 7 0 100 14 7 7 0 000-14zm-9 7a9 9 0 1118 0 9 9 0 01-8 8.945v8.09c7.265.513 13 6.57 13 13.965 0 1.904-.38 3.719-1.068 5.374l8.515 4.73a9 9 0 11-.789 1.511l-.144.26-8.482-4.713C49.589 59.257 45.115 62 40 62a13.99 13.99 0 01-11.81-6.477l-8.74 4.37a9 9 0 11-.896-1.788l8.684-4.342A13.948 13.948 0 0126 48c0-7.396 5.735-13.452 13-13.965v-8.09A9 9 0 0131 17zm9 19c-6.627 0-12 5.373-12 12s5.373 12 12 12 12-5.373 12-12-5.373-12-12-12zM11 56a7 7 0 100 14 7 7 0 000-14zm51 7a7 7 0 1114 0 7 7 0 01-14 0z" fill="#151515"/></svg>