<svg width="80" height="80" viewBox="0 0 80 80" fill="none" xmlns="http://www.w3.org/2000/svg"><path fill-rule="evenodd" clip-rule="evenodd" d="M66.16 11.195l-.902-.433-.867 1.803.902.433 8.238 3.96-3.854 1.506h-.002c-6.943 2.73-16.318 2.73-23.218.001l-.004-.001-6.089-2.38-6.084-2.377h-.002c-7.374-2.916-17.271-2.915-24.683 0l-6.087 2.378-.932.364.728 1.862.931-.363 6.09-2.38h.001c6.943-2.73 16.318-2.73 23.218-.001l.004.002 6.089 2.379 6.084 2.377h.003c7.373 2.916 17.27 2.915 24.681.001h.002l3.833-1.498-3.86 8.459-.414.91 1.82.83.414-.91 4.839-10.605.407-.892-.884-.425-10.403-5zm-.902 19.688l.901.434 10.403 5 .885.425-.409.892L72.2 48.2l-.417.909-1.818-.833.416-.91 3.855-8.414-3.83 1.496c-7.435 2.924-17.55 2.564-24.655.01l-.013-.004-.013-.005-6.088-2.38-6.09-2.378-.003-.002c-6.9-2.729-16.275-2.73-23.218 0l-.002.002-6.089 2.379-.727-1.863 6.086-2.379h.001c7.412-2.914 17.31-2.915 24.683 0l.002.001 6.084 2.378 6.076 2.374c6.717 2.41 16.32 2.725 23.235.006l.002-.001 3.854-1.506-8.238-3.96-.902-.433.867-1.803zm0 20.08l.901.434 10.403 5 .884.425-.407.892L72.2 68.317l-.415.91-1.82-.83.416-.91 3.86-8.459-3.834 1.498-.002.001c-7.41 2.914-17.308 2.915-24.681 0l-.002-.001-6.085-2.378-6.09-2.379-.003-.001c-6.9-2.73-16.275-2.73-23.218 0l-.002.001-6.089 2.38-.931.363-.728-1.863.932-.364 6.086-2.378h.001c7.411-2.915 17.31-2.915 24.683 0h.002l6.084 2.378 6.09 2.38h.003c6.9 2.73 16.275 2.73 23.218 0h.002l3.854-1.507-8.238-3.96-.902-.432.867-1.803z" fill="#151515"/></svg>