<svg width="80" height="80" viewBox="0 0 80 80" fill="none" xmlns="http://www.w3.org/2000/svg"><path fill-rule="evenodd" clip-rule="evenodd" d="M64.862 19.333a23.435 23.435 0 00-15.74-2.823l-.341-1.97a25.435 25.435 0 0117.082 3.062 25.54 25.54 0 0111.203 13.26l-1.874.697a23.541 23.541 0 00-10.327-12.224l-.003-.002zm-4.48 7.82c-2.634-1.542-5.802-2.223-8.973-1.845l-.237-1.986c3.603-.43 7.21.342 10.22 2.106 2.993 1.752 5.487 4.412 6.908 7.771l-1.842.78c-1.24-2.93-3.423-5.272-6.076-6.825zm-40.68 1.976a18.17 18.17 0 0112.032-4.524c2.994 0 5.85.77 8.356 2.044l.012.006c2.542 1.334 4.762 3.24 6.418 5.527.533-.154 1.092-.27 1.645-.35.611-.086 1.223-.13 1.835-.13 2.803 0 5.382.92 7.473 2.402l.004.002a12.791 12.791 0 014.633 6.162c3.197.373 6.04 1.939 8.068 4.183l.007.008c2.005 2.266 3.275 5.28 3.275 8.566 0 3.544-1.446 6.738-3.76 9.053C67.437 64.34 64.61 66 61 66H16c-4.323 0-7.09-1.683-9.368-3.962C4.298 59.704 3 56.518 3 53c0-3.157 1.03-6.154 2.977-8.411v-.001a12.955 12.955 0 017.676-4.296c.423-4.773 2.592-7.956 6.03-11.146l.01-.009.01-.008zm1.332 1.492c-3.246 3.014-5.064 5.796-5.4 9.983l-.001.016-.002.015a1.813 1.813 0 01-1.422 1.592l-.033.007-.033.005a10.959 10.959 0 00-6.653 3.657C5.89 47.752 5 50.27 5 53c0 3.015 1.106 5.684 3.046 7.624C10.041 62.619 12.323 64 16 64h45c2.923 0 5.272-1.323 7.285-3.336a10.762 10.762 0 003.175-7.64c0-2.76-1.067-5.31-2.77-7.236-1.739-1.922-4.177-3.249-6.902-3.543l-.017-.002-.017-.003c-.546-.078-1.2-.415-1.48-1.163l-.006-.015-.005-.015a10.79 10.79 0 00-3.947-5.312c-1.78-1.26-3.958-2.033-6.316-2.033-.517 0-1.034.037-1.552.11a9.95 9.95 0 00-1.5.33l-.026.007-.026.007c-.637.16-1.416.01-1.903-.671l-.002-.003c-1.478-2.084-3.491-3.834-5.813-5.053-2.25-1.143-4.795-1.824-7.444-1.824-4.1 0-7.855 1.516-10.7 4.016z" fill="#151515"/></svg>