<svg width="80" height="80" viewBox="0 0 80 80" fill="none" xmlns="http://www.w3.org/2000/svg"><path fill-rule="evenodd" clip-rule="evenodd" d="M2.783 23.027v1.949l.012.003.06.015a13.374 13.374 0 011.23.396c.825.308 1.944.809 3.12 1.573 2.347 1.526 4.89 4.078 5.819 8.254l1.952-.434c-1.072-4.824-4.029-7.772-6.681-9.496-.153-.1-.305-.195-.456-.287h6.16c6.847 0 11.538 1.71 14.53 4.819C31.53 32.934 33 37.635 33 44v2H3v2h30v6H3v2h30v12h2V56h10v12h2V56h30v-2H47v-6h30v-2H47v-2c0-6.365 1.471-11.066 4.471-14.181C54.463 26.71 59.154 25 66 25h6.16c-.15.092-.302.187-.455.287-2.653 1.724-5.61 4.672-6.681 9.496l1.952.434c.928-4.176 3.471-6.728 5.819-8.253a16.249 16.249 0 013.118-1.574 13.364 13.364 0 011.231-.396l.036-.009.025-.006.012-.003v-1.952l-.012-.003-.031-.008-.03-.007a13.403 13.403 0 01-1.23-.395 16.26 16.26 0 01-3.12-1.574c-2.347-1.526-4.89-4.078-5.818-8.254l-1.952.434c1.072 4.824 4.028 7.772 6.68 9.496.154.1.306.195.457.287H66c-7.154 0-12.463 1.79-15.97 5.431C46.53 32.066 45 37.365 45 44v2H35v-2c0-6.635-1.53-11.934-5.03-15.569C26.463 24.79 21.154 23 14 23H7.839c.15-.092.303-.187.456-.287 2.652-1.724 5.609-4.672 6.681-9.496l-1.952-.434c-.928 4.176-3.472 6.728-5.82 8.254a16.26 16.26 0 01-3.118 1.574 13.413 13.413 0 01-1.23.395l-.061.015-.012.003v.003zM45 48H35v6h10v-6z" fill="#151515"/></svg>