<svg width="80" height="81" viewBox="0 0 80 81" fill="none" xmlns="http://www.w3.org/2000/svg"><path fill-rule="evenodd" clip-rule="evenodd" d="M4.871 40.426c0-16.746 13.544-30.29 30.29-30.29 15.558 0 25.152 11.652 29.967 26.987a27.819 27.819 0 00-2.371-2.029c-3.304-2.516-8.133-4.968-14.054-4.455l.172 1.993c5.249-.455 9.593 1.71 12.67 4.053a26.16 26.16 0 013.552 3.275 21.706 21.706 0 011.153 1.391l.054.075.012.017.002.002h.002l1.814-.594h.002v-.092c0-.07.003-.176.009-.318.012-.283.04-.703.102-1.233.125-1.061.388-2.558.94-4.278a22.93 22.93 0 017.954-11.292l-1.22-1.585a24.93 24.93 0 00-8.639 12.266 25.66 25.66 0 00-.449 1.572C61.823 20.484 51.791 8.136 35.161 8.136c-17.85 0-32.29 14.44-32.29 32.29s14.44 32.29 32.29 32.29v-2c-16.746 0-30.29-13.544-30.29-30.29z" fill="#151515"/><path d="M58.267 61.757l-2.217-6.855c-.484-1.532-.807-2.944-1.17-4.315h-.04c-.323 1.371-.645 2.863-1.129 4.315l-2.177 6.855h6.733zm-7.338 2.42l-2.299 7.459h-2.983l7.58-23.75h3.428l7.58 23.75h-3.064l-2.38-7.46H50.93z" fill="#151515"/></svg>