<svg width="80" height="81" viewBox="0 0 80 81" fill="none" xmlns="http://www.w3.org/2000/svg"><path fill-rule="evenodd" clip-rule="evenodd" d="M49.724 10.605l.254 1.185 3 14 .21.978-1.956.42-.21-.979-2.407-11.234-14.299 26.947 8.744 18.832 24.822-46.781-11.044 4.633-.922.387-.774-1.844.922-.387 13.55-5.684 1.111-.467.253 1.18 3 14 .21.977-1.956.42-.21-.979-2.407-11.234L44.663 62H78v2H2v-2h18.433L8.093 35.421l-.421-.907 1.814-.842.421.907L22.06 60.754l10.024-18.891-2.991-6.442-.421-.907 1.814-.842.421.907 2.353 5.067 13.612-25.654-10.836 4.612-.92.392-.783-1.84.92-.392 13.355-5.684 1.116-.475zM23.663 62h17.77L33.14 44.138 23.663 62z" fill="#151515"/></svg>