<svg width="80" height="81" viewBox="0 0 80 81" fill="none" xmlns="http://www.w3.org/2000/svg"><path d="M77.136 63.208v-1.975c-.201-.04-.403-.04-.564-.04-1.532.04-2.702.725-3.306 1.975v-1.935H71.33V72.28h1.976v-5.766c0-2.42.927-3.387 2.742-3.387.322 0 .685.04 1.088.08zm-17.177 2.58c.161-2.217 1.774-3.104 3.508-3.104 2.097 0 3.307 1.573 3.347 3.105h-6.855zm0 1.614h8.992c.282-3.508-1.895-6.33-5.443-6.33-3.186 0-5.646 2.217-5.646 5.725 0 3.266 2.057 5.766 5.726 5.766 2.823 0 4.678-1.572 5.242-3.468h-2.056c-.484 1.09-1.452 1.815-3.186 1.815-1.774 0-3.548-1.13-3.629-3.508zm-7.823-8.911v2.782h-1.854v1.492h1.855v6.774c0 2.298.524 2.782 2.741 2.782h1.452V70.75h-1.008c-1.129 0-1.21-.283-1.21-1.452v-6.532h2.218v-1.492h-2.218V58.49h-1.976zm-2.54 4.717v-1.975c-.201-.04-.403-.04-.564-.04-1.533.04-2.702.725-3.307 1.975v-1.935H43.79V72.28h1.976v-5.766c0-2.42.927-3.387 2.742-3.387.282 0 .645.04 1.088.08zm-17.177 2.58c.161-2.217 1.774-3.104 3.508-3.104 2.097 0 3.306 1.573 3.347 3.105h-6.855zm-.04 1.614h8.991c.242-3.508-1.895-6.33-5.443-6.33-3.186 0-5.645 2.217-5.645 5.725 0 3.266 2.056 5.766 5.726 5.766 2.822 0 4.677-1.572 5.241-3.468h-2.096c-.484 1.09-1.452 1.815-3.186 1.815s-3.508-1.13-3.589-3.508zM24.394 69.7l-3.186-8.468h-2.177l4.395 11.049H25.2l4.395-11.049H27.58L24.395 69.7zM10.04 62.926v-1.653H8.064V72.32h1.976v-6.008c0-2.379 1.17-3.629 3.064-3.629 2.258 0 2.54 1.492 2.54 3.186v6.41h1.976v-6.975c0-2.54-1.008-4.234-3.83-4.234-1.936 0-3.065.807-3.75 1.855zm-5.202-1.653H2.862V72.32h1.976V61.273zm0-3.871H2.862v2.258h1.976v-2.258z" fill="#151515"/><path fill-rule="evenodd" clip-rule="evenodd" d="M21.968 10.326c-3.685-.006-7.715 2.913-11.248 9.523L4.632 31.26l-1.765-.94 6.089-11.412c3.644-6.82 8.196-10.59 13.015-10.583 4.824.007 9.296 3.796 12.786 10.59l6.124 11.61 6.125 11.194.004.009c3.54 6.62 7.495 9.542 11.135 9.542 3.64 0 7.595-2.921 11.134-9.542l6.088-11.41 1.765.94-6.089 11.412c-3.639 6.807-8.111 10.6-12.898 10.6-4.787 0-9.258-3.791-12.896-10.595l-.002-.004-6.124-11.192-.007-.014-6.13-11.622-.005-.01c-3.38-6.58-7.334-9.503-11.013-9.508z" fill="#151515"/></svg>