<svg width="80" height="80" viewBox="0 0 80 80" fill="none" xmlns="http://www.w3.org/2000/svg"><path fill-rule="evenodd" clip-rule="evenodd" d="M22.907 28.657C22.907 16.15 33.194 6 45.953 6 58.713 6 69 16.149 69 28.657c0 12.509-10.288 22.657-23.047 22.657S22.907 41.166 22.907 28.657zM45.953 4C32.12 4 20.907 15.014 20.907 28.657c0 6.508 2.551 12.418 6.721 16.819L8.214 70.139l-.596.757.734.623 3.814 3.243.782.664.644-.798L33.446 50.03a25.26 25.26 0 0012.507 3.284C59.786 53.314 71 42.3 71 28.657S59.786 4 45.953 4zM10.381 70.62l18.688-23.741a25.07 25.07 0 002.666 2.087L12.68 72.574l-2.299-1.955zM62 29c0 8.284-6.708 15-15 15v2c9.398 0 17-7.612 17-17h-2z" fill="#151515"/></svg>