<svg width="80" height="80" viewBox="0 0 80 80" fill="none" xmlns="http://www.w3.org/2000/svg"><path fill-rule="evenodd" clip-rule="evenodd" d="M40 5C20.664 5 5 20.664 5 40s15.664 35 35 35 35-15.664 35-35S59.336 5 40 5zM3 40C3 19.56 19.56 3 40 3s37 16.56 37 37-16.56 37-37 37S3 60.44 3 40zm36-23.424V9.384h2v7.192h-2zm11.827 2.632l3.616-6.228 1.73 1.004-3.616 6.228-1.73-1.004zm8.961 8.235l6.228-3.616 1.004 1.73-6.228 3.616-1.004-1.73zM44.819 37.932c-1.588-3.039-5.32-4.187-8.374-2.59-3.036 1.587-4.185 5.315-2.593 8.367.382.704 1.415 1.82 2.897 3.17 1.448 1.319 3.215 2.764 4.937 4.11a182.13 182.13 0 005.024 3.784l-.015-.504c-.048-1.524-.13-3.592-.27-5.767-.14-2.179-.336-4.45-.61-6.388-.28-1.99-.624-3.471-.996-4.182zm2.935 18.822l1-.013v-.046l-.002-.135-.01-.51c-.01-.44-.024-1.073-.048-1.843-.048-1.539-.132-3.63-.273-5.834-.141-2.2-.342-4.53-.626-6.54-.276-1.957-.65-3.77-1.203-4.828-2.108-4.032-7.055-5.536-11.073-3.436-4.033 2.108-5.537 7.055-3.436 11.073l.006.012c.564 1.044 1.85 2.371 3.313 3.704 1.502 1.367 3.313 2.847 5.052 4.207a184.469 184.469 0 006.16 4.606l.416.296.11.078.029.02.007.005.002.002.577-.818zm0 0l-.575.818a1 1 0 001.575-.83l-1 .013zM63.425 39h7.192v2h-7.192v-2zm-2.632 11.827l6.228 3.616-1.004 1.73-6.228-3.616 1.004-1.73zm-8.235 8.961l3.616 6.228-1.73 1.004-3.616-6.228 1.73-1.004z" fill="#1D1D1B"/></svg>