<svg width="80" height="80" viewBox="0 0 80 80" fill="none" xmlns="http://www.w3.org/2000/svg"><path fill-rule="evenodd" clip-rule="evenodd" d="M38.269 32l-8.146-14.127-12.838-3.556.534-1.927 10.88 3.014L21.835 3.5l1.732-1 6.71 11.636 2.885-10.59 1.93.526-3.407 12.506 8.328 14.442 8.482-14.279-3.268-12.6 1.936-.502 2.77 10.68 6.908-11.627 1.72 1.021-7.023 11.822 10.897-2.866.509 1.935-12.861 3.381L41.757 32h16.859l9.398-8.47 1.34 1.486L61.603 32H75v2H5v-2h13.497l-7.75-7.366 1.379-1.45L21.4 32h16.869zM16.016 43.185c1.855-1.994 3.512-3.776 4.001-6.37l1.967.006c.474 2.605 2.104 4.39 3.93 6.39l.322.352c1.898 2.084 3.92 4.453 3.942 8.084v.006c0 4.894-4.324 9.13-9.247 9.13s-9.247-4.236-9.247-9.13c0-3.64 2.056-6.014 3.987-8.097l.345-.371zm1.122 1.73c-1.936 2.089-3.454 3.948-3.454 6.738 0 3.761 3.4 7.13 7.247 7.13 3.846 0 7.245-3.367 7.247-7.127-.018-2.798-1.522-4.66-3.421-6.747l-.389-.425c-1.185-1.292-2.481-2.706-3.38-4.464-.917 1.755-2.236 3.167-3.44 4.455l-.41.44zm40.878-8.094l1.967-.006c.489 2.595 2.146 4.376 4.001 6.37l.345.37c1.93 2.084 3.987 4.458 3.987 8.098 0 4.894-4.324 9.13-9.247 9.13s-9.247-4.236-9.247-9.13c0-3.635 2.025-6.006 3.928-8.091l.332-.363c1.828-1.996 3.461-3.779 3.934-6.378zm.995 3.196c-.9 1.757-2.2 3.17-3.386 4.46-.135.145-.267.29-.398.433-1.904 2.087-3.405 3.948-3.405 6.743 0 3.761 3.4 7.13 7.247 7.13s7.247-3.369 7.247-7.13c0-2.79-1.519-4.65-3.454-6.738l-.41-.44c-1.204-1.289-2.524-2.7-3.441-4.458zM34.226 55.851c2.194-2.538 4.206-4.867 4.79-8.033h1.967c.586 3.166 2.597 5.495 4.79 8.034l.446.516c2.296 2.67 4.678 5.636 4.678 9.885C50.897 71.996 45.809 77 40 77s-10.897-5.004-10.897-10.747c0-4.249 2.382-7.216 4.678-9.885l.446-.517zm1.07 1.822c-2.31 2.686-4.193 5.145-4.193 8.58C31.103 70.864 35.27 75 40 75s8.897-4.136 8.897-8.747c0-3.435-1.883-5.894-4.194-8.58a80.63 80.63 0 00-.506-.585c-1.507-1.74-3.132-3.614-4.197-5.883-1.065 2.269-2.69 4.144-4.197 5.883-.17.196-.34.391-.506.585z" fill="#151515"/></svg>