<svg width="80" height="80" viewBox="0 0 80 80" fill="none" xmlns="http://www.w3.org/2000/svg"><path fill-rule="evenodd" clip-rule="evenodd" d="M29.587 21.787L38.277 37H20.4l-9.92-9.453-1.38 1.448L17.5 37H3v2h74v-2H62.6l8.401-7.58-1.34-1.485L59.615 37H41.75l8.894-15.086 13.636-3.609-.512-1.933-11.68 3.091 7.494-12.711-1.723-1.016-7.343 12.457-2.959-11.507-1.937.498 3.458 13.448-9.064 15.376-8.846-15.487 3.61-13.408-1.93-.52-3.088 11.464-7.17-12.553-1.737.992 7.322 12.818-11.648-3.264-.54 1.926 13.6 3.81zm10.09 38.334c0-8.025 4.637-13.186 11.814-13.186 5.282 0 9.275 3.065 10.444 8.024h-2.782c-1.008-3.589-3.912-5.726-7.863-5.726-5.283 0-8.67 4.234-8.67 10.847 0 6.653 3.468 10.968 8.79 10.968 4.033 0 6.896-2.056 7.904-5.726h2.782c-1.21 5.08-5.242 8.065-10.887 8.065-7.016 0-11.532-5.202-11.532-13.267zm-27.58 2.096h10.726v2.299H12.097v-2.299zm18.992-15.282c-2.702 0-4.879 2.218-4.879 4.92 0 2.701 2.177 4.919 4.879 4.919 2.742 0 4.96-2.218 4.96-4.92 0-2.782-2.178-4.919-4.96-4.919zm0 8.185c-1.694 0-3.064-1.451-3.064-3.266 0-1.854 1.33-3.266 3.064-3.266 1.815 0 3.186 1.412 3.186 3.266 0 1.815-1.412 3.267-3.186 3.267z" fill="#151515"/></svg>