<svg width="80" height="80" viewBox="0 0 80 80" fill="none" xmlns="http://www.w3.org/2000/svg"><path fill-rule="evenodd" clip-rule="evenodd" d="M46 5h-1v13.016C30.347 18.5 19 29.58 19 45v2H6v28h41c7.24 0 14.002-2.588 18.957-7.543C70.917 62.497 74 55.231 74 46V5H46zm1 14V7h25v39c0 8.77-2.918 15.503-7.457 20.043C59.998 70.588 53.76 73 47 73H8V49h13v-4c0-14.634 10.94-25 25-25h1v-1zM31 46c0-8.837 7.163-16 16-16s16 7.163 16 16-7.163 16-16 16-16-7.163-16-16zm16-18c-9.941 0-18 8.059-18 18s8.059 18 18 18 18-8.059 18-18-8.059-18-18-18z" fill="#151515"/></svg>