<svg width="80" height="80" viewBox="0 0 80 80" fill="none" xmlns="http://www.w3.org/2000/svg"><path fill-rule="evenodd" clip-rule="evenodd" d="M38.538 12a.462.462 0 00-.3.11l-17.91 15.224A7 7 0 0115.794 29H5v22h10.794a7 7 0 014.534 1.666l17.91 15.224a.462.462 0 00.762-.352V12.462a.462.462 0 00-.462-.462zm-1.595-1.414A2.462 2.462 0 0141 12.462v55.076a2.462 2.462 0 01-4.057 1.876L19.033 54.19A5 5 0 0015.794 53H5a2 2 0 01-2-2V29a2 2 0 012-2h10.794a5 5 0 003.239-1.19l17.91-15.224zM65 41.414L54.707 51.707l-1.414-1.414L63.586 40 53.293 29.707l1.414-1.414L65 38.586l10.293-10.293 1.414 1.414L66.414 40l10.293 10.293-1.414 1.414L65 41.414z" fill="#151515"/></svg>