<svg width="80" height="80" viewBox="0 0 80 80" fill="none" xmlns="http://www.w3.org/2000/svg"><path fill-rule="evenodd" clip-rule="evenodd" d="M73.212 16.12c.553-.136 1.255-.223 1.968.037l.012.004c.626.237 1.06.67 1.289 1.224.21.512.215 1.05.162 1.498-.098.822-.44 1.67-.636 2.157l-.038.097-.002.003-.18.443c-.708 1.746-1.336 3.293-1.614 5.064l-.002.012c-.263 1.55-.21 3.05-.152 4.679.018.489.035.989.045 1.506v.002c.018 1.04.067 2.083.117 3.142l.018.397c.056 1.19.107 2.4.107 3.615 0 1.731-.105 3.478-.209 5.189-.04.667-.08 1.33-.114 1.983-.008.45-.022.891-.035 1.324-.05 1.684-.097 3.251.145 4.86.278 1.769.906 3.315 1.614 5.06l.18.443.001.003.039.097c.196.488.538 1.336.635 2.157.054.448.05.987-.162 1.498-.228.553-.663.987-1.288 1.224a.862.862 0 01-.026.01c-.722.25-1.415.17-1.972.03-.36-.09-.765-.237-1.082-.352a12.472 12.472 0 00-.332-.118l-.014-.005-.486-.169c-.652-.226-1.346-.466-2.01-.731-1.64-.633-3.339-.903-5.16-.98h-.008c-1.93-.097-3.89.066-5.9.306-.687.082-1.39.175-2.097.268-1.326.174-2.675.352-4 .471m0 0l-.01.001c-3.984.362-7.993.727-12.005.93a1.026 1.026 0 01-.111-.001 399.594 399.594 0 01-12-.93c-1.428-.114-2.87-.304-4.284-.491-.609-.08-1.212-.16-1.806-.233-2.005-.245-3.964-.418-5.913-.321h-.007c-1.821.077-3.52.347-5.16.98-.664.265-1.358.505-2.01.731l-.486.17-.014.004c-.09.03-.202.07-.326.115-.323.116-.733.264-1.106.356-.552.136-1.254.223-1.968-.036l-.012-.005c-.625-.237-1.06-.67-1.288-1.224-.211-.511-.216-1.05-.162-1.497.097-.822.439-1.67.635-2.158l.039-.097.001-.003.18-.443c.708-1.745 1.337-3.293 1.614-5.063l.002-.013c.264-1.549.21-3.05.152-4.679-.017-.488-.035-.989-.045-1.505v-.002a101.864 101.864 0 00-.116-3.142l-.019-.397c-.055-1.19-.107-2.4-.107-3.615 0-1.215.052-2.426.107-3.615l.019-.397c.05-1.06.099-2.101.116-3.142v-.002c.01-.547.03-1.076.05-1.593.058-1.597.112-3.078-.119-4.607-.26-1.663-.858-3.12-1.528-4.753a167.163 167.163 0 01-.32-.786l-.067-.186c-.179-.482-.475-1.28-.56-2.037-.05-.442-.044-.98.171-1.488.231-.546.666-.968 1.284-1.192.712-.284 1.416-.21 1.972-.079.385.091.805.242 1.131.36.118.041.223.08.31.108.854.285 1.68.573 2.51.905 1.64.633 3.333.9 5.14.94h.028c1.931.097 3.891-.067 5.9-.306.688-.082 1.39-.175 2.098-.268 1.326-.174 2.675-.352 4-.471l.008-.001c.781-.063 1.564-.128 2.348-.193 3.209-.266 6.442-.533 9.7-.696a.968.968 0 01.11 0c4.003.243 8.004.566 12 .93 1.427.114 2.87.305 4.284.491.608.08 1.212.16 1.806.233 2.005.245 3.963.418 5.913.322h.007c1.82-.078 3.519-.347 5.16-.98a46.177 46.177 0 012.01-.732l.485-.169.014-.005c.091-.03.202-.07.326-.115a11.89 11.89 0 011.106-.355m-.792 2.365l-.507.176c-.649.225-1.287.447-1.905.694l-.01.004c-1.905.736-3.833 1.03-5.799 1.114-2.122.105-4.215-.085-6.25-.334-.638-.077-1.265-.16-1.885-.242-1.392-.184-2.752-.364-4.128-.474l-.01-.001c-3.968-.36-7.93-.681-11.891-.922-3.202.161-6.377.424-9.565.688l-2.36.194a93.418 93.418 0 00-3.852.454c-.718.095-1.444.19-2.184.279-2.039.243-4.127.422-6.223.319-1.977-.044-3.907-.34-5.808-1.075l-.011-.004a43.247 43.247 0 00-2.405-.867 21.4 21.4 0 01-.48-.169 7.09 7.09 0 00-.79-.25c-.376-.09-.61-.076-.777-.008a1.114 1.114 0 01-.047.018c-.107.038-.12.069-.127.089l-.002.004c-.027.063-.056.211-.025.485.055.493.254 1.036.44 1.543l.075.208c.094.233.19.468.288.704.665 1.619 1.36 3.31 1.66 5.224l.001.005c.262 1.734.198 3.471.137 5.11-.018.485-.036.963-.045 1.428a106.445 106.445 0 01-.118 3.201l-.019.397A75.743 75.743 0 007.693 40c0 1.163.05 2.332.105 3.522l.019.396c.05 1.055.1 2.128.118 3.2.008.44.025.891.041 1.35.06 1.662.125 3.432-.175 5.2-.316 2.008-1.03 3.763-1.724 5.471a231.189 231.189 0 00-.19.47l-.016.039c-.214.533-.463 1.157-.528 1.705-.033.273-.005.427.025.499v.002c.013.03.029.068.14.111.174.061.418.066.8-.028a7.59 7.59 0 00.78-.252c.15-.053.31-.111.492-.172l.506-.176c.65-.225 1.288-.446 1.905-.693l.011-.005c1.904-.735 3.833-1.03 5.799-1.114 2.122-.105 4.215.085 6.25.334.638.078 1.264.16 1.885.242 1.391.184 2.752.364 4.127.474l.011.001c3.967.361 7.93.681 11.89.922 3.95-.2 7.904-.56 11.88-.922h.002a93.763 93.763 0 003.855-.454c.718-.095 1.444-.19 2.184-.279 2.043-.244 4.134-.423 6.234-.318 1.966.084 3.894.379 5.798 1.114l.01.005c.618.247 1.256.468 1.905.693l.507.176c.197.066.363.127.517.183.259.095.48.176.743.242.362.09.614.092.817.025.107-.043.122-.08.134-.11l.001-.001c.03-.072.058-.226.025-.5-.065-.547-.314-1.171-.528-1.704l-.016-.04v-.001l-.19-.468c-.696-1.71-1.41-3.466-1.725-5.476l-.001-.006c-.273-1.806-.218-3.601-.165-5.306.013-.417.025-.828.033-1.233v-.026l.001-.006c.036-.701.078-1.393.12-2.08.101-1.687.201-3.34.201-5.006 0-1.164-.05-2.333-.105-3.522l-.018-.397c-.05-1.055-.1-2.127-.119-3.2-.008-.44-.024-.89-.04-1.35-.061-1.661-.125-3.431.174-5.2.316-2.008 1.03-3.762 1.725-5.47a257.47 257.47 0 00.19-.47l.016-.04c.213-.533.463-1.157.528-1.704.032-.274.004-.428-.025-.5l-.001-.001c-.012-.03-.028-.068-.14-.112-.174-.061-.418-.066-.799.028a7.598 7.598 0 00-.781.252c-.15.054-.309.111-.491.172z" fill="#151515"/></svg>