<svg width="80" height="80" viewBox="0 0 80 80" fill="none" xmlns="http://www.w3.org/2000/svg"><path fill-rule="evenodd" clip-rule="evenodd" d="M40.275 3.265l.994 6.503 3.023 19.76 7.455-3.537 2.535-1.202-1.203 2.535-3.534 7.449 20.439 3.028 6.719.995-6.721.984-20.436 2.99 3.533 7.446 1.203 2.535-2.535-1.203-7.435-3.527-3.04 22.195-.997 7.278-.985-7.28-3.002-22.192-7.433 3.526-2.535 1.203 1.203-2.535 3.53-7.442L10.02 39.78l-6.912-.984 6.91-.996 21.037-3.032-3.531-7.444-1.203-2.535 2.535 1.202 7.453 3.536L39.292 9.77l.983-6.505zm.012 13.308l-2.203 14.584-.201 1.331-1.216-.577-6.135-2.91 2.91 6.135.581 1.225-1.342.193-15.469 2.23 15.468 2.202 1.345.191-.583 1.227-2.91 6.135 6.135-2.91 1.236-.587.183 1.356 2.201 16.269 2.229-16.27.185-1.354 1.234.586 6.135 2.91-2.91-6.135-.58-1.222 1.338-.196 15.054-2.202-15.056-2.23-1.335-.198.578-1.22L50.07 29l-6.135 2.91-1.214.576-.203-1.328-2.231-14.586z" fill="#151515"/></svg>