<svg width="80" height="80" viewBox="0 0 80 80" fill="none" xmlns="http://www.w3.org/2000/svg"><path fill-rule="evenodd" clip-rule="evenodd" d="M38.283 36.056l-8.918-15.718-13.463-3.729.534-1.928 11.532 3.195L20.783 5.21l1.74-.987 7.158 12.617L32.825 5.3l1.93.526-3.674 13.483 8.933 15.744 9.15-15.63-3.52-13.527 1.937-.503 3.013 11.586 7.333-12.525 1.726 1.01-7.352 12.56L63.86 15l.506 1.935-13.495 3.53-9.125 15.589 17.738-.027 9.812-9.737 1.408 1.42-8.376 8.312L76.998 36l.004 2-14.502.022 8.21 8.274-1.42 1.408-9.604-9.678-19.684.03H20.413l-9.708 9.653-1.41-1.418 8.281-8.234H3v-2h14.595l-8.304-8.352 1.418-1.41 9.707 9.761h17.867zm-5.258 14.45c2.719-2.951 5.255-5.706 5.992-9.688h1.967c.734 3.971 3.258 6.721 5.96 9.665l.548.598c2.84 3.109 5.728 6.524 5.685 11.706-.002 7.015-6.147 13.052-13.218 13.052-7.03 0-13.217-6.08-13.217-13.057 0-5.18 2.907-8.594 5.757-11.703l.526-.572zm.948 1.925c-2.856 3.115-5.231 6.016-5.231 10.351 0 5.847 5.265 11.057 11.217 11.057 5.993 0 11.218-5.17 11.218-11.057v-.008c.037-4.333-2.317-7.23-5.161-10.345-.2-.22-.404-.44-.61-.663-1.978-2.15-4.108-4.463-5.406-7.41-1.302 2.957-3.444 5.276-5.435 7.432l-.592.643z" fill="#151515"/></svg>