<svg width="24" height="24" viewBox="0 0 24 24" fill="none" xmlns="http://www.w3.org/2000/svg"><path fill-rule="evenodd" clip-rule="evenodd" d="M9.688 3.668a8.727 8.727 0 00-5.049 3.641l1.118-.28.97-.242.486 1.94-.97.243-4 1L1 10.28V4h2v2.163a10.725 10.725 0 016.17-4.427c5.742-1.538 11.643 1.869 13.182 7.61l.258.966-1.931.518-.26-.966a8.763 8.763 0 00-10.73-6.196zm-4.241 14.24l-.662-.75-1.5 1.323.662.75c.22.25.452.488.693.715l.728.686 1.37-1.457-.728-.685a8.736 8.736 0 01-.563-.582zm17.13-3.669l.198-.98-1.96-.396-.199.98c-.053.265-.12.528-.197.786l-.288.958 1.915.576.288-.958c.096-.317.177-.64.242-.966zm-2.059 4.485l.614-.79-1.58-1.227-.613.79c-.33.425-.701.821-1.108 1.181l-.748.664 1.327 1.496.748-.663c.5-.443.954-.93 1.36-1.451zm-11.792 1.51l-.926-.378-.754 1.852.926.378c.612.249 1.25.443 1.903.576l.98.2.4-1.959-.98-.2a8.764 8.764 0 01-1.549-.47zm4.772.518l-.985.17.339 1.971.986-.17a10.916 10.916 0 001.92-.514l.938-.346-.692-1.877-.939.346a8.876 8.876 0 01-1.567.42z" fill="#151515"/></svg>