<svg width="24" height="24" viewBox="0 0 24 24" fill="none" xmlns="http://www.w3.org/2000/svg"><path fill-rule="evenodd" clip-rule="evenodd" d="M2 12C2 6.477 6.477 2 12 2s10 4.477 10 10-4.477 10-10 10S2 17.523 2 12zM12 0C5.373 0 0 5.373 0 12s5.373 12 12 12 12-5.373 12-12S18.627 0 12 0zm-2 6a1 1 0 00-1 1v5H7v2h2v1H7v2h2v2h2v-2h3v-2h-3v-1.002a30.54 30.54 0 001.687-.047c.782-.049 1.525-.15 2.164-.39.666-.25 1.245-.66 1.634-1.317C16.86 11.611 17 10.85 17 10c0-.849-.14-1.61-.515-2.244-.39-.658-.968-1.068-1.634-1.317-.64-.24-1.382-.341-2.164-.39C11.907 6 11.005 6 10.025 6H10zm2.563 5.955c-.463.029-.98.04-1.563.043V8.002c.582.004 1.1.014 1.563.043.718.045 1.225.131 1.586.266.334.126.505.278.616.464.124.211.235.574.235 1.225 0 .651-.11 1.014-.235 1.225-.11.186-.282.338-.616.464-.36.135-.868.221-1.586.266z" fill="#151515"/></svg>