<svg xmlns="http://www.w3.org/2000/svg" xmlns:xlink="http://www.w3.org/1999/xlink"><symbol id="arrow-button" viewBox="0 0 56 56">
<path d="M0 28C0 12.536 12.536 0 28 0C43.464 0 56 12.536 56 28C56 43.464 43.464 56 28 56C12.536 56 0 43.464 0 28Z" fill="#F4F4F8"/>
<path fill-rule="evenodd" clip-rule="evenodd" d="M32.5 27.9142L31.7929 27.2071L29 24.4142V34V35H27V34V24.4142L24.2071 27.2071L23.5 27.9142L22.0858 26.5L22.7929 25.7929L27.2929 21.2929L28 20.5858L28.7071 21.2929L33.2071 25.7929L33.9142 26.5L32.5 27.9142Z" fill="black"/>
</symbol><symbol id="daichi-logo-black" viewBox="0 0 96 32">
<path d="M60.3734 7.52499C58.9975 7.96982 58.1082 8.56863 57.0343 9.69781C55.9436 10.8783 55.3059 12.1444 54.9536 13.7868C54.2488 17.1744 55.1214 20.4421 57.2859 22.5636C59.1149 24.3601 60.6251 24.8904 63.5783 24.7878C65.3402 24.7193 65.6423 24.668 66.6658 24.189C67.9411 23.5731 69.4512 22.2044 70.0889 21.0923C70.5084 20.3737 71.146 18.526 71.146 18.0469C71.146 17.8587 70.7768 17.8074 69.3506 17.8074H67.5384L67.2195 18.6115C66.4812 20.4421 65.1389 21.2976 63.0078 21.2976C61.5144 21.2976 60.8936 21.0581 59.9371 20.1342C59.1653 19.3985 58.7626 18.5602 58.5276 17.1401C58.0746 14.4712 59.0814 12.093 61.0782 11.0323C61.8333 10.6217 64.0817 10.6046 64.9543 10.9981C65.9107 11.4258 66.7161 12.2641 67.1356 13.2736L67.5384 14.2145H69.3506C69.4542 14.2145 69.5524 14.2148 69.6454 14.215C70.5238 14.2169 70.9343 14.2178 71.0663 14.0228C71.1821 13.8517 71.0835 13.5296 70.8983 12.9251C70.8758 12.8516 70.852 12.7739 70.8272 12.6919C70.3909 11.2718 69.8204 10.3479 68.7633 9.30431C67.1356 7.7474 65.6422 7.19992 63.0078 7.21703C61.8668 7.21703 61.0278 7.31968 60.3734 7.52499Z" fill="black"/>
<path fill-rule="evenodd" clip-rule="evenodd" d="M2.71831 7.73032C0.889325 8.6542 0 10.1769 0 12.4181C0 14.0264 0.419493 15.1556 1.4095 16.1479C2.34916 17.1231 3.25526 17.5166 4.7151 17.6021C6.54409 17.7048 7.53409 17.3455 8.74223 16.1136C9.83291 15.0016 10.2356 13.9922 10.2356 12.4181C10.2356 10.981 9.84969 9.93736 8.92681 8.89372C7.83613 7.64478 6.82934 7.19995 5.10103 7.19995C3.92645 7.19995 3.60764 7.26839 2.71831 7.73032ZM6.59443 11.135C7.1146 11.7338 7.1985 12.5721 6.79578 13.3591C6.44341 14.0606 5.90646 14.3857 5.10103 14.3857C3.74188 14.3857 2.75187 12.9827 3.23848 11.7851C3.87611 10.2624 5.52053 9.93736 6.59443 11.135Z" fill="black"/>
<path fill-rule="evenodd" clip-rule="evenodd" d="M13.256 24.6851V7.3368L17.5012 7.40523C21.327 7.47367 21.8304 7.525 22.7365 7.86717C26.2435 9.16744 28.408 12.2641 28.408 16.011C28.408 19.8091 26.2267 22.8887 22.6526 24.1548C21.6626 24.514 21.1928 24.5483 17.4173 24.6167L13.256 24.6851ZM24.4984 14.129C23.995 12.7432 22.7029 11.4429 21.4612 11.0665C20.8907 10.8954 19.9175 10.7928 18.7597 10.7928H16.9475V21.2634L19.0953 21.1949C21.0082 21.1436 21.3102 21.0923 22.0821 20.6817C24.3474 19.4841 25.4045 16.6098 24.4984 14.129Z" fill="black"/>
<path fill-rule="evenodd" clip-rule="evenodd" d="M34.583 7.74744C33.8615 9.8005 29.0289 24.3088 29.0289 24.4628C29.0289 24.5996 29.5323 24.651 30.9083 24.6167L32.7708 24.5654L33.3581 22.8032L33.9286 21.0581H40.8754L42.0164 24.651H43.9125C44.9529 24.651 45.8086 24.6167 45.8086 24.5825C45.8086 24.497 40.372 8.14094 40.1874 7.6619C40.0868 7.40526 39.7847 7.37105 37.402 7.37105C34.7844 7.37105 34.7173 7.37105 34.583 7.74744ZM38.7276 14.3343L39.9022 17.9785H37.3852C35.4388 17.9785 34.8851 17.9272 34.9522 17.7561L36.1771 14.0093C36.8147 12.0589 37.3684 10.5191 37.4356 10.5875C37.5027 10.6559 38.0732 12.3497 38.7276 14.3343Z" fill="black"/>
<path d="M48.3256 24.651V7.37105H51.8493V24.651H48.3256Z" fill="black"/>
<path d="M73.8307 24.651H77.5223V17.4652H84.7375V24.651H88.4291V7.37105H84.7375V14.3857H77.5223V7.37105H73.8307V24.651Z" fill="black"/>
<path d="M91.9528 24.651V7.37105H95.4766V24.651H91.9528Z" fill="black"/>
</symbol><symbol id="daichi-logo-white" viewBox="0 0 96 32">
<path d="M60.3734 7.52499C58.9975 7.96982 58.1082 8.56863 57.0343 9.69781C55.9436 10.8783 55.3059 12.1444 54.9536 13.7868C54.2488 17.1744 55.1214 20.4421 57.2859 22.5636C59.1149 24.3601 60.6251 24.8904 63.5783 24.7878C65.3402 24.7193 65.6423 24.668 66.6658 24.189C67.9411 23.5731 69.4512 22.2044 70.0889 21.0923C70.5084 20.3737 71.146 18.526 71.146 18.0469C71.146 17.8587 70.7768 17.8074 69.3506 17.8074H67.5384L67.2195 18.6115C66.4812 20.4421 65.1389 21.2976 63.0078 21.2976C61.5144 21.2976 60.8936 21.0581 59.9371 20.1342C59.1653 19.3985 58.7626 18.5602 58.5276 17.1401C58.0746 14.4712 59.0814 12.093 61.0782 11.0323C61.8333 10.6217 64.0817 10.6046 64.9543 10.9981C65.9107 11.4258 66.7161 12.2641 67.1356 13.2736L67.5384 14.2145H69.3506C69.4542 14.2145 69.5524 14.2148 69.6454 14.215C70.5238 14.2169 70.9343 14.2178 71.0663 14.0228C71.1821 13.8517 71.0835 13.5296 70.8983 12.9251C70.8758 12.8516 70.852 12.7739 70.8272 12.6919C70.3909 11.2718 69.8204 10.3479 68.7633 9.30431C67.1356 7.7474 65.6422 7.19992 63.0078 7.21703C61.8668 7.21703 61.0278 7.31968 60.3734 7.52499Z" fill="white"/>
<path fill-rule="evenodd" clip-rule="evenodd" d="M2.71831 7.73032C0.889325 8.6542 0 10.1769 0 12.4181C0 14.0264 0.419493 15.1556 1.4095 16.1479C2.34916 17.1231 3.25526 17.5166 4.7151 17.6021C6.54409 17.7048 7.53409 17.3455 8.74223 16.1136C9.83291 15.0016 10.2356 13.9922 10.2356 12.4181C10.2356 10.981 9.84969 9.93736 8.92681 8.89372C7.83613 7.64478 6.82934 7.19995 5.10103 7.19995C3.92645 7.19995 3.60764 7.26839 2.71831 7.73032ZM6.59443 11.135C7.1146 11.7338 7.1985 12.5721 6.79578 13.3591C6.44341 14.0606 5.90646 14.3857 5.10103 14.3857C3.74188 14.3857 2.75187 12.9827 3.23848 11.7851C3.87611 10.2624 5.52053 9.93736 6.59443 11.135Z" fill="white"/>
<path fill-rule="evenodd" clip-rule="evenodd" d="M13.256 24.6851V7.3368L17.5012 7.40523C21.327 7.47367 21.8304 7.525 22.7365 7.86717C26.2435 9.16744 28.408 12.2641 28.408 16.011C28.408 19.8091 26.2267 22.8887 22.6526 24.1548C21.6626 24.514 21.1928 24.5483 17.4173 24.6167L13.256 24.6851ZM24.4984 14.129C23.995 12.7432 22.7029 11.4429 21.4612 11.0665C20.8907 10.8954 19.9175 10.7928 18.7597 10.7928H16.9475V21.2634L19.0953 21.1949C21.0082 21.1436 21.3102 21.0923 22.0821 20.6817C24.3474 19.4841 25.4045 16.6098 24.4984 14.129Z" fill="white"/>
<path fill-rule="evenodd" clip-rule="evenodd" d="M34.583 7.74744C33.8615 9.8005 29.0289 24.3088 29.0289 24.4628C29.0289 24.5996 29.5323 24.651 30.9083 24.6167L32.7708 24.5654L33.3581 22.8032L33.9286 21.0581H40.8754L42.0164 24.651H43.9125C44.9529 24.651 45.8086 24.6167 45.8086 24.5825C45.8086 24.497 40.372 8.14094 40.1874 7.6619C40.0868 7.40526 39.7847 7.37105 37.402 7.37105C34.7844 7.37105 34.7173 7.37105 34.583 7.74744ZM38.7276 14.3343L39.9022 17.9785H37.3852C35.4388 17.9785 34.8851 17.9272 34.9522 17.7561L36.1771 14.0093C36.8147 12.0589 37.3684 10.5191 37.4356 10.5875C37.5027 10.6559 38.0732 12.3497 38.7276 14.3343Z" fill="white"/>
<path d="M48.3256 24.651V7.37105H51.8493V24.651H48.3256Z" fill="white"/>
<path d="M73.8307 24.651H77.5223V17.4652H84.7375V24.651H88.4291V7.37105H84.7375V14.3857H77.5223V7.37105H73.8307V24.651Z" fill="white"/>
<path d="M91.9528 24.651V7.37105H95.4766V24.651H91.9528Z" fill="white"/>
</symbol><symbol id="download" viewBox="0 0 24 24">
<path fill-rule="evenodd" clip-rule="evenodd" d="M8.20711 10.7929L7.5 10.0858L6.08579 11.5L6.79289 12.2071L11.2929 16.7071L12 17.4142L12.7071 16.7071L17.2071 12.2071L17.9142 11.5L16.5 10.0858L15.7929 10.7929L13 13.5858L13 3V2L11 2V3L11 13.5858L8.20711 10.7929ZM4 16V15H2V16L2 20C2 21.1046 2.89543 22 4 22L20 22C21.1046 22 22 21.1046 22 20L22 16V15H20V16L20 20L4 20V16Z" fill="#151515"/>
</symbol><symbol id="folder-icon" viewBox="0 0 80 80">
<path fill-rule="evenodd" clip-rule="evenodd" d="M11 62V69C11 69.5523 11.4477 70 12 70H74C74.5523 70 75 69.5523 75 69V31C75 28.7909 73.2091 27 71 27H67V29H71C72.1046 29 73 29.8954 73 31V68H13V62H11Z" fill="black"/>
<path d="M6 15C6 13.3431 7.34315 12 9 12H35.2185C36.069 12 36.8795 12.361 37.4484 12.9931L44.9588 21.3379C45.3381 21.7594 45.8784 22 46.4454 22H64C65.6569 22 67 23.3431 67 25V62H6L6 15Z" stroke="black" stroke-width="2"/>
</symbol><symbol id="letter-icon" viewBox="0 0 80 80">
<path d="M0.625 64.0001H8.945L12.529 53.6961H31.345L34.993 64.0001H43.889L26.481 17.6001H17.905L0.625 64.0001ZM21.873 27.0081L28.913 46.9121H14.897L21.873 27.0081Z" fill="black"/>
<path d="M69.1625 50.4321C69.1625 56.3201 65.8345 59.1361 60.2025 59.1361C56.3625 59.1361 53.8665 57.3441 53.8665 54.3361C53.8665 50.4321 58.2825 48.8321 69.1625 47.8081V50.4321ZM58.5385 64.8321C63.6585 64.8321 67.6265 63.1041 69.8665 59.3281C70.0585 61.6961 70.2505 62.5281 70.5065 64.0001H77.4825C76.7785 61.1201 76.4585 56.5761 76.4585 52.2241C76.4585 49.0881 76.5865 44.9921 76.5865 43.3281C76.7785 32.3201 70.3145 28.5441 62.0585 28.5441C53.7385 28.5441 47.9145 33.4081 47.4025 40.3841H54.8905C55.0825 36.2241 57.9625 34.1761 61.8025 34.1761C65.6425 34.1761 68.9705 35.9681 68.9705 41.8561V42.4961C56.4265 43.8401 45.8025 45.8881 45.8025 54.5281C45.8025 60.8001 51.0505 64.8321 58.5385 64.8321Z" fill="black"/>
</symbol><symbol id="strokes-icon" viewBox="0 0 80 80">
<line x1="8" y1="19" x2="72" y2="19" stroke="black" stroke-width="2"/>
<line x1="8" y1="29" x2="72" y2="29" stroke="black" stroke-width="2"/>
<line x1="8" y1="39" x2="72" y2="39" stroke="black" stroke-width="2"/>
<line x1="8" y1="49" x2="72" y2="49" stroke="black" stroke-width="2"/>
<line x1="8" y1="59" x2="40" y2="59" stroke="black" stroke-width="2"/>
</symbol></svg>