<svg width="24" height="24" viewBox="0 0 24 24" fill="none" xmlns="http://www.w3.org/2000/svg"><path fill-rule="evenodd" clip-rule="evenodd" d="M12 2a1 1 0 01.897.557l2.706 5.484 6.051.88a1 1 0 01.554 1.705l-4.378 4.268 1.033 6.027a1 1 0 01-1.45 1.054L12 19.13l-5.413 2.845a1 1 0 01-1.45-1.054l1.033-6.027-4.379-4.268a1 1 0 01.554-1.706l6.052-.88 2.706-5.483A1 1 0 0112 2zm0 3.26L9.958 9.397a1 1 0 01-.753.548l-4.567.663 3.305 3.221a1 1 0 01.287.885l-.78 4.548 4.084-2.147a1 1 0 01.931 0l4.085 2.147-.78-4.548a1 1 0 01.287-.885l3.305-3.22-4.567-.664a1 1 0 01-.753-.548L12 5.26z" fill="#151515"/></svg>