<svg width="24" height="24" viewBox="0 0 24 24" fill="none" xmlns="http://www.w3.org/2000/svg"><g clip-path="url(#clip0)"><path fill-rule="evenodd" clip-rule="evenodd" d="M6 3a1 1 0 00-1 1v3a1 1 0 01-.2.6L3 10h2.387L7.04 6.76V3H6zm2.04-2H6a3 3 0 00-3 3v2.667L.2 10.4A1 1 0 001 12h2v11h18V12h2a1 1 0 00.8-1.6L21 6.667V4a3 3 0 00-3-3H8.04zm1 2v4a1 1 0 01-.11.454L7.634 10H11V3H9.04zM13 3v7h3.382l-1.276-2.553A1 1 0 0115 7V3h-2zm4 0v3.764L18.618 10H21l-1.8-2.4A1 1 0 0119 7V4a1 1 0 00-1-1h-1zm-2 9h4v9h-4v-9zm-2 9v-9H5v9h8z" fill="#151515"/></g><defs><clipPath id="clip0"><path fill="#fff" d="M0 0h24v24H0z"/></clipPath></defs></svg>