<svg width="24" height="24" viewBox="0 0 24 24" fill="none" xmlns="http://www.w3.org/2000/svg"><path fill-rule="evenodd" clip-rule="evenodd" d="M5 0a2 2 0 00-2 2v3a1 1 0 002 0V2h14v3a1 1 0 102 0V2a2 2 0 00-2-2H5zm0 19a1 1 0 10-2 0v3a2 2 0 002 2h14a2 2 0 002-2v-3a1 1 0 10-2 0v3H5v-3zm-.893-2.901a6.3 6.3 0 01-1.617-.198c-.499-.14-.906-.334-1.221-.583a.865.865 0 01-.242-.253.838.838 0 01-.066-.352c0-.183.055-.345.165-.484.117-.14.25-.209.396-.209.08 0 .158.015.23.044.082.022.177.066.287.132.315.198.634.345.957.44a4.05 4.05 0 001.067.132c.484 0 .854-.08 1.11-.242a.772.772 0 00.386-.693c0-.227-.121-.41-.363-.55-.235-.14-.656-.271-1.265-.396-.682-.14-1.228-.308-1.64-.506-.402-.198-.7-.444-.89-.737-.183-.293-.275-.649-.275-1.067 0-.462.132-.876.396-1.243a2.648 2.648 0 011.11-.869 3.9 3.9 0 011.607-.319c1.041 0 1.9.26 2.574.781.11.088.187.18.23.275a.646.646 0 01.078.33.73.73 0 01-.176.484c-.11.14-.238.209-.385.209a.8.8 0 01-.231-.033 1.684 1.684 0 01-.286-.143 4.54 4.54 0 00-.836-.429c-.25-.095-.568-.143-.957-.143-.447 0-.8.088-1.056.264a.798.798 0 00-.385.704c0 .176.048.323.143.44.103.11.268.209.495.297.235.088.565.18.99.275.997.22 1.712.502 2.145.847.44.345.66.818.66 1.419 0 .47-.132.884-.396 1.243-.257.36-.623.638-1.1.836-.47.198-1.016.297-1.64.297zm9.82-7.458a.7.7 0 01.286-.341.753.753 0 01.418-.121c.22 0 .418.073.594.22a.677.677 0 01.264.539.78.78 0 01-.077.33l-2.97 6.27a.902.902 0 01-.363.396 1.085 1.085 0 01-.528.132c-.19 0-.367-.044-.528-.132a.903.903 0 01-.363-.396l-2.97-6.27a.705.705 0 01-.077-.319c0-.22.092-.403.275-.55a.961.961 0 01.616-.22c.154 0 .293.04.418.121a.682.682 0 01.297.341l2.354 5.148 2.354-5.148zm8.657 3.256c-.117-.117-.279-.176-.484-.176h-1.881c-.213 0-.378.051-.495.154-.117.103-.176.25-.176.44s.059.337.176.44c.117.103.282.154.495.154h1.012v1.705a4.95 4.95 0 01-1.265.165c-.785 0-1.371-.22-1.76-.66-.389-.44-.583-1.107-.583-2.002 0-1.738.748-2.607 2.244-2.607.308 0 .59.04.847.121.257.08.539.216.847.407.11.066.202.114.275.143a.75.75 0 00.264.044.46.46 0 00.374-.198.775.775 0 00.165-.495.735.735 0 00-.066-.33.828.828 0 00-.231-.264c-.667-.528-1.51-.792-2.53-.792-.792 0-1.485.161-2.08.484a3.34 3.34 0 00-1.374 1.386c-.315.594-.473 1.294-.473 2.101 0 .821.161 1.533.484 2.134a3.34 3.34 0 001.386 1.375c.601.315 1.313.473 2.134.473.33 0 .678-.026 1.045-.077.374-.051.704-.121.99-.209.235-.066.41-.147.528-.242a.726.726 0 00.242-.385c.051-.161.077-.389.077-.682v-2.145c0-.198-.062-.352-.187-.462z" fill="#151515"/></svg>