<svg width="24" height="24" viewBox="0 0 24 24" fill="none" xmlns="http://www.w3.org/2000/svg"><path fill-rule="evenodd" clip-rule="evenodd" d="M2.336 11.151l4.378 1.68 1.694 5.6a.51.51 0 00.819.253l2.44-2.044a.713.713 0 01.888-.026l4.401 3.284a.512.512 0 00.808-.32L20.99 3.639c.083-.411-.31-.754-.691-.603L2.33 10.16c-.443.176-.44.821.006.992zm5.799.786l8.556-5.416c.154-.097.312.117.18.243L9.81 13.509a1.518 1.518 0 00-.454.9l-.24 1.832c-.032.245-.367.269-.432.032l-.925-3.34a.896.896 0 01.376-.996z" fill="#151515"/></svg>