<svg width="24" height="24" viewBox="0 0 24 24" fill="none" xmlns="http://www.w3.org/2000/svg"><path fill-rule="evenodd" clip-rule="evenodd" d="M0 5a1 1 0 011-1h22a1 1 0 011 1v4a1 1 0 01-1 1c-.237 0-.772.148-1.25.53-.447.358-.75.842-.75 1.47s.303 1.112.75 1.47c.478.382 1.013.53 1.25.53a1 1 0 011 1v4a1 1 0 01-1 1H1a1 1 0 01-1-1v-4a1 1 0 011-1c.237 0 .772-.148 1.25-.53.447-.358.75-.842.75-1.47s-.303-1.112-.75-1.47C1.772 10.149 1.237 10 1 10a1 1 0 01-1-1V5zm12 13h2v-2h2v2h6v-2.167a4.69 4.69 0 01-1.5-.802C19.697 14.388 19 13.37 19 12c0-1.372.697-2.388 1.5-3.03a4.69 4.69 0 011.5-.803V6h-6v2h-2V6H2v2.167a4.69 4.69 0 011.5.802C4.303 9.612 5 10.63 5 12c0 1.372-.697 2.388-1.5 3.03a4.69 4.69 0 01-1.5.803V18h10zm4-8v4h-2v-4h2z" fill="#151515"/></svg>