<svg width="24" height="24" viewBox="0 0 24 24" fill="none" xmlns="http://www.w3.org/2000/svg"><path fill-rule="evenodd" clip-rule="evenodd" d="M20.504 4.277a7.324 7.324 0 01-2.347.92A3.64 3.64 0 0015.463 4c-2.04 0-3.694 1.696-3.694 3.787 0 .296.033.586.096.863-3.069-.158-5.79-1.666-7.61-3.958a3.83 3.83 0 00-.5 1.904c0 1.314.652 2.474 1.642 3.152a3.624 3.624 0 01-1.673-.475v.047c0 1.835 1.274 3.365 2.962 3.715a3.638 3.638 0 01-1.668.064c.47 1.505 1.833 2.6 3.448 2.631A7.293 7.293 0 013 17.298 10.265 10.265 0 008.661 19c6.792 0 10.505-5.771 10.505-10.777l-.011-.49A7.532 7.532 0 0021 5.775a7.224 7.224 0 01-2.12.596 3.794 3.794 0 001.624-2.094z" fill="#151515"/></svg>