<svg width="24" height="24" viewBox="0 0 24 24" fill="none" xmlns="http://www.w3.org/2000/svg"><path d="M12.509 7.463a.293.293 0 01.309-.275c.606.032 1.11.214 1.469.581.358.367.533.878.563 1.494a.292.292 0 01-.28.305.292.292 0 01-.306-.277c-.026-.527-.171-.885-.399-1.117-.225-.231-.57-.378-1.079-.405a.292.292 0 01-.277-.306z" fill="#151515"/><path d="M12.377 5.629a.293.293 0 00-.313.27c-.012.16.11.298.272.31 1.118.079 1.957.452 2.558 1.1.605.654.9 1.466.877 2.462a.292.292 0 00.286.297.292.292 0 00.3-.284c.026-1.13-.313-2.092-1.03-2.868-.723-.78-1.715-1.2-2.95-1.287z" fill="#151515"/><path d="M11.548 4.408a.292.292 0 01.295-.289c1.703.011 3.146.576 4.3 1.691 1.165 1.129 1.742 2.66 1.757 4.566a.292.292 0 01-.291.293.292.292 0 01-.296-.289c-.014-1.786-.55-3.155-1.58-4.153-1.038-1.004-2.332-1.516-3.894-1.526a.292.292 0 01-.291-.293zm1.947 8.528c-.22.272-.634.238-.634.238-3.015-.763-3.822-3.79-3.822-3.79s-.035-.407.24-.628l.543-.428c.272-.207.442-.708.167-1.198-.153-.272-.46-.76-.686-1.066a28.9 28.9 0 00-.8-.99c-.269-.318-.665-.391-1.083-.177 0 0-.004.003-.007.003a4.423 4.423 0 00-1.11.894l-.008.007c-.257.308-.407.611-.442.908a.504.504 0 00-.007.131c-.003.131.018.26.06.387l.013.01c.13.46.456 1.222 1.163 2.496.46.825.93 1.515 1.396 2.095.244.307.522.621.843.942l.125.124c.324.318.64.594.95.836.585.462 1.278.928 2.114 1.384 1.284.7 2.054 1.025 2.517 1.152l.01.014c.129.042.258.059.39.059a.52.52 0 00.132-.007c.3-.034.606-.183.916-.438l.007-.007a4.47 4.47 0 00.902-1.101s.003-.004.003-.007c.216-.414.143-.808-.178-1.074 0 0-.671-.555-.999-.793a12.94 12.94 0 00-1.075-.68c-.495-.273-1-.104-1.208.165l-.432.539z" fill="#151515"/><path fill-rule="evenodd" clip-rule="evenodd" d="M20.517 2.243C19.939 1.718 17.61.04 12.422.017c0 0-6.12-.366-9.103 2.347C1.658 4.01 1.073 6.419 1.014 9.408.95 12.398.87 17.992 6.316 19.511h.004l-.004 2.316s-.035.939.588 1.129c.628.193 1.04-.271 1.579-.878.106-.12.217-.245.336-.372.394-.42.94-1.042 1.351-1.515 3.722.31 6.587-.4 6.91-.504.068-.021.162-.045.28-.075 1.203-.303 4.788-1.207 5.416-6.303.714-5.768-.344-9.42-2.26-11.066zm.63 10.651c-.527 4.213-3.382 4.87-4.404 5.105a3.875 3.875 0 00-.265.066c-.271.086-2.785.707-5.946.5 0 0-2.357 2.817-3.091 3.552-.115.114-.251.162-.342.138-.125-.031-.16-.18-.16-.397.004-.31.021-3.849.021-3.849-4.45-1.224-4.347-5.722-4.288-8.274l.006-.254c.052-2.496.526-4.54 1.929-5.913 2.524-2.264 7.722-1.926 7.722-1.926 4.39.02 6.492 1.329 6.98 1.767 1.619 1.378 2.444 4.667 1.838 9.485z" fill="#151515"/></svg>