<svg width="40" height="40" viewBox="0 0 40 40" fill="none" xmlns="http://www.w3.org/2000/svg"><path fill-rule="evenodd" clip-rule="evenodd" d="M37.002 26.018l-.383-1.972h-4.148l-.68 1.972h-3.404l4.868-12.285c.115-.31.323-.573.595-.752.27-.178.59-.262.911-.24h2.625L40 26.018h-2.998zm-1.877-9.663l-1.718 4.967h2.68l-.962-4.967zm-11.058.076c0 1.5 4.555 1.822 4.555 5.273 0 3.323-3.361 4.545-5.588 4.545a8.71 8.71 0 01-3.684-.75l.486-2.98c1.333 1.136 5.385 1.458 5.385-.342s-4.515-1.844-4.515-5.274c0-3.647 3.847-4.396 5.466-4.396a8.964 8.964 0 012.94.577l-.47 2.852c-1.397-.815-4.575-1.008-4.575.493v.002zm-9.993 9.587l2.04-13.277h3.264l-2.04 13.277h-3.264zm-7.827 0L3.412 14.486A11.822 11.822 0 000 12.966l.06-.225h5.141a1.38 1.38 0 011.005.281c.288.223.482.55.544.915l1.102 5.972.37 1.966 3.111-9.13h3.514L9.653 26.022H6.247v-.004z" fill="#0057A0"/><path fill-rule="evenodd" clip-rule="evenodd" d="M7.731 19.202l-.672-4.934a1.957 1.957 0 00-.657-1.308 1.846 1.846 0 00-1.36-.455H0v.706a10.733 10.733 0 014.674 2.395c1.23.99 2.266 2.21 3.057 3.596z" fill="#FAA61A"/></svg>