<svg width="24" height="24" viewBox="0 0 24 24" fill="none" xmlns="http://www.w3.org/2000/svg"><path fill-rule="evenodd" clip-rule="evenodd" d="M20.174 15.579c-.414-.496-.884-.943-1.338-1.374-.162-.153-.33-.31-.49-.47-.463-.451-.48-.624-.114-1.136.253-.355.522-.71.783-1.054.235-.311.478-.632.712-.956l.048-.066c.447-.62.908-1.259 1.154-2.031.064-.203.13-.502-.022-.753-.154-.25-.45-.328-.66-.361a1.658 1.658 0 00-.304-.022l-2.923-.002h-.024c-.442 0-.74.209-.91.638-.164.41-.342.846-.547 1.26-.406.827-.923 1.78-1.67 2.575l-.031.033c-.089.096-.188.201-.261.201-.011 0-.024 0-.038-.005-.154-.06-.258-.437-.254-.609v-.008l-.002-3.384c0-.01 0-.023-.002-.034-.075-.55-.24-.892-.862-1.016A.307.307 0 0012.37 7H9.33c-.495 0-.768.203-1.024.504-.07.082-.214.25-.142.453.072.207.307.25.384.265.38.072.595.306.655.712.106.708.12 1.463.042 2.374-.022.255-.065.45-.136.618-.017.04-.075.165-.135.165-.019 0-.073-.006-.173-.074-.236-.161-.408-.393-.61-.678a16.004 16.004 0 01-1.756-3.262c-.184-.452-.528-.706-.97-.713a78.004 78.004 0 00-2.643.002c-.355.005-.6.111-.73.318-.13.203-.12.472.025.798 1.17 2.603 2.23 4.497 3.44 6.138.846 1.15 1.695 1.946 2.672 2.503 1.029.59 2.182.877 3.525.877.152 0 .31-.005.469-.011.78-.038 1.07-.32 1.106-1.081.018-.39.06-.799.251-1.146.12-.218.233-.218.27-.218a.5.5 0 01.253.093c.17.111.316.259.435.39.113.124.224.248.335.374.24.268.489.547.748.81.567.578 1.192.832 1.91.779h2.681l.017-.002a.777.777 0 00.634-.407c.17-.298.166-.679-.008-1.02a5.43 5.43 0 00-.68-.982z" fill="#151515"/></svg>