<svg width="24" height="24" viewBox="0 0 24 24" fill="none" xmlns="http://www.w3.org/2000/svg"><path fill-rule="evenodd" clip-rule="evenodd" d="M12.36 2.232A1 1 0 0113 2h1a1 1 0 011 1v18a1 1 0 01-1 1h-1a1 1 0 01-.64-.232L6.638 17H2a1 1 0 01-1-1V8a1 1 0 011-1h4.638l5.722-4.768zm.64 2.07L7.64 8.768A1 1 0 017 9H3v6h4a1 1 0 01.64.232L13 19.698V4.302zm4.83 4.332l.5.865c.427.737.67 1.592.67 2.501 0 .91-.244 1.764-.67 2.5l-.5.866-1.731-1.001.5-.866c.255-.44.401-.95.401-1.499 0-.548-.146-1.059-.4-1.5l-.502-.865 1.732-1.001zm2.884-2.232l-.7-.715-1.428 1.4.7.714a5.978 5.978 0 011.714 4.2 5.977 5.977 0 01-1.714 4.199l-.7.714 1.428 1.4.7-.715A7.977 7.977 0 0023 12.001a7.98 7.98 0 00-2.286-5.6z" fill="#151515"/></svg>