<svg width="24" height="24" viewBox="0 0 24 24" fill="none" xmlns="http://www.w3.org/2000/svg"><g clip-path="url(#clip0)"><path fill-rule="evenodd" clip-rule="evenodd" d="M4 2c-.854 0-1.588.141-2.195.456A2.995 2.995 0 00.481 3.803c-.483.965-.482 2.173-.48 3.086V19a3 3 0 003 3h18a3 3 0 003-3V7a1 1 0 00-1-1H4c-.518 0-.815-.166-.981-.332A.94.94 0 012.75 5a.94.94 0 01.27-.668C3.186 4.166 3.483 4 4 4h17V2H4zm18 10v4h-6v-4h6zm-6-2h6V8H4c-.779 0-1.46-.21-2-.587V19a1 1 0 001 1h18a1 1 0 001-1v-1h-6a2 2 0 01-2-2v-4a2 2 0 012-2zm2 3h-1v2h3v-2h-2z" fill="#151515"/></g><defs><clipPath id="clip0"><path fill="#fff" d="M0 0h24v24H0z"/></clipPath></defs></svg>