<svg width="24" height="24" viewBox="0 0 24 24" fill="none" xmlns="http://www.w3.org/2000/svg"><g clip-path="url(#clip0)"><path fill-rule="evenodd" clip-rule="evenodd" d="M2.342 20.553A1 1 0 003.236 22h17.528a1 1 0 00.895-1.447L12.895 3.025a1 1 0 00-1.79 0L2.343 20.553zM3.236 24c-2.23 0-3.68-2.347-2.683-4.342L9.317 2.131c1.105-2.212 4.26-2.212 5.367 0l8.763 17.527c.998 1.995-.453 4.342-2.683 4.342H3.236zM11 18.528a1 1 0 112 0 1 1 0 01-2 0zm0-4v1h2v-8h-2v7z" fill="#151515"/></g><defs><clipPath id="clip0"><path fill="#fff" d="M0 0h24v24H0z"/></clipPath></defs></svg>