<svg width="24" height="24" viewBox="0 0 24 24" fill="none" xmlns="http://www.w3.org/2000/svg"><path fill-rule="evenodd" clip-rule="evenodd" d="M22 11.742c0 5.381-4.395 9.743-9.818 9.743a9.838 9.838 0 01-4.746-1.212L2 22l1.772-5.227a9.641 9.641 0 01-1.409-5.03C2.363 6.361 6.76 2 12.182 2 17.605 2 22 6.362 22 11.742zm-9.818-8.19c-4.552 0-8.255 3.674-8.255 8.19 0 1.793.584 3.452 1.573 4.803l-1.032 3.042 3.172-1.009a8.25 8.25 0 004.542 1.355c4.551 0 8.254-3.674 8.254-8.19 0-4.517-3.702-8.191-8.254-8.191zm4.958 10.434c-.06-.1-.221-.16-.462-.278-.24-.12-1.424-.698-1.644-.777-.22-.08-.382-.12-.542.12-.16.238-.622.776-.762.935-.14.16-.28.18-.522.06-.24-.12-1.016-.372-1.935-1.185-.715-.633-1.198-1.414-1.339-1.653-.14-.24-.014-.368.106-.487.108-.107.24-.28.36-.419.122-.14.162-.238.241-.398.081-.16.04-.299-.02-.418-.06-.12-.541-1.295-.742-1.773-.2-.478-.4-.398-.541-.398-.14 0-.301-.02-.462-.02-.16 0-.42.06-.642.298-.22.24-.842.817-.842 1.992s.862 2.31.983 2.47c.12.159 1.665 2.649 4.111 3.605 2.447.956 2.447.637 2.889.597.44-.04 1.423-.577 1.624-1.135.2-.558.2-1.036.14-1.136z" fill="#151515"/></svg>