<svg width="24" height="24" viewBox="0 0 24 24" fill="none" xmlns="http://www.w3.org/2000/svg"><path fill-rule="evenodd" clip-rule="evenodd" d="M2.05 11h2.488c.281-3.666 2.075-6.453 3.859-8.331A10.009 10.009 0 002.049 11zM11 2.956C9.196 4.476 6.897 7.192 6.546 11H11V2.956zM11 13H6.576c.276 2.005 1.38 5.295 4.424 7.976V13zm-2.44 8.392c-2.734-2.925-3.756-6.255-4-8.392H2.049a10.009 10.009 0 006.51 8.392zm6.903-.008A10.009 10.009 0 0021.951 13h-2.515c-.16 1.337-.628 3.021-1.476 4.727a15.88 15.88 0 01-2.497 3.657zM17.418 13H13v8.002c1.418-1.247 2.451-2.72 3.17-4.165.707-1.424 1.093-2.788 1.248-3.837zm.036-2H13V2.956c1.804 1.52 4.103 4.236 4.454 8.044zm2.008 0h2.489a10.01 10.01 0 00-6.348-8.331c1.784 1.878 3.578 4.665 3.859 8.331zM0 12C0 5.373 5.373 0 12 0s12 5.373 12 12-5.373 12-12 12S0 18.627 0 12z" fill="#151515"/></svg>