<svg width="24" height="24" viewBox="0 0 24 24" fill="none" xmlns="http://www.w3.org/2000/svg"><path fill-rule="evenodd" clip-rule="evenodd" d="M21.22 5.288C20.5 4.373 19.166 4 16.62 4H7.38c-2.604 0-3.96.397-4.68 1.37C2 6.32 2 7.72 2 9.656v3.69C2 17.095 2.832 19 7.38 19h9.24c2.208 0 3.43-.33 4.222-1.136.812-.828 1.158-2.18 1.158-4.519v-3.69c0-2.042-.054-3.449-.78-4.367zm-6.38 6.721l-4.196 2.338a.612.612 0 01-.633-.022.698.698 0 01-.31-.588V9.078c0-.24.117-.463.31-.588a.61.61 0 01.632-.022l4.196 2.322a.694.694 0 01.348.61.695.695 0 01-.347.61z" fill="#151515"/></svg>