<svg width="24" height="24" viewBox="0 0 24 24" fill="none" xmlns="http://www.w3.org/2000/svg">
<path fill-rule="evenodd" clip-rule="evenodd" d="M4 1C2.34315 1 1 2.34315 1 4V14V20C1 21.6569 2.34315 23 4 23H20C21.6569 23 23 21.6569 23 20V6.09091V4C23 2.34315 21.6569 1 20 1H13.375H4ZM3 4C3 3.44772 3.44772 3 4 3H13.375H20C20.5523 3 21 3.44772 21 4V6.09091V20C21 20.5523 20.5523 21 20 21H4C3.44772 21 3 20.5523 3 20V14V4ZM10.9099 12.4C10.6459 12.04 10.2659 11.788 9.7699 11.644C10.1859 11.492 10.5099 11.248 10.7419 10.912C10.9819 10.568 11.1019 10.168 11.1019 9.71201C11.1019 9.25601 10.9859 8.85601 10.7539 8.51201C10.5219 8.16801 10.1899 7.90401 9.7579 7.72001C9.3259 7.52801 8.8259 7.43201 8.2579 7.43201C7.7699 7.43201 7.2899 7.50801 6.8179 7.66001C6.3539 7.81201 5.9539 8.02401 5.6179 8.29601C5.4979 8.38401 5.4099 8.48001 5.3539 8.58401C5.3059 8.68001 5.2819 8.80001 5.2819 8.94401C5.2819 9.15201 5.3419 9.33201 5.4619 9.48401C5.5819 9.62801 5.7259 9.70001 5.8939 9.70001C5.9899 9.70001 6.0779 9.68801 6.1579 9.66401C6.2379 9.63201 6.3379 9.58001 6.4579 9.50801C6.7939 9.30801 7.0899 9.15601 7.3459 9.05201C7.6019 8.94801 7.8779 8.89601 8.1739 8.89601C8.5339 8.89601 8.8139 8.99201 9.0139 9.18401C9.2139 9.36801 9.3139 9.62801 9.3139 9.96401C9.3139 10.316 9.1939 10.576 8.9539 10.744C8.7219 10.912 8.3619 10.996 7.8739 10.996H7.3699C7.1619 10.996 6.9979 11.068 6.8779 11.212C6.7579 11.356 6.6979 11.524 6.6979 11.716C6.6979 11.916 6.7579 12.088 6.8779 12.232C6.9979 12.376 7.1619 12.448 7.3699 12.448H8.0779C8.5899 12.448 8.9619 12.532 9.1939 12.7C9.4259 12.868 9.5419 13.14 9.5419 13.516C9.5419 13.9 9.4299 14.184 9.2059 14.368C8.9819 14.544 8.6259 14.632 8.1379 14.632C7.7939 14.632 7.4939 14.58 7.2379 14.476C6.9819 14.372 6.6779 14.22 6.3259 14.02C6.2059 13.948 6.1059 13.9 6.0259 13.876C5.9459 13.844 5.8579 13.828 5.7619 13.828C5.5939 13.828 5.4499 13.904 5.3299 14.056C5.2099 14.2 5.1499 14.376 5.1499 14.584C5.1499 14.72 5.1739 14.84 5.2219 14.944C5.2779 15.048 5.3659 15.144 5.4859 15.232C5.8299 15.504 6.2379 15.716 6.7099 15.868C7.1899 16.02 7.6899 16.096 8.2099 16.096C8.8339 16.096 9.3819 16 9.8539 15.808C10.3259 15.608 10.6859 15.328 10.9339 14.968C11.1899 14.608 11.3179 14.184 11.3179 13.696C11.3179 13.184 11.1819 12.752 10.9099 12.4ZM12.6679 15.772C12.8199 15.924 13.0359 16 13.3159 16H15.0719C15.9999 16 16.7959 15.832 17.4599 15.496C18.1239 15.16 18.6279 14.676 18.9719 14.044C19.3239 13.404 19.4999 12.644 19.4999 11.764C19.4999 10.884 19.3239 10.128 18.9719 9.49601C18.6199 8.86401 18.1119 8.38001 17.4479 8.04401C16.7839 7.70801 15.9919 7.54001 15.0719 7.54001H13.3159C13.0359 7.54001 12.8199 7.61601 12.6679 7.76801C12.5159 7.92001 12.4399 8.13601 12.4399 8.41601V15.124C12.4399 15.404 12.5159 15.62 12.6679 15.772ZM17.6399 11.764C17.6399 13.58 16.7399 14.488 14.9399 14.488L14.2513 14.476V9.05201H14.9399C16.7399 9.05201 17.6399 9.95601 17.6399 11.764Z" fill="#151515"/>
</svg>
