<svg width="40" height="40" viewBox="0 0 40 40" fill="none" xmlns="http://www.w3.org/2000/svg">
<path d="M7.68245 14.7025C8.15363 14.1018 8.49019 13.3009 8.38923 12.5C7.68245 12.5334 6.84104 12.9672 6.3362 13.5345C5.89867 14.0351 5.49479 14.8694 5.59576 15.6369C6.40351 15.7371 7.1776 15.3032 7.68245 14.7025ZM8.38923 15.8372C7.24492 15.7704 6.26889 16.4712 5.73039 16.4712C5.19189 16.4712 4.35048 15.8705 3.44177 15.8705C2.2638 15.9039 1.1868 16.538 0.580992 17.6059C-0.63063 19.7083 0.244431 22.8118 1.45605 24.5138C2.02821 25.3481 2.73499 26.2825 3.6437 26.2491C4.51876 26.2158 4.85533 25.6818 5.89867 25.6818C6.94201 25.6818 7.24491 26.2491 8.18729 26.2158C9.12966 26.1824 9.73547 25.3815 10.3076 24.5138C10.9808 23.546 11.25 22.6116 11.25 22.5782C11.2163 22.5449 9.39891 21.8774 9.39891 19.8084C9.36525 18.0731 10.8125 17.2388 10.8798 17.2054C10.1057 16.004 8.82675 15.8705 8.38923 15.8372Z" fill="#1A1A1A"/>
<path d="M20.4551 13.75C22.6465 13.75 24.1568 15.3339 24.1568 17.6009C24.1568 19.8991 22.6169 21.4829 20.3959 21.4829H17.9972V25.4891H16.25V13.75H20.4551ZM17.9972 19.9612H19.9813C21.4916 19.9612 22.3504 19.0916 22.3504 17.632C22.3504 16.1413 21.4916 15.3028 19.9813 15.3028H17.9676V19.9612H17.9972ZM24.601 23.0978C24.601 21.6071 25.6967 20.6755 27.6512 20.5512L29.9018 20.427V19.7748C29.9018 18.8121 29.2799 18.2531 28.2731 18.2531C27.2958 18.2531 26.7036 18.75 26.5555 19.4953H24.9564C25.0452 17.9425 26.3186 16.7935 28.3323 16.7935C30.3164 16.7935 31.5898 17.8804 31.5898 19.6196V25.5202H29.9906V24.1227H29.961C29.4872 25.0854 28.4507 25.6755 27.3847 25.6755C25.7263 25.6755 24.601 24.6196 24.601 23.0978ZM29.9018 22.3214V21.6382L27.8881 21.7624C26.8812 21.8245 26.3186 22.2904 26.3186 23.0357C26.3186 23.7811 26.9108 24.2779 27.7993 24.2779C28.9838 24.2779 29.9018 23.4394 29.9018 22.3214ZM33.0704 28.6879V27.2593C33.1889 27.2904 33.485 27.2904 33.6035 27.2904C34.3734 27.2904 34.788 26.9488 35.0546 26.0792C35.0546 26.0481 35.2026 25.5512 35.2026 25.5512L32.2413 16.9798H34.0477L36.1206 23.9674H36.1502L38.2232 16.9798H40L36.9498 26.0171C36.2391 28.0978 35.4395 28.75 33.7516 28.75C33.6331 28.7189 33.2185 28.7189 33.0704 28.6879Z" fill="#1A1A1A"/>
</svg>
