<svg width="24" height="24" viewBox="0 0 24 24" fill="none" xmlns="http://www.w3.org/2000/svg">
<path fill-rule="evenodd" clip-rule="evenodd" d="M14.0689 4.57234L10.9193 7.72191L10.9176 7.72017L5.94982 12.6879C3.9972 14.6405 3.9972 17.8064 5.94982 19.759C7.90244 21.7116 11.0683 21.7116 13.0209 19.759L21.793 10.9869L23.2072 12.4011L14.4351 21.1732C11.7014 23.9069 7.26927 23.9069 4.5356 21.1732C1.80193 18.4395 1.80193 14.0074 4.5356 11.2737L11.228 4.58132L11.2297 4.58306L12.6547 3.15813C14.6276 1.18522 17.8263 1.18523 19.7992 3.15813C21.7721 5.13104 21.7721 8.32975 19.7992 10.3027L17.7293 12.3725L17.7293 12.3725L12.2141 17.8877C11.0259 19.0759 9.09956 19.0759 7.9114 17.8877C6.72325 16.6996 6.72325 14.7732 7.9114 13.585L14.4784 7.01805L15.8926 8.43226L9.32562 14.9993C8.91851 15.4064 8.91851 16.0664 9.32562 16.4735C9.73272 16.8806 10.3928 16.8806 10.7999 16.4735L18.1297 9.14363L18.1298 9.14366L18.385 8.88844C19.5768 7.69659 19.5768 5.7642 18.385 4.57235C17.1931 3.38049 15.2607 3.38049 14.0689 4.57234Z" fill="#151515"/>
</svg>
