<svg width="24" height="24" viewBox="0 0 24 24" fill="none" xmlns="http://www.w3.org/2000/svg">
<path fill-rule="evenodd" clip-rule="evenodd" d="M11.7127 1.04217C11.9001 0.985942 12.0999 0.985942 12.2873 1.04217L22.2873 4.04217C22.7103 4.16907 23 4.55839 23 5V8C23 8.55229 22.5523 9 22 9H21V17.1V21L22 21H23V23H22L7.6 23H2H1V21H2H3V17.1L3 9H2C1.44772 9 1 8.55228 1 8V5C1 4.55839 1.28967 4.16907 1.71265 4.04217L11.7127 1.04217ZM19 21V17.1V9H17V17.1V21H19ZM20.0017 7C20.0011 7 20.0006 7 20 7C19.9994 7 19.9989 7 19.9983 7L16.0014 7L16 7L15.9986 7L12.0009 7L12 7L11.9991 7L8.8 7H8H4L3 7V5.74403L12 3.04403L21 5.74403V7H20.0017ZM15 17.1V9H13V17.1V21H15V17.1ZM11 21V17.1V9H9V17.1V21H11ZM7 17.1L7 9L5 9L5 17.1V21H7V17.1Z" fill="#151515"/>
</svg>
