<svg width="24" height="24" viewBox="0 0 24 24" fill="none" xmlns="http://www.w3.org/2000/svg">
<path fill-rule="evenodd" clip-rule="evenodd" d="M6.94319 7.99996L10.8137 2.58119L9.18627 1.41872L4.48538 7.99996H3C1.89543 7.99996 1 8.89539 1 9.99996V11C1 11.7973 1.46657 12.4856 2.14158 12.8069L3.85864 21.3922C4.04561 22.327 4.86644 23 5.8198 23H18.1802C19.1336 23 19.9544 22.327 20.1414 21.3922L21.8584 12.8069C22.5334 12.4856 23 11.7973 23 11V9.99996C23 8.89539 22.1046 7.99996 21 7.99996H19.5146L14.8137 1.41872L13.1863 2.58119L17.0568 7.99996H6.94319ZM19.0134 9.99996C19.005 10.0001 18.9967 10.0001 18.9883 9.99996H5.01172C5.00335 10.0001 4.99497 10.0001 4.98659 9.99996H3V10.9998L3.02064 11H20.9794L21 10.9998V9.99996H19.0134ZM19.7802 13H4.2198L5.8198 21H18.1802L19.7802 13ZM13 15C13 14.4477 12.5523 14 12 14C11.4477 14 11 14.4477 11 15V18.5C11 19.0522 11.4477 19.5 12 19.5C12.5523 19.5 13 19.0522 13 18.5V15ZM16.6414 14.01C17.1882 14.0881 17.5681 14.5946 17.49 15.1414L16.9899 18.6414C16.9118 19.1881 16.4053 19.568 15.8586 19.4899C15.3118 19.4118 14.9319 18.9053 15.0101 18.3585L15.5101 14.8585C15.5882 14.3118 16.0947 13.9319 16.6414 14.01ZM6.51005 15.1414C6.43195 14.5946 6.81184 14.0881 7.35858 14.01C7.90531 13.9319 8.41184 14.3118 8.48995 14.8585L8.98995 18.3585C9.06805 18.9053 8.68816 19.4118 8.14142 19.4899C7.59469 19.568 7.08816 19.1881 7.01005 18.6414L6.51005 15.1414Z" fill="#151515"/>
</svg>
