<svg width="24" height="24" viewBox="0 0 24 24" fill="none" xmlns="http://www.w3.org/2000/svg">
<g clip-path="url(#clip0)">
<path fill-rule="evenodd" clip-rule="evenodd" d="M1 1C1 0.447715 1.44772 0 2 0H13.25H22C22.5523 0 23 0.447715 23 1V7V8H21V7V2H13.25H3V18H11H12V20H11H2C1.44772 20 1 19.5523 1 19V1ZM5 5H6L13 5L14 5V7H13L6 7H5V5ZM6 9H5V11H6H10L11 11V9L10 9H6ZM18 17C19.6569 17 21 15.6569 21 14C21 12.3431 19.6569 11 18 11C16.3431 11 15 12.3431 15 14C15 15.6569 16.3431 17 18 17ZM22 17.0005C22.6279 16.1647 23 15.1258 23 14C23 11.2386 20.7614 9 18 9C15.2386 9 13 11.2386 13 14C13 15.1258 13.3721 16.1647 14 17.0005V23C14 23.3214 14.1545 23.6233 14.4153 23.8112C14.6761 23.9992 15.0113 24.0503 15.3162 23.9487L18 23.0541L20.6838 23.9487C20.9887 24.0503 21.3239 23.9992 21.5847 23.8112C21.8455 23.6233 22 23.3214 22 23V17.0005ZM20 18.584C19.3875 18.8516 18.7111 19 18 19C17.2889 19 16.6125 18.8516 16 18.584V21.6126L17.6838 21.0513C17.889 20.9829 18.111 20.9829 18.3162 21.0513L20 21.6126V18.584Z" fill="#151515"/>
</g>
<defs>
<clipPath id="clip0">
<rect width="24" height="24" fill="white"/>
</clipPath>
</defs>
</svg>
