<svg width="88" height="120" viewBox="0 0 88 120" fill="none" xmlns="http://www.w3.org/2000/svg">
<path fill-rule="evenodd" clip-rule="evenodd" d="M0 1C0 0.447715 0.447716 0 1 0H49C49.2652 0 49.5196 0.105359 49.7071 0.292898L87.7066 38.2929C87.8941 38.4804 87.9995 38.7348 87.9995 39V118.998C87.9995 119.55 87.5518 119.998 86.9995 119.998H1C0.447716 119.998 0 119.55 0 118.998V1ZM2 2V117.998H85.9995V40H49C48.4477 40 48 39.5523 48 39V2H2ZM50 3.41424L84.5853 38H50V3.41424ZM15 58H16H72H73V60H72H16H15V58ZM16 82H15V84H16H72H73V82H72H16ZM15 70H16H72H73V72H72H16H15V70ZM16 94H15V96H16H49H50V94H49H16Z" fill="black"/>
</svg>
