<svg width="24" height="24" viewBox="0 0 24 24" fill="none" xmlns="http://www.w3.org/2000/svg">
<path fill-rule="evenodd" clip-rule="evenodd" d="M2 12C2 6.47715 6.47715 2 12 2C17.5228 2 22 6.47715 22 12C22 17.5228 17.5228 22 12 22C6.47715 22 2 17.5228 2 12ZM12 0C5.37258 0 0 5.37258 0 12C0 18.6274 5.37258 24 12 24C18.6274 24 24 18.6274 24 12C24 5.37258 18.6274 0 12 0ZM16.7071 10.7071L17.4142 10L16 8.58579L15.2929 9.29289L11 13.5858L8.70711 11.2929L8 10.5858L6.58579 12L7.29289 12.7071L10.2929 15.7071L11 16.4142L11.7071 15.7071L16.7071 10.7071Z" fill="#151515"/>
</svg>
