<svg width="24" height="24" viewBox="0 0 24 24" fill="none" xmlns="http://www.w3.org/2000/svg">
<path fill-rule="evenodd" clip-rule="evenodd" d="M5 2C3.34315 2 2 3.34315 2 5L2 15C2 16.6569 3.34315 18 5 18H6V21C6 21.3688 6.20299 21.7077 6.52814 21.8817C6.8533 22.0557 7.24784 22.0366 7.5547 21.8321L13.3028 18H19C20.6569 18 22 16.6569 22 15V5C22 3.34315 20.6569 2 19 2L5 2ZM4 5C4 4.44772 4.44772 4 5 4L19 4C19.5523 4 20 4.44772 20 5V15C20 15.5523 19.5523 16 19 16L13 16H12.6972L12.4453 16.1679L8 19.1315V17V16H7H5C4.44772 16 4 15.5523 4 15L4 5ZM8 11C8.55228 11 9 10.5523 9 10C9 9.44772 8.55228 9 8 9C7.44772 9 7 9.44772 7 10C7 10.5523 7.44772 11 8 11ZM13 10C13 10.5523 12.5523 11 12 11C11.4477 11 11 10.5523 11 10C11 9.44772 11.4477 9 12 9C12.5523 9 13 9.44772 13 10ZM16 11C16.5523 11 17 10.5523 17 10C17 9.44772 16.5523 9 16 9C15.4477 9 15 9.44772 15 10C15 10.5523 15.4477 11 16 11Z" fill="#151515"/>
</svg>
