<svg width="24" height="24" viewBox="0 0 24 24" fill="none" xmlns="http://www.w3.org/2000/svg">
<path fill-rule="evenodd" clip-rule="evenodd" d="M2 5C2 3.34315 3.34315 2 5 2L19 2C20.6569 2 22 3.34315 22 5V15C22 16.6569 20.6569 18 19 18H13.3028L7.5547 21.8321C7.24784 22.0366 6.8533 22.0557 6.52814 21.8817C6.20298 21.7077 6 21.3688 6 21V18H5C3.34315 18 2 16.6569 2 15L2 5ZM5 4C4.44772 4 4 4.44772 4 5L4 15C4 15.5523 4.44772 16 5 16H7H8V17V19.1315L12.4453 16.1679L12.6972 16H13L19 16C19.5523 16 20 15.5523 20 15V5C20 4.44772 19.5523 4 19 4L5 4Z" fill="#151515"/>
</svg>
