<svg width="24" height="24" viewBox="0 0 24 24" fill="none" xmlns="http://www.w3.org/2000/svg">
<g clip-path="url(#clip0)">
<path fill-rule="evenodd" clip-rule="evenodd" d="M2 12C2 6.47715 6.47715 2 12 2C17.5228 2 22 6.47715 22 12C22 17.5228 17.5228 22 12 22C6.47715 22 2 17.5228 2 12ZM12 0C5.37258 0 0 5.37258 0 12C0 18.6274 5.37258 24 12 24C18.6274 24 24 18.6274 24 12C24 5.37258 18.6274 0 12 0ZM17.9271 7.37478C18.0775 7.00269 17.9909 6.57671 17.7071 6.2929C17.4233 6.0091 16.9973 5.92247 16.6252 6.07288L9.50384 8.95148C9.25244 9.05309 9.05309 9.25244 8.95148 9.50384L6.07288 16.6252C5.92247 16.9973 6.0091 17.4233 6.2929 17.7071C6.57671 17.9909 7.00269 18.0775 7.37478 17.9271L14.496 15.0484C14.7474 14.9467 14.9467 14.7474 15.0484 14.496L17.9271 7.37478ZM8.81044 15.1895L10.6467 10.6467L15.1895 8.81044L13.3531 13.3531L8.81044 15.1895Z" fill="#151515"/>
</g>
<defs>
<clipPath id="clip0">
<rect width="24" height="24" fill="white"/>
</clipPath>
</defs>
</svg>
