<svg width="24" height="24" viewBox="0 0 24 24" fill="none" xmlns="http://www.w3.org/2000/svg">
<path fill-rule="evenodd" clip-rule="evenodd" d="M4 5C4 4.44772 4.44772 4 5 4H9.75H15C15.5523 4 16 4.44772 16 5V6H14.875H9C7.34315 6 6 7.34315 6 9V16H5C4.44772 16 4 15.5523 4 15V5ZM6 18H5C3.34315 18 2 16.6569 2 15V5C2 3.34315 3.34315 2 5 2H9.75H15C16.6569 2 18 3.34315 18 5V6H19C20.6569 6 22 7.34315 22 9V13.3106V19C22 20.6569 20.6569 22 19 22H9C7.34315 22 6 20.6569 6 19V18ZM17 8H14.875H9C8.44772 8 8 8.44772 8 9V17V19C8 19.5523 8.44772 20 9 20H19C19.5523 20 20 19.5523 20 19V13.3106V9C20 8.44772 19.5523 8 19 8H17Z" fill="#151515"/>
</svg>
