<svg width="24" height="24" viewBox="0 0 24 24" fill="none" xmlns="http://www.w3.org/2000/svg">
<path fill-rule="evenodd" clip-rule="evenodd" d="M7 5C7 3.34315 8.34315 2 10 2L14 2C15.6569 2 17 3.34315 17 5V6H18L20 6H21V8H20H19L19 19C19 20.6569 17.6569 22 16 22H8C6.34315 22 5 20.6569 5 19L5 8H4H3V6H4H6H7V5ZM9 6L15 6V5C15 4.44772 14.5523 4 14 4L10 4C9.44772 4 9 4.44772 9 5V6ZM7 8L7 19C7 19.5523 7.44772 20 8 20H16C16.5523 20 17 19.5523 17 19L17 8H16L8.00031 8H8H7.99969H7ZM10 10C10.5523 10 11 10.4477 11 11L11 17C11 17.5523 10.5523 18 10 18C9.44772 18 9 17.5523 9 17L9 11C9 10.4477 9.44772 10 10 10ZM15 11C15 10.4477 14.5523 10 14 10C13.4477 10 13 10.4477 13 11L13 17C13 17.5523 13.4477 18 14 18C14.5523 18 15 17.5523 15 17L15 11Z" fill="#151515"/>
</svg>
