<svg width="24" height="24" viewBox="0 0 24 24" fill="none" xmlns="http://www.w3.org/2000/svg">
<path fill-rule="evenodd" clip-rule="evenodd" d="M2 2C0.895431 2 0 2.89543 0 4V19C0 19.5523 0.447715 20 1 20H3.17071C3.58254 21.1652 4.69378 22 6 22C7.30622 22 8.41746 21.1652 8.82929 20H15H16.1707C16.5825 21.1652 17.6938 22 19 22C20.3062 22 21.4175 21.1652 21.8293 20H23C23.5523 20 24 19.5523 24 19V12C24 11.8188 23.9507 11.6409 23.8575 11.4855L20.8575 6.4855C20.6768 6.1843 20.3513 6 20 6H16V4C16 2.89543 15.1046 2 14 2H2ZM21.8293 18H22V13H16V18H16.1707C16.5825 16.8348 17.6938 16 19 16C20.3062 16 21.4175 16.8348 21.8293 18ZM14 18V12V7V4H2V18H3.17071C3.58254 16.8348 4.69378 16 6 16C7.30622 16 8.41746 16.8348 8.82929 18H14ZM5 19C5 19.5523 5.44772 20 6 20C6.55228 20 7 19.5523 7 19C7 18.4477 6.55228 18 6 18C5.44772 18 5 18.4477 5 19ZM21.2338 11H16V8H19.4338L21.2338 11ZM19 18C18.4477 18 18 18.4477 18 19C18 19.5523 18.4477 20 19 20C19.5523 20 20 19.5523 20 19C20 18.4477 19.5523 18 19 18Z" fill="#151515"/>
</svg>
