<svg width="24" height="24" viewBox="0 0 24 24" fill="none" xmlns="http://www.w3.org/2000/svg">
<path fill-rule="evenodd" clip-rule="evenodd" d="M3 1C1.89543 1 1 1.89543 1 3V12C1 12.2652 1.10536 12.5196 1.2929 12.7071L11.2929 22.7071C11.6834 23.0976 12.3166 23.0976 12.7071 22.707L22.7071 12.707C22.8946 12.5195 23 12.2652 23 11.9999C23 11.7347 22.8946 11.4804 22.7071 11.2928L12.7071 1.29289C12.5196 1.10536 12.2652 1 12 1H3ZM12 20.5857L3 11.5858L3 3H11.5858L20.5858 11.9999L12 20.5857ZM7 8.99994C8.10457 8.99994 9 8.10451 9 6.99994C9 5.89537 8.10457 4.99994 7 4.99994C5.89543 4.99994 5 5.89537 5 6.99994C5 8.10451 5.89543 8.99994 7 8.99994Z" fill="#151515"/>
</svg>
