<svg width="24" height="24" viewBox="0 0 24 24" fill="none" xmlns="http://www.w3.org/2000/svg">
<path fill-rule="evenodd" clip-rule="evenodd" d="M13.0001 23C13.409 23 13.7767 22.751 13.9286 22.3714L17.2771 14H20.0001C21.6569 14 23.0001 12.6569 23.0001 11V4C23.0001 2.34315 21.6569 1 20.0001 1L17.0001 1L5.00008 1C4.45463 1 3.87973 1.05033 3.35602 1.29204C2.79076 1.55293 2.38903 1.98603 2.10565 2.55279C1.51181 3.74046 1.25395 5.4112 1.12802 7.0483C1.00007 8.71165 1.00007 10.4931 1.00008 11.9824L1.00008 12L1.00004 12.0252C0.999525 12.2861 0.998091 13.0121 1.38183 13.6836C1.83955 14.4846 2.70533 15 4.00008 15H4.00479H4.00958H4.01442H4.01932H4.02429H4.02932H4.03441H4.03956H4.04477H4.05004H4.05538H4.06077H4.06622H4.07174H4.07731H4.08294H4.08864H4.09439H4.1002H4.10606H4.11199H4.11798H4.12402H4.13012H4.13628H4.14249H4.14877H4.1551H4.16148H4.16793H4.17443H4.18098H4.1876H4.19426H4.20099H4.20777H4.2146H4.22149H4.22843H4.23543H4.24248H4.24959H4.25675H4.26397H4.27123H4.27855H4.28593H4.29336H4.30084H4.30837H4.31595H4.32359H4.33128H4.33902H4.34681H4.35465H4.36255H4.37049H4.37849H4.38653H4.39463H4.40278H4.41097H4.41922H4.42751H4.43586H4.44425H4.45269H4.46118H4.46972H4.47831H4.48694H4.49563H4.50436H4.51313H4.52196H4.53083H4.53975H4.54871H4.55772H4.56678H4.57588H4.58503H4.59423H4.60347H4.61275H4.62208H4.63146H4.64088H4.65034H4.65985H4.6694H4.67899H4.68863H4.69831H4.70804H4.7178H4.72761H4.73746H4.74736H4.7573H4.76727H4.77729H4.78735H4.79746H4.8076H4.81778H4.82801H4.83827H4.84858H4.85892H4.86931H4.87973H4.8902H4.9007H4.91124H4.92182H4.93244H4.9431H4.95379H4.96453H4.9753H4.9861H4.99695H5.00783H5.01875H5.02971H5.0407H5.05173H5.06279H5.07389H5.08503H5.0962H5.10741H5.11865H5.12993H5.14124H5.15259H5.16397H5.17538H5.18683H5.19831H5.20982H5.22137H5.23295H5.24457H5.25621H5.26789H5.2796H5.29134H5.30312H5.31492H5.32676H5.33863H5.35053H5.36245H5.37441H5.38641H5.39843H5.41048H5.42256H5.43467H5.4468H5.45897H5.47117H5.48339H5.49565H5.50793H5.52024H5.53258H5.54494H5.55733H5.56975H5.5822H5.59467H5.60717H5.6197H5.63225H5.64483H5.65744H5.67007H5.68272H5.6954H5.70811H5.72084H5.73359H5.74637H5.75917H5.772H5.78485H5.79773H5.81062H5.82354H5.83649H5.84945H5.86244H5.87545H5.88848H5.90154H5.91462H5.92771H5.94083H5.95397H5.96713H5.98031H5.99352H6.00674H6.01998H6.03324H6.04652H6.05982H6.07314H6.08648H6.09984H6.11322H6.12661H6.14002H6.15345H6.1669H6.18037H6.19385H6.20735H6.22087H6.2344H6.24795H6.26152H6.2751H6.2887H6.30232H6.31594H6.32959H6.34325H6.35692H6.37061H6.38432H6.39804H6.41177H6.42552H6.43928H6.45305H6.46683H6.48063H6.49445H6.50827H6.52211H6.53596H6.54982H6.56369H6.57758H6.59147H6.60538H6.6193H6.63323H6.64717H6.66112H6.67508H6.68905H6.70303H6.71701H6.73101H6.74502H6.75904H6.77306H6.78709H6.80114H6.81519H6.82924H6.84331H6.85738H6.87146H6.88555H6.89964H6.91374H6.92785H6.94196H6.95608H6.97021H6.98434H6.99847H7.01261H7.02676H7.04091H7.05507H7.06923H7.08339H7.09756H7.11173H7.12591H7.14008H7.15427H7.16845H7.18264H7.19683H7.21102H7.22521H7.23941H7.25361H7.26781H7.28201H7.29621H7.31041H7.32462H7.33882H7.35302H7.36723H7.38143H7.39564H7.40984H7.42404H7.43824H7.45244H7.46664H7.48084H7.49503H7.50923H7.52342H7.5376H7.55179H7.56597H7.58015H7.59433H7.6085H7.62267H7.63684H7.651H7.66516H7.67931H7.69346H7.7076H7.72174H7.73588H7.75H7.76412H7.77824H7.79235H7.80645H7.82055H7.83464H7.84872H7.8628H7.87687H7.89093H7.90498H7.91903H7.93307H7.9471H7.96112H7.97513H7.98913H8.00312H8.01711H8.03108H8.04505H8.059H8.07295H8.08688H8.1008H8.11471H8.12861H8.14251H8.15638H8.17025H8.18411H8.19795H8.21178H8.2256H8.2394H8.25319H8.26697H8.28074H8.29449H8.30823H8.32196H8.33567H8.34936H8.36305H8.37671H8.39036H8.404H8.41762H8.43123H8.44482H8.45839H8.47195H8.48549H8.49902H8.51253H8.52602H8.53949H8.55295H8.56639H8.57981H8.59321H8.60659H8.61996H8.63331H8.64664H8.65995H8.67324H8.68651H8.69976H8.71299H8.7262H8.73939H8.75256H8.76571H8.77884H8.79195H8.80503H8.8181H8.83114H8.84416H8.85716H8.87014H8.88309H8.89602H8.90893H8.92182H8.93468H8.94752H8.96033H8.97312H8.98589H8.99863H9.00008L9.00008 20C9.00008 20.6016 9.25882 21.3709 9.92067 21.9838C10.5975 22.6104 11.6119 23 13.0001 23ZM16.0001 3L5.00008 3C4.54553 3 4.32043 3.04967 4.19413 3.10796C4.1094 3.14707 4.01112 3.21397 3.8945 3.44721C3.48834 4.25954 3.2462 5.5888 3.12213 7.2017C3.00058 8.78181 3.00008 10.4929 3.00008 12C3.00008 12.2637 3.0152 12.5109 3.11832 12.6914C3.15733 12.7596 3.21144 12.8211 3.31058 12.8734C3.41713 12.9297 3.62388 13 4.00008 13H4.00479H4.00958H4.01442H4.01932H4.02429H4.02932H4.03441H4.03956H4.04477H4.05004H4.05538H4.06077H4.06622H4.07174H4.07731H4.08294H4.08864H4.09439H4.1002H4.10606H4.11199H4.11798H4.12402H4.13012H4.13628H4.14249H4.14877H4.1551H4.16148H4.16793H4.17443H4.18098H4.1876H4.19426H4.20099H4.20777H4.2146H4.22149H4.22843H4.23543H4.24248H4.24959H4.25675H4.26397H4.27123H4.27855H4.28593H4.29336H4.30084H4.30837H4.31595H4.32359H4.33128H4.33902H4.34681H4.35465H4.36255H4.37049H4.37849H4.38653H4.39463H4.40278H4.41097H4.41922H4.42751H4.43586H4.44425H4.45269H4.46118H4.46972H4.47831H4.48694H4.49563H4.50436H4.51313H4.52196H4.53083H4.53975H4.54871H4.55772H4.56678H4.57588H4.58503H4.59423H4.60347H4.61275H4.62208H4.63146H4.64088H4.65034H4.65985H4.6694H4.67899H4.68863H4.69831H4.70804H4.7178H4.72761H4.73746H4.74736H4.7573H4.76727H4.77729H4.78735H4.79746H4.8076H4.81778H4.82801H4.83827H4.84858H4.85892H4.86931H4.87973H4.8902H4.9007H4.91124H4.92182H4.93244H4.9431H4.95379H4.96453H4.9753H4.9861H4.99695H5.00783H5.01875H5.02971H5.0407H5.05173H5.06279H5.0739H5.08503H5.0962H5.10741H5.11865H5.12993H5.14124H5.15259H5.16397H5.17538H5.18683H5.19831H5.20982H5.22137H5.23295H5.24457H5.25621H5.26789H5.2796H5.29134H5.30312H5.31492H5.32676H5.33863H5.35053H5.36246H5.37442H5.38641H5.39843H5.41048H5.42256H5.43467H5.44681H5.45897H5.47117H5.48339H5.49565H5.50793H5.52024H5.53258H5.54494H5.55733H5.56975H5.5822H5.59467H5.60717H5.6197H5.63225H5.64483H5.65744H5.67007H5.68272H5.6954H5.70811H5.72084H5.73359H5.74637H5.75917H5.772H5.78485H5.79773H5.81062H5.82354H5.83649H5.84945H5.86244H5.87545H5.88848H5.90154H5.91462H5.92771H5.94083H5.95397H5.96713H5.98031H5.99352H6.00674H6.01998H6.03324H6.04652H6.05982H6.07314H6.08648H6.09984H6.11322H6.12661H6.14002H6.15345H6.1669H6.18037H6.19385H6.20735H6.22087H6.2344H6.24795H6.26152H6.2751H6.2887H6.30232H6.31594H6.32959H6.34325H6.35693H6.37062H6.38432H6.39804H6.41177H6.42552H6.43928H6.45305H6.46684H6.48063H6.49445H6.50827H6.52211H6.53596H6.54982H6.56369H6.57758H6.59147H6.60538H6.6193H6.63323H6.64717H6.66112H6.67508H6.68905H6.70303H6.71701H6.73101H6.74502H6.75904H6.77306H6.7871H6.80114H6.81519H6.82924H6.84331H6.85738H6.87146H6.88555H6.89964H6.91374H6.92785H6.94196H6.95608H6.97021H6.98434H6.99847H7.01262H7.02676H7.04091H7.05507H7.06923H7.08339H7.09756H7.11173H7.12591H7.14009H7.15427H7.16845H7.18264H7.19683H7.21102H7.22521H7.23941H7.25361H7.26781H7.28201H7.29621H7.31041H7.32462H7.33882H7.35302H7.36723H7.38143H7.39564H7.40984H7.42404H7.43824H7.45244H7.46664H7.48084H7.49503H7.50923H7.52342H7.53761H7.55179H7.56597H7.58015H7.59433H7.6085H7.62267H7.63684H7.651H7.66516H7.67931H7.69346H7.7076H7.72174H7.73588H7.75H7.76412H7.77824H7.79235H7.80645H7.82055H7.83464H7.84873H7.8628H7.87687H7.89093H7.90498H7.91903H7.93307H7.9471H7.96112H7.97513H7.98913H8.00312H8.01711H8.03108H8.04505H8.059H8.07295H8.08688H8.1008H8.11471H8.12862H8.14251H8.15638H8.17025H8.18411H8.19795H8.21178H8.2256H8.2394H8.25319H8.26697H8.28074H8.29449H8.30823H8.32196H8.33567H8.34936H8.36305H8.37671H8.39036H8.404H8.41762H8.43123H8.44482H8.45839H8.47195H8.48549H8.49902H8.51253H8.52602H8.53949H8.55295H8.56639H8.57981H8.59321H8.6066H8.61996H8.63331H8.64664H8.65995H8.67324H8.68651H8.69976H8.71299H8.7262H8.73939H8.75256H8.76571H8.77884H8.79195H8.80503H8.8181H8.83114H8.84416H8.85716H8.87014H8.88309H8.89602H8.90893H8.92182H8.93468H8.94752H8.96033H8.97312H8.98589H8.99863H9.01134H9.02404H9.0367H9.04934H9.06196H9.07455H9.08712H9.09965H9.11217H9.12465H9.13711H9.14954H9.16195H9.17433H9.18668H9.199H9.2113H9.22356H9.2358H9.24801H9.26019H9.27234H9.28447H9.29656H9.30862H9.32066H9.33266H9.34464H9.35658H9.36849H9.38038H9.39223H9.40405H9.41584H9.42759H9.43932H9.45101H9.46267H9.4743H9.4859H9.49746H9.50899H9.52049H9.53195H9.54338H9.55478H9.56614H9.57746H9.58876H9.60002H9.61124H9.62243H9.63358H9.6447H9.65578H9.66682H9.67783H9.68881H9.69974H9.71064H9.72151H9.73233H9.74312H9.75387H9.76458H9.77526H9.78589H9.79649H9.80705H9.81757H9.82805H9.8385H9.8489H9.85926H9.86959H9.87987H9.89011H9.90032H9.91048H9.9206H9.93068H9.94072H9.95072H9.96067H9.97059H9.98046H9.99029H10.0001C10.5524 13 11.0001 13.4477 11.0001 14L11.0001 20C11.0001 20.0651 11.0413 20.2957 11.2795 20.5162C11.4474 20.6717 11.7639 20.8671 12.3413 20.9543L16.0001 11.8074V3ZM18.0003 12C18.0003 11.9924 18.0003 11.9849 18.0001 11.9773V3H20.0001C20.5524 3 21.0001 3.44771 21.0001 4V11C21.0001 11.5523 20.5524 12 20.0001 12H18.0003Z" fill="#151515"/>
</svg>
