<svg width="24" height="24" viewBox="0 0 24 24" fill="none" xmlns="http://www.w3.org/2000/svg">
<path fill-rule="evenodd" clip-rule="evenodd" d="M4 0C3.44772 0 3 0.447715 3 1V23C3 23.5523 3.44772 24 4 24H20C20.5523 24 21 23.5523 21 23V8C21 7.73478 20.8946 7.48043 20.7071 7.29289L13.7071 0.292893C13.5196 0.105357 13.2652 0 13 0H4ZM5 22V2H12V8C12 8.55228 12.4477 9 13 9H19V22H5ZM17.5858 7L14 3.41421V7H17.5858ZM15.7071 14.7071L16.4142 14L15 12.5858L14.2929 13.2929L11 16.5858L9.70711 15.2929L9 14.5858L7.58579 16L8.29289 16.7071L10.2929 18.7071L11 19.4142L11.7071 18.7071L15.7071 14.7071Z" fill="#151515"/>
</svg>
