<svg width="24" height="24" viewBox="0 0 24 24" fill="none" xmlns="http://www.w3.org/2000/svg">
<path fill-rule="evenodd" clip-rule="evenodd" d="M3 1C3 0.447715 3.44772 0 4 0H13C13.2652 0 13.5196 0.105357 13.7071 0.292893L20.7071 7.29289C20.8946 7.48043 21 7.73478 21 8V23C21 23.5523 20.5523 24 20 24H4C3.44772 24 3 23.5523 3 23V1ZM5 2V22H19V9H13C12.4477 9 12 8.55228 12 8V2H5ZM14 3.41421L17.5858 7H14V3.41421ZM16 17L15 17H13V19V20H11V19V17H9L8 17L8 15H9L11 15V13V12H13V13V15L15 15H16V17Z" fill="#151515"/>
</svg>
