<svg width="24" height="24" viewBox="0 0 24 24" fill="none" xmlns="http://www.w3.org/2000/svg">
<path fill-rule="evenodd" clip-rule="evenodd" d="M16 4.41402L11.7071 8.70704L11.7071 8.70705L4.00001 16.4142L4 20.0001L7.58579 20L15.2929 12.2929L15.2929 12.2929L19.5858 7.99974L16 4.41402ZM16.7071 2.29269L21.7071 7.2926C22.0977 7.68311 22.0977 8.31627 21.7072 8.7068L16.7071 13.7071L16.7071 13.7071L8.70712 21.7071C8.51959 21.8946 8.26525 21.9999 8.00005 21.9999L3.00004 22.0001L2 22.0002L2 21.0001L2.00001 15.9999C2.00001 15.7347 2.10537 15.4804 2.29291 15.2928L10.2929 7.29284L10.2929 7.29283L15.2929 2.2927C15.4804 2.10516 15.7348 1.9998 16 1.9998C16.2652 1.9998 16.5196 2.10515 16.7071 2.29269Z" fill="#151515"/>
</svg>
