<svg width="24" height="24" viewBox="0 0 24 24" fill="none" xmlns="http://www.w3.org/2000/svg">
<path fill-rule="evenodd" clip-rule="evenodd" d="M16.7281 2.29289C16.3376 1.90237 15.7044 1.90237 15.3139 2.29289L10.3641 7.24264L5.41439 12.1924C5.22686 12.3799 5.1215 12.6343 5.1215 12.8995L5.1215 17.1421L5.1215 18.1421H6.1215H10.3641C10.6294 18.1421 10.8837 18.0368 11.0712 17.8492L16.0336 12.8869L20.9707 7.94974C21.3613 7.55922 21.3613 6.92605 20.9707 6.53553L16.7281 2.29289ZM11.7784 8.65685L16.021 4.41421L18.8494 7.24264L14.6194 11.4726L9.94993 16.1421L7.1215 16.1421L7.1215 13.3137L11.7784 8.65685ZM2 21H1V23H2H22H23V21H22H2Z" fill="#151515"/>
</svg>
