<svg width="24" height="24" viewBox="0 0 24 24" fill="none" xmlns="http://www.w3.org/2000/svg">
<path fill-rule="evenodd" clip-rule="evenodd" d="M2 12C2 6.47715 6.47715 2 12 2C14.4012 2 16.6048 2.84635 18.3287 4.25701L4.25701 18.3287C2.84635 16.6048 2 14.4012 2 12ZM5.67122 19.7429C7.3951 21.1536 9.59871 22 12 22C17.5228 22 22 17.5228 22 12C22 9.59871 21.1536 7.3951 19.7429 5.67122L5.67122 19.7429ZM12 0C5.37258 0 0 5.37258 0 12C0 18.6274 5.37258 24 12 24C18.6274 24 24 18.6274 24 12C24 5.37258 18.6274 0 12 0Z" fill="#151515"/>
</svg>
