<svg width="24" height="24" viewBox="0 0 24 24" fill="none" xmlns="http://www.w3.org/2000/svg">
<g clip-path="url(#clip0)">
<path fill-rule="evenodd" clip-rule="evenodd" d="M4.78087 22.6247L20.7809 2.62469L19.2191 1.3753L16.4127 4.88329C15.4343 4.4812 14.3622 4.18656 13.2025 4.06348C12.811 4.02193 12.41 4 12 4C8.15036 4 5.16775 5.92555 3.19268 7.76894C2.20014 8.69532 1.44132 9.61937 0.929801 10.3124C0.673483 10.6597 0.477733 10.951 0.344368 11.1585C0.277649 11.2622 0.226429 11.3452 0.190941 11.4039C0.173194 11.4332 0.15937 11.4565 0.149499 11.4733L0.137656 11.4936L0.133963 11.5L0.132674 11.5023L0.132169 11.5031C0.131955 11.5035 0.131757 11.5039 1 12L0.131757 11.5039C-0.043919 11.8113 -0.043919 12.1887 0.131757 12.4961L1 12C0.131757 12.4961 0.131854 12.4963 0.131956 12.4965L0.132179 12.4969L0.132698 12.4978L0.134028 12.5001L0.137853 12.5067L0.150156 12.5278C0.160422 12.5452 0.174815 12.5695 0.193306 12.6C0.23028 12.6611 0.283682 12.7474 0.353265 12.8554C0.49235 13.0711 0.696573 13.3739 0.963997 13.7338C1.49762 14.452 2.28953 15.4067 3.32529 16.3535C4.0239 16.9922 4.83848 17.6318 5.76479 18.1932L3.21913 21.3753L4.78087 22.6247ZM7.02631 16.6163C7.01816 16.6113 7.00992 16.6064 7.00158 16.6015C6.12418 16.0928 5.34602 15.4911 4.67471 14.8774C3.75495 14.0366 3.04686 13.1836 2.56936 12.541C2.41691 12.3358 2.28864 12.153 2.18515 12C2.28168 11.8573 2.39977 11.6887 2.53895 11.5001C2.99618 10.8806 3.67486 10.0547 4.55732 9.23105C6.33225 7.57445 8.84964 6 12 6C12.3386 6 12.6691 6.0181 12.9915 6.05231C13.7342 6.13114 14.4373 6.29589 15.0999 6.52439L13.639 8.35041C13.1378 8.12505 12.5823 8 12 8C9.79086 8 8 9.79086 8 12C8 12.8996 8.298 13.7315 8.79959 14.3997L7.02631 16.6163ZM10.1365 12.7285C10.0483 12.503 10 12.2574 10 12C10 10.8954 10.8954 10 12 10C12.1027 10 12.2033 10.0077 12.3014 10.0224L10.1365 12.7285ZM19.5537 6.66965L20.3107 7.32305C21.4651 8.31948 22.3479 9.35543 22.9422 10.1411C23.2401 10.5349 23.4676 10.8686 23.6223 11.1069C23.6998 11.2262 23.7592 11.3218 23.8002 11.3893C23.8207 11.4231 23.8367 11.4499 23.8481 11.4692L23.8616 11.4924L23.8658 11.4996L23.8672 11.5021L23.8678 11.5031L23.868 11.5035C23.8681 11.5037 23.8682 11.5039 23 12C23.8682 12.4961 23.868 12.4965 23.8678 12.4969L23.8673 12.4977L23.866 12.5L23.8623 12.5064L23.8505 12.5267L23.8348 12.5531L23.8091 12.5961C23.7736 12.6548 23.7224 12.7378 23.6556 12.8415C23.5223 13.049 23.3265 13.3403 23.0702 13.6876C22.5587 14.3806 21.7999 15.3047 20.8073 16.2311C18.8323 18.0745 15.8496 20 12 20C11.6271 20 11.2616 19.9819 10.9038 19.9473L9.90848 19.8511L10.1008 17.8604L11.0962 17.9566C11.3907 17.985 11.692 18 12 18C15.1504 18 17.6677 16.4255 19.4427 14.7689C20.3251 13.9453 21.0038 13.1194 21.4611 12.4999C21.6002 12.3113 21.7183 12.1427 21.8148 12C21.6929 11.8198 21.5367 11.5983 21.3471 11.3476C20.814 10.6428 20.0254 9.71879 19.0039 8.83708L18.2469 8.18368L19.5537 6.66965ZM23 12L23.8682 11.5039C24.0439 11.8113 24.0439 12.1887 23.8682 12.4961L23 12Z" fill="#151515"/>
</g>
<defs>
<clipPath id="clip0">
<rect width="24" height="24" fill="white"/>
</clipPath>
</defs>
</svg>
