<svg width="24" height="24" viewBox="0 0 24 24" fill="none" xmlns="http://www.w3.org/2000/svg">
<path fill-rule="evenodd" clip-rule="evenodd" d="M21.0887 4.63702C18.592 2.27488 14.6608 2.4975 12.4378 5.12085L11.9988 5.6388L11.5601 5.121C9.33702 2.49757 5.40573 2.27494 2.90896 4.63717C0.479732 6.93548 0.352403 10.7959 2.62202 13.2537L5.18857 16.033C6.39529 17.3398 7.94297 18.7764 9.17532 19.8759C9.79423 20.4281 10.339 20.9 10.7292 21.2341C10.9245 21.4012 11.0812 21.534 11.1895 21.6252C11.2436 21.6709 11.2857 21.7062 11.3144 21.7302L11.3473 21.7577L11.3559 21.7649L11.3582 21.7668L11.3589 21.7673L11.3591 21.7675C11.3591 21.7676 11.3592 21.7676 11.9988 20.999L11.3592 21.7676C11.7298 22.0761 12.2679 22.0761 12.6385 21.7676L11.9988 20.999C12.6385 21.7676 12.6386 21.7675 12.6386 21.7675L12.6388 21.7673L12.6395 21.7668L12.6418 21.7648L12.6504 21.7576L12.6833 21.7302C12.712 21.7061 12.754 21.6708 12.8082 21.6252C12.9165 21.5339 13.0732 21.4011 13.2684 21.234C13.6587 20.8999 14.2034 20.428 14.8224 19.8758C16.0547 18.7762 17.6024 17.3395 18.8091 16.0328L21.3756 13.2537C23.6453 10.7959 23.518 6.93536 21.0887 4.63702Z" fill="#151515"/>
</svg>
