<svg width="24" height="24" viewBox="0 0 24 24" fill="none" xmlns="http://www.w3.org/2000/svg">
<path fill-rule="evenodd" clip-rule="evenodd" d="M12.439 5.12094C14.6623 2.49747 18.5938 2.27485 21.0908 4.63709C23.5203 6.93555 23.6477 10.7963 21.3777 13.2542L18.8109 16.0335C17.604 17.3403 16.0562 18.7771 14.8237 19.8767C14.2047 20.429 13.66 20.9009 13.2696 21.2351C13.0744 21.4022 12.9176 21.535 12.8093 21.6263C12.7552 21.6719 12.7131 21.7072 12.6844 21.7312L12.6516 21.7587L12.6429 21.7659L12.6406 21.7679L12.64 21.7684L12.6398 21.7686C12.6397 21.7686 12.6397 21.7687 12 21C11.3603 21.7687 11.3603 21.7687 11.3602 21.7686L11.36 21.7684L11.3594 21.7679L11.3571 21.766L11.3484 21.7588L11.3155 21.7313C11.2868 21.7073 11.2448 21.672 11.1906 21.6263C11.0823 21.535 10.9256 21.4022 10.7303 21.2351C10.34 20.901 9.79522 20.4291 9.17623 19.8769C7.94375 18.7773 6.39589 17.3406 5.18904 16.0338L2.62219 13.2543C0.352332 10.7964 0.479679 6.93567 2.90916 4.63723C5.40616 2.27492 9.3378 2.49754 11.5611 5.12109L12 5.63904L12.439 5.12094ZM12 21L11.3603 21.7687C11.731 22.0772 12.269 22.0771 12.6397 21.7687L12 21ZM11.9999 19.6892C12.3798 19.3637 12.9017 18.9113 13.4922 18.3844C14.7111 17.2969 16.2014 15.9112 17.3416 14.6766L19.9084 11.8973C21.4367 10.2426 21.3489 7.63443 19.7163 6.08996C18.0557 4.51893 15.4487 4.66306 13.9648 6.41397L13.2019 5.76746L13.9648 6.41397L12.7629 7.83232C12.5729 8.05653 12.2939 8.18581 12 8.18581C11.7061 8.1858 11.4271 8.05652 11.2371 7.83231L10.0352 6.41411C8.55142 4.66313 5.94431 4.519 4.28365 6.09009C2.65113 7.63455 2.56334 10.2426 4.09149 11.8974L6.65834 14.6769C7.79848 15.9115 9.28877 17.2971 10.5077 18.3845C11.0982 18.9113 11.62 19.3638 11.9999 19.6892Z" fill="#151515"/>
</svg>
