<svg width="24" height="24" viewBox="0 0 24 24" fill="none" xmlns="http://www.w3.org/2000/svg">
<path fill-rule="evenodd" clip-rule="evenodd" d="M2 3C2 2.44772 2.44772 2 3 2H21C21.5523 2 22 2.44772 22 3V6.34955C22 7.19566 21.6427 8.00243 21.0162 8.57106L15 14.0311V20C15 20.4589 14.6877 20.8589 14.2425 20.9701L10.2425 21.9701C9.94379 22.0448 9.6273 21.9777 9.38459 21.7882C9.14187 21.5987 9 21.3079 9 21V14.0311L2.98384 8.57106C2.35729 8.00243 2 7.19566 2 6.34955V3ZM4 4V6.34955C4 6.63159 4.1191 6.90051 4.32795 7.09006L10.6721 12.8477C10.8809 13.0373 11 13.3062 11 13.5882V19.7192L13 19.2192V13.5882C13 13.3062 13.1191 13.0373 13.3279 12.8477L19.6721 7.09006C19.8809 6.90051 20 6.63159 20 6.34955V4H4Z" fill="#151515"/>
</svg>
