<svg width="24" height="24" viewBox="0 0 24 24" fill="none" xmlns="http://www.w3.org/2000/svg">
<path fill-rule="evenodd" clip-rule="evenodd" d="M3 1H3.00588H3.01178H3.01772H3.02369H3.0297H3.03573H3.0418H3.04789H3.05402H3.06018H3.06637H3.07259H3.07884H3.08513H3.09144H3.09779H3.10416H3.11057H3.117H3.12347H3.12996H3.13649H3.14304H3.14963H3.15624H3.16289H3.16956H3.17626H3.183H3.18976H3.19655H3.20337H3.21022H3.2171H3.224H3.23094H3.2379H3.24489H3.25191H3.25896H3.26604H3.27314H3.28027H3.28744H3.29462H3.30184H3.30908H3.31635H3.32365H3.33098H3.33833H3.34571H3.35311H3.36055H3.36801H3.37549H3.383H3.39054H3.39811H3.4057H3.41332H3.42096H3.42863H3.43633H3.44405H3.4518H3.45957H3.46737H3.47519H3.48304H3.49092H3.49881H3.50674H3.51469H3.52266H3.53066H3.53868H3.54673H3.5548H3.5629H3.57102H3.57916H3.58733H3.59552H3.60374H3.61198H3.62024H3.62853H3.63684H3.64517H3.65353H3.66191H3.67031H3.67874H3.68718H3.69566H3.70415H3.71266H3.7212H3.72976H3.73835H3.74695H3.75558H3.76423H3.7729H3.78159H3.79031H3.79904H3.8078H3.81658H3.82538H3.8342H3.84304H3.8519H3.86079H3.86969H3.87862H3.88756H3.89653H3.90551H3.91452H3.92355H3.93259H3.94166H3.95075H3.95985H3.96898H3.97813H3.98729H3.99648H4.00568H4.0149H4.02414H4.0334H4.04268H4.05198H4.0613H4.07063H4.07999H4.08936H4.09875H4.10816H4.11759H4.12703H4.1365H4.14598H4.15548H4.16499H4.17452H4.18408H4.19364H4.20323H4.21283H4.22245H4.23209H4.24174H4.25141H4.2611H4.2708H4.28052H4.29025H4.30001H4.30977H4.31956H4.32936H4.33917H4.349H4.35885H4.36871H4.37859H4.38849H4.39839H4.40832H4.41826H4.42821H4.43818H4.44816H4.45816H4.46817H4.4782H4.48824H4.49829H4.50836H4.51845H4.52855H4.53866H4.54878H4.55892H4.56907H4.57924H4.58942H4.59961H4.60982H4.62003H4.63027H4.64051H4.65077H4.66104H4.67132H4.68161H4.69192H4.70224H4.71257H4.72292H4.73327H4.74364H4.75402H4.76441H4.77481H4.78523H4.79565H4.80609H4.81654H4.827H4.83747H4.84795H4.85844H4.86894H4.87946H4.88998H4.90051H4.91106H4.92161H4.93218H4.94275H4.95334H4.96393H4.97454H4.98515H4.99577H5.00641H5.01705H5.0277H5.03836H5.04903H5.05971H5.0704H5.08109H5.0918H5.10251H5.11323H5.12396H5.1347H5.14545H5.1562H5.16696H5.17773H5.18851H5.1993H5.21009H5.22089H5.2317H5.24251H5.25333H5.26416H5.275H5.28584H5.29669H5.30755H5.31841H5.32928H5.34016H5.35104H5.36193H5.37283H5.38373H5.39463H5.40555H5.41646H5.42739H5.43832H5.44925H5.46019H5.47113H5.48208H5.49304H5.504H5.51496H5.52593H5.53691H5.54789H5.55887H5.56986H5.58085H5.59184H5.60284H5.61385H5.62485H5.63587H5.64688H5.6579H5.66892H5.67994H5.69097H5.702H5.71304H5.72408H5.73512H5.74616H5.7572H5.76825H5.7793H5.79036H5.80141H5.81247H5.82353H5.83459H5.84565H5.85672H5.86778H5.87885H5.88992H5.90099H5.91206H5.92314H5.93421H5.94529H5.95636H5.96744H5.97852H5.98959H6.00067H6.01175H6.02283H6.03391H6.04499H6.05607H6.06715H6.07823H6.08931H6.10039H6.11146H6.12254H6.13362H6.14469H6.15577H6.16684H6.17792H6.18899H6.20006H6.21113H6.22219H6.23326H6.24432H6.25539H6.26645H6.27751H6.28856H6.29962H6.31067H6.32172H6.33276H6.34381H6.35485H6.36589H6.37693H6.38796H6.39899H6.41002H6.42104H6.43206H6.44308H6.45409H6.4651H6.47611H6.48711H6.49811H6.5091H6.52009H6.53108H6.54206H6.55304H6.56401H6.57498H6.58594H6.5969H6.60785H6.6188H6.62974H6.64068H6.65161H6.66254H6.67346H6.68438H6.69529H6.70619H6.71709H6.72798H6.73887H6.74975H6.76062H6.77149H6.78235H6.7932H6.80405H6.81489H6.82573H6.83655H6.84737H6.85819H6.86899H6.87979H6.89058H6.90136H6.91214H6.9229H6.93366H6.94442H6.95516H6.96589H6.97662H6.98734H6.99805H7.00875H7.01944H7.03013H7.0408H7.05147H7.06213H7.07277H7.08341H7.09404H7.10466H7.11527H7.12587H7.13646H7.14705H7.15762H7.16818H7.17873H7.18927H7.1998H7.21032H7.22083H7.23133H7.24182H7.25229H7.26276H7.27321H7.28366H7.29409H7.30451H7.31492H7.32532H7.33571H7.34608H7.35645H7.3668H7.37714H7.38746H7.39778H7.40808H7.41837H7.42865H7.43892H7.44917H7.45941H7.46964H7.47985H7.49005H7.50024H7.51041H7.52057H7.53072H7.54085H7.55097H7.56108H7.57117H7.58125H7.59132H7.60137H7.6114H7.62142H7.63143H7.64142H7.6514H7.66136H7.67131H7.68124H7.69116H7.70107H7.71095H7.72083H7.73068H7.74052H7.75035H7.76016H7.76995H7.77973H7.78949H7.79924H7.80897H7.81868H7.82838H7.83806H7.84772H7.85737H7.867H7.87661H7.88621H7.89579H7.90535H7.9149H7.92442H7.93393H7.94342H7.9529H7.96236H7.97179H7.98121H7.99062H8C9.13537 1 10.0259 1.21506 10.7854 1.55683C11.512 1.8838 12.0872 2.31535 12.5724 2.67931L12.6 2.7C13.1091 3.0818 13.5258 3.39002 14.0354 3.61933C14.5259 3.84006 15.1354 4 16 4H16.0141H16.0281H16.0421H16.0562H16.0702H16.0842H16.0982H16.1122H16.1261H16.1401H16.154H16.168H16.1819H16.1958H16.2097H16.2236H16.2375H16.2514H16.2652H16.2791H16.2929H16.3067H16.3205H16.3343H16.3481H16.3619H16.3757H16.3894H16.4032H16.4169H16.4306H16.4443H16.458H16.4717H16.4854H16.4991H16.5127H16.5263H16.54H16.5536H16.5672H16.5808H16.5943H16.6079H16.6215H16.635H16.6485H16.662H16.6755H16.689H16.7025H16.716H16.7294H16.7429H16.7563H16.7697H16.7831H16.7965H16.8099H16.8232H16.8366H16.8499H16.8633H16.8766H16.8899H16.9031H16.9164H16.9297H16.9429H16.9562H16.9694H16.9826H16.9958H17.009H17.0221H17.0353H17.0484H17.0616H17.0747H17.0878H17.1009H17.1139H17.127H17.14H17.1531H17.1661H17.1791H17.1921H17.2051H17.218H17.231H17.2439H17.2568H17.2697H17.2826H17.2955H17.3084H17.3212H17.3341H17.3469H17.3597H17.3725H17.3853H17.398H17.4108H17.4235H17.4362H17.4489H17.4616H17.4743H17.487H17.4996H17.5123H17.5249H17.5375H17.5501H17.5627H17.5752H17.5878H17.6003H17.6128H17.6253H17.6378H17.6503H17.6627H17.6752H17.6876H17.7H17.7124H17.7248H17.7371H17.7495H17.7618H17.7741H17.7864H17.7987H17.811H17.8233H17.8355H17.8477H17.8599H17.8721H17.8843H17.8965H17.9086H17.9207H17.9329H17.9449H17.957H17.9691H17.9811H17.9932H18.0052H18.0172H18.0292H18.0412H18.0531H18.065H18.077H18.0889H18.1008H18.1126H18.1245H18.1363H18.1481H18.1599H18.1717H18.1835H18.1953H18.207H18.2187H18.2304H18.2421H18.2538H18.2654H18.2771H18.2887H18.3003H18.3119H18.3235H18.335H18.3465H18.3581H18.3696H18.381H18.3925H18.404H18.4154H18.4268H18.4382H18.4496H18.4609H18.4723H18.4836H18.4949H18.5062H18.5175H18.5287H18.54H18.5512H18.5624H18.5736H18.5847H18.5959H18.607H18.6181H18.6292H18.6403H18.6514H18.6624H18.6734H18.6844H18.6954H18.7064H18.7173H18.7283H18.7392H18.7501H18.7609H18.7718H18.7826H18.7935H18.8043H18.815H18.8258H18.8365H18.8473H18.858H18.8687H18.8793H18.89H18.9006H18.9112H18.9218H18.9324H18.943H18.9535H18.964H18.9745H18.985H18.9954H19.0059H19.0163H19.0267H19.0371H19.0475H19.0578H19.0681H19.0784H19.0887H19.099H19.1092H19.1194H19.1296H19.1398H19.15H19.1601H19.1703H19.1804H19.1905H19.2005H19.2106H19.2206H19.2306H19.2406H19.2506H19.2605H19.2704H19.2803H19.2902H19.3001H19.3099H19.3198H19.3296H19.3393H19.3491H19.3589H19.3686H19.3783H19.388H19.3976H19.4073H19.4169H19.4265H19.436H19.4456H19.4551H19.4646H19.4741H19.4836H19.4931H19.5025H19.5119H19.5213H19.5307H19.54H19.5493H19.5586H19.5679H19.5772H19.5864H19.5956H19.6048H19.614H19.6231H19.6323H19.6414H19.6505H19.6595H19.6686H19.6776H19.6866H19.6956H19.7045H19.7135H19.7224H19.7313H19.7401H19.749H19.7578H19.7666H19.7754H19.7842H19.7929H19.8016H19.8103H19.819H19.8276H19.8362H19.8448H19.8534H19.862H19.8705H19.879H19.8875H19.896H19.9044H19.9128H19.9212H19.9296H19.938H19.9463H19.9546H19.9629H19.9711H19.9794H19.9876H19.9958H20.004H20.0121H20.0202H20.0283H20.0364H20.0444H20.0525H20.0605H20.0685H20.0764H20.0844H20.0923H20.1002H20.108H20.1159H20.1237H20.1315H20.1392H20.147H20.1547H20.1624H20.1701H20.1777H20.1854H20.193H20.2005H20.2081H20.2156H20.2231H20.2306H20.2381H20.2455H20.2529H20.2603H20.2677H20.275H20.2823H20.2896H20.2969H20.3041H20.3113H20.3185H20.3257H20.3328H20.3399H20.347H20.3541H20.3611H20.3681H20.3751H20.3821H20.389H20.396H20.4028H20.4097H20.4166H20.4234H20.4302H20.4369H20.4437H20.4504H20.4571H20.4637H20.4704H20.477H20.4836H20.4901H20.4967H20.5032H20.5097H20.5161H20.5226H20.529H20.5354H20.5417H20.5481H20.5544H20.5606H20.5669H20.5731H20.5793H20.5855H20.5917H20.5978H20.6039H20.6099H20.616H20.622H20.628H20.634H20.6399H20.6458H20.6517H20.6576H20.6634H20.6692H20.675H20.6808H20.6865H20.6922H20.6979H20.7035H20.7091H20.7147H20.7203H20.7258H20.7313H20.7368H20.7423H20.7477H20.7531H20.7585H20.7639H20.7692H20.7745H20.7798H20.785H20.7902H20.7954H20.8006H20.8057H20.8108H20.8159H20.8209H20.826H20.831H20.8359H20.8409H20.8458H20.8507H20.8555H20.8604H20.8652H20.8699H20.8747H20.8794H20.8841H20.8887H20.8934H20.898H20.9026H20.9071H20.9116H20.9161H20.9206H20.925H20.9294H20.9338H20.9382H20.9425H20.9468H20.951H20.9553H20.9595H20.9637H20.9678H20.9719H20.976H20.9801H20.9841H20.9882H20.9921H20.9961H21C21.5523 4 22 4.44772 22 5C22 5.00161 22 5.00322 22 5.00483L22 16C22 16.5523 21.5523 17 21 17H20.9961H20.9921H20.9882H20.9841H20.9801H20.976H20.9719H20.9678H20.9637H20.9595H20.9553H20.951H20.9468H20.9425H20.9382H20.9338H20.9294H20.925H20.9206H20.9161H20.9116H20.9071H20.9026H20.898H20.8934H20.8887H20.8841H20.8794H20.8747H20.8699H20.8652H20.8604H20.8555H20.8507H20.8458H20.8409H20.8359H20.831H20.826H20.8209H20.8159H20.8108H20.8057H20.8006H20.7954H20.7902H20.785H20.7798H20.7745H20.7692H20.7639H20.7585H20.7531H20.7477H20.7423H20.7368H20.7313H20.7258H20.7203H20.7147H20.7091H20.7035H20.6979H20.6922H20.6865H20.6808H20.675H20.6692H20.6634H20.6576H20.6517H20.6458H20.6399H20.634H20.628H20.622H20.616H20.6099H20.6039H20.5978H20.5917H20.5855H20.5793H20.5731H20.5669H20.5606H20.5544H20.5481H20.5417H20.5354H20.529H20.5226H20.5161H20.5097H20.5032H20.4967H20.4901H20.4836H20.477H20.4704H20.4637H20.4571H20.4504H20.4437H20.4369H20.4302H20.4234H20.4166H20.4097H20.4028H20.396H20.389H20.3821H20.3751H20.3681H20.3611H20.3541H20.347H20.3399H20.3328H20.3257H20.3185H20.3113H20.3041H20.2969H20.2896H20.2823H20.275H20.2677H20.2603H20.2529H20.2455H20.2381H20.2306H20.2231H20.2156H20.2081H20.2005H20.193H20.1854H20.1777H20.1701H20.1624H20.1547H20.147H20.1392H20.1315H20.1237H20.1159H20.108H20.1002H20.0923H20.0844H20.0764H20.0685H20.0605H20.0525H20.0444H20.0364H20.0283H20.0202H20.0121H20.004H19.9958H19.9876H19.9794H19.9711H19.9629H19.9546H19.9463H19.938H19.9296H19.9212H19.9128H19.9044H19.896H19.8875H19.879H19.8705H19.862H19.8534H19.8448H19.8362H19.8276H19.819H19.8103H19.8016H19.7929H19.7842H19.7754H19.7666H19.7578H19.749H19.7401H19.7313H19.7224H19.7135H19.7045H19.6956H19.6866H19.6776H19.6686H19.6595H19.6505H19.6414H19.6323H19.6231H19.614H19.6048H19.5956H19.5864H19.5772H19.5679H19.5586H19.5493H19.54H19.5307H19.5213H19.5119H19.5025H19.4931H19.4836H19.4741H19.4646H19.4551H19.4456H19.436H19.4265H19.4169H19.4073H19.3976H19.388H19.3783H19.3686H19.3589H19.3491H19.3393H19.3296H19.3198H19.3099H19.3001H19.2902H19.2803H19.2704H19.2605H19.2506H19.2406H19.2306H19.2206H19.2106H19.2005H19.1905H19.1804H19.1703H19.1601H19.15H19.1398H19.1296H19.1194H19.1092H19.099H19.0887H19.0784H19.0681H19.0578H19.0475H19.0371H19.0267H19.0163H19.0059H18.9954H18.985H18.9745H18.964H18.9535H18.943H18.9324H18.9218H18.9112H18.9006H18.89H18.8793H18.8687H18.858H18.8473H18.8365H18.8258H18.815H18.8043H18.7935H18.7826H18.7718H18.7609H18.7501H18.7392H18.7283H18.7173H18.7064H18.6954H18.6844H18.6734H18.6624H18.6514H18.6403H18.6292H18.6181H18.607H18.5959H18.5847H18.5736H18.5624H18.5512H18.54H18.5287H18.5175H18.5062H18.4949H18.4836H18.4723H18.4609H18.4496H18.4382H18.4268H18.4154H18.404H18.3925H18.381H18.3696H18.3581H18.3465H18.335H18.3235H18.3119H18.3003H18.2887H18.2771H18.2654H18.2538H18.2421H18.2304H18.2187H18.207H18.1953H18.1835H18.1717H18.1599H18.1481H18.1363H18.1245H18.1126H18.1008H18.0889H18.077H18.065H18.0531H18.0412H18.0292H18.0172H18.0052H17.9932H17.9811H17.9691H17.957H17.9449H17.9329H17.9207H17.9086H17.8965H17.8843H17.8721H17.8599H17.8477H17.8355H17.8233H17.811H17.7987H17.7864H17.7741H17.7618H17.7495H17.7371H17.7248H17.7124H17.7H17.6876H17.6752H17.6627H17.6503H17.6378H17.6253H17.6128H17.6003H17.5878H17.5752H17.5627H17.5501H17.5375H17.5249H17.5123H17.4996H17.487H17.4743H17.4616H17.4489H17.4362H17.4235H17.4108H17.398H17.3853H17.3725H17.3597H17.3469H17.3341H17.3212H17.3084H17.2955H17.2826H17.2697H17.2568H17.2439H17.231H17.218H17.2051H17.1921H17.1791H17.1661H17.1531H17.14H17.127H17.1139H17.1009H17.0878H17.0747H17.0616H17.0484H17.0353H17.0221H17.009H16.9958H16.9826H16.9694H16.9562H16.9429H16.9297H16.9164H16.9031H16.8899H16.8766H16.8633H16.8499H16.8366H16.8232H16.8099H16.7965H16.7831H16.7697H16.7563H16.7429H16.7294H16.716H16.7025H16.689H16.6755H16.662H16.6485H16.635H16.6215H16.6079H16.5943H16.5808H16.5672H16.5536H16.54H16.5263H16.5127H16.4991H16.4854H16.4717H16.458H16.4443H16.4306H16.4169H16.4032H16.3894H16.3757H16.3619H16.3481H16.3343H16.3205H16.3067H16.2929H16.2791H16.2652H16.2514H16.2375H16.2236H16.2097H16.1958H16.1819H16.168H16.154H16.1401H16.1261H16.1122H16.0982H16.0842H16.0702H16.0562H16.0421H16.0281H16.0141H16C14.8646 17 13.9741 16.7849 13.2146 16.4432C12.488 16.1162 11.9128 15.6846 11.4276 15.3207L11.4 15.3C10.8909 14.9182 10.4742 14.61 9.96464 14.3807C9.47411 14.1599 8.86463 14 8 14H7.99062H7.98121H7.97179H7.96236H7.9529H7.94342H7.93393H7.92442H7.9149H7.90535H7.89579H7.88621H7.87661H7.867H7.85737H7.84772H7.83806H7.82838H7.81868H7.80897H7.79924H7.78949H7.77973H7.76995H7.76016H7.75035H7.74052H7.73068H7.72083H7.71095H7.70107H7.69116H7.68124H7.67131H7.66136H7.6514H7.64142H7.63143H7.62142H7.6114H7.60137H7.59132H7.58125H7.57117H7.56108H7.55097H7.54085H7.53072H7.52057H7.51041H7.50024H7.49005H7.47985H7.46964H7.45941H7.44917H7.43892H7.42865H7.41837H7.40808H7.39778H7.38746H7.37714H7.3668H7.35645H7.34608H7.33571H7.32532H7.31492H7.30451H7.29409H7.28366H7.27321H7.26276H7.25229H7.24182H7.23133H7.22083H7.21032H7.1998H7.18927H7.17873H7.16818H7.15762H7.14705H7.13646H7.12587H7.11527H7.10466H7.09404H7.08341H7.07277H7.06213H7.05147H7.0408H7.03013H7.01944H7.00875H6.99805H6.98734H6.97662H6.96589H6.95516H6.94442H6.93366H6.9229H6.91214H6.90136H6.89058H6.87979H6.86899H6.85819H6.84737H6.83655H6.82573H6.81489H6.80405H6.7932H6.78235H6.77149H6.76062H6.74975H6.73887H6.72798H6.71709H6.70619H6.69529H6.68438H6.67346H6.66254H6.65161H6.64068H6.62974H6.6188H6.60785H6.5969H6.58594H6.57498H6.56401H6.55304H6.54206H6.53108H6.52009H6.5091H6.49811H6.48711H6.47611H6.4651H6.45409H6.44308H6.43206H6.42104H6.41002H6.39899H6.38796H6.37693H6.36589H6.35485H6.34381H6.33276H6.32172H6.31067H6.29962H6.28856H6.27751H6.26645H6.25539H6.24432H6.23326H6.22219H6.21113H6.20006H6.18899H6.17792H6.16684H6.15577H6.14469H6.13362H6.12254H6.11146H6.10039H6.08931H6.07823H6.06715H6.05607H6.04499H6.03391H6.02283H6.01175H6.00067H5.98959H5.97852H5.96744H5.95636H5.94529H5.93421H5.92314H5.91206H5.90099H5.88992H5.87885H5.86778H5.85672H5.84565H5.83459H5.82353H5.81247H5.80141H5.79036H5.7793H5.76825H5.7572H5.74616H5.73512H5.72408H5.71304H5.702H5.69097H5.67994H5.66892H5.6579H5.64688H5.63587H5.62485H5.61385H5.60284H5.59184H5.58085H5.56986H5.55887H5.54789H5.53691H5.52593H5.51496H5.504H5.49304H5.48208H5.47113H5.46019H5.44925H5.43832H5.42739H5.41646H5.40555H5.39463H5.38373H5.37283H5.36193H5.35104H5.34016H5.32928H5.31841H5.30755H5.29669H5.28584H5.275H5.26416H5.25333H5.24251H5.2317H5.22089H5.21009H5.1993H5.18851H5.17773H5.16696H5.1562H5.14545H5.1347H5.12396H5.11323H5.10251H5.0918H5.08109H5.0704H5.05971H5.04903H5.03836H5.0277H5.01705H5.00641H4.99577H4.98515H4.97454H4.96393H4.95334H4.94275H4.93218H4.92161H4.91106H4.90051H4.88998H4.87946H4.86894H4.85844H4.84795H4.83747H4.827H4.81654H4.80609H4.79565H4.78523H4.77481H4.76441H4.75402H4.74364H4.73327H4.72292H4.71257H4.70224H4.69192H4.68161H4.67132H4.66104H4.65077H4.64051H4.63027H4.62003H4.60982H4.59961H4.58942H4.57924H4.56907H4.55892H4.54878H4.53866H4.52855H4.51845H4.50836H4.49829H4.48824H4.4782H4.46817H4.45816H4.44816H4.43818H4.42821H4.41826H4.40832H4.39839H4.38849H4.37859H4.36871H4.35885H4.349H4.33917H4.32936H4.31956H4.30977H4.30001H4.29025H4.28052H4.2708H4.2611H4.25141H4.24174H4.23209H4.22245H4.21283H4.20323H4.19364H4.18408H4.17452H4.16499H4.15548H4.14598H4.1365H4.12703H4.11759H4.10816H4.09875H4.08936H4.07999H4.07063H4.0613H4.05198H4.04268H4.0334H4.02414H4.0149H4.00568H4L4 22L4 23H2V22V13V2C2 1.44772 2.44772 1 3 1ZM20 15L20 6H19.9958H19.9876H19.9794H19.9711H19.9629H19.9546H19.9463H19.938H19.9296H19.9212H19.9128H19.9044H19.896H19.8875H19.879H19.8705H19.862H19.8534H19.8448H19.8362H19.8276H19.819H19.8103H19.8016H19.7929H19.7842H19.7754H19.7666H19.7578H19.749H19.7401H19.7313H19.7224H19.7135H19.7045H19.6956H19.6866H19.6776H19.6686H19.6595H19.6505H19.6414H19.6323H19.6231H19.614H19.6048H19.5956H19.5864H19.5772H19.5679H19.5586H19.5493H19.54H19.5307H19.5213H19.5119H19.5025H19.4931H19.4836H19.4741H19.4646H19.4551H19.4456H19.436H19.4265H19.4169H19.4073H19.3976H19.388H19.3783H19.3686H19.3589H19.3491H19.3393H19.3296H19.3198H19.3099H19.3001H19.2902H19.2803H19.2704H19.2605H19.2506H19.2406H19.2306H19.2206H19.2106H19.2005H19.1905H19.1804H19.1703H19.1601H19.15H19.1398H19.1296H19.1194H19.1092H19.099H19.0887H19.0784H19.0681H19.0578H19.0475H19.0371H19.0267H19.0163H19.0059H18.9954H18.985H18.9745H18.964H18.9535H18.943H18.9324H18.9218H18.9112H18.9006H18.89H18.8793H18.8687H18.858H18.8473H18.8365H18.8258H18.815H18.8043H18.7935H18.7826H18.7718H18.7609H18.7501H18.7392H18.7283H18.7173H18.7064H18.6954H18.6844H18.6734H18.6624H18.6514H18.6403H18.6292H18.6181H18.607H18.5959H18.5847H18.5736H18.5624H18.5512H18.54H18.5287H18.5175H18.5062H18.4949H18.4836H18.4723H18.4609H18.4496H18.4382H18.4268H18.4154H18.404H18.3925H18.381H18.3696H18.3581H18.3465H18.335H18.3235H18.3119H18.3003H18.2887H18.2771H18.2654H18.2538H18.2421H18.2304H18.2187H18.207H18.1953H18.1835H18.1717H18.1599H18.1481H18.1363H18.1245H18.1126H18.1008H18.0889H18.077H18.065H18.0531H18.0412H18.0292H18.0172H18.0052H17.9932H17.9811H17.9691H17.957H17.9449H17.9329H17.9207H17.9086H17.8965H17.8843H17.8721H17.8599H17.8477H17.8355H17.8233H17.811H17.7987H17.7864H17.7741H17.7618H17.7495H17.7371H17.7248H17.7124H17.7H17.6876H17.6752H17.6627H17.6503H17.6378H17.6253H17.6128H17.6003H17.5878H17.5752H17.5627H17.5501H17.5375H17.5249H17.5123H17.4996H17.487H17.4743H17.4616H17.4489H17.4362H17.4235H17.4108H17.398H17.3853H17.3725H17.3597H17.3469H17.3341H17.3212H17.3084H17.2955H17.2826H17.2697H17.2568H17.2439H17.231H17.218H17.2051H17.1921H17.1791H17.1661H17.1531H17.14H17.127H17.1139H17.1009H17.0878H17.0747H17.0616H17.0484H17.0353H17.0221H17.009H16.9958H16.9826H16.9694H16.9562H16.9429H16.9297H16.9164H16.9031H16.8899H16.8766H16.8633H16.8499H16.8366H16.8232H16.8099H16.7965H16.7831H16.7697H16.7563H16.7429H16.7294H16.716H16.7025H16.689H16.6755H16.662H16.6485H16.635H16.6215H16.6079H16.5943H16.5808H16.5672H16.5536H16.54H16.5263H16.5127H16.4991H16.4854H16.4717H16.458H16.4443H16.4306H16.4169H16.4032H16.3894H16.3757H16.3619H16.3481H16.3343H16.3205H16.3067H16.2929H16.2791H16.2652H16.2514H16.2375H16.2236H16.2097H16.1958H16.1819H16.168H16.154H16.1401H16.1261H16.1122H16.0982H16.0842H16.0702H16.0562H16.0421H16.0281H16.0141H16C14.8646 6 13.9741 5.78494 13.2146 5.44317C12.488 5.1162 11.9128 4.68465 11.4276 4.32069L11.4 4.3C10.8909 3.9182 10.4742 3.60998 9.96464 3.38067C9.47411 3.15994 8.86463 3 8 3H7.99062H7.98121H7.97179H7.96236H7.9529H7.94342H7.93393H7.92442H7.9149H7.90535H7.89579H7.88621H7.87661H7.867H7.85737H7.84772H7.83806H7.82838H7.81868H7.80897H7.79924H7.78949H7.77973H7.76995H7.76016H7.75035H7.74052H7.73068H7.72083H7.71095H7.70107H7.69116H7.68124H7.67131H7.66136H7.6514H7.64142H7.63143H7.62142H7.6114H7.60137H7.59132H7.58125H7.57117H7.56108H7.55097H7.54085H7.53072H7.52057H7.51041H7.50024H7.49005H7.47985H7.46964H7.45941H7.44917H7.43892H7.42865H7.41837H7.40808H7.39778H7.38746H7.37714H7.3668H7.35645H7.34608H7.33571H7.32532H7.31492H7.30451H7.29409H7.28366H7.27321H7.26276H7.25229H7.24182H7.23133H7.22083H7.21032H7.1998H7.18927H7.17873H7.16818H7.15762H7.14705H7.13646H7.12587H7.11527H7.10466H7.09404H7.08341H7.07277H7.06213H7.05147H7.0408H7.03013H7.01944H7.00875H6.99805H6.98734H6.97662H6.96589H6.95516H6.94442H6.93366H6.9229H6.91214H6.90136H6.89058H6.87979H6.86899H6.85819H6.84737H6.83655H6.82573H6.81489H6.80405H6.7932H6.78235H6.77149H6.76062H6.74975H6.73887H6.72798H6.71709H6.70619H6.69529H6.68438H6.67346H6.66254H6.65161H6.64068H6.62974H6.6188H6.60785H6.5969H6.58594H6.57498H6.56401H6.55304H6.54206H6.53108H6.52009H6.5091H6.49811H6.48711H6.47611H6.4651H6.45409H6.44308H6.43206H6.42104H6.41002H6.39899H6.38796H6.37693H6.36589H6.35485H6.34381H6.33276H6.32172H6.31067H6.29962H6.28856H6.27751H6.26645H6.25539H6.24432H6.23326H6.22219H6.21113H6.20006H6.18899H6.17792H6.16684H6.15577H6.14469H6.13362H6.12254H6.11146H6.10039H6.08931H6.07823H6.06715H6.05607H6.04499H6.03391H6.02283H6.01175H6.00067H5.98959H5.97852H5.96744H5.95636H5.94529H5.93421H5.92314H5.91206H5.90099H5.88992H5.87885H5.86778H5.85672H5.84565H5.83459H5.82353H5.81247H5.80141H5.79036H5.7793H5.76825H5.7572H5.74616H5.73512H5.72408H5.71304H5.702H5.69097H5.67994H5.66892H5.6579H5.64688H5.63587H5.62485H5.61385H5.60284H5.59184H5.58085H5.56986H5.55887H5.54789H5.53691H5.52593H5.51496H5.504H5.49304H5.48208H5.47113H5.46019H5.44925H5.43832H5.42739H5.41646H5.40555H5.39463H5.38373H5.37283H5.36193H5.35104H5.34016H5.32928H5.31841H5.30755H5.29669H5.28584H5.275H5.26416H5.25333H5.24251H5.2317H5.22089H5.21009H5.1993H5.18851H5.17773H5.16696H5.1562H5.14545H5.1347H5.12396H5.11323H5.10251H5.0918H5.08109H5.0704H5.05971H5.04903H5.03836H5.0277H5.01705H5.00641H4.99577H4.98515H4.97454H4.96393H4.95334H4.94275H4.93218H4.92161H4.91106H4.90051H4.88998H4.87946H4.86894H4.85844H4.84795H4.83747H4.827H4.81654H4.80609H4.79565H4.78523H4.77481H4.76441H4.75402H4.74364H4.73327H4.72292H4.71257H4.70224H4.69192H4.68161H4.67132H4.66104H4.65077H4.64051H4.63027H4.62003H4.60982H4.59961H4.58942H4.57924H4.56907H4.55892H4.54878H4.53866H4.52855H4.51845H4.50836H4.49829H4.48824H4.4782H4.46817H4.45816H4.44816H4.43818H4.42821H4.41826H4.40832H4.39839H4.38849H4.37859H4.36871H4.35885H4.349H4.33917H4.32936H4.31956H4.30977H4.30001H4.29025H4.28052H4.2708H4.2611H4.25141H4.24174H4.23209H4.22245H4.21283H4.20323H4.19364H4.18408H4.17452H4.16499H4.15548H4.14598H4.1365H4.12703H4.11759H4.10816H4.09875H4.08936H4.07999H4.07063H4.0613H4.05198H4.04268H4.0334H4.02414H4.0149H4.00568H4L4 12H4.00568H4.0149H4.02414H4.0334H4.04268H4.05198H4.0613H4.07063H4.07999H4.08936H4.09875H4.10816H4.11759H4.12703H4.1365H4.14598H4.15548H4.16499H4.17452H4.18408H4.19364H4.20323H4.21283H4.22245H4.23209H4.24174H4.25141H4.2611H4.2708H4.28052H4.29025H4.30001H4.30977H4.31956H4.32936H4.33917H4.349H4.35885H4.36871H4.37859H4.38849H4.39839H4.40832H4.41826H4.42821H4.43818H4.44816H4.45816H4.46817H4.4782H4.48824H4.49829H4.50836H4.51845H4.52855H4.53866H4.54878H4.55892H4.56907H4.57924H4.58942H4.59961H4.60982H4.62003H4.63027H4.64051H4.65077H4.66104H4.67132H4.68161H4.69192H4.70224H4.71257H4.72292H4.73327H4.74364H4.75402H4.76441H4.77481H4.78523H4.79565H4.80609H4.81654H4.827H4.83747H4.84795H4.85844H4.86894H4.87946H4.88998H4.90051H4.91106H4.92161H4.93218H4.94275H4.95334H4.96393H4.97454H4.98515H4.99577H5.00641H5.01705H5.0277H5.03836H5.04903H5.05971H5.0704H5.08109H5.0918H5.10251H5.11323H5.12396H5.1347H5.14545H5.1562H5.16696H5.17773H5.18851H5.1993H5.21009H5.22089H5.2317H5.24251H5.25333H5.26416H5.275H5.28584H5.29669H5.30755H5.31841H5.32928H5.34016H5.35104H5.36193H5.37283H5.38373H5.39463H5.40555H5.41646H5.42739H5.43832H5.44925H5.46019H5.47113H5.48208H5.49304H5.504H5.51496H5.52593H5.53691H5.54789H5.55887H5.56986H5.58085H5.59184H5.60284H5.61385H5.62485H5.63587H5.64688H5.6579H5.66892H5.67994H5.69097H5.702H5.71304H5.72408H5.73512H5.74616H5.7572H5.76825H5.7793H5.79036H5.80141H5.81247H5.82353H5.83459H5.84565H5.85672H5.86778H5.87885H5.88992H5.90099H5.91206H5.92314H5.93421H5.94529H5.95636H5.96744H5.97852H5.98959H6.00067H6.01175H6.02283H6.03391H6.04499H6.05607H6.06715H6.07823H6.08931H6.10039H6.11146H6.12254H6.13362H6.14469H6.15577H6.16684H6.17792H6.18899H6.20006H6.21113H6.22219H6.23326H6.24432H6.25539H6.26645H6.27751H6.28856H6.29962H6.31067H6.32172H6.33276H6.34381H6.35485H6.36589H6.37693H6.38796H6.39899H6.41002H6.42104H6.43206H6.44308H6.45409H6.4651H6.47611H6.48711H6.49811H6.5091H6.52009H6.53108H6.54206H6.55304H6.56401H6.57498H6.58594H6.5969H6.60785H6.6188H6.62974H6.64068H6.65161H6.66254H6.67346H6.68438H6.69529H6.70619H6.71709H6.72798H6.73887H6.74975H6.76062H6.77149H6.78235H6.7932H6.80405H6.81489H6.82573H6.83655H6.84737H6.85819H6.86899H6.87979H6.89058H6.90136H6.91214H6.9229H6.93366H6.94442H6.95516H6.96589H6.97662H6.98734H6.99805H7.00875H7.01944H7.03013H7.0408H7.05147H7.06213H7.07277H7.08341H7.09404H7.10466H7.11527H7.12587H7.13646H7.14705H7.15762H7.16818H7.17873H7.18927H7.1998H7.21032H7.22083H7.23133H7.24182H7.25229H7.26276H7.27321H7.28366H7.29409H7.30451H7.31492H7.32532H7.33571H7.34608H7.35645H7.3668H7.37714H7.38746H7.39778H7.40808H7.41837H7.42865H7.43892H7.44917H7.45941H7.46964H7.47985H7.49005H7.50024H7.51041H7.52057H7.53072H7.54085H7.55097H7.56108H7.57117H7.58125H7.59132H7.60137H7.6114H7.62142H7.63143H7.64142H7.6514H7.66136H7.67131H7.68124H7.69116H7.70107H7.71095H7.72083H7.73068H7.74052H7.75035H7.76016H7.76995H7.77973H7.78949H7.79924H7.80897H7.81868H7.82838H7.83806H7.84772H7.85737H7.867H7.87661H7.88621H7.89579H7.90535H7.9149H7.92442H7.93393H7.94342H7.9529H7.96236H7.97179H7.98121H7.99062H8C9.13537 12 10.0259 12.2151 10.7854 12.5568C11.512 12.8838 12.0872 13.3154 12.5724 13.6793L12.6 13.7C13.1091 14.0818 13.5258 14.39 14.0354 14.6193C14.5259 14.8401 15.1354 15 16 15H16.0141H16.0281H16.0421H16.0562H16.0702H16.0842H16.0982H16.1122H16.1261H16.1401H16.154H16.168H16.1819H16.1958H16.2097H16.2236H16.2375H16.2514H16.2652H16.2791H16.2929H16.3067H16.3205H16.3343H16.3481H16.3619H16.3757H16.3894H16.4032H16.4169H16.4306H16.4443H16.458H16.4717H16.4854H16.4991H16.5127H16.5263H16.54H16.5536H16.5672H16.5808H16.5943H16.6079H16.6215H16.635H16.6485H16.662H16.6755H16.689H16.7025H16.716H16.7294H16.7429H16.7563H16.7697H16.7831H16.7965H16.8099H16.8232H16.8366H16.8499H16.8633H16.8766H16.8899H16.9031H16.9164H16.9297H16.9429H16.9562H16.9694H16.9826H16.9958H17.009H17.0221H17.0353H17.0484H17.0616H17.0747H17.0878H17.1009H17.1139H17.127H17.14H17.1531H17.1661H17.1791H17.1921H17.2051H17.218H17.231H17.2439H17.2568H17.2697H17.2826H17.2955H17.3084H17.3212H17.3341H17.3469H17.3597H17.3725H17.3853H17.398H17.4108H17.4235H17.4362H17.4489H17.4616H17.4743H17.487H17.4996H17.5123H17.5249H17.5375H17.5501H17.5627H17.5752H17.5878H17.6003H17.6128H17.6253H17.6378H17.6503H17.6627H17.6752H17.6876H17.7H17.7124H17.7248H17.7371H17.7495H17.7618H17.7741H17.7864H17.7987H17.811H17.8233H17.8355H17.8477H17.8599H17.8721H17.8843H17.8965H17.9086H17.9207H17.9329H17.9449H17.957H17.9691H17.9811H17.9932H18.0052H18.0172H18.0292H18.0412H18.0531H18.065H18.077H18.0889H18.1008H18.1126H18.1245H18.1363H18.1481H18.1599H18.1717H18.1835H18.1953H18.207H18.2187H18.2304H18.2421H18.2538H18.2654H18.2771H18.2887H18.3003H18.3119H18.3235H18.335H18.3465H18.3581H18.3696H18.381H18.3925H18.404H18.4154H18.4268H18.4382H18.4496H18.4609H18.4723H18.4836H18.4949H18.5062H18.5175H18.5287H18.54H18.5512H18.5624H18.5736H18.5847H18.5959H18.607H18.6181H18.6292H18.6403H18.6514H18.6624H18.6734H18.6844H18.6954H18.7064H18.7173H18.7283H18.7392H18.7501H18.7609H18.7718H18.7826H18.7935H18.8043H18.815H18.8258H18.8365H18.8473H18.858H18.8687H18.8793H18.89H18.9006H18.9112H18.9218H18.9324H18.943H18.9535H18.964H18.9745H18.985H18.9954H19.0059H19.0163H19.0267H19.0371H19.0475H19.0578H19.0681H19.0784H19.0887H19.099H19.1092H19.1194H19.1296H19.1398H19.15H19.1601H19.1703H19.1804H19.1905H19.2005H19.2106H19.2206H19.2306H19.2406H19.2506H19.2605H19.2704H19.2803H19.2902H19.3001H19.3099H19.3198H19.3296H19.3393H19.3491H19.3589H19.3686H19.3783H19.388H19.3976H19.4073H19.4169H19.4265H19.436H19.4456H19.4551H19.4646H19.4741H19.4836H19.4931H19.5025H19.5119H19.5213H19.5307H19.54H19.5493H19.5586H19.5679H19.5772H19.5864H19.5956H19.6048H19.614H19.6231H19.6323H19.6414H19.6505H19.6595H19.6686H19.6776H19.6866H19.6956H19.7045H19.7135H19.7224H19.7313H19.7401H19.749H19.7578H19.7666H19.7754H19.7842H19.7929H19.8016H19.8103H19.819H19.8276H19.8362H19.8448H19.8534H19.862H19.8705H19.879H19.8875H19.896H19.9044H19.9128H19.9212H19.9296H19.938H19.9463H19.9546H19.9629H19.9711H19.9794H19.9876H19.9958H20Z" fill="#151515"/>
</svg>
