<svg width="24" height="24" viewBox="0 0 24 24" fill="none" xmlns="http://www.w3.org/2000/svg">
<path fill-rule="evenodd" clip-rule="evenodd" d="M5 0C3.89543 0 3 0.895431 3 2V5C3 5.55228 3.44772 6 4 6C4.55228 6 5 5.55228 5 5V2H13H19V5C19 5.55228 19.4477 6 20 6C20.5523 6 21 5.55228 21 5V2C21 0.895431 20.1046 0 19 0H13H5ZM5 19C5 18.4477 4.55228 18 4 18C3.44772 18 3 18.4477 3 19V22C3 23.1046 3.89543 24 5 24H19C20.1046 24 21 23.1046 21 22V19C21 18.4477 20.5523 18 20 18C19.4477 18 19 18.4477 19 19V22H5V19ZM9.48941 11.721C9.69475 11.721 9.85608 11.7797 9.97341 11.897C10.0981 12.007 10.1604 12.161 10.1604 12.359V14.504C10.1604 14.7973 10.1347 15.0247 10.0834 15.186C10.0394 15.3473 9.95875 15.4757 9.84141 15.571C9.72408 15.6663 9.54808 15.747 9.31341 15.813C9.02741 15.901 8.69741 15.9707 8.32341 16.022C7.95675 16.0733 7.60841 16.099 7.27841 16.099C6.45708 16.099 5.74575 15.9413 5.14441 15.626C4.54308 15.3033 4.08108 14.845 3.75841 14.251C3.43575 13.6497 3.27441 12.9383 3.27441 12.117C3.27441 11.3103 3.43208 10.61 3.74741 10.016C4.07008 9.41466 4.52841 8.95266 5.12241 8.63C5.71641 8.30733 6.40941 8.146 7.20141 8.146C8.22075 8.146 9.06408 8.41 9.73141 8.938C9.84141 9.026 9.91841 9.114 9.96241 9.202C10.0064 9.29 10.0284 9.4 10.0284 9.532C10.0284 9.72266 9.97341 9.88766 9.86341 10.027C9.76075 10.159 9.63608 10.225 9.48941 10.225C9.39408 10.225 9.30608 10.2103 9.22541 10.181C9.15208 10.1517 9.06041 10.104 8.95041 10.038C8.64241 9.84733 8.36008 9.71166 8.10341 9.631C7.84675 9.55033 7.56441 9.51 7.25641 9.51C5.76041 9.51 5.01241 10.379 5.01241 12.117C5.01241 13.0117 5.20675 13.679 5.59541 14.119C5.98408 14.559 6.57075 14.779 7.35541 14.779C7.78075 14.779 8.20241 14.724 8.62041 14.614V12.909H7.60841C7.39575 12.909 7.23075 12.8577 7.11341 12.755C6.99608 12.6523 6.93741 12.5057 6.93741 12.315C6.93741 12.1243 6.99608 11.9777 7.11341 11.875C7.23075 11.7723 7.39575 11.721 7.60841 11.721H9.48941ZM12.9135 16.066C12.6495 16.066 12.4405 15.989 12.2865 15.835C12.1325 15.681 12.0555 15.472 12.0555 15.208V9.037C12.0555 8.78033 12.1325 8.575 12.2865 8.421C12.4405 8.267 12.6495 8.19 12.9135 8.19C13.1775 8.19 13.3865 8.267 13.5405 8.421C13.6945 8.575 13.7715 8.78033 13.7715 9.037V15.208C13.7715 15.472 13.6945 15.681 13.5405 15.835C13.3865 15.989 13.1775 16.066 12.9135 16.066ZM15.9814 15.835C16.1427 15.989 16.3517 16.066 16.6084 16.066C16.8651 16.066 17.0667 15.989 17.2134 15.835C17.3674 15.681 17.4444 15.472 17.4444 15.208V12.733H20.1174C20.3961 12.733 20.6014 12.678 20.7334 12.568C20.8654 12.458 20.9314 12.2893 20.9314 12.062C20.9314 11.8273 20.8654 11.655 20.7334 11.545C20.6014 11.435 20.3961 11.38 20.1174 11.38H17.4444V9.598H20.3374C20.6161 9.598 20.8214 9.543 20.9534 9.433C21.0854 9.323 21.1514 9.15433 21.1514 8.927C21.1514 8.69233 21.0854 8.52 20.9534 8.41C20.8214 8.3 20.6161 8.245 20.3374 8.245H16.5534C16.2967 8.245 16.0987 8.31466 15.9594 8.454C15.8201 8.59333 15.7504 8.79133 15.7504 9.048V15.208C15.7504 15.4647 15.8274 15.6737 15.9814 15.835Z" fill="#151515"/>
</svg>
