<svg width="24" height="24" viewBox="0 0 24 24" fill="none" xmlns="http://www.w3.org/2000/svg">
<path fill-rule="evenodd" clip-rule="evenodd" d="M16.5827 3.75573C16.0163 3.18939 15.2089 3.20541 14.707 3.70724C14.0661 4.34813 13.6229 5.39356 13.3426 6.39079C13.2899 6.57816 13.2444 6.75857 13.2053 6.92759C13.4141 6.90419 13.6401 6.87336 13.8752 6.83278C14.961 6.64545 16.0275 6.28527 16.6235 5.6892C17.13 5.18275 17.1442 4.31731 16.5827 3.75573ZM22 7.00006H18.1368C19.3542 5.6745 19.2731 3.61772 17.9969 2.34151C16.6918 1.03639 14.6173 0.968553 13.2928 2.29303C12.7302 2.85561 12.3083 3.55466 11.9919 4.25171C11.6755 3.55466 11.2536 2.85561 10.6911 2.29303C9.36659 0.968553 7.29213 1.03639 5.98701 2.34151C4.71081 3.61772 4.62972 5.6745 5.84708 7.00006H2C1.44772 7.00006 1 7.44778 1 8.00006V12.0001C1 12.5523 1.44772 13.0001 2 13.0001H3V21.0001C3 21.5523 3.44772 22.0001 4 22.0001H20C20.5523 22.0001 21 21.5523 21 21.0001V13.0001H22C22.5523 13.0001 23 12.5523 23 12.0001V8.00006C23 7.44778 22.5523 7.00006 22 7.00006ZM13 13.0001H19V20.0001H13V13.0001ZM13 11.0001H20H21V9.00006H13V11.0001ZM11 9.00006V11.0001H4H3V9.00006H11ZM11 13.0001V20.0001H5V13.0001H11ZM9.27685 3.70724C8.77503 3.20541 7.96756 3.18939 7.40123 3.75573C6.83964 4.31731 6.8539 5.18275 7.36035 5.6892C7.95642 6.28527 9.02286 6.64545 10.1086 6.83278C10.3438 6.87336 10.5698 6.90419 10.7786 6.92759C10.7395 6.75857 10.694 6.57816 10.6413 6.39079C10.3609 5.39356 9.91774 4.34813 9.27685 3.70724Z" fill="#151515"/>
</svg>
