<svg width="40" height="40" viewBox="0 0 40 40" fill="none" xmlns="http://www.w3.org/2000/svg">
<g clip-path="url(#clip0)">
<path fill-rule="evenodd" clip-rule="evenodd" d="M18.2387 20.4386V25.202H16.7139V13.4385H20.7579C21.2407 13.4285 21.7206 13.5134 22.1701 13.6882C22.6195 13.863 23.0296 14.1242 23.3767 14.4569C23.7272 14.7694 24.0062 15.1526 24.1949 15.5808C24.3835 16.009 24.4775 16.4723 24.4705 16.9395C24.4806 17.4092 24.388 17.8755 24.1992 18.3065C24.0104 18.7374 23.7298 19.1228 23.3767 19.4362C22.6695 20.1045 21.7966 20.4383 20.7579 20.4377L18.2387 20.4386ZM18.2387 14.8868V18.9932H20.7958C21.0762 19.0014 21.3552 18.9516 21.6149 18.8468C21.8747 18.7421 22.1096 18.5848 22.3045 18.385C22.4985 18.1981 22.6526 17.9746 22.7579 17.7277C22.8631 17.4808 22.9174 17.2155 22.9174 16.9475C22.9174 16.6795 22.8631 16.4141 22.7579 16.1672C22.6526 15.9203 22.4985 15.6969 22.3045 15.51C22.1121 15.306 21.878 15.1448 21.6179 15.0372C21.3578 14.9296 21.0776 14.878 20.7958 14.8859L18.2387 14.8868Z" fill="#5F6368"/>
<path fill-rule="evenodd" clip-rule="evenodd" d="M27.9843 16.8909C29.1113 16.8909 30.0009 17.1893 30.6532 17.7863C31.3054 18.3832 31.6312 19.2017 31.6306 20.2417V25.2022H30.172V24.0852H30.1057C29.4743 25.0051 28.6346 25.465 27.5865 25.465C26.6918 25.465 25.9433 25.2022 25.3409 24.6766C25.0519 24.4353 24.8207 24.1332 24.6644 23.7922C24.5081 23.4512 24.4306 23.08 24.4374 22.7055C24.4374 21.8727 24.755 21.2103 25.3902 20.7185C26.0254 20.2267 26.8733 19.9801 27.9341 19.9789C28.8395 19.9789 29.5852 20.1431 30.1711 20.4716V20.1262C30.1728 19.8709 30.1172 19.6185 30.0083 19.3871C29.8993 19.1558 29.7398 18.9514 29.5413 18.7887C29.138 18.4282 28.6125 18.2315 28.0695 18.2378C27.2177 18.2378 26.5437 18.5938 26.0475 19.3059L24.7045 18.4677C25.4432 17.4165 26.5365 16.8909 27.9843 16.8909ZM26.0115 22.7384C26.0104 22.9307 26.0558 23.1205 26.1438 23.2919C26.2317 23.4633 26.3598 23.6114 26.5172 23.7239C26.8544 23.9868 27.273 24.1261 27.702 24.1181C28.3455 24.117 28.9623 23.8632 29.4172 23.4123C29.9223 22.9411 30.1749 22.3883 30.1749 21.7538C29.6994 21.3783 29.0365 21.1906 28.186 21.1906C27.5666 21.1906 27.0501 21.3386 26.6365 21.6346C26.2189 21.9349 26.0115 22.3 26.0115 22.7384Z" fill="#5F6368"/>
<path d="M34.9113 28.75L40.0028 17.1536H38.3426L35.9891 22.9353H35.9559L33.5361 17.1536H31.8787L35.2267 24.6924L33.3372 28.75H34.9113Z" fill="#5F6368"/>
<path d="M13.3675 19.4118C13.3681 18.9513 13.3288 18.4916 13.2501 18.0377H6.81934V20.6405H10.5026C10.4272 21.0562 10.2677 21.4524 10.0336 21.8054C9.79955 22.1583 9.49579 22.4606 9.14066 22.6941V24.3836H11.3389C12.6259 23.2075 13.3675 21.4683 13.3675 19.4118Z" fill="#4285F4"/>
<path d="M6.8192 26.016C8.6594 26.016 10.2088 25.4172 11.3387 24.3848L9.14052 22.6953C8.5287 23.1064 7.74072 23.341 6.8192 23.341C5.04056 23.341 3.5309 22.1528 2.99106 20.5515H0.726562V22.2926C1.29412 23.4119 2.16441 24.3528 3.24028 25.0103C4.31614 25.6678 5.55522 26.016 6.8192 26.016Z" fill="#34A853"/>
<path d="M2.9906 20.5513C2.70521 19.7122 2.70521 18.8036 2.9906 17.9645V16.2234H0.726108C0.248657 17.1649 0 18.2041 0 19.2579C0 20.3117 0.248657 21.3508 0.726108 22.2924L2.9906 20.5513Z" fill="#FBBC04"/>
<path d="M6.8192 15.1748C7.79166 15.1591 8.73132 15.5232 9.43507 16.1885L11.3813 14.2597C10.1472 13.1109 8.51224 12.4802 6.8192 12.4998C5.55522 12.4999 4.31614 12.8481 3.24028 13.5056C2.16441 14.1631 1.29412 15.104 0.726562 16.2233L2.99106 17.9644C3.5309 16.3631 5.04056 15.1748 6.8192 15.1748Z" fill="#EA4335"/>
</g>
<defs>
<clipPath id="clip0">
<rect width="40" height="40" fill="white"/>
</clipPath>
</defs>
</svg>
