<svg width="81" height="81" viewBox="0 0 81 81" fill="none" xmlns="http://www.w3.org/2000/svg">
<line x1="0.5" y1="1" x2="0.499997" y2="81" stroke="black"/>
<line x1="80" y1="0.5" x2="-4.37114e-08" y2="0.499993" stroke="black"/>
<line x1="80" y1="80.5" x2="-4.37114e-08" y2="80.5" stroke="black"/>
<line x1="80" y1="72.5" x2="-4.37114e-08" y2="72.5" stroke="black"/>
<line x1="80" y1="64.5" x2="-4.37114e-08" y2="64.5" stroke="black"/>
<line x1="80" y1="56.5" x2="-4.37114e-08" y2="56.5" stroke="black"/>
<line x1="80" y1="48.5" x2="-4.37114e-08" y2="48.5" stroke="black"/>
<line x1="80" y1="40.5" x2="-4.37114e-08" y2="40.5" stroke="black"/>
<line x1="80" y1="32.5" x2="-4.37114e-08" y2="32.5" stroke="black"/>
<line x1="80" y1="24.5" x2="-4.37114e-08" y2="24.5" stroke="black"/>
<line x1="80" y1="16.5" x2="-4.37114e-08" y2="16.5" stroke="black"/>
<line x1="80" y1="8.5" x2="-4.37114e-08" y2="8.49999" stroke="black"/>
<line x1="8.5" y1="1" x2="8.5" y2="81" stroke="black"/>
<line x1="16.5" y1="1" x2="16.5" y2="81" stroke="black"/>
<line x1="24.5" y1="1" x2="24.5" y2="81" stroke="black"/>
<line x1="32.5" y1="1" x2="32.5" y2="81" stroke="black"/>
<line x1="40.5" y1="1" x2="40.5" y2="81" stroke="black"/>
<line x1="48.5" y1="1" x2="48.5" y2="81" stroke="black"/>
<line x1="56.5" y1="1" x2="56.5" y2="81" stroke="black"/>
<line x1="64.5" y1="1" x2="64.5" y2="81" stroke="black"/>
<line x1="72.5" y1="1" x2="72.5" y2="81" stroke="black"/>
<line x1="80.5" y1="-2.18557e-08" x2="80.5" y2="81" stroke="black"/>
</svg>
