<svg width="24" height="24" viewBox="0 0 24 24" fill="none" xmlns="http://www.w3.org/2000/svg">
<path fill-rule="evenodd" clip-rule="evenodd" d="M8.20711 5.20711L8.91421 4.5L7.5 3.08579L6.79289 3.79289L4.29289 6.29289L3.58579 7L4.29289 7.70711L6.79289 10.2071L7.5 10.9142L8.91421 9.5L8.20711 8.79289L7.41421 8H19H20V6H19L7.41421 6L8.20711 5.20711ZM15.7929 18.7929L15.0858 19.5L16.5 20.9142L17.2071 20.2071L19.7071 17.7071L20.4142 17L19.7071 16.2929L17.2071 13.7929L16.5 13.0858L15.0858 14.5L15.7929 15.2071L16.5858 16L5 16H4V18H5H16.5858L15.7929 18.7929Z" fill="#151515"/>
</svg>
