<svg width="24" height="24" viewBox="0 0 24 24" fill="none" xmlns="http://www.w3.org/2000/svg">
<path fill-rule="evenodd" clip-rule="evenodd" d="M11.5528 1.10557C11.8343 0.964809 12.1657 0.964809 12.4472 1.10557L17.1998 3.48188L22.4472 6.10557C22.786 6.27496 23 6.62123 23 7V17C23 17.3788 22.786 17.725 22.4472 17.8944L17.4472 20.3944L12.4472 22.8944C12.1657 23.0352 11.8343 23.0352 11.5528 22.8944L1.55279 17.8944C1.214 17.725 1 17.3788 1 17V7C1 6.62123 1.214 6.27496 1.55279 6.10557L11.5528 1.10557ZM3 8.61803V16.382L11 20.382V12.618L6.55279 10.3944L3 8.61803ZM13 12.618V20.382L16.5528 18.6056L21 16.382V8.61803L13 12.618ZM19.7639 7L12 10.882L9.19204 9.47798L16.7639 5.49998L19.7639 7ZM14.5606 4.39832L12 3.11803L4.23607 7L6.98871 8.37632L14.5606 4.39832Z" fill="currentColor"/>
</svg>
