<svg width="68" height="68" viewBox="0 0 68 68" fill="none" xmlns="http://www.w3.org/2000/svg">
<rect width="68" height="68" rx="34" fill="black"/>
<path d="M27.9573 33.6945C28.6726 33.6945 29.2525 33.1162 29.2525 32.4028C29.2525 31.6895 28.6726 31.1112 27.9573 31.1112C27.242 31.1112 26.6621 31.6895 26.6621 32.4028C26.6621 33.1162 27.242 33.6945 27.9573 33.6945Z" fill="white"/>
<path d="M35.297 32.4028C35.297 33.1162 34.7171 33.6945 34.0017 33.6945C33.2864 33.6945 32.7065 33.1162 32.7065 32.4028C32.7065 31.6895 33.2864 31.1112 34.0017 31.1112C34.7171 31.1112 35.297 31.6895 35.297 32.4028Z" fill="white"/>
<path d="M40.0462 33.6945C40.7615 33.6945 41.3414 33.1162 41.3414 32.4028C41.3414 31.6895 40.7615 31.1112 40.0462 31.1112C39.3308 31.1112 38.7509 31.6895 38.7509 32.4028C38.7509 33.1162 39.3308 33.6945 40.0462 33.6945Z" fill="white"/>
<path fill-rule="evenodd" clip-rule="evenodd" d="M23.2081 20.7778C20.8236 20.7778 18.8906 22.7055 18.8906 25.0834V39.7223C18.8906 42.1002 20.8236 44.0278 23.2081 44.0278H24.9351V49.1945C24.9351 49.5156 25.1142 49.81 25.3998 49.9583C25.6854 50.1066 26.03 50.0841 26.2937 49.8999L34.7057 44.0278H44.7954C47.1799 44.0278 49.1129 42.1002 49.1129 39.7223V25.0834C49.1129 22.7055 47.1799 20.7778 44.7954 20.7778H23.2081ZM20.6176 25.0834C20.6176 23.6567 21.7774 22.5001 23.2081 22.5001L44.7954 22.5001C46.2261 22.5001 47.3859 23.6567 47.3859 25.0834V39.7223C47.3859 41.149 46.2261 42.3056 44.7954 42.3056H34.1613L26.6621 47.5406V42.3056H23.2081C21.7774 42.3056 20.6176 41.149 20.6176 39.7223V25.0834Z" fill="white"/>
</svg>
