<svg width="68" height="68" viewBox="0 0 68 68" fill="none" xmlns="http://www.w3.org/2000/svg">
<rect width="68" height="68" rx="34" fill="black"/>
<path d="M35.2809 28.3271C35.2809 29.0232 34.7165 29.5876 34.0204 29.5876C33.3242 29.5876 32.7599 29.0232 32.7599 28.3271C32.7599 27.6309 33.3242 27.0666 34.0204 27.0666C34.7165 27.0666 35.2809 27.6309 35.2809 28.3271Z" fill="white"/>
<path d="M34.8656 32.2665H33.1323V40.9332H34.8656V32.2665Z" fill="white"/>
<path fill-rule="evenodd" clip-rule="evenodd" d="M19.2656 33.9999C19.2656 25.8629 25.862 19.2666 33.999 19.2666C42.136 19.2666 48.7323 25.8629 48.7323 33.9999C48.7323 42.1369 42.136 48.7333 33.999 48.7333C25.862 48.7333 19.2656 42.1369 19.2656 33.9999ZM33.999 20.9999C26.8193 20.9999 20.999 26.8202 20.999 33.9999C20.999 41.1796 26.8193 46.9999 33.999 46.9999C41.1787 46.9999 46.999 41.1796 46.999 33.9999C46.999 26.8202 41.1787 20.9999 33.999 20.9999Z" fill="white"/>
</svg>
