<svg width="24" height="24" viewBox="0 0 24 24" fill="none" xmlns="http://www.w3.org/2000/svg">
<path fill-rule="evenodd" clip-rule="evenodd" d="M17.2929 5.70711L16.5858 5L18 3.58579L18.7071 4.29289L21.7071 7.29289L22.4142 8L21.7071 8.70711L18.7071 11.7071L18 12.4142L16.5858 11L17.2929 10.2929L18.5858 9H12H11H9H8.5C6.01472 9 4 11.0147 4 13.5C4 15.9853 6.01472 18 8.5 18H13H14V20H13H8.5C4.91015 20 2 17.0899 2 13.5C2 10.0784 4.64378 7.27426 8 7.01894V7H8.5H9H11H12H18.5858L17.2929 5.70711Z" fill="#151515"/>
</svg>
