<svg width="24" height="24" viewBox="0 0 24 24" fill="none" xmlns="http://www.w3.org/2000/svg">
<path fill-rule="evenodd" clip-rule="evenodd" d="M9 5.99976C9 4.3429 10.3431 2.99976 12 2.99976C13.6569 2.99976 15 4.3429 15 5.99976C15 7.65661 13.6569 8.99976 12 8.99976C10.3431 8.99976 9 7.65661 9 5.99976ZM12 0.999756C9.23858 0.999756 7 3.23833 7 5.99976C7 8.76118 9.23858 10.9998 12 10.9998C14.7614 10.9998 17 8.76118 17 5.99976C17 3.23833 14.7614 0.999756 12 0.999756ZM20 18.9998L20 20.9998L4 20.9998L4 18.9998C4 16.7906 5.79086 14.9998 8 14.9998H16C18.2091 14.9998 20 16.7906 20 18.9998ZM22 20.9998V18.9998C22 15.686 19.3137 12.9998 16 12.9998H8C4.68629 12.9998 2 15.686 2 18.9998L2 20.9998C2 22.1043 2.89543 22.9998 4 22.9998H20C21.1046 22.9998 22 22.1043 22 20.9998Z" fill="#151515"/>
</svg>
