<svg width="24" height="24" viewBox="0 0 24 24" fill="none" xmlns="http://www.w3.org/2000/svg">
<path fill-rule="evenodd" clip-rule="evenodd" d="M6.70711 5.70711L7.41421 5L6 3.58579L5.29289 4.29289L2.29289 7.29289L1.58579 8L2.29289 8.70711L5.29289 11.7071L6 12.4142L7.41421 11L6.70711 10.2929L5.41421 9H12H13H15H15.5C17.9853 9 20 11.0147 20 13.5C20 15.9853 17.9853 18 15.5 18H11H10V20H11H15.5C19.0899 20 22 17.0899 22 13.5C22 10.0784 19.3562 7.27426 16 7.01894V7H15.5H15H13H12H5.41421L6.70711 5.70711Z" fill="#151515"/>
</svg>
