<svg width="68" height="68" viewBox="0 0 68 68" fill="none" xmlns="http://www.w3.org/2000/svg">
<rect width="68" height="68" rx="34" fill="black"/>
<path fill-rule="evenodd" clip-rule="evenodd" d="M32.6686 18.7C32.3035 18.7 31.9757 18.9234 31.8423 19.2631L27.5295 30.241H23.3469C21.876 30.241 20.6836 31.4334 20.6836 32.9044V42.6699C20.6836 44.1408 21.876 45.3332 23.3469 45.3332H27.7778C27.7804 45.3333 27.7831 45.3333 27.7858 45.3333H42.878C43.5503 45.3333 44.1777 45.2556 44.7269 44.9416C45.2912 44.6188 45.6468 44.1201 45.9314 43.5509C46.6317 42.1503 46.9627 40.1464 47.132 38.1233C47.3037 36.0713 47.3169 33.8719 47.3169 32.0166C47.3169 31.6463 47.2658 30.7867 46.785 29.993C46.2608 29.1276 45.3004 28.4655 43.7658 28.4655H37.5514V22.2511C37.5514 20.8472 36.0355 18.7 32.6686 18.7ZM28.6736 43.5577H42.878C43.4433 43.5577 43.698 43.4846 43.8454 43.4003C43.9776 43.3247 44.1329 43.1776 44.3433 42.7568C44.8806 41.6822 45.1954 39.9739 45.3626 37.9753C45.5274 36.0057 45.5414 33.874 45.5414 32.0166C45.5414 31.7682 45.4984 31.2961 45.2663 30.9129C45.0776 30.6013 44.7063 30.2411 43.7658 30.2411H36.6636C36.1733 30.2411 35.7758 29.8436 35.7758 29.3533V22.2511C35.7758 22.0251 35.3259 20.718 33.2621 20.5049L28.6736 32.1846V43.5577ZM26.8978 32.0166C26.8978 32.024 26.8979 32.0314 26.898 32.0388V43.5577H23.3469C22.8566 43.5577 22.4592 43.1602 22.4592 42.6699L22.4592 32.9044C22.4592 32.4141 22.8566 32.0166 23.3469 32.0166H26.8978Z" fill="white"/>
</svg>
