<svg width="68" height="68" viewBox="0 0 68 68" fill="none" xmlns="http://www.w3.org/2000/svg">
<rect width="68" height="68" rx="34" fill="black"/>
<path d="M34.8656 28.7999V33.1333H39.199V34.8666H34.8656V39.1999H33.1323V34.8666H28.799V33.1333H33.1323V28.7999H34.8656Z" fill="white"/>
<path fill-rule="evenodd" clip-rule="evenodd" d="M19.2656 33.9999C19.2656 25.8629 25.862 19.2666 33.999 19.2666C42.136 19.2666 48.7323 25.8629 48.7323 33.9999C48.7323 42.1369 42.136 48.7333 33.999 48.7333C25.862 48.7333 19.2656 42.1369 19.2656 33.9999ZM33.999 20.9999C26.8193 20.9999 20.999 26.8202 20.999 33.9999C20.999 41.1796 26.8193 46.9999 33.999 46.9999C41.1787 46.9999 46.999 41.1796 46.999 33.9999C46.999 26.8202 41.1787 20.9999 33.999 20.9999Z" fill="white"/>
</svg>
