<svg width="24" height="24" viewBox="0 0 24 24" fill="none" xmlns="http://www.w3.org/2000/svg">
<path fill-rule="evenodd" clip-rule="evenodd" d="M12 9C10.3431 9 9 10.3431 9 12C9 13.6569 10.3431 15 12 15C13.6569 15 15 13.6569 15 12C15 10.3431 13.6569 9 12 9ZM7 12C7 9.23858 9.23858 7 12 7C14.7614 7 17 9.23858 17 12C17 14.7614 14.7614 17 12 17C9.23858 17 7 14.7614 7 12Z" fill="#151515"/>
<path d="M4.43963 7.47998L3.81105 8.25772L3.81105 8.25772L4.43963 7.47998ZM4.73156 8.64846L3.81105 8.25773L3.81105 8.25773L4.73156 8.64846ZM4.53955 9.10079L5.46006 9.49152L5.46006 9.49152L4.53955 9.10079ZM3.49623 9.70249L3.37342 10.6949H3.37342L3.49623 9.70249ZM3.45734 14.1493L3.56282 15.1437H3.56282L3.45734 14.1493ZM4.49 14.7691L3.56282 15.1437L3.56282 15.1437L4.49 14.7691ZM4.67408 15.2247L5.60127 14.8501L4.67408 15.2247ZM4.36181 16.388L4.97672 17.1765H4.97672L4.36181 16.388ZM7.47902 19.56L6.70127 18.9315L7.47902 19.56ZM8.6475 19.2681L8.25677 20.1886H8.25677L8.6475 19.2681ZM9.09983 19.4601L9.49056 18.5396H9.49056L9.09983 19.4601ZM9.70153 20.5034L10.694 20.6263V20.6263L9.70153 20.5034ZM14.1487 20.5423L13.1543 20.6477V20.6477L14.1487 20.5423ZM14.7686 19.5096L14.394 18.5824L14.3939 18.5824L14.7686 19.5096ZM15.2242 19.3255L15.5988 20.2527L15.5988 20.2527L15.2242 19.3255ZM16.3874 19.6378L17.176 19.0229V19.0229L16.3874 19.6378ZM19.5596 16.5206L20.1882 15.7429L19.5596 16.5206ZM19.2677 15.3521L20.1882 15.7429V15.7429L19.2677 15.3521ZM19.4597 14.8998L18.5392 14.5091V14.5091L19.4597 14.8998ZM20.503 14.2981L20.3802 15.2905H20.3802L20.503 14.2981ZM20.5417 9.85085L20.4362 8.85643L20.5417 9.85085ZM19.509 9.23104L18.5818 9.60565L18.5818 9.60565L19.509 9.23104ZM19.3249 8.77542L20.2521 8.40082L20.2521 8.40082L19.3249 8.77542ZM19.6372 7.61222L19.0223 6.82362L19.6372 7.61222ZM16.52 4.44012L15.7423 3.81154V3.81154L16.52 4.44012ZM15.3515 4.73205L14.9608 5.65255L14.9608 5.65255L15.3515 4.73205ZM14.8992 4.54004L15.2899 3.61954L15.2899 3.61954L14.8992 4.54004ZM14.2975 3.49672L13.3051 3.37391V3.37391L14.2975 3.49672ZM9.85028 3.45791L8.85586 3.56339V3.56339L9.85028 3.45791ZM9.23047 4.49057L9.60507 5.41776H9.60508L9.23047 4.49057ZM8.77485 4.67465L8.40025 3.74747L8.40025 3.74747L8.77485 4.67465ZM7.61165 4.36238L8.40025 3.74747L8.40025 3.74747L7.61165 4.36238ZM14.4593 2.18895L13.4669 2.06614L14.4593 2.18895ZM18.6431 3.23171L19.2475 2.43509L18.6431 3.23171ZM17.3477 3.41606L16.5699 2.78748L17.3477 3.41606ZM20.8826 5.51038L20.0757 6.10096L20.8826 5.51038ZM22.8982 10.4976L21.9074 10.6329L22.8982 10.4976ZM21.8521 9.71186L21.9576 10.7063L21.8521 9.71186ZM20.7679 18.6436L19.9713 18.0391L20.7679 18.6436ZM20.5836 17.3482L21.2121 16.5704L20.5836 17.3482ZM17.1971 20.6762L16.4085 21.2911L17.1971 20.6762ZM18.489 20.8831L17.8985 20.0761L18.489 20.8831ZM21.811 14.46L21.9338 13.4675L21.811 14.46ZM22.8706 13.6928L21.8823 13.5401L22.8706 13.6928ZM13.5019 22.8983L13.3667 21.9075L13.5019 22.8983ZM14.2877 21.8522L15.2821 21.7467L14.2877 21.8522ZM5.35637 20.7679L4.75184 21.5644L5.35637 20.7679ZM6.65182 20.5835L5.87407 19.955L6.65182 20.5835ZM3.32395 17.1972L3.93886 17.9858L3.32395 17.1972ZM10.3069 22.8705L10.1542 23.8588L10.3069 22.8705ZM2.14787 14.2882L2.25335 15.2826L2.14787 14.2882ZM2.18895 9.54071L2.06613 10.5331L2.18895 9.54071ZM1.12933 10.308L0.14104 10.1554L1.12933 10.308ZM9.71134 2.14793L10.7058 2.04246L9.71134 2.14793ZM5.5102 3.11748L4.91961 2.31052L5.5102 3.11748ZM6.80224 3.32435L7.59084 2.70944L6.80224 3.32435ZM3.41588 6.65257L4.04446 5.87483L3.41588 6.65257ZM4.02815 5.96165C4.61639 5.18638 5.31515 4.49944 6.1008 3.92445L4.91961 2.31052C3.97763 2.99992 3.14008 3.82331 2.43487 4.75274L4.02815 5.96165ZM5.06821 6.70223L4.04446 5.87483L2.7873 7.43032L3.81105 8.25772L5.06821 6.70223ZM5.65206 9.03919C6.00097 8.21721 5.76271 7.26353 5.06821 6.70223L3.81105 8.25772L3.81105 8.25773L5.65206 9.03919ZM5.46006 9.49152L5.65206 9.03919L3.81105 8.25773L3.61905 8.71006L5.46006 9.49152ZM3.37342 10.6949C4.25962 10.8046 5.11115 10.3135 5.46006 9.49152L3.61905 8.71006L3.61905 8.71006L3.37342 10.6949ZM2.06613 10.5331L3.37342 10.6949L3.61905 8.71006L2.31176 8.54828L2.06613 10.5331ZM2 12C2 11.4759 2.04024 10.9618 2.11762 10.4605L0.14104 10.1554C0.0481212 10.7573 0 11.3733 0 12H2ZM2.09256 13.3672C2.03157 12.9207 2 12.4643 2 12H0C0 12.5551 0.0377542 13.1019 0.110961 13.6378L2.09256 13.3672ZM2.25335 15.2826L3.56282 15.1437L3.35187 13.1549L2.04239 13.2938L2.25335 15.2826ZM3.56282 15.1437L3.56282 15.1437L5.41719 14.3945C5.08268 13.5666 4.23984 13.0607 3.35186 13.1549L3.56282 15.1437ZM3.56282 15.1437L3.7469 15.5994L5.60127 14.8501L5.41719 14.3945L3.56282 15.1437ZM3.7469 15.5994L3.7469 15.5994L4.97672 17.1765C5.68091 16.6275 5.93578 15.6781 5.60127 14.8501L3.7469 15.5994ZM3.7469 15.5994L2.70904 16.4086L3.93886 17.9858L4.97672 17.1765L3.7469 15.5994ZM5.9609 19.9713C5.18576 19.383 4.49895 18.6843 3.92406 17.8987L2.31005 19.0798C2.99933 20.0217 3.82257 20.8592 4.75184 21.5644L5.9609 19.9713ZM6.70127 18.9315L5.87407 19.955L7.42956 21.2121L8.25677 20.1886L6.70127 18.9315ZM9.03823 18.3476C8.21626 17.9987 7.26257 18.237 6.70127 18.9315L8.25677 20.1886L8.25677 20.1886L9.03823 18.3476ZM9.49056 18.5396L9.03823 18.3476L8.25677 20.1886L8.7091 20.3806L9.49056 18.5396ZM10.694 20.6263C10.8036 19.7401 10.3125 18.8885 9.49056 18.5396L8.7091 20.3806H8.7091L10.694 20.6263ZM10.5322 21.9337L10.694 20.6263L8.7091 20.3806L8.5473 21.6881L10.5322 21.9337ZM12 22C11.4755 22 10.9611 21.9597 10.4596 21.8822L10.1542 23.8588C10.7565 23.9518 11.3729 24 12 24V22ZM13.3667 21.9075C12.9203 21.9685 12.4641 22 12 22V24C12.5549 24 13.1014 23.9623 13.6372 23.8891L13.3667 21.9075ZM15.2821 21.7467L15.1432 20.4368L13.1543 20.6477L13.2933 21.9577L15.2821 21.7467ZM15.1432 20.4368L15.1432 20.4368L14.3939 18.5824C13.566 18.9169 13.0601 19.7598 13.1543 20.6477L15.1432 20.4368ZM15.1432 20.4368L15.5988 20.2527L14.8496 18.3983L14.394 18.5824L15.1432 20.4368ZM15.5988 20.2527L15.5988 20.2527L17.176 19.0229C16.6269 18.3187 15.6775 18.0638 14.8496 18.3983L15.5988 20.2527ZM15.5988 20.2527L16.4085 21.2911L17.9857 20.0613L17.176 19.0229L15.5988 20.2527ZM19.9713 18.0391C19.383 18.8143 18.6842 19.5011 17.8985 20.0761L19.0796 21.6901C20.0216 21.0008 20.8592 20.1775 21.5645 19.2482L19.9713 18.0391ZM18.931 17.2984L19.955 18.1259L21.2121 16.5704L20.1882 15.7429L18.931 17.2984ZM18.3472 14.9614C17.9983 15.7834 18.2365 16.7371 18.931 17.2984L20.1882 15.7429L18.3472 14.9614ZM18.5392 14.5091L18.3472 14.9614L20.1882 15.7429L20.3802 15.2905L18.5392 14.5091ZM20.6258 13.3057C19.7396 13.196 18.8881 13.6871 18.5392 14.5091L20.3802 15.2905H20.3802L20.6258 13.3057ZM21.9338 13.4675L20.6258 13.3057L20.3802 15.2905L21.6881 15.4524L21.9338 13.4675ZM22 12C22 12.5244 21.9597 13.0387 21.8823 13.5401L23.8588 13.8454C23.9518 13.2433 24 12.6269 24 12H22ZM21.9074 10.6329C21.9684 11.0794 22 11.5357 22 12H24C24 11.445 23.9622 10.8982 23.8891 10.3622L21.9074 10.6329ZM20.6472 10.8453L21.9576 10.7063L21.7467 8.71744L20.4362 8.85643L20.6472 10.8453ZM18.5818 9.60565C18.9163 10.4336 19.7592 10.9395 20.6472 10.8453L20.4362 8.85643V8.85643L18.5818 9.60565ZM18.3978 9.15003L18.5818 9.60565L20.4362 8.85643L20.2521 8.40082L18.3978 9.15003ZM19.0223 6.82362C18.3181 7.37271 18.0632 8.32209 18.3978 9.15003L20.2521 8.40082V8.40082L19.0223 6.82362ZM20.0609 6.01381L19.0223 6.82362L20.2521 8.40082L21.2907 7.591L20.0609 6.01381ZM18.0386 4.02833C18.8138 4.61657 19.5007 5.31533 20.0757 6.10096L21.6896 4.9198C21.0003 3.97784 20.1769 3.1403 19.2475 2.43509L18.0386 4.02833ZM17.2978 5.0687L18.1254 4.04464L16.5699 2.78748L15.7423 3.81154L17.2978 5.0687ZM14.9608 5.65255C15.7828 6.00146 16.7365 5.7632 17.2978 5.0687L15.7423 3.81154V3.81154L14.9608 5.65255ZM14.5085 5.46055L14.9608 5.65255L15.7423 3.81154L15.2899 3.61954L14.5085 5.46055ZM13.3051 3.37391C13.1954 4.26011 13.6865 5.11164 14.5085 5.46055L15.2899 3.61954L15.2899 3.61954L13.3051 3.37391ZM13.4669 2.06614L13.3051 3.37391L15.2899 3.61954L15.4518 2.31177L13.4669 2.06614ZM12 2C12.5242 2 13.0382 2.04024 13.5395 2.11763L13.8447 0.141048C13.2428 0.048124 12.6267 0 12 0V2ZM10.6324 2.09262C11.079 2.03159 11.5356 2 12 2V0C11.4447 0 10.8978 0.0377796 10.3616 0.111034L10.6324 2.09262ZM8.71691 2.25341L8.85586 3.56339L10.8447 3.35244L10.7058 2.04246L8.71691 2.25341ZM8.85586 3.56339L8.85586 3.56339L9.60508 5.41776C10.433 5.08325 10.9389 4.24042 10.8447 3.35244L8.85586 3.56339ZM8.85586 3.56339L8.40025 3.74747L9.14946 5.60184L9.60507 5.41776L8.85586 3.56339ZM8.40025 3.74747L8.40025 3.74747L6.82305 4.97729C7.37214 5.68148 8.32152 5.93635 9.14946 5.60184L8.40025 3.74747ZM8.40025 3.74747L7.59084 2.70944L6.01364 3.93926L6.82305 4.97729L8.40025 3.74747ZM15.4518 2.31177C15.5741 1.32328 14.9336 0.309174 13.8447 0.141048L13.5395 2.11763C13.5273 2.11575 13.5123 2.11052 13.4985 2.10176C13.4854 2.09351 13.4775 2.08481 13.4732 2.07882C13.4655 2.06797 13.4673 2.06287 13.4669 2.06614L15.4518 2.31177ZM19.2475 2.43509C18.3702 1.76939 17.1961 2.01266 16.5699 2.78748L18.1254 4.04464C18.1275 4.0421 18.125 4.04689 18.112 4.04885C18.1048 4.04994 18.0931 4.05028 18.0782 4.04666C18.0624 4.04281 18.0483 4.03573 18.0386 4.02833L19.2475 2.43509ZM21.2907 7.591C22.0763 6.97839 22.3401 5.80859 21.6896 4.9198L20.0757 6.10096C20.0684 6.09107 20.0616 6.07688 20.058 6.06099C20.0547 6.04604 20.0552 6.03436 20.0564 6.02717C20.0586 6.01414 20.0634 6.0118 20.0609 6.01381L21.2907 7.591ZM23.8891 10.3622C23.74 9.27055 22.7372 8.61237 21.7467 8.71744L21.9576 10.7063C21.9609 10.7059 21.9558 10.7076 21.9451 10.6997C21.9391 10.6954 21.9306 10.6873 21.9226 10.6741C21.9141 10.6601 21.9091 10.6451 21.9074 10.6329L23.8891 10.3622ZM21.5645 19.2482C22.2302 18.3709 21.987 17.1967 21.2121 16.5704L19.955 18.1259C19.9575 18.128 19.9527 18.1256 19.9508 18.1125C19.9497 18.1053 19.9493 18.0936 19.953 18.0787C19.9568 18.0629 19.9639 18.0488 19.9713 18.0391L21.5645 19.2482ZM16.4085 21.2911C17.021 22.0767 18.1908 22.3405 19.0796 21.6901L17.8985 20.0761C17.9084 20.0688 17.9226 20.062 17.9385 20.0584C17.9534 20.0551 17.9651 20.0556 17.9723 20.0568C17.9853 20.059 17.9877 20.0638 17.9857 20.0613L16.4085 21.2911ZM21.6881 15.4524C22.6766 15.5747 23.6907 14.9343 23.8588 13.8454L21.8823 13.5401C21.8842 13.5279 21.8894 13.513 21.8981 13.4991C21.9064 13.4861 21.9151 13.4781 21.9211 13.4739C21.9319 13.4661 21.937 13.4679 21.9338 13.4675L21.6881 15.4524ZM13.6372 23.8891C14.729 23.7401 15.3872 22.7373 15.2821 21.7467L13.2933 21.9577C13.2936 21.9609 13.2919 21.9558 13.2998 21.9451C13.3042 21.9392 13.3123 21.9307 13.3254 21.9226C13.3394 21.9141 13.3545 21.9092 13.3667 21.9075L13.6372 23.8891ZM4.75184 21.5644C5.62913 22.2302 6.80332 21.987 7.42956 21.2121L5.87407 19.955C5.87203 19.9575 5.87444 19.9527 5.8875 19.9508C5.89471 19.9497 5.90639 19.9493 5.92127 19.9529C5.93708 19.9568 5.95115 19.9639 5.9609 19.9713L4.75184 21.5644ZM2.70904 16.4086C1.92341 17.0212 1.65966 18.191 2.31005 19.0798L3.92406 17.8987C3.9313 17.9086 3.93813 17.9227 3.94171 17.9386C3.94507 17.9536 3.94453 17.9653 3.94332 17.9725C3.94112 17.9855 3.93629 17.9878 3.93886 17.9858L2.70904 16.4086ZM8.5473 21.6881C8.42498 22.6765 9.06535 23.6906 10.1542 23.8588L10.4596 21.8822C10.4718 21.8841 10.4867 21.8893 10.5006 21.8981C10.5136 21.9063 10.5216 21.915 10.5258 21.921C10.5335 21.9319 10.5318 21.937 10.5322 21.9337L8.5473 21.6881ZM0.110961 13.6378C0.260068 14.7295 1.26278 15.3877 2.25335 15.2826L2.04239 13.2938C2.03913 13.2941 2.04426 13.2924 2.05496 13.3003C2.06086 13.3047 2.06942 13.3128 2.07743 13.3259C2.08594 13.3399 2.0909 13.355 2.09256 13.3672L0.110961 13.6378ZM2.31176 8.54828C1.32327 8.42595 0.309161 9.06642 0.14104 10.1554L2.11762 10.4605C2.11574 10.4727 2.11051 10.4877 2.10175 10.5016C2.0935 10.5146 2.0848 10.5225 2.07881 10.5268C2.06796 10.5345 2.06287 10.5327 2.06613 10.5331L2.31176 8.54828ZM10.3616 0.111034C9.26998 0.260187 8.61185 1.26288 8.71691 2.25341L10.7058 2.04246C10.7054 2.03919 10.7071 2.04432 10.6992 2.05502C10.6948 2.06093 10.6868 2.06948 10.6736 2.07749C10.6596 2.086 10.6446 2.09096 10.6324 2.09262L10.3616 0.111034ZM6.1008 3.92445C6.09091 3.93169 6.07672 3.93853 6.06083 3.9421C6.04588 3.94546 6.0342 3.94492 6.027 3.94371C6.01397 3.94152 6.01164 3.93669 6.01364 3.93926L7.59084 2.70944C6.97821 1.92377 5.8084 1.66004 4.91961 2.31052L6.1008 3.92445ZM2.43487 4.75274C1.76922 5.63003 2.01249 6.80412 2.7873 7.43032L4.04446 5.87483C4.04192 5.87278 4.04671 5.8752 4.04867 5.88825C4.04976 5.89546 4.0501 5.90714 4.04648 5.92202C4.04263 5.93783 4.03555 5.95189 4.02815 5.96165L2.43487 4.75274Z" fill="#151515"/>
</svg>
