<svg width="24" height="24" viewBox="0 0 24 24" fill="none" xmlns="http://www.w3.org/2000/svg">
<path fill-rule="evenodd" clip-rule="evenodd" d="M12 4C9.04752 4 6.5151 5.60086 5.1339 8H6.5H7.5V10H6.5H3H2V9V5V4H4V5V6.08035C5.80217 3.61126 8.6856 2 12 2C15.9359 2 19.2641 4.27225 20.8955 7.55497L21.3405 8.45048L19.5495 9.34055L19.1045 8.44503C17.7905 5.80088 15.1315 4 12 4ZM4.45048 14.6595L4.89551 15.555C6.20955 18.1991 8.8685 20 12 20C14.5202 20 16.7343 18.8336 18.1876 17H17H16V15H17H19.9798C19.9937 14.9997 20.0077 14.9997 20.0217 15H20.5H21.5V16V19.5V20.5H19.5V19.5V18.5505C17.6875 20.6596 15.023 22 12 22C8.06405 22 4.73586 19.7278 3.10449 16.445L2.65945 15.5495L4.45048 14.6595Z" fill="#151515"/>
</svg>
