<svg width="24" height="24" viewBox="0 0 24 24" fill="none" xmlns="http://www.w3.org/2000/svg">
<g clip-path="url(#clip0)">
<path fill-rule="evenodd" clip-rule="evenodd" d="M0 1H1H5C5.47154 1 5.879 1.3294 5.9778 1.79047L6.65734 4.96166L23.0023 5C23.3015 5.0007 23.5847 5.13533 23.7741 5.36692C23.9635 5.59851 24.0393 5.90274 23.9806 6.19612L21.9806 16.1961C21.8871 16.6635 21.4767 17 21 17H8C7.52846 17 7.121 16.6706 7.0222 16.2095L4.87519 6.19018C4.87208 6.17698 4.86923 6.16369 4.86665 6.1503L4.19158 3H1H0V1ZM7.08613 6.96267L8.80842 15H20.1802L21.7808 6.99714L7.08613 6.96267ZM11 21C11 22.1046 10.1046 23 9 23C7.89543 23 7 22.1046 7 21C7 19.8954 7.89543 19 9 19C10.1046 19 11 19.8954 11 21ZM20 23C21.1046 23 22 22.1046 22 21C22 19.8954 21.1046 19 20 19C18.8954 19 18 19.8954 18 21C18 22.1046 18.8954 23 20 23Z" fill="currentColor"/>
</g>
<defs>
<clipPath id="clip0">
<rect width="24" height="24" fill="white"/>
</clipPath>
</defs>
</svg>
