<svg width="24" height="24" viewBox="0 0 24 24" fill="none" xmlns="http://www.w3.org/2000/svg">
<path fill-rule="evenodd" clip-rule="evenodd" d="M4 1C2.34315 1 1 2.34315 1 4V14V20C1 21.6569 2.34315 23 4 23H20C21.6569 23 23 21.6569 23 20V6.09091V4C23 2.34315 21.6569 1 20 1H13.375H4ZM3 4C3 3.44772 3.44772 3 4 3H13.375H20C20.5523 3 21 3.44772 21 4V6.09091V20C21 20.4433 20.7115 20.8193 20.312 20.9504L8.05698 10.446C6.86677 9.42586 5.09176 9.49403 3.98329 10.6025L3 11.5858V4ZM6.7554 11.9646L17.2967 21H4C3.44772 21 3 20.5523 3 20V14.4142L5.3975 12.0167C5.76699 11.6472 6.35866 11.6245 6.7554 11.9646ZM17 8.5C17 9.32843 16.3284 10 15.5 10C14.6716 10 14 9.32843 14 8.5C14 7.67157 14.6716 7 15.5 7C16.3284 7 17 7.67157 17 8.5ZM19 8.5C19 10.433 17.433 12 15.5 12C13.567 12 12 10.433 12 8.5C12 6.567 13.567 5 15.5 5C17.433 5 19 6.567 19 8.5Z" fill="#151515"/>
</svg>
