<svg width="24" height="24" viewBox="0 0 24 24" fill="none" xmlns="http://www.w3.org/2000/svg">
<path fill-rule="evenodd" clip-rule="evenodd" d="M5 0C3.89543 0 3 0.895431 3 2V5C3 5.55228 3.44772 6 4 6C4.55228 6 5 5.55228 5 5V2H13H19V5C19 5.55228 19.4477 6 20 6C20.5523 6 21 5.55228 21 5V2C21 0.895431 20.1046 0 19 0H13H5ZM5 19C5 18.4477 4.55228 18 4 18C3.44772 18 3 18.4477 3 19V22C3 23.1046 3.89543 24 5 24H19C20.1046 24 21 23.1046 21 22V19C21 18.4477 20.5523 18 20 18C19.4477 18 19 18.4477 19 19V22H5V19ZM20.882 11.897C20.7647 11.7797 20.6034 11.721 20.398 11.721H18.517C18.3044 11.721 18.1394 11.7723 18.022 11.875C17.9047 11.9777 17.846 12.1243 17.846 12.315C17.846 12.5057 17.9047 12.6523 18.022 12.755C18.1394 12.8577 18.3044 12.909 18.517 12.909H19.529V14.614C19.111 14.724 18.6894 14.779 18.264 14.779C17.4794 14.779 16.8927 14.559 16.504 14.119C16.1154 13.679 15.921 13.0117 15.921 12.117C15.921 10.379 16.669 9.51 18.165 9.51C18.473 9.51 18.7554 9.55033 19.012 9.631C19.2687 9.71166 19.551 9.84733 19.859 10.038C19.969 10.104 20.0607 10.1517 20.134 10.181C20.2147 10.2103 20.3027 10.225 20.398 10.225C20.5447 10.225 20.6694 10.159 20.772 10.027C20.882 9.88766 20.937 9.72266 20.937 9.532C20.937 9.4 20.915 9.29 20.871 9.202C20.827 9.114 20.75 9.026 20.64 8.938C19.9727 8.41 19.1294 8.146 18.11 8.146C17.318 8.146 16.625 8.30733 16.031 8.63C15.437 8.95266 14.9787 9.41466 14.656 10.016C14.3407 10.61 14.183 11.3103 14.183 12.117C14.183 12.9383 14.3444 13.6497 14.667 14.251C14.9897 14.845 15.4517 15.3033 16.053 15.626C16.6544 15.9413 17.3657 16.099 18.187 16.099C18.517 16.099 18.8654 16.0733 19.232 16.022C19.606 15.9707 19.936 15.901 20.222 15.813C20.4567 15.747 20.6327 15.6663 20.75 15.571C20.8674 15.4757 20.948 15.3473 20.992 15.186C21.0434 15.0247 21.069 14.7973 21.069 14.504V12.359C21.069 12.161 21.0067 12.007 20.882 11.897ZM3.09331 16.066C2.75598 16.0807 2.49931 16.0293 2.32331 15.912C2.15465 15.7947 2.07031 15.615 2.07031 15.373C2.07031 15.153 2.12531 14.9917 2.23531 14.889C2.34531 14.779 2.51765 14.7167 2.75231 14.702L3.10431 14.68C3.63231 14.658 3.89631 14.3463 3.89631 13.745V9.037C3.89631 8.78033 3.97698 8.575 4.13831 8.421C4.29965 8.267 4.50865 8.19 4.76531 8.19C5.02198 8.19 5.22731 8.267 5.38131 8.421C5.54265 8.575 5.62331 8.78033 5.62331 9.037V13.723C5.62331 15.175 4.89731 15.9487 3.44531 16.044L3.09331 16.066ZM8.0208 16.066C7.7568 16.066 7.5478 15.989 7.3938 15.835C7.2398 15.681 7.1628 15.472 7.1628 15.208V9.048C7.1628 8.79133 7.23246 8.59333 7.3718 8.454C7.51113 8.31466 7.70913 8.245 7.9658 8.245H10.7268C11.5701 8.245 12.2265 8.45766 12.6958 8.883C13.1651 9.30833 13.3998 9.90233 13.3998 10.665C13.3998 11.4277 13.1651 12.0217 12.6958 12.447C12.2265 12.8723 11.5701 13.085 10.7268 13.085H8.8788V15.208C8.8788 15.472 8.8018 15.681 8.6478 15.835C8.4938 15.989 8.2848 16.066 8.0208 16.066ZM10.5068 11.787C11.3648 11.787 11.7938 11.4167 11.7938 10.676C11.7938 9.928 11.3648 9.554 10.5068 9.554H8.8788V11.787H10.5068Z" fill="#151515"/>
</svg>
