<svg width="24" height="24" viewBox="0 0 24 24" fill="none" xmlns="http://www.w3.org/2000/svg">
<path fill-rule="evenodd" clip-rule="evenodd" d="M11 1C10.5911 1 10.2234 1.24895 10.0715 1.62861L6.72297 10H4C2.34315 10 1 11.3431 1 13L1 20C1 21.6569 2.34315 23 4 23H7H19C19.5455 23 20.1203 22.9497 20.6441 22.708C21.2093 22.4471 21.611 22.014 21.8944 21.4472C22.4883 20.2595 22.7461 18.5888 22.8721 16.9517C23 15.2883 23 13.5069 23 12.0176V12L23 11.9748C23.0006 11.7139 23.002 10.9879 22.6182 10.3164C22.1605 9.51535 21.2948 9 20 9H19.9953H19.9905H19.9857H19.9808H19.9758H19.9708H19.9657H19.9605H19.9553H19.95H19.9447H19.9393H19.9339H19.9283H19.9228H19.9171H19.9114H19.9057H19.8999H19.894H19.8881H19.8821H19.8761H19.87H19.8638H19.8576H19.8513H19.845H19.8386H19.8321H19.8256H19.8191H19.8125H19.8058H19.7991H19.7923H19.7855H19.7786H19.7716H19.7646H19.7576H19.7505H19.7433H19.7361H19.7288H19.7215H19.7141H19.7067H19.6992H19.6917H19.6841H19.6765H19.6688H19.6611H19.6533H19.6454H19.6375H19.6296H19.6216H19.6135H19.6054H19.5973H19.5891H19.5809H19.5726H19.5642H19.5558H19.5474H19.5389H19.5304H19.5218H19.5131H19.5045H19.4957H19.4869H19.4781H19.4692H19.4603H19.4514H19.4424H19.4333H19.4242H19.415H19.4058H19.3966H19.3873H19.378H19.3686H19.3592H19.3497H19.3402H19.3307H19.3211H19.3114H19.3018H19.292H19.2823H19.2725H19.2626H19.2527H19.2428H19.2328H19.2228H19.2127H19.2026H19.1925H19.1823H19.1721H19.1618H19.1515H19.1412H19.1308H19.1203H19.1099H19.0994H19.0888H19.0783H19.0676H19.057H19.0463H19.0356H19.0248H19.014H19.0031H18.9922H18.9813H18.9704H18.9594H18.9483H18.9373H18.9262H18.915H18.9039H18.8927H18.8814H18.8701H18.8588H18.8475H18.8361H18.8247H18.8132H18.8018H18.7903H18.7787H18.7671H18.7555H18.7439H18.7322H18.7205H18.7087H18.697H18.6852H18.6733H18.6614H18.6496H18.6376H18.6257H18.6137H18.6017H18.5896H18.5775H18.5654H18.5533H18.5411H18.5289H18.5167H18.5044H18.4921H18.4798H18.4675H18.4551H18.4427H18.4303H18.4179H18.4054H18.3929H18.3804H18.3678H18.3552H18.3426H18.33H18.3174H18.3047H18.292H18.2792H18.2665H18.2537H18.2409H18.2281H18.2152H18.2024H18.1895H18.1765H18.1636H18.1506H18.1376H18.1246H18.1116H18.0985H18.0855H18.0724H18.0592H18.0461H18.0329H18.0198H18.0066H17.9933H17.9801H17.9668H17.9536H17.9403H17.9269H17.9136H17.9002H17.8869H17.8735H17.8601H17.8466H17.8332H17.8197H17.8062H17.7927H17.7792H17.7657H17.7521H17.7386H17.725H17.7114H17.6978H17.6841H17.6705H17.6568H17.6432H17.6295H17.6158H17.602H17.5883H17.5746H17.5608H17.547H17.5332H17.5194H17.5056H17.4918H17.478H17.4641H17.4503H17.4364H17.4225H17.4086H17.3947H17.3808H17.3668H17.3529H17.339H17.325H17.311H17.2971H17.2831H17.2691H17.2551H17.241H17.227H17.213H17.1989H17.1849H17.1708H17.1568H17.1427H17.1286H17.1145H17.1004H17.0863H17.0722H17.0581H17.044H17.0299H17.0157H17.0016H16.9875H16.9733H16.9592H16.945H16.9308H16.9167H16.9025H16.8883H16.8742H16.86H16.8458H16.8316H16.8174H16.8032H16.7891H16.7749H16.7607H16.7465H16.7323H16.7181H16.7039H16.6897H16.6755H16.6613H16.6471H16.6328H16.6186H16.6044H16.5902H16.576H16.5618H16.5476H16.5334H16.5192H16.505H16.4909H16.4767H16.4625H16.4483H16.4341H16.4199H16.4057H16.3916H16.3774H16.3632H16.3491H16.3349H16.3208H16.3066H16.2925H16.2783H16.2642H16.2501H16.236H16.2218H16.2077H16.1936H16.1795H16.1654H16.1514H16.1373H16.1232H16.1091H16.0951H16.081H16.067H16.053H16.039H16.0249H16.0109H15.997H15.983H15.969H15.955H15.9411H15.9271H15.9132H15.8993H15.8854H15.8715H15.8576H15.8437H15.8298H15.816H15.8021H15.7883H15.7745H15.7607H15.7469H15.7331H15.7193H15.7056H15.6918H15.6781H15.6644H15.6507H15.637H15.6234H15.6097H15.5961H15.5825L15.5688 9H15.5553H15.5417H15.5281H15.5146H15.5011H15.4876H15.4741H15.4606H15.4471H15.4337H15.4203H15.4069H15.3935H15.3801H15.3668H15.3534H15.3401H15.3268H15.3136H15.3003H15.2871H15.2739H15.2607H15.2475H15.2344H15.2212H15.2081H15.195H15.182H15.1689H15.1559H15.1429H15.1299H15.117H15.1041H15.0911H15.0783H15.0654H15.0526H15.0397H15.027H15.0142H15.0014H15V4C15 3.39841 14.7413 2.62906 14.0794 2.01624C13.4026 1.38955 12.3882 1 11 1ZM8 21H19C19.4545 21 19.6797 20.9503 19.8059 20.892C19.8907 20.8529 19.989 20.786 20.1056 20.5528C20.5117 19.7405 20.7539 18.4112 20.8779 16.7983C20.9995 15.2182 21 13.5071 21 12C21 11.7363 20.9849 11.4891 20.8818 11.3086C20.8427 11.2404 20.7886 11.1789 20.6895 11.1266C20.5829 11.0703 20.3762 11 20 11H19.9953H19.9905H19.9857H19.9808H19.9758H19.9708H19.9657H19.9605H19.9553H19.95H19.9447H19.9393H19.9339H19.9283H19.9228H19.9171H19.9114H19.9057H19.8999H19.894H19.8881H19.8821H19.8761H19.87H19.8638H19.8576L19.8513 11H19.845H19.8386H19.8321H19.8256H19.8191H19.8125H19.8058H19.7991H19.7923H19.7855H19.7786H19.7716H19.7646H19.7576H19.7505H19.7433H19.7361H19.7288H19.7215H19.7141H19.7067H19.6992H19.6917H19.6841H19.6765H19.6688H19.6611H19.6533H19.6454H19.6375H19.6296H19.6216H19.6135H19.6054H19.5973H19.5891H19.5809H19.5726H19.5642H19.5558H19.5474H19.5389H19.5304H19.5218H19.5131H19.5045H19.4957H19.4869H19.4781H19.4692H19.4603H19.4514H19.4424H19.4333H19.4242H19.415H19.4058H19.3966H19.3873H19.378H19.3686H19.3592H19.3497H19.3402H19.3307H19.3211H19.3114H19.3018H19.292H19.2823H19.2725H19.2626H19.2527H19.2428H19.2328H19.2228H19.2127H19.2026H19.1925H19.1823H19.1721H19.1618H19.1515H19.1412H19.1308H19.1203H19.1099H19.0994H19.0888H19.0783H19.0676H19.057H19.0463H19.0356H19.0248H19.014H19.0031H18.9922H18.9813H18.9704H18.9594H18.9483H18.9373H18.9262H18.915H18.9039H18.8927H18.8814H18.8701H18.8588H18.8475H18.8361H18.8247H18.8132H18.8018H18.7903H18.7787H18.7671H18.7555H18.7439H18.7322H18.7205H18.7087H18.697H18.6852H18.6733H18.6614H18.6496H18.6376H18.6257H18.6137H18.6017H18.5896H18.5775H18.5654H18.5533H18.5411H18.5289H18.5167H18.5044H18.4921H18.4798H18.4675H18.4551H18.4427H18.4303H18.4179H18.4054H18.3929H18.3804H18.3678H18.3552H18.3426H18.33H18.3174H18.3047H18.292H18.2792H18.2665H18.2537H18.2409H18.2281H18.2152H18.2024H18.1895H18.1765H18.1636H18.1506H18.1376H18.1246H18.1116H18.0985H18.0855H18.0724H18.0592H18.0461H18.0329H18.0198H18.0066H17.9933H17.9801H17.9668H17.9536H17.9403H17.9269H17.9136H17.9002H17.8869H17.8735H17.8601H17.8466H17.8332H17.8197H17.8062H17.7927H17.7792H17.7657H17.7521H17.7386H17.725H17.7114H17.6978H17.6841H17.6705H17.6568H17.6432H17.6295H17.6158H17.602H17.5883H17.5746H17.5608H17.547H17.5332H17.5194H17.5056H17.4918H17.478H17.4641H17.4503H17.4364H17.4225H17.4086H17.3947H17.3808H17.3668H17.3529H17.339H17.325H17.311H17.2971H17.2831H17.2691H17.2551H17.241H17.227H17.213H17.1989H17.1849H17.1708H17.1568H17.1427H17.1286H17.1145H17.1004H17.0863H17.0722H17.0581H17.044H17.0299H17.0157H17.0016H16.9875H16.9733H16.9592H16.945H16.9309H16.9167H16.9025H16.8883H16.8742H16.86H16.8458H16.8316H16.8174H16.8032H16.7891H16.7749H16.7607H16.7465H16.7323H16.7181H16.7039H16.6897H16.6755H16.6613H16.6471H16.6328H16.6186H16.6044H16.5902H16.576H16.5618H16.5476H16.5334H16.5192H16.505H16.4909H16.4767H16.4625H16.4483H16.4341H16.4199H16.4057H16.3916H16.3774H16.3632H16.3491H16.3349H16.3208H16.3066H16.2925H16.2783H16.2642H16.2501H16.236H16.2218H16.2077H16.1936H16.1795H16.1654H16.1514H16.1373H16.1232H16.1091H16.0951H16.081H16.067H16.053H16.039H16.0249H16.0109H15.997H15.983H15.969H15.955H15.9411H15.9271H15.9132H15.8993H15.8854H15.8715H15.8576H15.8437H15.8298H15.816H15.8021H15.7883H15.7745H15.7607H15.7469H15.7331H15.7193H15.7056H15.6918H15.6781H15.6644H15.6507H15.637H15.6234H15.6097H15.5961H15.5825H15.5688H15.5553H15.5417H15.5281H15.5146L15.5011 11H15.4876H15.4741H15.4606H15.4471H15.4337H15.4203H15.4069H15.3935H15.3801H15.3668H15.3534H15.3401H15.3268H15.3136H15.3003H15.2871H15.2739H15.2607H15.2475H15.2344H15.2212H15.2081H15.195H15.182H15.1689H15.1559H15.1429H15.1299H15.117H15.1041H15.0911H15.0783H15.0654H15.0526H15.0397H15.027H15.0142H15.0014H14.9887H14.976H14.9634H14.9507H14.9381H14.9255H14.913H14.9004H14.8879H14.8754H14.863H14.8505H14.8381H14.8257H14.8134H14.8011H14.7888H14.7765H14.7643H14.7521H14.7399H14.7277H14.7156H14.7035H14.6915H14.6794H14.6674H14.6554H14.6435H14.6316H14.6197H14.6078H14.596H14.5842H14.5725H14.5608H14.5491H14.5374H14.5258H14.5142H14.5026H14.4911H14.4796H14.4681H14.4567H14.4453H14.4339H14.4226H14.4113H14.4001H14.3888H14.3776H14.3665H14.3554H14.3443H14.3333H14.3222H14.3113H14.3003H14.2894H14.2786H14.2677H14.257H14.2462H14.2355H14.2248H14.2142H14.2036H14.193H14.1825H14.172H14.1616H14.1512H14.1408H14.1305H14.1202H14.11H14.0998H14.0896H14.0795H14.0694H14.0594H14.0494H14.0394H14.0295H14.0196H14.0098H14C13.4477 11 13 10.5523 13 10V4C13 3.93492 12.9587 3.70428 12.7206 3.48376C12.5527 3.32828 12.2362 3.1329 11.6588 3.04568L8 12.1926L8 21ZM5.99973 12C5.99974 12.0076 5.99983 12.0151 6 12.0227L6 21H4C3.44772 21 3 20.5523 3 20L3 13C3 12.4477 3.44772 12 4 12H5.99973Z" fill="#151515"/>
</svg>
