<svg width="24" height="24" viewBox="0 0 24 24" fill="none" xmlns="http://www.w3.org/2000/svg">
<path d="M19.6575 2.99996H4.3425C3.99354 2.99787 3.65764 3.13249 3.40671 3.375C3.15579 3.61751 3.0098 3.94864 3 4.29746V19.65C3.00788 19.9994 3.15327 20.3317 3.40461 20.5746C3.65596 20.8175 3.99297 20.9515 4.3425 20.9475H19.6575C20.007 20.9515 20.344 20.8175 20.5954 20.5746C20.8467 20.3317 20.9921 19.9994 21 19.65V4.29746C20.9902 3.94864 20.8442 3.61751 20.5933 3.375C20.3424 3.13249 20.0065 2.99787 19.6575 2.99996ZM8.3325 18.3075H5.6925V9.74996H8.3325V18.3075ZM7.0425 8.55746C6.63717 8.55758 6.24786 8.39917 5.95777 8.11608C5.66767 7.83299 5.49979 7.44768 5.49 7.04246C5.48266 6.83661 5.5178 6.63145 5.59322 6.43977C5.66864 6.24809 5.78273 6.074 5.92839 5.92835C6.07404 5.7827 6.24813 5.6686 6.43981 5.59318C6.63149 5.51776 6.83665 5.48262 7.0425 5.48996C7.43463 5.51727 7.80181 5.6923 8.06993 5.97974C8.33805 6.26719 8.48716 6.64563 8.48716 7.03871C8.48716 7.43179 8.33805 7.81024 8.06993 8.09768C7.80181 8.38512 7.43463 8.56016 7.0425 8.58746V8.55746ZM18.36 18.255H15.75V14.07C15.75 13.0725 15.75 11.775 14.355 11.775C12.96 11.775 12.75 12.87 12.75 13.9725V18.21H10.08V9.74996H12.57V10.875H12.6225C12.8777 10.4317 13.2499 10.0672 13.6983 9.82116C14.1467 9.57514 14.6541 9.45711 15.165 9.47996C17.8575 9.47996 18.36 11.28 18.36 13.5675V18.255Z" fill="#151515"/>
</svg>
