<svg width="24" height="24" viewBox="0 0 24 24" fill="none" xmlns="http://www.w3.org/2000/svg">
<path fill-rule="evenodd" clip-rule="evenodd" d="M5 9C5 5.49825 7.66165 2 12 2C16.3384 2 19 5.49825 19 9C19 10.2929 18.5643 11.7648 17.8452 13.293C17.131 14.8106 16.1691 16.3173 15.1913 17.6618C14.2155 19.0035 13.2375 20.1652 12.5026 20.9919C12.3181 21.1994 12.1493 21.3855 12 21.5477C11.8507 21.3855 11.6819 21.1994 11.4974 20.9919C10.7625 20.1652 9.78451 19.0035 8.80874 17.6618C7.8309 16.3173 6.869 14.8106 6.15482 13.293C5.43571 11.7648 5 10.2929 5 9ZM11.2925 23.7068C11.2927 23.7069 11.2929 23.7071 12 23L11.2929 23.7071C11.6834 24.0976 12.3166 24.0976 12.7071 23.7071L12 23C12.7071 23.7071 12.7073 23.7069 12.7075 23.7068L12.708 23.7062L12.7096 23.7046L12.715 23.6992L12.7343 23.6797L12.7605 23.6531L12.8056 23.607C12.8672 23.5439 12.9564 23.4517 13.0691 23.333C13.2944 23.0956 13.6143 22.7516 13.9974 22.3206C14.7625 21.4598 15.7845 20.2465 16.8087 18.8382C17.8309 17.4327 18.869 15.8144 19.6548 14.1445C20.4357 12.4852 21 10.7071 21 9C21 4.56062 17.6028 0 12 0C6.39723 0 3 4.56062 3 9C3 10.7071 3.56429 12.4852 4.34518 14.1445C5.131 15.8144 6.1691 17.4327 7.19126 18.8382C8.21549 20.2465 9.23747 21.4598 10.0026 22.3206C10.3857 22.7516 10.7056 23.0956 10.9309 23.333C11.0436 23.4517 11.1328 23.5439 11.1944 23.607C11.2252 23.6386 11.2491 23.6629 11.2657 23.6797L11.285 23.6992L11.2904 23.7046L11.292 23.7062L11.2925 23.7068ZM12 11C13.1046 11 14 10.1046 14 9C14 7.89543 13.1046 7 12 7C10.8954 7 10 7.89543 10 9C10 10.1046 10.8954 11 12 11Z" fill="#151515"/>
</svg>
