<svg width="24" height="24" viewBox="0 0 24 24" fill="none" xmlns="http://www.w3.org/2000/svg">
<path fill-rule="evenodd" clip-rule="evenodd" d="M18 11H20C20.5523 11 21 11.4477 21 12V20C21 22.2091 19.2091 24 17 24H7C4.79086 24 3 22.2091 3 20L3 12C3 11.4477 3.44772 11 4 11H6L6 6C6 2.68629 8.68629 0 12 0C15.3137 0 18 2.68629 18 6L18 11ZM16 11L16 6C16 3.79086 14.2091 2 12 2C9.79086 2 8 3.79086 8 6L8 11L16 11ZM17 13C17.0004 13 17.0009 13 17.0013 13L19 13V20C19 21.1046 18.1046 22 17 22H7C5.89543 22 5 21.1046 5 20L5 13H6.99796C6.99864 13 6.99932 13 7 13L17 13Z" fill="#151515"/>
</svg>
