<svg width="24" height="24" viewBox="0 0 24 24" fill="none" xmlns="http://www.w3.org/2000/svg">
<path fill-rule="evenodd" clip-rule="evenodd" d="M4.00015 3C2.3433 3 1.00015 4.34315 1.00015 6L1.00015 6.98166C0.999949 6.99327 0.99995 7.00486 1.00015 7.01645L1.00015 18C1.00015 19.6569 2.3433 21 4.00015 21H20.0002C21.657 21 23.0002 19.6569 23.0002 18L23.0002 7.01642C23.0004 7.00485 23.0004 6.99327 23.0002 6.98168V6C23.0002 4.34315 21.657 3 20.0002 3L4.00015 3ZM21.0002 6.43381V6C21.0002 5.44772 20.5524 5 20.0002 5L4.00015 5C3.44787 5 3.00015 5.44772 3.00015 6V6.43381L12.0002 11.8338L21.0002 6.43381ZM3.00015 8.76619L3.00015 18C3.00015 18.5523 3.44787 19 4.00015 19H20.0002C20.5524 19 21.0002 18.5523 21.0002 18L21.0002 8.76619L12.5146 13.8575C12.198 14.0475 11.8023 14.0475 11.4857 13.8575L3.00015 8.76619Z" fill="#151515"/>
</svg>
