<svg width="24" height="24" viewBox="0 0 24 24" fill="none" xmlns="http://www.w3.org/2000/svg">
<path fill-rule="evenodd" clip-rule="evenodd" d="M22.9463 1.67552C22.8591 1.42132 22.6724 1.21336 22.4326 1.09818C22.3362 1.05185 22.2312 1.02053 22.1206 1.00725C21.951 0.986588 21.7755 1.00907 21.6119 1.07823C21.5509 1.10393 21.493 1.1355 21.439 1.17222L15.9283 4.84603L8.46183 1.11281C8.35717 1.05824 8.24165 1.02164 8.11936 1.0071C8.04378 0.998036 7.96753 0.997642 7.89212 1.00583C7.72539 1.02373 7.57093 1.08261 7.43901 1.1722L1.45963 5.15845C1.43057 5.17715 1.40255 5.19732 1.37566 5.21884C1.16476 5.38766 1.02372 5.64011 1.00281 5.92593C1.00057 5.95574 0.999667 5.98568 1.00011 6.01566L1.00011 21.9863C0.998567 22.0919 1.01372 22.1984 1.0464 22.3016C1.12704 22.5568 1.3073 22.7678 1.54154 22.8888C1.653 22.9465 1.77668 22.9837 1.90767 22.9957C2.04774 23.0088 2.19114 22.9926 2.32802 22.9449C2.41263 22.9156 2.49208 22.8752 2.56464 22.8255L8.07195 19.1539L15.5364 22.8862C15.6527 22.9471 15.7824 22.9859 15.92 22.9968C15.9691 23.0007 16.0183 23.001 16.0673 22.9977C16.2509 22.9855 16.421 22.9238 16.5642 22.8257L22.5385 18.8429C22.5752 18.8194 22.6104 18.7935 22.6437 18.7655C22.7378 18.6866 22.8142 18.5931 22.8718 18.4905C22.9426 18.365 22.987 18.2227 22.9976 18.071C22.9997 18.0422 23.0005 18.0134 23.0001 17.9845L23.0001 2.01366C23.0018 1.9002 22.9842 1.78577 22.9463 1.67552ZM21.0001 17.4648L21.0001 3.8685L17.0001 6.53517L17.0001 20.1315L21.0001 17.4648ZM15.0001 20.382L15.0001 6.61802L9.00011 3.61802L9.00011 17.382L15.0001 20.382ZM7.00011 17.4648L7.00011 3.8685L3.00011 6.53516L3.00011 20.1315L7.00011 17.4648Z" fill="#151515"/>
</svg>
