<svg width="40" height="40" viewBox="0 0 40 40" fill="none" xmlns="http://www.w3.org/2000/svg">
<path fill-rule="evenodd" clip-rule="evenodd" d="M25.0739 28.4272H14.9268V10.2789H25.0739V28.4272Z" fill="#F36523"/>
<path fill-rule="evenodd" clip-rule="evenodd" d="M38.7499 19.2979C38.7599 21.461 38.1549 23.583 37.0046 25.42C35.8542 27.257 34.2052 28.7346 32.2469 29.6829C30.2886 30.6312 28.1005 31.0118 25.9341 30.7809C23.7677 30.55 21.7109 29.717 20 28.3776C21.3799 27.2937 22.4948 25.9138 23.2613 24.3414C24.0278 22.769 24.4259 21.0448 24.4259 19.2979C24.4259 17.5511 24.0278 15.8269 23.2613 14.2544C22.4948 12.682 21.3799 11.3022 20 10.2183C21.711 8.87915 23.7678 8.04638 25.9341 7.81562C28.1004 7.58486 30.2883 7.96548 32.2465 8.91373C34.2047 9.86199 35.8537 11.3394 37.0041 13.1763C38.1545 15.0132 38.7596 17.135 38.7499 19.2979Z" fill="#FA9F1B"/>
<path fill-rule="evenodd" clip-rule="evenodd" d="M15.5737 19.2987C15.5713 17.5514 15.9684 15.8263 16.7352 14.2535C17.5019 12.6807 18.6182 11.3012 20 10.219C18.2891 8.8796 16.2323 8.0466 14.0659 7.81569C11.8995 7.58479 9.71147 7.96536 7.75318 8.91366C5.79488 9.86197 4.14581 11.3395 2.99546 13.1766C1.84511 15.0136 1.24016 17.1356 1.25012 19.2987C1.24016 21.4617 1.84511 23.5837 2.99546 25.4208C4.14581 27.2578 5.79488 28.7354 7.75318 29.6837C9.71147 30.632 11.8995 31.0125 14.0659 30.7816C16.2323 30.5507 18.2891 29.7177 20 28.3783C18.6182 27.2961 17.5019 25.9166 16.7352 24.3438C15.9684 22.771 15.5713 21.046 15.5737 19.2987Z" fill="#E71B26"/>
</svg>
