<svg width="40" height="40" viewBox="0 0 40 40" fill="none" xmlns="http://www.w3.org/2000/svg">
<path fill-rule="evenodd" clip-rule="evenodd" d="M22.2707 16.0567L19.744 20.9091H19.4867V15.0019H15.8967V25.0004H18.944C19.3286 25.0047 19.7067 24.9081 20.0358 24.7215C20.3648 24.5348 20.6316 24.2656 20.806 23.9443L23.3333 19.0913H23.5893V25.0004H27.18V15.0019H24.1333C23.7487 14.9975 23.3704 15.0941 23.0412 15.2808C22.712 15.4674 22.4451 15.7366 22.2707 16.058V16.0567ZM8.79999 16.3142L7.30733 20.9098H7.05133L5.556 16.3142C5.41968 15.927 5.15485 15.5908 4.80019 15.3547C4.44552 15.1186 4.01961 14.995 3.58466 15.0019H0V25.0004H3.58866V19.0907H3.846L5.89733 25.0004H8.46133L10.5127 19.0913H10.7687V25.0004H14.3587V15.0019H10.7733C10.338 14.9946 9.91168 15.118 9.55661 15.3541C9.20154 15.5902 8.93641 15.9267 8.79999 16.3142ZM28.7153 19.545V25.0004H32.298V21.8184H36.1513C36.9299 21.8289 37.6934 21.6171 38.3404 21.2111C38.9875 20.8051 39.4875 20.2242 39.774 19.5456H28.718L28.7153 19.545Z" fill="#3BA634"/>
<path fill-rule="evenodd" clip-rule="evenodd" d="M36.1544 15.0013H28.2051C28.4823 16.179 29.1864 17.2302 30.1974 17.976C31.2085 18.7219 32.4641 19.1162 33.7504 19.0919H39.9237C39.9747 18.8674 40.0004 18.6385 40.0004 18.4089C39.9715 17.4793 39.5503 16.5984 38.8292 15.9595C38.1082 15.3207 37.1462 14.9761 36.1544 15.0013Z" fill="#009BDB"/>
</svg>
