<svg width="24" height="24" viewBox="0 0 24 24" fill="none" xmlns="http://www.w3.org/2000/svg">
<path fill-rule="evenodd" clip-rule="evenodd" d="M12.3598 2.23178C12.5395 2.08202 12.7661 2 13 2L14 2C14.5523 2 15 2.44772 15 3L15 21C15 21.5523 14.5523 22 14 22H13C12.7661 22 12.5395 21.918 12.3598 21.7682L6.63795 17L2 17C1.44772 17 1 16.5523 1 16L1 8C1 7.44772 1.44772 7 2 7L6.63795 7L12.3598 2.23178ZM13 4.30171L7.64018 8.76822C7.46047 8.91798 7.23394 9 7 9H3L3 15L7 15C7.23394 15 7.46047 15.082 7.64018 15.2318L13 19.6983L13 4.30171ZM20 13.4142L18.7071 14.7071L18 15.4142L16.5858 14L17.2929 13.2929L18.5858 12L17.2929 10.7071L16.5858 10L18 8.58579L18.7071 9.29289L20 10.5858L21.2929 9.29289L22 8.58579L23.4142 10L22.7071 10.7071L21.4142 12L22.7071 13.2929L23.4142 14L22 15.4142L21.2929 14.7071L20 13.4142Z" fill="#151515"/>
</svg>
