<svg width="329" height="141" viewBox="0 0 329 141" fill="none" xmlns="http://www.w3.org/2000/svg">
<mask id="path-1-inside-1" fill="white">
<path d="M59 1C55.2422 1 51.5687 2.11433 48.4442 4.20208C45.3196 6.28982 42.8844 9.25722 41.4463 12.729C40.0082 16.2008 39.632 20.0211 40.3651 23.7067C41.0982 27.3924 42.9078 30.7778 45.565 33.435C48.2222 36.0922 51.6077 37.9018 55.2933 38.6349C58.9789 39.368 62.7992 38.9918 66.271 37.5537C69.7428 36.1156 72.7102 33.6804 74.7979 30.5558C76.8857 27.4313 78 23.7578 78 20C78 14.9609 75.9982 10.1282 72.435 6.56497C68.8718 3.00178 64.0391 1 59 1V1ZM59 27.98C57.4578 27.9549 55.9572 27.4763 54.6853 26.6038C53.4134 25.7313 52.4266 24.5037 51.848 23.0739C51.2693 21.6442 51.1245 20.0758 51.4316 18.5643C51.7386 17.0528 52.4839 15.6652 53.5746 14.5746C54.6652 13.4839 56.0528 12.7386 57.5643 12.4316C59.0758 12.1245 60.6442 12.2693 62.074 12.848C63.5037 13.4266 64.7313 14.4134 65.6038 15.6853C66.4763 16.9572 66.9549 18.4578 66.98 20C66.9971 21.0527 66.8024 22.098 66.4074 23.0739C66.0125 24.0499 65.4253 24.9364 64.6809 25.6808C63.9364 26.4253 63.0499 27.0125 62.074 27.4074C61.098 27.8024 60.0527 27.9971 59 27.98Z"/>
</mask>
<path d="M59 1H60V0H59V1ZM78 20H79H78ZM59 1H58V2H59V1ZM66.98 20L65.9801 20.0163L66.98 20ZM59 0C55.0444 0 51.1776 1.17298 47.8886 3.37061L48.9997 5.03355C51.9598 3.05568 55.4399 2 59 2V0ZM47.8886 3.37061C44.5996 5.56824 42.0362 8.69181 40.5224 12.3463L42.3702 13.1117C43.7326 9.82263 46.0397 7.01141 48.9997 5.03355L47.8886 3.37061ZM40.5224 12.3463C39.0087 16.0009 38.6126 20.0222 39.3843 23.9018L41.3459 23.5116C40.6513 20.02 41.0078 16.4008 42.3702 13.1117L40.5224 12.3463ZM39.3843 23.9018C40.156 27.7814 42.0608 31.3451 44.8579 34.1421L46.2721 32.7279C43.7547 30.2106 42.0404 27.0033 41.3459 23.5116L39.3843 23.9018ZM44.8579 34.1421C47.6549 36.9392 51.2186 38.844 55.0982 39.6157L55.4884 37.6541C51.9967 36.9596 48.7894 35.2453 46.2721 32.7279L44.8579 34.1421ZM55.0982 39.6157C58.9778 40.3874 62.9992 39.9913 66.6537 38.4776L65.8883 36.6298C62.5992 37.9922 58.98 38.3487 55.4884 37.6541L55.0982 39.6157ZM66.6537 38.4776C70.3082 36.9638 73.4318 34.4004 75.6294 31.1114L73.9665 30.0003C71.9886 32.9603 69.1774 35.2674 65.8883 36.6298L66.6537 38.4776ZM75.6294 31.1114C77.827 27.8224 79 23.9556 79 20H77C77 23.5601 75.9443 27.0402 73.9665 30.0003L75.6294 31.1114ZM79 20C79 14.6957 76.8929 9.60859 73.1421 5.85786L71.7279 7.27208C75.1036 10.6477 77 15.2261 77 20H79ZM73.1421 5.85786C69.3914 2.10714 64.3043 0 59 0V2C63.7739 2 68.3523 3.89642 71.7279 7.27208L73.1421 5.85786ZM60 1V1H58V1H60ZM59.0163 26.9801C57.6705 26.9582 56.3609 26.5406 55.251 25.7792L54.1196 27.4284C55.5535 28.412 57.2452 28.9516 58.9837 28.9799L59.0163 26.9801ZM55.251 25.7792C54.1411 25.0178 53.2799 23.9465 52.7749 22.6988L50.921 23.4491C51.5733 25.0609 52.6858 26.4449 54.1196 27.4284L55.251 25.7792ZM52.7749 22.6988C52.27 21.4511 52.1436 20.0824 52.4116 18.7634L50.4516 18.3652C50.1054 20.0692 50.2687 21.8373 50.921 23.4491L52.7749 22.6988ZM52.4116 18.7634C52.6795 17.4443 53.3299 16.2334 54.2817 15.2817L52.8675 13.8675C51.638 15.0969 50.7977 16.6613 50.4516 18.3652L52.4116 18.7634ZM54.2817 15.2817C55.2334 14.3299 56.4443 13.6795 57.7634 13.4115L57.3652 11.4516C55.6613 11.7977 54.097 12.638 52.8675 13.8675L54.2817 15.2817ZM57.7634 13.4115C59.0824 13.1436 60.4511 13.27 61.6988 13.7749L62.4491 11.921C60.8374 11.2687 59.0692 11.1054 57.3652 11.4516L57.7634 13.4115ZM61.6988 13.7749C62.9465 14.2799 64.0178 15.1411 64.7792 16.251L66.4284 15.1196C65.4449 13.6858 64.0609 12.5733 62.4491 11.921L61.6988 13.7749ZM64.7792 16.251C65.5406 17.3609 65.9583 18.6705 65.9801 20.0163L67.9799 19.9837C67.9516 18.2452 67.412 16.5535 66.4284 15.1196L64.7792 16.251ZM65.9801 20.0163C65.9951 20.9349 65.8252 21.8471 65.4805 22.6988L67.3344 23.4491C67.7797 22.3489 67.9992 21.1704 67.9799 19.9837L65.9801 20.0163ZM65.4805 22.6988C65.1358 23.5504 64.6234 24.3241 63.9737 24.9737L65.388 26.388C66.2272 25.5487 66.8891 24.5493 67.3344 23.4491L65.4805 22.6988ZM63.9737 24.9737C63.3241 25.6234 62.5504 26.1358 61.6988 26.4805L62.4491 28.3344C63.5493 27.8891 64.5487 27.2272 65.388 26.388L63.9737 24.9737ZM61.6988 26.4805C60.8472 26.8251 59.9349 26.9951 59.0163 26.9801L58.9837 28.9799C60.1705 28.9992 61.3489 28.7797 62.4491 28.3344L61.6988 26.4805Z" fill="#D1D8E1" mask="url(#path-1-inside-1)"/>
<mask id="path-3-inside-2" fill="white">
<path d="M59 102C55.2422 102 51.5687 103.114 48.4442 105.202C45.3196 107.29 42.8844 110.257 41.4463 113.729C40.0082 117.201 39.632 121.021 40.3651 124.707C41.0982 128.392 42.9078 131.778 45.565 134.435C48.2222 137.092 51.6077 138.902 55.2933 139.635C58.9789 140.368 62.7992 139.992 66.271 138.554C69.7428 137.116 72.7102 134.68 74.7979 131.556C76.8857 128.431 78 124.758 78 121C78 115.961 75.9982 111.128 72.435 107.565C68.8718 104.002 64.0391 102 59 102V102ZM59 128.98C57.4578 128.955 55.9572 128.476 54.6853 127.604C53.4134 126.731 52.4266 125.504 51.848 124.074C51.2693 122.644 51.1245 121.076 51.4316 119.564C51.7386 118.053 52.4839 116.665 53.5746 115.575C54.6652 114.484 56.0528 113.739 57.5643 113.432C59.0758 113.125 60.6442 113.269 62.074 113.848C63.5037 114.427 64.7313 115.413 65.6038 116.685C66.4763 117.957 66.9549 119.458 66.98 121C66.9971 122.053 66.8024 123.098 66.4074 124.074C66.0125 125.05 65.4253 125.936 64.6809 126.681C63.9364 127.425 63.0499 128.012 62.074 128.407C61.098 128.802 60.0527 128.997 59 128.98Z"/>
</mask>
<path d="M59 102H60V101H59V102ZM78 121H79H78ZM59 102H58V103H59V102ZM66.98 121L65.9801 121.016L66.98 121ZM59 101C55.0444 101 51.1776 102.173 47.8886 104.371L48.9997 106.034C51.9598 104.056 55.4399 103 59 103V101ZM47.8886 104.371C44.5996 106.568 42.0362 109.692 40.5224 113.346L42.3702 114.112C43.7326 110.823 46.0397 108.011 48.9997 106.034L47.8886 104.371ZM40.5224 113.346C39.0087 117.001 38.6126 121.022 39.3843 124.902L41.3459 124.512C40.6513 121.02 41.0078 117.401 42.3702 114.112L40.5224 113.346ZM39.3843 124.902C40.156 128.781 42.0608 132.345 44.8579 135.142L46.2721 133.728C43.7547 131.211 42.0404 128.003 41.3459 124.512L39.3843 124.902ZM44.8579 135.142C47.6549 137.939 51.2186 139.844 55.0982 140.616L55.4884 138.654C51.9967 137.96 48.7894 136.245 46.2721 133.728L44.8579 135.142ZM55.0982 140.616C58.9778 141.387 62.9992 140.991 66.6537 139.478L65.8883 137.63C62.5992 138.992 58.98 139.349 55.4884 138.654L55.0982 140.616ZM66.6537 139.478C70.3082 137.964 73.4318 135.4 75.6294 132.111L73.9665 131C71.9886 133.96 69.1774 136.267 65.8883 137.63L66.6537 139.478ZM75.6294 132.111C77.827 128.822 79 124.956 79 121H77C77 124.56 75.9443 128.04 73.9665 131L75.6294 132.111ZM79 121C79 115.696 76.8929 110.609 73.1421 106.858L71.7279 108.272C75.1036 111.648 77 116.226 77 121H79ZM73.1421 106.858C69.3914 103.107 64.3043 101 59 101V103C63.7739 103 68.3523 104.896 71.7279 108.272L73.1421 106.858ZM60 102V102H58V102H60ZM59.0163 127.98C57.6705 127.958 56.3609 127.541 55.251 126.779L54.1196 128.428C55.5535 129.412 57.2452 129.952 58.9837 129.98L59.0163 127.98ZM55.251 126.779C54.1411 126.018 53.2799 124.946 52.7749 123.699L50.921 124.449C51.5733 126.061 52.6858 127.445 54.1196 128.428L55.251 126.779ZM52.7749 123.699C52.27 122.451 52.1436 121.082 52.4116 119.763L50.4516 119.365C50.1054 121.069 50.2687 122.837 50.921 124.449L52.7749 123.699ZM52.4116 119.763C52.6795 118.444 53.3299 117.233 54.2817 116.282L52.8675 114.867C51.638 116.097 50.7977 117.661 50.4516 119.365L52.4116 119.763ZM54.2817 116.282C55.2334 115.33 56.4443 114.679 57.7634 114.412L57.3652 112.452C55.6613 112.798 54.097 113.638 52.8675 114.867L54.2817 116.282ZM57.7634 114.412C59.0824 114.144 60.4511 114.27 61.6988 114.775L62.4491 112.921C60.8374 112.269 59.0692 112.105 57.3652 112.452L57.7634 114.412ZM61.6988 114.775C62.9465 115.28 64.0178 116.141 64.7792 117.251L66.4284 116.12C65.4449 114.686 64.0609 113.573 62.4491 112.921L61.6988 114.775ZM64.7792 117.251C65.5406 118.361 65.9583 119.67 65.9801 121.016L67.9799 120.984C67.9516 119.245 67.412 117.553 66.4284 116.12L64.7792 117.251ZM65.9801 121.016C65.9951 121.935 65.8252 122.847 65.4805 123.699L67.3344 124.449C67.7797 123.349 67.9992 122.17 67.9799 120.984L65.9801 121.016ZM65.4805 123.699C65.1358 124.55 64.6234 125.324 63.9737 125.974L65.388 127.388C66.2272 126.549 66.8891 125.549 67.3344 124.449L65.4805 123.699ZM63.9737 125.974C63.3241 126.623 62.5504 127.136 61.6988 127.48L62.4491 129.334C63.5493 128.889 64.5487 128.227 65.388 127.388L63.9737 125.974ZM61.6988 127.48C60.8472 127.825 59.9349 127.995 59.0163 127.98L58.9837 129.98C60.1705 129.999 61.3489 129.78 62.4491 129.334L61.6988 127.48Z" fill="#D1D8E1" mask="url(#path-3-inside-2)"/>
<mask id="path-5-inside-3" fill="white">
<path d="M20 39C16.2422 39 12.5687 40.1143 9.44417 42.2021C6.31964 44.2898 3.88436 47.2572 2.4463 50.729C1.00823 54.2008 0.631969 58.0211 1.36509 61.7067C2.09821 65.3924 3.90778 68.7778 6.56498 71.435C9.22218 74.0922 12.6077 75.9018 16.2933 76.6349C19.9789 77.368 23.7992 76.9918 27.271 75.5537C30.7428 74.1156 33.7102 71.6804 35.7979 68.5558C37.8857 65.4313 39 61.7578 39 58C39 52.9609 36.9982 48.1282 33.435 44.565C29.8718 41.0018 25.0391 39 20 39V39ZM20 65.98C18.4578 65.9549 16.9572 65.4763 15.6853 64.6038C14.4134 63.7313 13.4266 62.5037 12.848 61.0739C12.2693 59.6442 12.1245 58.0758 12.4316 56.5643C12.7386 55.0528 13.4839 53.6652 14.5746 52.5746C15.6652 51.4839 17.0528 50.7386 18.5643 50.4316C20.0758 50.1245 21.6442 50.2693 23.074 50.848C24.5037 51.4266 25.7313 52.4134 26.6038 53.6853C27.4763 54.9572 27.9549 56.4578 27.98 58C27.9971 59.0527 27.8024 60.098 27.4074 61.0739C27.0125 62.0499 26.4253 62.9364 25.6809 63.6808C24.9364 64.4253 24.0499 65.0125 23.074 65.4074C22.098 65.8024 21.0527 65.9971 20 65.98Z"/>
</mask>
<path d="M20 39H21V38H20V39ZM39 58H40H39ZM20 39H19V40H20V39ZM27.98 58L26.9801 58.0163L27.98 58ZM20 38C16.0444 38 12.1776 39.173 8.8886 41.3706L9.99974 43.0335C12.9598 41.0557 16.4399 40 20 40V38ZM8.8886 41.3706C5.59962 43.5682 3.03617 46.6918 1.52242 50.3463L3.37018 51.1117C4.73255 47.8226 7.03966 45.0114 9.99974 43.0335L8.8886 41.3706ZM1.52242 50.3463C0.00866526 54.0009 -0.387401 58.0222 0.384303 61.9018L2.34587 61.5116C1.65134 58.02 2.0078 54.4008 3.37018 51.1117L1.52242 50.3463ZM0.384303 61.9018C1.15601 65.7814 3.06082 69.3451 5.85787 72.1421L7.27209 70.7279C4.75474 68.2106 3.04041 65.0033 2.34587 61.5116L0.384303 61.9018ZM5.85787 72.1421C8.65492 74.9392 12.2186 76.844 16.0982 77.6157L16.4884 75.6541C12.9967 74.9596 9.78943 73.2453 7.27209 70.7279L5.85787 72.1421ZM16.0982 77.6157C19.9778 78.3874 23.9992 77.9913 27.6537 76.4776L26.8883 74.6298C23.5992 75.9922 19.98 76.3487 16.4884 75.6541L16.0982 77.6157ZM27.6537 76.4776C31.3082 74.9638 34.4318 72.4004 36.6294 69.1114L34.9665 68.0003C32.9886 70.9603 30.1774 73.2674 26.8883 74.6298L27.6537 76.4776ZM36.6294 69.1114C38.827 65.8224 40 61.9556 40 58H38C38 61.5601 36.9443 65.0402 34.9665 68.0003L36.6294 69.1114ZM40 58C40 52.6957 37.8929 47.6086 34.1421 43.8579L32.7279 45.2721C36.1036 48.6477 38 53.2261 38 58H40ZM34.1421 43.8579C30.3914 40.1071 25.3043 38 20 38V40C24.7739 40 29.3523 41.8964 32.7279 45.2721L34.1421 43.8579ZM21 39V39H19V39H21ZM20.0163 64.9801C18.6705 64.9582 17.3609 64.5406 16.251 63.7792L15.1196 65.4284C16.5535 66.412 18.2452 66.9516 19.9837 66.9799L20.0163 64.9801ZM16.251 63.7792C15.1411 63.0178 14.2799 61.9465 13.7749 60.6988L11.921 61.4491C12.5733 63.0609 13.6858 64.4449 15.1196 65.4284L16.251 63.7792ZM13.7749 60.6988C13.27 59.4511 13.1436 58.0824 13.4116 56.7634L11.4516 56.3652C11.1054 58.0692 11.2687 59.8373 11.921 61.4491L13.7749 60.6988ZM13.4116 56.7634C13.6795 55.4443 14.3299 54.2334 15.2817 53.2817L13.8675 51.8675C12.638 53.0969 11.7977 54.6613 11.4516 56.3652L13.4116 56.7634ZM15.2817 53.2817C16.2334 52.3299 17.4443 51.6795 18.7634 51.4115L18.3652 49.4516C16.6613 49.7977 15.097 50.638 13.8675 51.8675L15.2817 53.2817ZM18.7634 51.4115C20.0824 51.1436 21.4511 51.27 22.6988 51.7749L23.4491 49.921C21.8374 49.2687 20.0692 49.1054 18.3652 49.4516L18.7634 51.4115ZM22.6988 51.7749C23.9465 52.2799 25.0178 53.1411 25.7792 54.251L27.4284 53.1196C26.4449 51.6858 25.0609 50.5733 23.4491 49.921L22.6988 51.7749ZM25.7792 54.251C26.5406 55.3609 26.9583 56.6705 26.9801 58.0163L28.9799 57.9837C28.9516 56.2452 28.412 54.5535 27.4284 53.1196L25.7792 54.251ZM26.9801 58.0163C26.9951 58.9349 26.8252 59.8471 26.4805 60.6988L28.3344 61.4491C28.7797 60.3489 28.9992 59.1704 28.9799 57.9837L26.9801 58.0163ZM26.4805 60.6988C26.1358 61.5504 25.6234 62.3241 24.9737 62.9737L26.388 64.388C27.2272 63.5487 27.8891 62.5493 28.3344 61.4491L26.4805 60.6988ZM24.9737 62.9737C24.3241 63.6234 23.5504 64.1358 22.6988 64.4805L23.4491 66.3344C24.5493 65.8891 25.5487 65.2272 26.388 64.388L24.9737 62.9737ZM22.6988 64.4805C21.8472 64.8251 20.9349 64.9951 20.0163 64.9801L19.9837 66.9799C21.1705 66.9992 22.3489 66.7797 23.4491 66.3344L22.6988 64.4805Z" fill="#D1D8E1" mask="url(#path-5-inside-3)"/>
<mask id="path-7-inside-4" fill="white">
<path d="M309 39C305.242 39 301.569 40.1143 298.444 42.2021C295.32 44.2898 292.884 47.2572 291.446 50.729C290.008 54.2008 289.632 58.0211 290.365 61.7067C291.098 65.3924 292.908 68.7778 295.565 71.435C298.222 74.0922 301.608 75.9018 305.293 76.6349C308.979 77.368 312.799 76.9918 316.271 75.5537C319.743 74.1156 322.71 71.6804 324.798 68.5558C326.886 65.4313 328 61.7578 328 58C328 52.9609 325.998 48.1282 322.435 44.565C318.872 41.0018 314.039 39 309 39V39ZM309 65.98C307.458 65.9549 305.957 65.4763 304.685 64.6038C303.413 63.7313 302.427 62.5037 301.848 61.0739C301.269 59.6442 301.125 58.0758 301.432 56.5643C301.739 55.0528 302.484 53.6652 303.575 52.5746C304.665 51.4839 306.053 50.7386 307.564 50.4316C309.076 50.1245 310.644 50.2693 312.074 50.848C313.504 51.4266 314.731 52.4134 315.604 53.6853C316.476 54.9572 316.955 56.4578 316.98 58C316.997 59.0527 316.802 60.098 316.407 61.0739C316.012 62.0499 315.425 62.9364 314.681 63.6808C313.936 64.4253 313.05 65.0125 312.074 65.4074C311.098 65.8024 310.053 65.9971 309 65.98Z"/>
</mask>
<path d="M309 39H310V38H309V39ZM328 58H329H328ZM309 39H308V40H309V39ZM316.98 58L315.98 58.0163L316.98 58ZM309 38C305.044 38 301.178 39.173 297.889 41.3706L299 43.0335C301.96 41.0557 305.44 40 309 40V38ZM297.889 41.3706C294.6 43.5682 292.036 46.6918 290.522 50.3463L292.37 51.1117C293.733 47.8226 296.04 45.0114 299 43.0335L297.889 41.3706ZM290.522 50.3463C289.009 54.0009 288.613 58.0222 289.384 61.9018L291.346 61.5116C290.651 58.02 291.008 54.4008 292.37 51.1117L290.522 50.3463ZM289.384 61.9018C290.156 65.7814 292.061 69.3451 294.858 72.1421L296.272 70.7279C293.755 68.2106 292.04 65.0033 291.346 61.5116L289.384 61.9018ZM294.858 72.1421C297.655 74.9392 301.219 76.844 305.098 77.6157L305.488 75.6541C301.997 74.9596 298.789 73.2453 296.272 70.7279L294.858 72.1421ZM305.098 77.6157C308.978 78.3874 312.999 77.9913 316.654 76.4776L315.888 74.6298C312.599 75.9922 308.98 76.3487 305.488 75.6541L305.098 77.6157ZM316.654 76.4776C320.308 74.9638 323.432 72.4004 325.629 69.1114L323.966 68.0003C321.989 70.9603 319.177 73.2674 315.888 74.6298L316.654 76.4776ZM325.629 69.1114C327.827 65.8224 329 61.9556 329 58H327C327 61.5601 325.944 65.0402 323.966 68.0003L325.629 69.1114ZM329 58C329 52.6957 326.893 47.6086 323.142 43.8579L321.728 45.2721C325.104 48.6477 327 53.2261 327 58H329ZM323.142 43.8579C319.391 40.1071 314.304 38 309 38V40C313.774 40 318.352 41.8964 321.728 45.2721L323.142 43.8579ZM310 39V39H308V39H310ZM309.016 64.9801C307.67 64.9582 306.361 64.5406 305.251 63.7792L304.12 65.4284C305.553 66.412 307.245 66.9516 308.984 66.9799L309.016 64.9801ZM305.251 63.7792C304.141 63.0178 303.28 61.9465 302.775 60.6988L300.921 61.4491C301.573 63.0609 302.686 64.4449 304.12 65.4284L305.251 63.7792ZM302.775 60.6988C302.27 59.4511 302.144 58.0824 302.412 56.7634L300.452 56.3652C300.105 58.0692 300.269 59.8373 300.921 61.4491L302.775 60.6988ZM302.412 56.7634C302.68 55.4443 303.33 54.2334 304.282 53.2817L302.867 51.8675C301.638 53.0969 300.798 54.6613 300.452 56.3652L302.412 56.7634ZM304.282 53.2817C305.233 52.3299 306.444 51.6795 307.763 51.4115L307.365 49.4516C305.661 49.7977 304.097 50.638 302.867 51.8675L304.282 53.2817ZM307.763 51.4115C309.082 51.1436 310.451 51.27 311.699 51.7749L312.449 49.921C310.837 49.2687 309.069 49.1054 307.365 49.4516L307.763 51.4115ZM311.699 51.7749C312.946 52.2799 314.018 53.1411 314.779 54.251L316.428 53.1196C315.445 51.6858 314.061 50.5733 312.449 49.921L311.699 51.7749ZM314.779 54.251C315.541 55.3609 315.958 56.6705 315.98 58.0163L317.98 57.9837C317.952 56.2452 317.412 54.5535 316.428 53.1196L314.779 54.251ZM315.98 58.0163C315.995 58.9349 315.825 59.8471 315.48 60.6988L317.334 61.4491C317.78 60.3489 317.999 59.1704 317.98 57.9837L315.98 58.0163ZM315.48 60.6988C315.136 61.5504 314.623 62.3241 313.974 62.9737L315.388 64.388C316.227 63.5487 316.889 62.5493 317.334 61.4491L315.48 60.6988ZM313.974 62.9737C313.324 63.6234 312.55 64.1358 311.699 64.4805L312.449 66.3344C313.549 65.8891 314.549 65.2272 315.388 64.388L313.974 62.9737ZM311.699 64.4805C310.847 64.8251 309.935 64.9951 309.016 64.9801L308.984 66.9799C310.17 66.9992 311.349 66.7797 312.449 66.3344L311.699 64.4805Z" fill="#D1D8E1" mask="url(#path-7-inside-4)"/>
<rect x="0.5" y="0.5" width="328" height="140" stroke="#D1D8E1"/>
<g clip-path="url(#clip0)">
<path d="M113.417 40.0176C117.589 39.9483 121.735 40.6946 125.613 42.2133C129.491 43.7321 133.026 45.9932 136.011 48.8659C138.894 51.638 141.2 54.9366 142.802 58.5775C144.452 62.3432 145.284 66.4075 145.243 70.5089C145.287 74.6106 144.456 78.6757 142.802 82.4403C141.202 86.0953 138.885 89.4036 135.986 92.1757C133.086 94.9478 129.66 97.1293 125.903 98.5954C121.942 100.235 117.681 101.054 113.385 101H89.7266V40.0176H113.417ZM121.365 88.0206C123.637 87.1106 125.685 85.7337 127.374 83.9818C129.044 82.1867 130.35 80.0939 131.223 77.8157C132.163 75.46 132.63 72.9473 132.6 70.4164C132.63 67.8655 132.163 65.3326 131.223 62.9555C130.34 60.7286 129.033 58.6882 127.374 56.9435C125.664 55.2162 123.621 53.843 121.365 52.9047C118.844 51.8776 116.145 51.3436 113.417 51.3324H102.37V89.5621H113.417C116.148 89.6242 118.861 89.0981 121.365 88.0206Z" fill="#231F20"/>
<path d="M58.7768 40C55.0631 40 51.4328 41.0849 48.345 43.1175C45.2571 45.1501 42.8505 48.0392 41.4293 51.4193C40.0081 54.7994 39.6363 58.5188 40.3608 62.1071C41.0853 65.6954 42.8736 68.9915 45.4996 71.5785C48.1256 74.1655 51.4713 75.9273 55.1136 76.6411C58.7559 77.3548 62.5313 76.9885 65.9623 75.5884C69.3933 74.1883 72.3259 71.8174 74.3891 68.7753C76.4523 65.7333 77.5535 62.1569 77.5535 58.4983C77.5535 53.5922 75.5753 48.8871 72.0539 45.418C68.5326 41.9489 63.7567 40 58.7768 40V40ZM58.7768 66.2675C57.2527 66.2431 55.7697 65.7771 54.5128 64.9277C53.2558 64.0783 52.2806 62.883 51.7088 61.491C51.1369 60.0991 50.9938 58.572 51.2973 57.1005C51.6007 55.6289 52.3373 54.2779 53.4151 53.2161C54.4929 52.1543 55.8642 51.4286 57.3579 51.1297C58.8517 50.8307 60.4017 50.9717 61.8146 51.5351C63.2275 52.0985 64.4408 53.0592 65.303 54.2975C66.1652 55.5358 66.6382 56.9968 66.663 58.4983C66.6799 59.5231 66.4875 60.5409 66.0972 61.491C65.7068 62.4412 65.1266 63.3043 64.3909 64.0291C63.6552 64.7539 62.779 65.3255 61.8146 65.7101C60.8502 66.0946 59.8171 66.2842 58.7768 66.2675Z" fill="#231F20"/>
<path d="M169.277 46.0293V60.9512H166.836V43.8403H170.936L175.379 58.1148L179.823 43.8403H183.923V60.9512H181.451V46.0293L176.662 60.9512H174.065L169.277 46.0293Z" fill="#231F20"/>
<path d="M187.43 52.3804C187.307 51.2533 187.426 50.1133 187.78 49.0346C188.133 47.9559 188.713 46.9626 189.482 46.1193C190.251 45.276 191.192 44.6016 192.243 44.14C193.294 43.6783 194.431 43.4397 195.582 43.4397C196.733 43.4397 197.87 43.6783 198.921 44.14C199.972 44.6016 200.913 45.276 201.682 46.1193C202.451 46.9626 203.031 47.9559 203.384 49.0346C203.738 50.1133 203.857 51.2533 203.734 52.3804C203.857 53.5075 203.738 54.6474 203.384 55.7261C203.031 56.8048 202.451 57.7981 201.682 58.6414C200.913 59.4847 199.972 60.1591 198.921 60.6208C197.87 61.0825 196.733 61.3211 195.582 61.3211C194.431 61.3211 193.294 61.0825 192.243 60.6208C191.192 60.1591 190.251 59.4847 189.482 58.6414C188.713 57.7981 188.133 56.8048 187.78 55.7261C187.426 54.6474 187.307 53.5075 187.43 52.3804ZM201.262 52.3804C201.262 47.9716 198.758 45.5669 195.598 45.5669C192.437 45.5669 189.933 47.9716 189.933 52.3804C189.933 56.7891 192.437 59.2556 195.598 59.2556C198.758 59.2556 201.262 56.82 201.262 52.3804Z" fill="#231F20"/>
<path d="M209.71 60.9509H207.27V43.84H209.71V57.4979L219.099 43.9017H221.509V60.9509H219.068V47.3547L209.71 60.9509ZM214.436 42.8843C211.682 42.8843 210.336 41.651 210.086 40.0479H211.932C211.932 40.9419 212.965 41.4352 214.467 41.4352C215.969 41.4352 216.846 40.9111 217.033 40.0479H218.88C218.692 41.651 217.284 42.8843 214.436 42.8843Z" fill="#231F20"/>
<path d="M169.277 77.9696V85.7696H166.836V68.6279H169.277V75.9039H171.029L176.882 68.6279H179.823L173.126 76.7363L180.074 85.7696H177.163L171.092 77.9696H169.277Z" fill="#231F20"/>
<path d="M180.826 77.199C180.703 76.0719 180.823 74.932 181.176 73.8532C181.53 72.7745 182.11 71.7812 182.879 70.9379C183.648 70.0946 184.588 69.4202 185.639 68.9586C186.69 68.4969 187.828 68.2583 188.978 68.2583C190.129 68.2583 191.267 68.4969 192.318 68.9586C193.369 69.4202 194.309 70.0946 195.078 70.9379C195.847 71.7812 196.427 72.7745 196.781 73.8532C197.134 74.932 197.254 76.0719 197.131 77.199C197.254 78.3261 197.134 79.466 196.781 80.5447C196.427 81.6235 195.847 82.6167 195.078 83.46C194.309 84.3033 193.369 84.9778 192.318 85.4394C191.267 85.9011 190.129 86.1397 188.978 86.1397C187.828 86.1397 186.69 85.9011 185.639 85.4394C184.588 84.9778 183.648 84.3033 182.879 83.46C182.11 82.6167 181.53 81.6235 181.176 80.5447C180.823 79.466 180.703 78.3261 180.826 77.199ZM194.627 77.199C194.627 72.7594 192.155 70.3546 188.994 70.3546C185.833 70.3546 183.33 72.7594 183.33 77.199C183.33 81.6386 185.802 84.0434 188.994 84.0434C192.186 84.0434 194.627 81.6078 194.627 77.199Z" fill="#231F20"/>
<path d="M202.982 70.8477V85.7696H200.541V68.6279H204.641L209.084 82.9024L213.497 68.6279H217.597V85.7696H215.156V70.8477L210.368 85.7696H207.77L202.982 70.8477Z" fill="#231F20"/>
<path d="M238.783 77.1991C238.789 78.1812 238.59 79.1541 238.198 80.0571C237.806 80.9602 237.23 81.774 236.505 82.4479C235.779 83.1219 234.921 83.6414 233.983 83.9743C233.045 84.3071 232.048 84.4461 231.053 84.3826V86.3866H228.581V84.3826C226.622 84.3826 224.744 83.616 223.358 82.2515C221.973 80.887 221.195 79.0364 221.195 77.1066C221.195 75.1769 221.973 73.3263 223.358 71.9617C224.744 70.5972 226.622 69.8307 228.581 69.8307V67.7034H231.053V69.8307C232.062 69.7751 233.071 69.9258 234.018 70.2731C234.965 70.6205 235.828 71.1571 236.554 71.8492C237.28 72.5412 237.853 73.3738 238.236 74.2945C238.62 75.2152 238.806 76.2042 238.783 77.1991ZM223.323 77.1991C223.302 77.8879 223.423 78.5737 223.679 79.215C223.935 79.8563 224.32 80.4398 224.812 80.9299C225.303 81.42 225.891 81.8066 226.539 82.0663C227.187 82.3259 227.881 82.4532 228.581 82.4403V71.8346C227.875 71.8168 227.173 71.9428 226.518 72.2046C225.864 72.4664 225.271 72.8585 224.778 73.3562C224.284 73.854 223.901 74.4467 223.65 75.0973C223.4 75.748 223.289 76.4425 223.323 77.1375V77.1991ZM236.279 77.1375C236.309 76.4463 236.196 75.7563 235.946 75.1099C235.695 74.4634 235.314 73.874 234.825 73.3776C234.336 72.8812 233.749 72.4884 233.1 72.2231C232.452 71.9578 231.755 71.8256 231.053 71.8346V82.3786C231.751 82.3917 232.444 82.2643 233.091 82.0044C233.737 81.7444 234.323 81.3573 234.812 80.8667C235.301 80.3761 235.683 79.7923 235.936 79.1511C236.188 78.5099 236.305 77.8247 236.279 77.1375Z" fill="#231F20"/>
<path d="M241.035 77.199C240.912 76.0719 241.032 74.932 241.385 73.8532C241.739 72.7745 242.319 71.7812 243.088 70.9379C243.857 70.0946 244.797 69.4202 245.848 68.9586C246.899 68.4969 248.037 68.2583 249.187 68.2583C250.338 68.2583 251.476 68.4969 252.527 68.9586C253.578 69.4202 254.518 70.0946 255.287 70.9379C256.056 71.7812 256.636 72.7745 256.99 73.8532C257.343 74.932 257.463 76.0719 257.34 77.199C257.463 78.3261 257.343 79.466 256.99 80.5447C256.636 81.6235 256.056 82.6167 255.287 83.46C254.518 84.3033 253.578 84.9778 252.527 85.4394C251.476 85.9011 250.338 86.1397 249.187 86.1397C248.037 86.1397 246.899 85.9011 245.848 85.4394C244.797 84.9778 243.857 84.3033 243.088 83.46C242.319 82.6167 241.739 81.6235 241.385 80.5447C241.032 79.466 240.912 78.3261 241.035 77.199ZM254.867 77.199C254.867 72.7594 252.364 70.3546 249.203 70.3546C246.042 70.3546 243.414 72.9136 243.414 77.199C243.414 81.4844 245.917 84.0434 249.078 84.0434C252.239 84.0434 254.742 81.6078 254.742 77.199" fill="#231F20"/>
<path d="M273.551 73.8074C273.551 78.062 270.578 78.987 266.322 78.987H263.193V85.7696H260.752V68.6279H266.197C270.453 68.6279 273.426 69.5837 273.426 73.8074H273.551ZM263.193 76.8905H266.322C268.857 76.8905 270.86 76.613 270.86 73.8074C270.86 71.0019 268.857 70.7244 266.322 70.7244H263.193V76.8905Z" fill="#231F20"/>
<path d="M273.896 70.7244V68.6279H287.666V70.7244H282.002V85.7696H279.561V70.7244H273.896Z" fill="#231F20"/>
<path d="M288.999 93.25H168.414V101H288.999V93.25Z" fill="url(#paint0_linear)"/>
</g>
<rect x="39.5" y="39.5" width="250" height="62" stroke="#D1D8E1"/>
<defs>
<linearGradient id="paint0_linear" x1="168.775" y1="97.4476" x2="289" y2="97.4476" gradientUnits="userSpaceOnUse">
<stop stop-color="#A0B1FF"/>
<stop offset="1" stop-color="#FFDCD6"/>
</linearGradient>
<clipPath id="clip0">
</clipPath>
</defs>
</svg>
