<svg width="24" height="24" viewBox="0 0 24 24" fill="none" xmlns="http://www.w3.org/2000/svg">
<path fill-rule="evenodd" clip-rule="evenodd" d="M22.7071 1.79292C22.9787 2.06456 23.0708 2.46779 22.9439 2.83038L15.9439 22.8304C15.8007 23.2393 15.4105 23.5096 14.9774 23.4998C14.5442 23.49 14.1667 23.2024 14.0422 22.7874L11.1969 13.3031L1.71265 10.4579C1.29767 10.3334 1.01005 9.95578 1.00026 9.52263C0.990464 9.08948 1.26072 8.6993 1.66965 8.55617L21.6697 1.55617C22.0322 1.42926 22.4355 1.52128 22.7071 1.79292ZM5.23617 9.42685L12.2873 11.5422C12.6093 11.6388 12.8612 11.8907 12.9578 12.2127L15.0732 19.2639L20.37 4.13L5.23617 9.42685Z" fill="#151515"/>
</svg>
