<svg width="24" height="24" viewBox="0 0 24 24" fill="none" xmlns="http://www.w3.org/2000/svg">
<path fill-rule="evenodd" clip-rule="evenodd" d="M13 1V0L11 0V1V3.06189C7.05369 3.55399 4 6.92038 4 11L4 16.1875C4 16.6913 3.98692 17.1856 3.83022 17.5529C3.76256 17.7115 3.68356 17.8048 3.59559 17.8643C3.50962 17.9225 3.3394 18 3 18C2.44772 18 2 18.4477 2 19C2 19.5523 2.44772 20 3 20L8 20C8 22.2091 9.79086 24 12 24C14.2091 24 16 22.2091 16 20H21C21.5523 20 22 19.5523 22 19C22 18.4477 21.5523 18 21 18C20.6606 18 20.4904 17.9225 20.4044 17.8643C20.3164 17.8048 20.2374 17.7115 20.1698 17.5529C20.0131 17.1856 20 16.6913 20 16.1875L20 11C20 6.92038 16.9463 3.55399 13 3.06189V1ZM11.9958 5H12.0042C15.316 5.00226 18 7.68769 18 11V16.1875L18 16.2336C17.9996 16.6192 17.9989 17.3186 18.2075 18L5.79253 18C6.00111 17.3186 6.00042 16.6191 6.00003 16.2336L6 16.1875L6 11C6 7.68769 8.68403 5.00226 11.9958 5ZM12 22C10.8954 22 10 21.1046 10 20H14C14 21.1046 13.1046 22 12 22Z" fill="#151515"/>
</svg>
