<svg width="24" height="24" viewBox="0 0 24 24" fill="none" xmlns="http://www.w3.org/2000/svg">
<g clip-path="url(#clip0)">
<path d="M20.8068 13.6781C19.8512 13.6781 18.6783 13.7871 17.3151 14.0033C15.4122 12.2389 13.4261 9.66232 12.0244 7.13295C13.4146 2.01877 12.6602 1.32031 12.4122 0.953056C12.3049 0.794076 11.9113 0.289855 11.111 0.121482C10.8286 0.0620553 10.2827 0.0872171 10.0445 0.156266C9.4456 0.330706 9.12325 0.734098 8.86538 1.26014C8.13021 2.76196 9.13885 5.32223 10.1766 7.29558C9.28963 10.3783 7.80163 14.0678 6.23772 17.0624C2.29675 18.6396 0.203568 20.1887 0.0143185 21.6669C-0.0543104 22.2047 0.0912678 22.9942 1.17373 23.7038C1.47009 23.8973 1.81739 24 2.17925 24C3.0891 24 4.00832 23.3913 5.07207 22.0857C5.84778 21.1336 6.68069 19.8352 7.54999 18.2235C10.3347 17.1596 13.7796 16.1984 16.7296 15.6596C18.3726 17.0379 19.8439 17.7356 21.1084 17.7356C22.0401 17.7356 22.8386 17.3613 23.4168 16.6535C24.0189 15.9167 24.1561 15.2571 23.8223 14.6911C23.422 14.0106 22.4352 13.6781 20.8068 13.6781ZM2.20213 22.4664C1.75396 22.4102 1.74356 21.9203 1.75396 21.8377C1.81843 21.3325 2.72412 20.4358 4.94625 19.3446C3.26172 22.063 2.65029 22.5226 2.20213 22.4664ZM10.7288 1.64082C10.9771 1.56776 11.8154 2.64113 10.8286 4.56269C10 3 10.4804 1.71388 10.7288 1.64082ZM8.57942 16.2011C9.63485 14.0033 10.6165 11.5766 11.3599 9.32889C12.5277 11.1623 13.9304 12.9412 15.3342 14.3658C13.1152 14.821 10.7527 15.4634 8.57942 16.2011ZM21.9883 15.8594C21.668 16.251 21.129 16.2793 20.7361 16.1666C20.0469 15.9688 19.9749 15.8786 19.1275 15.3089C19.8263 15.2308 20.4855 15.2108 21.0106 15.2108C21.935 15.2108 22.1914 15.2578 22.2324 15.3898C22.2324 15.4844 22.1432 15.6695 21.9883 15.8594Z" fill="#151515"/>
</g>
<defs>
<clipPath id="clip0">
<rect width="24" height="24" fill="white"/>
</clipPath>
</defs>
</svg>
