<svg width="24" height="24" viewBox="0 0 24 24" fill="none" xmlns="http://www.w3.org/2000/svg">
<path fill-rule="evenodd" clip-rule="evenodd" d="M4.99951 0C3.89494 0 2.99951 0.895431 2.99951 2V5C2.99951 5.55228 3.44723 6 3.99951 6C4.5518 6 4.99951 5.55228 4.99951 5V2H12.9995H18.9995V5C18.9995 5.55228 19.4472 6 19.9995 6C20.5518 6 20.9995 5.55228 20.9995 5V2C20.9995 0.895431 20.1041 0 18.9995 0H12.9995H4.99951ZM4.99951 19C4.99951 18.4477 4.5518 18 3.99951 18C3.44723 18 2.99951 18.4477 2.99951 19V22C2.99951 23.1046 3.89494 24 4.99951 24H18.9995C20.1041 24 20.9995 23.1046 20.9995 22V19C20.9995 18.4477 20.5518 18 19.9995 18C19.4472 18 18.9995 18.4477 18.9995 19V22H4.99951V19ZM2.3912 16.066C2.1272 16.066 1.9182 15.989 1.7642 15.835C1.6102 15.681 1.5332 15.472 1.5332 15.208V9.048C1.5332 8.79133 1.60287 8.59333 1.7422 8.45399C1.88154 8.31466 2.07954 8.245 2.3362 8.245H5.0972C5.94054 8.245 6.59687 8.45766 7.0662 8.883C7.53554 9.30833 7.7702 9.90233 7.7702 10.665C7.7702 11.4277 7.53554 12.0217 7.0662 12.447C6.59687 12.8723 5.94054 13.085 5.0972 13.085H3.2492V15.208C3.2492 15.472 3.1722 15.681 3.0182 15.835C2.8642 15.989 2.6552 16.066 2.3912 16.066ZM4.8772 11.787C5.7352 11.787 6.1642 11.4167 6.1642 10.676C6.1642 9.928 5.7352 9.554 4.8772 9.554H3.2492V11.787H4.8772ZM9.90386 16C9.64719 16 9.44919 15.9303 9.30986 15.791C9.17053 15.6517 9.10086 15.4537 9.10086 15.197V9.048C9.10086 8.79133 9.17053 8.59333 9.30986 8.45399C9.44919 8.31466 9.64719 8.245 9.90386 8.245H12.1149C12.9582 8.245 13.6842 8.399 14.2929 8.707C14.9015 9.015 15.3672 9.45866 15.6899 10.038C16.0125 10.6173 16.1739 11.3103 16.1739 12.117C16.1739 12.9237 16.0125 13.6203 15.6899 14.207C15.3745 14.7863 14.9125 15.23 14.3039 15.538C13.6952 15.846 12.9655 16 12.1149 16H9.90386ZM11.9939 14.614C13.6439 14.614 14.4689 13.7817 14.4689 12.117C14.4689 10.4597 13.6439 9.63099 11.9939 9.63099H10.8169V14.614H11.9939ZM17.9415 15.835C18.1028 15.989 18.3118 16.066 18.5685 16.066C18.8252 16.066 19.0268 15.989 19.1735 15.835C19.3275 15.681 19.4045 15.472 19.4045 15.208V12.733H22.0775C22.3562 12.733 22.5615 12.678 22.6935 12.568C22.8255 12.458 22.8915 12.2893 22.8915 12.062C22.8915 11.8273 22.8255 11.655 22.6935 11.545C22.5615 11.435 22.3562 11.38 22.0775 11.38H19.4045V9.598H22.2975C22.5762 9.598 22.7815 9.543 22.9135 9.433C23.0455 9.323 23.1115 9.15433 23.1115 8.927C23.1115 8.69233 23.0455 8.52 22.9135 8.41C22.7815 8.3 22.5762 8.245 22.2975 8.245H18.5135C18.2568 8.245 18.0588 8.31466 17.9195 8.45399C17.7802 8.59333 17.7105 8.79133 17.7105 9.048V15.208C17.7105 15.4647 17.7875 15.6737 17.9415 15.835Z" fill="#151515"/>
</svg>
