<svg width="24" height="24" viewBox="0 0 24 24" fill="none" xmlns="http://www.w3.org/2000/svg">
<path fill-rule="evenodd" clip-rule="evenodd" d="M4.18763 3.29289C4.37517 3.10536 4.62952 3 4.89474 3L9.36842 3C9.74719 3 10.0935 3.214 10.2628 3.55279L12.0523 7.13173C12.1217 7.27059 12.1579 7.4237 12.1579 7.57895V8.47368C12.1579 8.7389 12.0525 8.99325 11.865 9.18079L10.5427 10.5031C11.1026 11.7014 12.3934 13.5473 14.4886 14.4656L15.8192 13.135C16.0067 12.9475 16.2611 12.8421 16.5263 12.8421H17.4211C17.5763 12.8421 17.7294 12.8783 17.8683 12.9477L21.4472 14.7372C21.786 14.9065 22 15.2528 22 15.6316V20.1053C22 20.3705 21.8946 20.6248 21.7071 20.8124L20.8124 21.7071C20.6248 21.8946 20.3705 22 20.1053 22C10.6583 22 3 14.3417 3 4.89474C3 4.62952 3.10536 4.37517 3.29289 4.18763L4.18763 3.29289ZM5.30895 5L5.00542 5.30353C5.21844 13.3211 11.6789 19.7816 19.6965 19.9946L20 19.691V16.2496L17.185 14.8421H16.9405L15.4439 16.3387C15.1761 16.6065 14.7799 16.7 14.4206 16.5803C10.7955 15.3719 8.92529 12.096 8.41974 10.5794C8.29996 10.2201 8.39348 9.82388 8.66131 9.55605L10.1579 8.05947V7.81502L8.75039 5H5.30895Z" fill="#151515"/>
</svg>
