<svg width="24" height="24" viewBox="0 0 24 24" fill="none" xmlns="http://www.w3.org/2000/svg">
<path fill-rule="evenodd" clip-rule="evenodd" d="M9.53518 3C8.86648 3 8.24201 3.3342 7.87108 3.8906L6.46482 6L3 6C1.89543 6 1 6.89543 1 8L1 19C1 20.1046 1.89543 21 3 21L21 21C22.1046 21 23 20.1046 23 19L23 8C23 6.89543 22.1046 6 21 6L17.5352 6L16.1289 3.8906C15.758 3.3342 15.1335 3 14.4648 3L9.53518 3ZM9.53518 5H14.4648L15.8711 7.1094C16.242 7.6658 16.8665 8 17.5352 8H21L21 19L3 19L3 8H6.46482C7.13352 8 7.75799 7.6658 8.12892 7.1094L9.53518 5ZM10 13C10 11.8954 10.8954 11 12 11C13.1046 11 14 11.8954 14 13C14 14.1046 13.1046 15 12 15C10.8954 15 10 14.1046 10 13ZM12 9C9.79086 9 8 10.7909 8 13C8 15.2091 9.79086 17 12 17C14.2091 17 16 15.2091 16 13C16 10.7909 14.2091 9 12 9Z" fill="#151515"/>
</svg>
