<svg width="24" height="24" viewBox="0 0 24 24" fill="none" xmlns="http://www.w3.org/2000/svg">
<path fill-rule="evenodd" clip-rule="evenodd" d="M5.00049 0C3.89592 0 3.00049 0.895431 3.00049 2V5C3.00049 5.55228 3.4482 6 4.00049 6C4.55277 6 5.00049 5.55228 5.00049 5V2H13.0005H19.0005V5C19.0005 5.55228 19.4482 6 20.0005 6C20.5528 6 21.0005 5.55228 21.0005 5V2C21.0005 0.895431 20.1051 0 19.0005 0H13.0005H5.00049ZM5.00049 19C5.00049 18.4477 4.55277 18 4.00049 18C3.4482 18 3.00049 18.4477 3.00049 19V22C3.00049 23.1046 3.89592 24 5.00049 24H19.0005C20.1051 24 21.0005 23.1046 21.0005 22V19C21.0005 18.4477 20.5528 18 20.0005 18C19.4482 18 19.0005 18.4477 19.0005 19V22H5.00049V19ZM22.9985 11.897C22.8812 11.7797 22.7199 11.721 22.5145 11.721H20.6335C20.4209 11.721 20.2559 11.7723 20.1385 11.875C20.0212 11.9777 19.9625 12.1243 19.9625 12.315C19.9625 12.5057 20.0212 12.6523 20.1385 12.755C20.2559 12.8577 20.4209 12.909 20.6335 12.909H21.6455V14.614C21.2275 14.724 20.8059 14.779 20.3805 14.779C19.5959 14.779 19.0092 14.559 18.6205 14.119C18.2319 13.679 18.0375 13.0117 18.0375 12.117C18.0375 10.379 18.7855 9.51 20.2815 9.51C20.5895 9.51 20.8719 9.55033 21.1285 9.631C21.3852 9.71166 21.6675 9.84733 21.9755 10.038C22.0855 10.104 22.1772 10.1517 22.2505 10.181C22.3312 10.2103 22.4192 10.225 22.5145 10.225C22.6612 10.225 22.7859 10.159 22.8885 10.027C22.9985 9.88766 23.0535 9.72266 23.0535 9.532C23.0535 9.4 23.0315 9.29 22.9875 9.202C22.9435 9.114 22.8665 9.026 22.7565 8.938C22.0892 8.41 21.2459 8.146 20.2265 8.146C19.4345 8.146 18.7415 8.30733 18.1475 8.63C17.5535 8.95266 17.0952 9.41466 16.7725 10.016C16.4572 10.61 16.2995 11.3103 16.2995 12.117C16.2995 12.9383 16.4609 13.6497 16.7835 14.251C17.1062 14.845 17.5682 15.3033 18.1695 15.626C18.7709 15.9413 19.4822 16.099 20.3035 16.099C20.6335 16.099 20.9819 16.0733 21.3485 16.022C21.7225 15.9707 22.0525 15.901 22.3385 15.813C22.5732 15.747 22.7492 15.6663 22.8665 15.571C22.9839 15.4757 23.0645 15.3473 23.1085 15.186C23.1599 15.0247 23.1855 14.7973 23.1855 14.504V12.359C23.1855 12.161 23.1232 12.007 22.9985 11.897ZM14.166 8.19C14.408 8.19 14.6024 8.27066 14.749 8.432C14.903 8.586 14.98 8.78766 14.98 9.037V15.208C14.98 15.4647 14.903 15.6737 14.749 15.835C14.6024 15.989 14.408 16.066 14.166 16.066C13.902 16.066 13.6894 15.9707 13.528 15.78L9.84305 11.061V15.208C9.84305 15.4647 9.76971 15.6737 9.62305 15.835C9.48371 15.989 9.29305 16.066 9.05105 16.066C8.80905 16.066 8.61471 15.989 8.46805 15.835C8.32138 15.6737 8.24805 15.4647 8.24805 15.208V9.037C8.24805 8.78766 8.32138 8.586 8.46805 8.432C8.62205 8.27066 8.82005 8.19 9.06205 8.19C9.33338 8.19 9.54238 8.28533 9.68905 8.476L13.374 13.162V9.037C13.374 8.78766 13.4474 8.586 13.594 8.432C13.7407 8.27066 13.9314 8.19 14.166 8.19ZM1.75839 16.066C1.49439 16.066 1.28539 15.989 1.13139 15.835C0.977391 15.681 0.900391 15.472 0.900391 15.208V9.048C0.900391 8.79133 0.970057 8.59333 1.10939 8.454C1.24872 8.31466 1.44672 8.245 1.70339 8.245H4.46439C5.30772 8.245 5.96406 8.45766 6.43339 8.883C6.90272 9.30833 7.13739 9.90233 7.13739 10.665C7.13739 11.4277 6.90272 12.0217 6.43339 12.447C5.96406 12.8723 5.30772 13.085 4.46439 13.085H2.61639V15.208C2.61639 15.472 2.53939 15.681 2.38539 15.835C2.23139 15.989 2.02239 16.066 1.75839 16.066ZM4.24439 11.787C5.10239 11.787 5.53139 11.4167 5.53139 10.676C5.53139 9.928 5.10239 9.554 4.24439 9.554H2.61639V11.787H4.24439Z" fill="#151515"/>
</svg>
