<svg width="24" height="24" viewBox="0 0 24 24" fill="none" xmlns="http://www.w3.org/2000/svg">
<path fill-rule="evenodd" clip-rule="evenodd" d="M5 0C3.89543 0 3 0.895431 3 2V5C3 5.55228 3.44772 6 4 6C4.55228 6 5 5.55228 5 5V2H13H19V5C19 5.55228 19.4477 6 20 6C20.5523 6 21 5.55228 21 5V2C21 0.895431 20.1046 0 19 0H13H5ZM5 19C5 18.4477 4.55228 18 4 18C3.44772 18 3 18.4477 3 19V22C3 23.1046 3.89543 24 5 24H19C20.1046 24 21 23.1046 21 22V19C21 18.4477 20.5523 18 20 18C19.4477 18 19 18.4477 19 19V22H5V19ZM11.6838 16.0659C11.4198 16.0659 11.2108 15.9889 11.0568 15.8349C10.9028 15.6809 10.8258 15.4719 10.8258 15.2079V9.03694C10.8258 8.78027 10.9028 8.57494 11.0568 8.42094C11.2108 8.26694 11.4198 8.18994 11.6838 8.18994C11.9478 8.18994 12.1568 8.26694 12.3108 8.42094C12.4648 8.57494 12.5418 8.78027 12.5418 9.03694V15.2079C12.5418 15.4719 12.4648 15.6809 12.3108 15.8349C12.1568 15.9889 11.9478 16.0659 11.6838 16.0659ZM8.35789 14.6469C8.63656 14.6469 8.84189 14.7019 8.97389 14.8119C9.10589 14.9219 9.1719 15.0906 9.1719 15.3179C9.1719 15.5526 9.10589 15.7249 8.97389 15.8349C8.84189 15.9449 8.63656 15.9999 8.35789 15.9999H3.81489C3.58756 15.9999 3.40423 15.9339 3.26489 15.8019C3.13289 15.6626 3.06689 15.4903 3.06689 15.2849C3.06689 15.0723 3.14023 14.8669 3.28689 14.6689L6.94989 9.59794H3.89189C3.61323 9.59794 3.40789 9.54294 3.27589 9.43294C3.14389 9.32294 3.07789 9.15427 3.07789 8.92694C3.07789 8.69228 3.14389 8.51994 3.27589 8.40994C3.40789 8.29994 3.61323 8.24494 3.89189 8.24494H8.26989C8.49723 8.24494 8.6769 8.31461 8.8089 8.45394C8.94823 8.58594 9.01789 8.75461 9.01789 8.95994C9.01789 9.17994 8.94823 9.38527 8.8089 9.57594L5.13489 14.6469H8.35789ZM14.9716 15.8349C15.1256 15.9889 15.3346 16.0659 15.5986 16.0659C15.8626 16.0659 16.0716 15.9889 16.2256 15.8349C16.3796 15.6809 16.4566 15.4719 16.4566 15.2079V13.0849H18.3046C19.148 13.0849 19.8043 12.8723 20.2736 12.4469C20.743 12.0216 20.9776 11.4276 20.9776 10.6649C20.9776 9.90228 20.743 9.30828 20.2736 8.88294C19.8043 8.45761 19.148 8.24494 18.3046 8.24494H15.5436C15.287 8.24494 15.089 8.31461 14.9496 8.45394C14.8103 8.59328 14.7406 8.79128 14.7406 9.04794V15.2079C14.7406 15.4719 14.8176 15.6809 14.9716 15.8349ZM19.3716 10.6759C19.3716 11.4166 18.9426 11.7869 18.0846 11.7869H16.4566V9.55394H18.0846C18.9426 9.55394 19.3716 9.92794 19.3716 10.6759Z" fill="#151515"/>
</svg>
