<svg width="24" height="24" viewBox="0 0 24 24" fill="none" xmlns="http://www.w3.org/2000/svg">
<path fill-rule="evenodd" clip-rule="evenodd" d="M5 0C3.89543 0 3 0.895431 3 2V5C3 5.55228 3.44772 6 4 6C4.55228 6 5 5.55228 5 5V2H13H19V5C19 5.55228 19.4477 6 20 6C20.5523 6 21 5.55228 21 5V2C21 0.895431 20.1046 0 19 0H13H5ZM5 19C5 18.4477 4.55228 18 4 18C3.44772 18 3 18.4477 3 19V22C3 23.1046 3.89543 24 5 24H19C20.1046 24 21 23.1046 21 22V19C21 18.4477 20.5523 18 20 18C19.4477 18 19 18.4477 19 19V22H5V19ZM7.29152 14.768C7.43085 14.9293 7.50052 15.098 7.50052 15.274C7.50052 15.4866 7.41618 15.6736 7.24752 15.835C7.08618 15.989 6.89918 16.066 6.68652 16.066C6.46652 16.066 6.27952 15.9743 6.12552 15.791L4.05752 13.261L1.96752 15.791C1.80618 15.9743 1.61918 16.066 1.40652 16.066C1.20118 16.066 1.01418 15.989 0.845516 15.835C0.684182 15.6736 0.603516 15.4866 0.603516 15.274C0.603516 15.0906 0.669516 14.922 0.801516 14.768L3.05652 12.084L0.878516 9.47695C0.739182 9.31562 0.669516 9.14696 0.669516 8.97095C0.669516 8.75829 0.750182 8.57495 0.911516 8.42096C1.08018 8.25962 1.26718 8.17896 1.47252 8.17896C1.69252 8.17896 1.88318 8.27429 2.04452 8.46495L4.05752 10.896L6.04852 8.46495C6.20985 8.27429 6.40052 8.17896 6.62052 8.17896C6.82585 8.17896 7.00918 8.25962 7.17052 8.42096C7.33918 8.57495 7.42352 8.75829 7.42352 8.97095C7.42352 9.15429 7.35752 9.32296 7.22552 9.47695L5.04752 12.084L7.29152 14.768ZM15.6384 8.18995C15.8804 8.18995 16.0747 8.27062 16.2214 8.43196C16.3754 8.58595 16.4524 8.78762 16.4524 9.03695V15.285C16.4524 15.527 16.3827 15.7176 16.2434 15.857C16.104 15.9963 15.9207 16.066 15.6934 16.066C15.4734 16.066 15.2937 15.9963 15.1544 15.857C15.015 15.7176 14.9454 15.527 14.9454 15.285V11.402L13.3834 14.339C13.2807 14.5296 13.167 14.669 13.0424 14.757C12.925 14.845 12.782 14.889 12.6134 14.889C12.452 14.889 12.309 14.845 12.1844 14.757C12.0597 14.669 11.946 14.5296 11.8434 14.339L10.2814 11.457V15.285C10.2814 15.5196 10.2117 15.7103 10.0724 15.857C9.93303 15.9963 9.7497 16.066 9.52237 16.066C9.30237 16.066 9.1227 15.9963 8.98337 15.857C8.84403 15.7176 8.77437 15.527 8.77437 15.285V9.03695C8.77437 8.78762 8.8477 8.58595 8.99437 8.43196C9.14837 8.27062 9.34637 8.18995 9.58837 8.18995C9.94037 8.18995 10.208 8.37696 10.3914 8.75095L12.6244 12.986L14.8464 8.75095C15.0444 8.37696 15.3084 8.18995 15.6384 8.18995ZM18.4411 15.791C18.5805 15.9303 18.7785 16 19.0351 16H22.7641C23.2995 16 23.5671 15.769 23.5671 15.307C23.5671 14.8376 23.2995 14.603 22.7641 14.603H19.9481V9.03695C19.9481 8.78029 19.8711 8.57495 19.7171 8.42096C19.5631 8.26696 19.3541 8.18995 19.0901 8.18995C18.8261 8.18995 18.6171 8.26696 18.4631 8.42096C18.3091 8.57495 18.2321 8.78029 18.2321 9.03695V15.197C18.2321 15.4536 18.3018 15.6516 18.4411 15.791Z" fill="#151515"/>
</svg>
