<svg width="24" height="24" viewBox="0 0 24 24" fill="none" xmlns="http://www.w3.org/2000/svg">
<path fill-rule="evenodd" clip-rule="evenodd" d="M5 0C3.89543 0 3 0.895431 3 2V5C3 5.55228 3.44772 6 4 6C4.55228 6 5 5.55228 5 5V2H13H19V5C19 5.55228 19.4477 6 20 6C20.5523 6 21 5.55228 21 5V2C21 0.895431 20.1046 0 19 0H13H5ZM5 19C5 18.4477 4.55228 18 4 18C3.44772 18 3 18.4477 3 19V22C3 23.1046 3.89543 24 5 24H19C20.1046 24 21 23.1046 21 22V19C21 18.4477 20.5523 18 20 18C19.4477 18 19 18.4477 19 19V22H5V19ZM15.8129 14.955C15.8716 15.087 15.9009 15.2043 15.9009 15.307C15.9009 15.5123 15.8166 15.6883 15.6479 15.835C15.4866 15.9743 15.2996 16.044 15.0869 16.044C14.9476 16.044 14.8156 16.0073 14.6909 15.934C14.5663 15.8533 14.4709 15.736 14.4049 15.582L13.8219 14.284H10.0929L9.50994 15.582C9.44394 15.736 9.34861 15.8533 9.22394 15.934C9.1066 16.0073 8.9746 16.044 8.82794 16.044C8.61527 16.044 8.4246 15.9743 8.25594 15.835C8.08727 15.6883 8.00294 15.5123 8.00294 15.307C8.00294 15.2043 8.03227 15.087 8.09094 14.955L11.0609 8.71795C11.1416 8.54195 11.2626 8.40996 11.4239 8.32195C11.5853 8.22662 11.7576 8.17896 11.9409 8.17896C12.1316 8.17896 12.3076 8.22662 12.4689 8.32195C12.6303 8.41729 12.7549 8.54929 12.8429 8.71795L15.8129 14.955ZM10.6759 12.986H13.2389L11.9629 10.126L10.6759 12.986ZM7.33847 14.911C7.44847 15.0723 7.50347 15.23 7.50347 15.384C7.50347 15.5893 7.41914 15.758 7.25047 15.89C7.08914 16.022 6.89847 16.088 6.67847 16.088C6.53914 16.088 6.40347 16.055 6.27147 15.989C6.13947 15.923 6.02947 15.8203 5.94147 15.681L4.48947 13.525C4.3648 13.3343 4.2328 13.1986 4.09347 13.118C3.95414 13.03 3.77814 12.986 3.56547 12.986H2.67447V15.208C2.67447 15.472 2.59747 15.681 2.44347 15.835C2.2968 15.989 2.09514 16.066 1.83847 16.066C1.57447 16.066 1.36547 15.989 1.21147 15.835C1.05747 15.681 0.980469 15.472 0.980469 15.208V9.04795C0.980469 8.79129 1.05014 8.59329 1.18947 8.45395C1.3288 8.31462 1.5268 8.24496 1.78347 8.24496H4.54447C5.4538 8.24496 6.13947 8.44662 6.60147 8.84995C7.0708 9.24596 7.30547 9.82162 7.30547 10.577C7.30547 11.171 7.14047 11.666 6.81047 12.062C6.48047 12.458 6.0148 12.7183 5.41347 12.843C5.63347 12.887 5.8278 12.975 5.99647 13.107C6.17247 13.2316 6.34114 13.415 6.50247 13.657L7.33847 14.911ZM4.29147 11.688C4.7828 11.688 5.13847 11.6036 5.35847 11.435C5.57847 11.259 5.68847 10.9876 5.68847 10.621C5.68847 10.247 5.57847 9.97562 5.35847 9.80696C5.13847 9.63829 4.7828 9.55396 4.29147 9.55396H2.65247V11.688H4.29147ZM23.3697 15.384C23.3697 15.23 23.3147 15.0723 23.2047 14.911L22.3687 13.657C22.2073 13.415 22.0387 13.2316 21.8627 13.107C21.694 12.975 21.4997 12.887 21.2797 12.843C21.881 12.7183 22.3467 12.458 22.6767 12.062C23.0067 11.666 23.1717 11.171 23.1717 10.577C23.1717 9.82162 22.937 9.24596 22.4677 8.84995C22.0057 8.44662 21.32 8.24496 20.4107 8.24496H17.6497C17.393 8.24496 17.195 8.31462 17.0557 8.45395C16.9163 8.59329 16.8467 8.79129 16.8467 9.04795V15.208C16.8467 15.472 16.9237 15.681 17.0777 15.835C17.2317 15.989 17.4407 16.066 17.7047 16.066C17.9613 16.066 18.163 15.989 18.3097 15.835C18.4637 15.681 18.5407 15.472 18.5407 15.208V12.986H19.4317C19.6443 12.986 19.8203 13.03 19.9597 13.118C20.099 13.1986 20.231 13.3343 20.3557 13.525L21.8077 15.681C21.8957 15.8203 22.0057 15.923 22.1377 15.989C22.2697 16.055 22.4053 16.088 22.5447 16.088C22.7647 16.088 22.9553 16.022 23.1167 15.89C23.2853 15.758 23.3697 15.5893 23.3697 15.384ZM21.2247 11.435C21.0047 11.6036 20.649 11.688 20.1577 11.688H18.5187V9.55396H20.1577C20.649 9.55396 21.0047 9.63829 21.2247 9.80696C21.4447 9.97562 21.5547 10.247 21.5547 10.621C21.5547 10.9876 21.4447 11.259 21.2247 11.435Z" fill="#151515"/>
</svg>
