<svg width="24" height="24" viewBox="0 0 24 24" fill="none" xmlns="http://www.w3.org/2000/svg">
<path fill-rule="evenodd" clip-rule="evenodd" d="M4.99951 0C3.89494 0 2.99951 0.895431 2.99951 2V5C2.99951 5.55228 3.44723 6 3.99951 6C4.5518 6 4.99951 5.55228 4.99951 5V2H12.9995H18.9995V5C18.9995 5.55228 19.4472 6 19.9995 6C20.5518 6 20.9995 5.55228 20.9995 5V2C20.9995 0.895431 20.1041 0 18.9995 0H12.9995H4.99951ZM4.99951 19C4.99951 18.4477 4.5518 18 3.99951 18C3.44723 18 2.99951 18.4477 2.99951 19V22C2.99951 23.1046 3.89494 24 4.99951 24H18.9995C20.1041 24 20.9995 23.1046 20.9995 22V19C20.9995 18.4477 20.5518 18 19.9995 18C19.4472 18 18.9995 18.4477 18.9995 19V22H4.99951V19ZM17.561 15.901C18.0597 16.033 18.5987 16.099 19.178 16.099C19.8014 16.099 20.3477 16 20.817 15.802C21.2937 15.604 21.6604 15.3253 21.917 14.966C22.181 14.6067 22.313 14.1923 22.313 13.723C22.313 13.1217 22.093 12.6487 21.653 12.304C21.2204 11.9593 20.5054 11.677 19.508 11.457C19.0827 11.3617 18.7527 11.27 18.518 11.182C18.2907 11.094 18.1257 10.995 18.023 10.885C17.9277 10.7677 17.88 10.621 17.88 10.445C17.88 10.1443 18.0084 9.90966 18.265 9.741C18.5217 9.565 18.8737 9.477 19.321 9.477C19.7097 9.477 20.0287 9.52466 20.278 9.62C20.5347 9.71533 20.8134 9.85833 21.114 10.049C21.2387 10.1223 21.334 10.17 21.4 10.192C21.4734 10.214 21.5504 10.225 21.631 10.225C21.7777 10.225 21.906 10.1553 22.016 10.016C22.1334 9.87666 22.192 9.71533 22.192 9.532C22.192 9.4 22.1664 9.29 22.115 9.202C22.071 9.10666 21.994 9.015 21.884 8.927C21.2094 8.40633 20.3514 8.146 19.31 8.146C18.716 8.146 18.1807 8.25233 17.704 8.465C17.2347 8.67033 16.8644 8.96 16.593 9.334C16.329 9.70066 16.197 10.115 16.197 10.577C16.197 10.995 16.2887 11.3507 16.472 11.644C16.6627 11.9373 16.9597 12.183 17.363 12.381C17.7737 12.579 18.32 12.7477 19.002 12.887C19.6107 13.0117 20.0324 13.1437 20.267 13.283C20.509 13.4223 20.63 13.6057 20.63 13.833C20.63 14.1337 20.5017 14.3647 20.245 14.526C19.9884 14.6873 19.618 14.768 19.134 14.768C18.7454 14.768 18.3897 14.724 18.067 14.636C17.7444 14.5407 17.4254 14.394 17.11 14.196C17 14.13 16.9047 14.086 16.824 14.064C16.7507 14.0347 16.6737 14.02 16.593 14.02C16.4464 14.02 16.3144 14.0897 16.197 14.229C16.087 14.3683 16.032 14.5297 16.032 14.713C16.032 14.8523 16.054 14.9697 16.098 15.065C16.1494 15.153 16.23 15.2373 16.34 15.318C16.6554 15.5673 17.0624 15.7617 17.561 15.901ZM8.17238 14.768C8.31171 14.9293 8.38138 15.098 8.38138 15.274C8.38138 15.4867 8.29704 15.6737 8.12838 15.835C7.96704 15.989 7.78004 16.066 7.56738 16.066C7.34738 16.066 7.16038 15.9743 7.00638 15.791L4.93838 13.261L2.84837 15.791C2.68704 15.9743 2.50004 16.066 2.28737 16.066C2.08204 16.066 1.89504 15.989 1.72637 15.835C1.56504 15.6737 1.48438 15.4867 1.48438 15.274C1.48438 15.0907 1.55037 14.922 1.68237 14.768L3.93738 12.084L1.75937 9.477C1.62004 9.31566 1.55037 9.147 1.55037 8.971C1.55037 8.75833 1.63104 8.575 1.79237 8.421C1.96104 8.25966 2.14804 8.179 2.35338 8.179C2.57337 8.179 2.76404 8.27433 2.92537 8.465L4.93838 10.896L6.92938 8.465C7.09071 8.27433 7.28138 8.179 7.50138 8.179C7.70671 8.179 7.89004 8.25966 8.05138 8.421C8.22004 8.575 8.30438 8.75833 8.30438 8.971C8.30438 9.15433 8.23838 9.323 8.10638 9.477L5.92838 12.084L8.17238 14.768ZM10.6562 16C10.3996 16 10.2016 15.9303 10.0622 15.791C9.92289 15.6517 9.85323 15.4537 9.85323 15.197V9.037C9.85323 8.78033 9.93023 8.575 10.0842 8.421C10.2382 8.267 10.4472 8.19 10.7112 8.19C10.9752 8.19 11.1842 8.267 11.3382 8.421C11.4922 8.575 11.5692 8.78033 11.5692 9.037V14.603H14.3852C14.9206 14.603 15.1882 14.8377 15.1882 15.307C15.1882 15.769 14.9206 16 14.3852 16H10.6562Z" fill="#151515"/>
</svg>
