<svg width="24" height="24" viewBox="0 0 24 24" fill="none" xmlns="http://www.w3.org/2000/svg">
<path fill-rule="evenodd" clip-rule="evenodd" d="M5 0C3.89543 0 3 0.895431 3 2V5C3 5.55228 3.44772 6 4 6C4.55228 6 5 5.55228 5 5V2H13H19V5C19 5.55228 19.4477 6 20 6C20.5523 6 21 5.55228 21 5V2C21 0.895431 20.1046 0 19 0H13H5ZM5 19C5 18.4477 4.55228 18 4 18C3.44772 18 3 18.4477 3 19V22C3 23.1046 3.89543 24 5 24H19C20.1046 24 21 23.1046 21 22V19C21 18.4477 20.5523 18 20 18C19.4477 18 19 18.4477 19 19V22H5V19ZM12.4723 16.099C11.7023 16.099 11.0313 15.9377 10.4593 15.615C9.89462 15.285 9.45828 14.823 9.15028 14.229C8.84228 13.6277 8.68828 12.9237 8.68828 12.117C8.68828 11.3103 8.84228 10.61 9.15028 10.016C9.45828 9.41466 9.89462 8.95266 10.4593 8.63C11.0313 8.30733 11.7023 8.146 12.4723 8.146C13.2423 8.146 13.9096 8.30733 14.4743 8.63C15.0463 8.95266 15.4863 9.41466 15.7943 10.016C16.1023 10.61 16.2563 11.3103 16.2563 12.117C16.2563 12.9237 16.1023 13.6277 15.7943 14.229C15.4863 14.823 15.0463 15.285 14.4743 15.615C13.9096 15.9377 13.2423 16.099 12.4723 16.099ZM12.4723 14.768C13.1176 14.768 13.6236 14.5407 13.9903 14.086C14.3643 13.6313 14.5513 12.975 14.5513 12.117C14.5513 11.259 14.3679 10.6063 14.0013 10.159C13.6346 9.70433 13.1249 9.477 12.4723 9.477C11.8196 9.477 11.3099 9.70433 10.9433 10.159C10.5839 10.6063 10.4043 11.259 10.4043 12.117C10.4043 12.975 10.5876 13.6313 10.9543 14.086C11.3209 14.5407 11.8269 14.768 12.4723 14.768ZM1.65163 16C1.39497 16 1.19697 15.9303 1.05763 15.791C0.918299 15.6517 0.848633 15.4537 0.848633 15.197V9.048C0.848633 8.79133 0.918299 8.59333 1.05763 8.454C1.19697 8.31466 1.39497 8.245 1.65163 8.245H3.86263C4.70597 8.245 5.43197 8.399 6.04063 8.707C6.6493 9.015 7.11497 9.45866 7.43763 10.038C7.7603 10.6173 7.92163 11.3103 7.92163 12.117C7.92163 12.9237 7.7603 13.6203 7.43763 14.207C7.1223 14.7863 6.6603 15.23 6.05163 15.538C5.44297 15.846 4.7133 16 3.86263 16H1.65163ZM3.74163 14.614C5.39163 14.614 6.21663 13.7817 6.21663 12.117C6.21663 10.4597 5.39163 9.631 3.74163 9.631H2.56463V14.614H3.74163ZM18.7985 15.615C19.3705 15.9377 20.0378 16.099 20.8005 16.099C21.7612 16.099 22.5898 15.835 23.2865 15.307C23.3892 15.2263 23.4625 15.142 23.5065 15.054C23.5578 14.9587 23.5835 14.845 23.5835 14.713C23.5835 14.5223 23.5285 14.361 23.4185 14.229C23.3158 14.0897 23.1875 14.02 23.0335 14.02C22.9382 14.02 22.8538 14.0347 22.7805 14.064C22.7071 14.086 22.6155 14.13 22.5055 14.196C22.1828 14.3867 21.9005 14.526 21.6585 14.614C21.4165 14.6947 21.1598 14.735 20.8885 14.735C19.4732 14.735 18.7655 13.8623 18.7655 12.117C18.7655 11.2517 18.9415 10.6027 19.2935 10.17C19.6528 9.73 20.1845 9.51 20.8885 9.51C21.1745 9.51 21.4422 9.554 21.6915 9.642C21.9408 9.72266 22.2122 9.85833 22.5055 10.049C22.6008 10.115 22.6852 10.1627 22.7585 10.192C22.8391 10.214 22.9308 10.225 23.0335 10.225C23.1875 10.225 23.3158 10.159 23.4185 10.027C23.5285 9.88766 23.5835 9.72266 23.5835 9.532C23.5835 9.4 23.5615 9.29 23.5175 9.202C23.4735 9.114 23.3965 9.026 23.2865 8.938C22.5898 8.41 21.7612 8.146 20.8005 8.146C20.0378 8.146 19.3705 8.30733 18.7985 8.63C18.2265 8.95266 17.7865 9.41466 17.4785 10.016C17.1705 10.61 17.0165 11.3103 17.0165 12.117C17.0165 12.9237 17.1705 13.6277 17.4785 14.229C17.7865 14.8303 18.2265 15.2923 18.7985 15.615Z" fill="#151515"/>
</svg>
