<svg width="24" height="24" viewBox="0 0 24 24" fill="none" xmlns="http://www.w3.org/2000/svg">
<path fill-rule="evenodd" clip-rule="evenodd" d="M5 0C3.89543 0 3 0.895431 3 2V5C3 5.55228 3.44772 6 4 6C4.55228 6 5 5.55228 5 5V2H13H19V5C19 5.55228 19.4477 6 20 6C20.5523 6 21 5.55228 21 5V2C21 0.895431 20.1046 0 19 0H13H5ZM5 19C5 18.4477 4.55228 18 4 18C3.44772 18 3 18.4477 3 19V22C3 23.1046 3.89543 24 5 24H19C20.1046 24 21 23.1046 21 22V19C21 18.4477 20.5523 18 20 18C19.4477 18 19 18.4477 19 19V22H5V19ZM2.71933 16.066C2.45533 16.066 2.24633 15.989 2.09233 15.835C1.93833 15.681 1.86133 15.472 1.86133 15.208V9.048C1.86133 8.79133 1.93099 8.59333 2.07033 8.45399C2.20966 8.31466 2.40766 8.245 2.66433 8.245H5.42533C6.26866 8.245 6.92499 8.45766 7.39433 8.883C7.86366 9.30833 8.09833 9.90233 8.09833 10.665C8.09833 11.4277 7.86366 12.0217 7.39433 12.447C6.92499 12.8723 6.26866 13.085 5.42533 13.085H3.57733V15.208C3.57733 15.472 3.50033 15.681 3.34633 15.835C3.19233 15.989 2.98333 16.066 2.71933 16.066ZM5.20533 11.787C6.06333 11.787 6.49233 11.4167 6.49233 10.676C6.49233 9.928 6.06333 9.554 5.20533 9.554H3.57733V11.787H5.20533ZM10.287 16.066C10.023 16.066 9.81398 15.989 9.65999 15.835C9.50599 15.681 9.42899 15.472 9.42899 15.208V9.048C9.42899 8.79133 9.49865 8.59333 9.63798 8.45399C9.77732 8.31466 9.97532 8.245 10.232 8.245H12.993C13.8363 8.245 14.4927 8.45766 14.962 8.883C15.4313 9.30833 15.666 9.90233 15.666 10.665C15.666 11.4277 15.4313 12.0217 14.962 12.447C14.4927 12.8723 13.8363 13.085 12.993 13.085H11.145V15.208C11.145 15.472 11.068 15.681 10.914 15.835C10.76 15.989 10.551 16.066 10.287 16.066ZM12.773 11.787C13.631 11.787 14.06 11.4167 14.06 10.676C14.06 9.928 13.631 9.554 12.773 9.554H11.145V11.787H12.773ZM18.8595 15.824C19.0208 15.978 19.2298 16.055 19.4865 16.055C19.7505 16.055 19.9595 15.978 20.1135 15.824C20.2675 15.67 20.3445 15.4647 20.3445 15.208V9.642H22.1265C22.6692 9.642 22.9405 9.40733 22.9405 8.938C22.9405 8.476 22.6692 8.245 22.1265 8.245H16.8465C16.3038 8.245 16.0325 8.476 16.0325 8.938C16.0325 9.40733 16.3038 9.642 16.8465 9.642H18.6285V15.208C18.6285 15.4647 18.7055 15.67 18.8595 15.824Z" fill="#151515"/>
</svg>
