<svg width="24" height="24" viewBox="0 0 24 24" fill="none" xmlns="http://www.w3.org/2000/svg">
<path fill-rule="evenodd" clip-rule="evenodd" d="M5 3C5 2.44772 5.44772 2 6 2L18 2C18.5523 2 19 2.44772 19 3V6L21 6C22.1046 6 23 6.89543 23 8L23 15C23 16.1046 22.1046 17 21 17H19V21C19 21.5523 18.5523 22 18 22L6 22C5.44772 22 5 21.5523 5 21L5 17H3C1.89543 17 1 16.1046 1 15L1 8C1 6.89543 1.89543 6 3 6L5 6V3ZM7 6L17 6V4L7 4L7 6ZM5 15H3L3 8H6L18 8H21L21 15H19L19 11C19 10.4477 18.5523 10 18 10L6 10C5.44772 10 5 10.4477 5 11V15ZM17 16V12H7L7 16V20L17 20L17 16Z" fill="#151515"/>
</svg>
