<svg width="80" height="80" viewBox="0 0 80 80" fill="none" xmlns="http://www.w3.org/2000/svg">
<path fill-rule="evenodd" clip-rule="evenodd" d="M40.0002 1.53784L40.7297 2.31601L55.7297 18.316L56.4136 19.0456L54.9546 20.4134L54.2706 19.6839L41.0002 5.52874V77V78H39.0002V77V5.52874L25.7297 19.6839L25.0457 20.4134L23.5867 19.0456L24.2706 18.316L39.2706 2.31601L40.0002 1.53784ZM15.0002 25.5857L15.7073 26.2928L25.7073 36.2928L26.4144 37L25.0002 38.4142L24.293 37.7071L16.0002 29.4142L16.0002 32.0444L16.0003 44.6186L16.0005 77V78H14.0005V77L14.0003 44.6186L14.0002 32.0444L14.0002 29.4141L5.70726 37.7071L5.00015 38.4142L3.58594 37L4.29304 36.2928L14.293 26.2928L15.0002 25.5857ZM65.0002 25.5857L65.7073 26.2928L75.7073 36.2928L76.4144 37L75.0002 38.4142L74.293 37.7071L66.0002 29.4142L66.0002 32.0444L66.0003 44.6186L66.0005 77V78H64.0005V77L64.0003 44.6186L64.0002 32.0444L64.0002 29.4141L55.7073 37.7071L55.0002 38.4142L53.5859 37L54.293 36.2928L64.293 26.2928L65.0002 25.5857Z" fill="#151515"/>
</svg>
