<svg width="80" height="80" viewBox="0 0 80 80" fill="none" xmlns="http://www.w3.org/2000/svg">
<path fill-rule="evenodd" clip-rule="evenodd" d="M38.9998 3H39.9998C50.5427 3 59.0643 11.3736 59.0643 21.9353C59.0643 29.4201 54.7619 35.8773 48.5104 38.9998H76H77V39.9998C77 50.5009 68.6274 59.0643 58.0643 59.0643C50.5796 59.0643 44.1223 54.7619 40.9998 48.5104V76V77H39.9998C29.4987 77 20.9353 68.6274 20.9353 58.0643C20.9353 50.5795 25.2377 44.1223 31.4892 40.9998H4H3V39.9998C3 29.4554 11.4155 20.9353 21.9353 20.9353C29.4201 20.9353 35.8773 25.2377 38.9998 31.4892V4V3ZM38.971 38.9998C38.4539 30.0545 31.0446 22.9353 21.9353 22.9353C12.8695 22.9353 5.53751 30.0134 5.02825 38.9998H38.971ZM38.9998 41.0286V74.9717C30.0463 74.463 22.9353 67.1649 22.9353 58.0643C22.9353 48.955 30.0545 41.5457 38.9998 41.0286ZM41.0286 40.9998H74.9717C74.463 49.9533 67.1649 57.0643 58.0643 57.0643C48.9551 57.0643 41.5457 49.9451 41.0286 40.9998ZM40.9998 38.971V5.0281C49.9875 5.53477 57.0643 12.832 57.0643 21.9353C57.0643 31.0446 49.9451 38.4539 40.9998 38.971Z" fill="#151515"/>
</svg>
