<svg width="80" height="80" viewBox="0 0 80 80" fill="none" xmlns="http://www.w3.org/2000/svg">
<path fill-rule="evenodd" clip-rule="evenodd" d="M25.5698 8.65726C25.3506 9.17013 25.1003 9.70826 24.8153 10.2609C23.1284 13.5315 20.1887 17.3762 15.2198 19.4323L14.4551 17.5842C18.841 15.7694 21.4823 12.3599 23.0378 9.34413C23.8139 7.83934 24.3107 6.44883 24.6127 5.43665C24.7635 4.93132 24.8651 4.52242 24.9284 4.24344C24.96 4.10402 24.982 3.99723 24.9958 3.9273C25.0027 3.89234 25.0075 3.8666 25.0104 3.85062L25.0134 3.83405L25.0137 3.83251L25.0138 3.83187C25.0138 3.8319 25.0138 3.83194 25.0154 3.83226L26.8948 3.55933C26.8967 3.55832 26.8967 3.55828 26.8967 3.55823L26.9017 3.56813C26.9071 3.57868 26.9163 3.59659 26.9296 3.62144C26.956 3.67113 26.9982 3.74852 27.0569 3.85021C27.1743 4.05367 27.3575 4.35395 27.6118 4.72406C28.1208 5.4648 28.9123 6.48167 30.0296 7.56118C32.2603 9.71637 35.7904 12.1235 40.9879 13.0896L40.6224 15.0559C34.9732 14.0059 31.1004 11.3767 28.64 8.99952C28.2002 8.5746 27.8055 8.15781 27.4538 7.75956C28.0174 11.4961 28.8939 14.7312 30.2101 17.6893C31.9555 21.6119 34.4964 25.0969 38.1902 28.6327L38.1915 28.6339C46.1355 36.2648 57.1695 39 65.9995 39V41C57.1705 41 46.1764 43.7351 38.2318 51.3665L38.2306 51.3677C34.5154 54.9248 31.9646 58.4103 30.2146 62.3274C28.8951 65.2806 28.0179 68.508 27.4542 72.2402C27.8058 71.8421 28.2003 71.4254 28.64 71.0007C31.1004 68.6236 34.9732 65.9945 40.6224 64.9445L40.9879 66.9108C35.7904 67.8769 32.2603 70.284 30.0296 72.4391C28.9123 73.5185 28.1207 74.5353 27.6118 75.276C27.3575 75.6461 27.1743 75.9464 27.0569 76.1498C26.9982 76.2515 26.956 76.3289 26.9295 76.3786C26.9163 76.4035 26.9071 76.4214 26.9017 76.4319L26.897 76.441L26.8967 76.4418C26.8967 76.4418 26.8967 76.4417 26.8948 76.4407L25.0154 76.1678C25.0138 76.1681 25.0138 76.1681 25.0138 76.1682L25.0137 76.1675L25.0134 76.166L25.0104 76.1494C25.0075 76.1334 25.0027 76.1077 24.9958 76.0727C24.982 76.0028 24.96 75.896 24.9284 75.7566C24.8651 75.4776 24.7635 75.0688 24.6127 74.5634C24.3107 73.5513 23.8139 72.1608 23.0378 70.6561C21.4823 67.6404 18.841 64.231 14.4551 62.4162L15.2198 60.5681C20.1887 62.6242 23.1284 66.4688 24.8153 69.7393C25.1005 70.2922 25.3509 70.8306 25.5702 71.3437C26.1574 67.7211 27.0528 64.5013 28.3885 61.5115C30.263 57.3159 32.9819 53.6242 36.8471 49.9234C42.5071 44.4869 49.5788 41.4254 56.3913 40.0011C49.564 38.578 42.4697 35.5164 36.8068 30.077C32.9605 26.3952 30.2519 22.7028 28.3829 18.5024C27.051 15.5091 26.1567 12.2832 25.5698 8.65726Z" fill="#151515"/>
</svg>
