<svg width="80" height="80" viewBox="0 0 80 80" fill="none" xmlns="http://www.w3.org/2000/svg">
<path fill-rule="evenodd" clip-rule="evenodd" d="M40 5C20.6639 5 5 20.6639 5 40C5 59.3361 20.6639 75 40 75C59.3361 75 75 59.3361 75 40C75 20.6639 59.3361 5 40 5ZM3 40C3 19.5593 19.5593 3 40 3C60.4407 3 77 19.5593 77 40C77 60.4407 60.4407 77 40 77C19.5593 77 3 60.4407 3 40ZM39 16.5759V9.38393H41V16.5759H39ZM50.8272 19.2077L54.4432 12.98L56.1728 13.9843L52.5568 20.212L50.8272 19.2077ZM59.788 27.4432L66.0157 23.8272L67.02 25.5568L60.7923 29.1728L59.788 27.4432ZM44.8191 37.932C43.2306 34.8931 39.4991 33.7453 36.4454 35.3416C33.4086 36.929 32.2603 40.6565 33.8517 43.709C34.2344 44.4131 35.2666 45.529 36.749 46.8788C38.1973 48.1977 39.9645 49.6431 41.6859 50.9897C43.405 52.3346 45.067 53.5721 46.3001 54.4739C46.4426 54.5781 46.5793 54.6778 46.7097 54.7726C46.7051 54.6126 46.7001 54.4446 46.6947 54.2694C46.6472 52.7447 46.5648 50.677 46.425 48.5016C46.2852 46.3232 46.0887 44.0514 45.8151 42.1136C45.5342 40.1245 45.1905 38.6425 44.8191 37.932ZM47.7545 56.7545C48.7544 56.7417 48.7544 56.7416 48.7544 56.7414L48.7544 56.7408L48.7543 56.7384L48.7542 56.7294L48.7537 56.6946L48.7516 56.5602C48.7497 56.4426 48.7466 56.2703 48.742 56.05C48.7328 55.6095 48.7177 54.9769 48.6937 54.2071C48.6458 52.6683 48.5625 50.5775 48.4209 48.3734C48.2796 46.1723 48.0792 43.8437 47.7954 41.8339C47.5188 39.8755 47.1443 38.0629 46.5916 37.0055C44.4837 32.9729 39.5366 31.4689 35.5189 33.5691C31.4863 35.6771 29.9823 40.6241 32.0825 44.6418L32.0824 44.6419L32.0889 44.6539C32.6529 45.6978 33.9394 47.0254 35.4024 48.3576C36.9035 49.7245 38.7146 51.2046 40.4536 52.565C42.1949 53.9272 43.8752 55.1782 45.1194 56.0882C45.7418 56.5434 46.2558 56.9138 46.6145 57.1706C46.7938 57.299 46.9345 57.399 47.0304 57.4672L47.1403 57.5449L47.1687 57.565L47.1761 57.5702L47.178 57.5716L47.1785 57.572C47.1787 57.5721 47.1788 57.5721 47.7545 56.7545ZM47.7545 56.7545L47.1788 57.5721C47.4859 57.7884 47.8884 57.8143 48.2207 57.6391C48.553 57.464 48.7592 57.1173 48.7544 56.7417L47.7545 56.7545ZM63.4241 39H70.6161V41H63.4241V39ZM60.7923 50.8272L67.02 54.4432L66.0157 56.1728L59.788 52.5568L60.7923 50.8272ZM52.5568 59.788L56.1728 66.0157L54.4432 67.02L50.8272 60.7923L52.5568 59.788Z" fill="#1D1D1B"/>
</svg>
