<svg width="80" height="80" viewBox="0 0 80 80" fill="none" xmlns="http://www.w3.org/2000/svg">
<path fill-rule="evenodd" clip-rule="evenodd" d="M32.4438 2.46771H33.0251H46.9767H47.558L47.8457 2.97281L54.4935 14.6451H67.8638H68.4418L68.7303 15.1459L75.7464 27.3233L76.0332 27.8211L75.7477 28.3196L69.0365 40.0352L75.7074 51.6803L75.9921 52.1774L75.7074 52.6745L68.7315 64.8519L68.4434 65.3548H67.8638H54.4918L47.8041 77.0293L47.516 77.5322H46.9364H33.0251H32.4455L32.1574 77.0293L25.4697 65.3548H12.138H11.5584L11.2703 64.8519L4.29451 52.6745L4.00977 52.1774L4.29451 51.6803L10.9856 40L4.29451 28.3196L4.00977 27.8225L4.29451 27.3255L11.2703 15.1481L11.5584 14.6451H12.138H25.5084L32.1562 2.97281L32.4438 2.46771ZM12.7176 41L6.31468 52.1774L12.7176 63.3548H25.4697L31.8735 52.1759L25.5084 41H12.7176ZM33.6047 53.1774L27.2018 64.3548L33.6047 75.5322H46.3568L52.7598 64.3548L46.3568 53.1774H33.6047ZM54.4935 63.3548H67.2842L73.6872 52.1774L67.2842 41H54.5322L48.1284 52.1788L54.4935 63.3548ZM54.5322 39H67.3246L73.7267 27.824L67.2859 16.6451H54.4935L48.1284 27.8211L54.5322 39ZM52.7606 15.6437L46.3568 26.8225H33.6064L27.2405 15.6451L33.6064 4.46771H46.3955L52.7606 15.6437ZM31.8735 27.8211L25.4697 39H12.7176L6.31468 27.8226L12.7176 16.6451H25.5084L31.8735 27.8211ZM33.6451 51.1774H46.3568L52.7799 39.9648L46.3971 28.8225H33.6064L27.2413 39.9985L33.6451 51.1774Z" fill="#151515"/>
</svg>
