<svg width="80" height="80" viewBox="0 0 80 80" fill="none" xmlns="http://www.w3.org/2000/svg">
<path fill-rule="evenodd" clip-rule="evenodd" d="M40.0138 2.83862L40.8262 4.0349C42.5822 6.62066 45.3283 9.24314 48.5527 12.0998C49.3675 12.8217 50.2121 13.5579 51.0749 14.3099C53.5914 16.5035 56.2621 18.8314 58.7958 21.3291C65.6092 28.0459 71.6844 36.2247 71.6844 47.137C71.6844 64.6568 57.4115 77.129 39.999 77.129C22.5873 77.129 8.31348 64.698 8.31348 47.137C8.31348 36.2284 14.324 28.0404 21.1096 21.3158C23.7157 18.7332 26.4698 16.335 29.061 14.0785C29.8398 13.4004 30.6038 12.7351 31.3447 12.0815C34.5814 9.22579 37.3623 6.60435 39.1813 4.02098L40.0138 2.83862ZM22.5174 22.7364C15.8554 29.3385 10.3135 37.0375 10.3135 47.137C10.3135 63.447 23.5396 75.129 39.999 75.129C56.4573 75.129 69.6844 63.4076 69.6844 47.137C69.6844 37.0412 64.0863 29.3531 57.3917 22.7534C54.9057 20.3026 52.3032 18.0341 49.7985 15.8508C48.9263 15.0905 48.0659 14.3406 47.2264 13.5968C44.4368 11.1254 41.8674 8.71373 39.9863 6.27952C38.0616 8.70276 35.4692 11.1096 32.6678 13.5812C31.9069 14.2525 31.1296 14.9295 30.3426 15.6148C27.76 17.8638 25.0731 20.2037 22.5174 22.7364Z" fill="#151515"/>
</svg>
