<svg width="80" height="80" viewBox="0 0 80 80" fill="none" xmlns="http://www.w3.org/2000/svg">
<path fill-rule="evenodd" clip-rule="evenodd" d="M28 11C28 6.44772 31.4477 3 36 3C40.5523 3 44 6.44772 44 11V51.4393C47.785 53.8758 50 58.2302 50 63C50 70.5007 44.6025 77 36 77C27.3975 77 22 70.5007 22 63C22 58.2302 24.215 53.8758 28 51.4393V11ZM36 5C32.5523 5 30 7.55228 30 11V52L29.5009 52.8655C26.0951 54.8364 24 58.6596 24 63C24 69.4993 28.6025 75 36 75C43.3975 75 48 69.4993 48 63C48 58.6596 45.9049 54.8364 42.4991 52.8655L42 52V11C42 7.55228 39.4477 5 36 5ZM57 13H49V11H57V13ZM57 21H49V19H57V21ZM35 64V20H37V64H35ZM57 29H49V27H57V29ZM57 37H49V35H57V37ZM57 45H49V43H57V45Z" fill="#151515"/>
</svg>
