<svg width="80" height="80" viewBox="0 0 80 80" fill="none" xmlns="http://www.w3.org/2000/svg">
<path fill-rule="evenodd" clip-rule="evenodd" d="M3 11H4H18.9921H19.9921V12V19H31V12V11H32H48H49V12V19H60.0082V12V11H61.0082H76H77V12V28V29H76H61.0082H60.0082V28V21H49V28V29H48H41.0013V37H54H55V38V67V68H54H26.0003H25.0003L25.0003 67L25 38L25 37H26H39.0013V29H32H31V28V21H19.9921V28V29H18.9921H4H3V28V12V11ZM5 13V27H17.9921V13H5ZM33 13V27H47V13H33ZM62.0082 13V27H75V13H62.0082ZM27.0003 66L27 39H40.0013H53V66H27.0003Z" fill="#151515"/>
</svg>
