<svg width="80" height="80" viewBox="0 0 80 80" fill="none" xmlns="http://www.w3.org/2000/svg">
<path fill-rule="evenodd" clip-rule="evenodd" d="M29.5871 21.7868L38.2771 36.9999H20.4001L10.4792 27.5469L9.09953 28.9948L17.5009 36.9999H3V38.9999H40H77V36.9999H62.6008L71.0011 29.4197L69.6612 27.9348L59.6155 36.9999H41.7504L50.6436 21.9143L64.2797 18.3053L63.768 16.3719L52.0888 19.463L59.5824 6.75159L57.8595 5.73591L50.5158 18.1929L47.557 6.68561L45.62 7.18367L49.0779 20.632L40.0136 36.0077L31.1676 20.5214L34.7788 7.11342L32.8477 6.59329L29.76 18.0573L22.5893 5.50391L20.8526 6.49591L28.1746 19.314L16.5271 16.0505L15.9875 17.9764L29.5871 21.7868ZM39.6768 60.1205C39.6768 52.0963 44.3139 46.9351 51.4913 46.9351C56.7735 46.9351 60.7655 49.9996 61.9348 54.9593H59.1526C58.1445 51.3705 55.2413 49.2334 51.2897 49.2334C46.0074 49.2334 42.6203 53.4673 42.6203 60.0802C42.6203 66.7334 46.088 71.048 51.4106 71.048C55.4429 71.048 58.3058 68.9915 59.3139 65.3222H62.0961C60.8864 70.4028 56.8542 73.3867 51.209 73.3867C44.1929 73.3867 39.6768 68.1851 39.6768 60.1205ZM12.0967 62.2175H22.8225V64.5159H12.0967V62.2175ZM31.089 46.9351C28.3874 46.9351 26.21 49.1528 26.21 51.8544C26.21 54.556 28.3874 56.7738 31.089 56.7738C33.8309 56.7738 36.0487 54.556 36.0487 51.8544C36.0487 49.0722 33.8713 46.9351 31.089 46.9351ZM31.089 55.1205C29.3954 55.1205 28.0245 53.6689 28.0245 51.8544C28.0245 49.9996 29.3551 48.5883 31.089 48.5883C32.9035 48.5883 34.2745 49.9996 34.2745 51.8544C34.2745 53.6689 32.8632 55.1205 31.089 55.1205Z" fill="#151515"/>
</svg>
