<svg width="80" height="80" viewBox="0 0 80 80" fill="none" xmlns="http://www.w3.org/2000/svg">
<path fill-rule="evenodd" clip-rule="evenodd" d="M19 23C19 20.2386 21.2386 18 24 18C26.7614 18 29 20.2386 29 23C29 25.7614 26.7614 28 24 28C21.2386 28 19 25.7614 19 23ZM30.9291 22C30.4439 18.6077 27.5265 16 24 16C20.4735 16 17.5561 18.6077 17.0709 22H3V24H17.0709C17.5561 27.3923 20.4735 30 24 30C27.5265 30 30.4439 27.3923 30.9291 24H77V22H30.9291ZM61 40C61 37.2386 58.7614 35 56 35C53.2386 35 51 37.2386 51 40C51 42.7614 53.2386 45 56 45C58.7614 45 61 42.7614 61 40ZM3 39H49.0709C49.5561 35.6077 52.4735 33 56 33C59.5265 33 62.4439 35.6077 62.9291 39H77V41H62.9291C62.4439 44.3923 59.5265 47 56 47C52.4735 47 49.5561 44.3923 49.0709 41H3V39ZM24 52C21.2386 52 19 54.2386 19 57C19 59.7614 21.2386 62 24 62C26.7614 62 29 59.7614 29 57C29 54.2386 26.7614 52 24 52ZM30.9291 56C30.4439 52.6077 27.5265 50 24 50C20.4735 50 17.5561 52.6077 17.0709 56H3V58H17.0709C17.5561 61.3923 20.4735 64 24 64C27.5265 64 30.4439 61.3923 30.9291 58H77V56H30.9291Z" fill="#151515"/>
</svg>
