<svg width="80" height="81" viewBox="0 0 80 81" fill="none" xmlns="http://www.w3.org/2000/svg">
<path fill-rule="evenodd" clip-rule="evenodd" d="M17.2581 34.9018L20.9274 45.5066H9.71774L13.3468 34.8211C14.1129 32.6034 14.6774 30.305 15.2016 28.1679H15.3226L15.4181 28.5297C15.9515 30.5512 16.4971 32.6188 17.2581 34.9018ZM4.91935 60.8292L8.75 49.2163H21.8548L25.7661 60.8292H30.8468L18.2661 23.934H12.5806L0 60.8292H4.91935ZM41.1701 42.4422V35.9905H39.4362V42.4422H33.2266V44.0954H39.4362V50.547H41.1701V44.0954H47.3798V42.4422H41.1701ZM57.5002 35.9905V42.4422H63.6695V44.0954H57.5002V50.547H55.7663V44.0954H49.5566V42.4422H55.7663V35.9905H57.5002ZM72.0561 42.4422V35.9905H73.8303V42.4422H79.9996V44.0954H73.8303V50.547H72.0561V44.0954H65.8867V42.4422H72.0561Z" fill="#151515"/>
</svg>
