<svg width="80" height="80" viewBox="0 0 80 80" fill="none" xmlns="http://www.w3.org/2000/svg">
<path fill-rule="evenodd" clip-rule="evenodd" d="M2.78299 23.0267V24.9733C2.78233 24.9761 2.78228 24.976 2.78223 24.976L2.78253 24.9761L2.78299 24.9762L2.79473 24.979C2.80699 24.9819 2.82744 24.9868 2.85559 24.994C2.91191 25.0083 2.99894 25.0313 3.11285 25.0642C3.34081 25.1301 3.67548 25.2354 4.0863 25.3895C4.90962 25.6982 6.02885 26.199 7.20493 26.9635C9.55248 28.4894 12.0958 31.0413 13.0237 35.2169L14.9761 34.7831C13.904 29.9587 10.9474 27.0107 8.29491 25.2866C8.14188 25.1871 7.98976 25.0916 7.83896 25H13.9999C20.846 25 25.5366 26.7106 28.5296 29.8187C31.5295 32.9339 32.9999 37.6348 32.9999 44V46H2.99992V48H32.9999V54H2.99992V56H32.9999V68H34.9999V56H44.9999V68H46.9999V56H76.9999V54H46.9999V48H76.9999V46H46.9999V44C46.9999 37.6348 48.4703 32.9339 51.4702 29.8187C54.4632 26.7106 59.1538 25 65.9999 25H72.1609C72.0101 25.0916 71.858 25.1871 71.7049 25.2866C69.0525 27.0107 66.0958 29.9587 65.0237 34.7831L66.9761 35.2169C67.904 31.0413 70.4474 28.4894 72.7949 26.9635C73.971 26.199 75.0902 25.6982 75.9135 25.3895C76.3243 25.2354 76.659 25.1301 76.887 25.0642C77.0009 25.0313 77.0879 25.0083 77.1442 24.994L77.18 24.985L77.2051 24.979L77.2169 24.9762L77.2173 24.9761L77.2176 24.976C77.2176 24.976 77.2175 24.9761 77.2169 24.9733V23.0267C77.2175 23.024 77.2176 23.024 77.2176 23.024L77.2173 23.0239L77.2169 23.0238L77.2051 23.0211L77.1738 23.0135L77.1442 23.0061C77.0879 22.9918 77.0009 22.9688 76.887 22.9358C76.659 22.8699 76.3243 22.7646 75.9135 22.6106C75.0902 22.3018 73.971 21.801 72.7949 21.0366C70.4474 19.5107 67.904 16.9587 66.9761 12.7831L65.0237 13.2169C66.0958 18.0413 69.0525 20.9894 71.7049 22.7135C71.858 22.8129 72.0101 22.9084 72.1609 23H65.9999C58.846 23 53.5366 24.7895 50.0296 28.4314C46.5295 32.0661 44.9999 37.3652 44.9999 44V46H34.9999V44C34.9999 37.3652 33.4703 32.0661 29.9702 28.4314C26.4632 24.7895 21.1538 23 13.9999 23H7.83896C7.98976 22.9084 8.14188 22.8129 8.29491 22.7135C10.9474 20.9894 13.904 18.0413 14.9761 13.2169L13.0237 12.7831C12.0958 16.9587 9.55248 19.5107 7.20493 21.0366C6.02885 21.801 4.90962 22.3018 4.0863 22.6106C3.67548 22.7646 3.34081 22.8699 3.11285 22.9358C2.99894 22.9688 2.91191 22.9918 2.85559 23.0061C2.82744 23.0132 2.80699 23.0181 2.79473 23.0211L2.78299 23.0238L2.78253 23.0239L2.78223 23.024C2.78228 23.024 2.78233 23.024 2.78299 23.0267ZM44.9999 48H34.9999V54H44.9999V48Z" fill="#151515"/>
</svg>
