<svg width="80" height="80" viewBox="0 0 80 80" fill="none" xmlns="http://www.w3.org/2000/svg">
<path fill-rule="evenodd" clip-rule="evenodd" d="M61.7068 11.2929L60.9996 10.5858L59.5854 12L60.2925 12.7071L73.5854 26H2.00009H1.00009V28H2.00009H73.4626L60.3173 40.2689L59.5863 40.9513L60.9509 42.4134L61.682 41.7311L76.682 27.7311L77.4387 27.0248L76.7067 26.2929L61.7068 11.2929ZM16.2934 38.2929L17.0005 37.5858L18.4148 39L17.7076 39.7071L4.41476 53H76.0001H77.0001V55H76.0001H4.53756L17.6829 67.2689L18.4139 67.9513L17.0493 69.4134L16.3182 68.7311L1.31822 54.7311L0.561523 54.0248L1.29343 53.2929L16.2934 38.2929Z" fill="#151515"/>
</svg>
