<svg width="80" height="80" viewBox="0 0 80 80" fill="none" xmlns="http://www.w3.org/2000/svg">
<path fill-rule="evenodd" clip-rule="evenodd" d="M40 5C20.6639 5 5 20.6639 5 40C5 59.3361 20.6639 75 40 75C59.3361 75 75 59.3361 75 40C75 20.6639 59.3361 5 40 5ZM3 40C3 19.5593 19.5593 3 40 3C60.4407 3 77 19.5593 77 40C77 60.4407 60.4407 77 40 77C19.5593 77 3 60.4407 3 40ZM38.6741 44.251L58.5786 24.3465L59.9928 25.7607L39.3812 46.3723L38.6741 47.0794L37.967 46.3723L26.717 35.1223L28.1312 33.7081L38.6741 44.251Z" fill="#151515"/>
</svg>
