<svg width="80" height="81" viewBox="0 0 80 81" fill="none" xmlns="http://www.w3.org/2000/svg">
<path fill-rule="evenodd" clip-rule="evenodd" d="M14.2412 4H15.9997H39.9997H63.9997H65.7584L64.8591 5.51136L52.7564 25.8505L40.8665 46.499L40.0001 48.0038L39.1334 46.4991L27.2401 25.8506L15.1403 5.51127L14.2412 4ZM17.7582 6L28.9625 24.834L28.9697 24.8461L28.9697 24.8462L39.9998 43.9962L51.0268 24.8463L51.0304 24.8401L51.0341 24.8339L62.241 6H39.9997H17.7582ZM39.9954 54.0973L40.8482 55.4731L46.816 65.1007L46.8234 65.1126L46.8304 65.1247L52.8643 75.4972L53.7386 77H52H40H27.9999H26.256L27.1369 75.4949L33.2078 65.1224L33.2135 65.1128L33.2193 65.1033L39.1467 55.4757L39.9954 54.0973ZM40.0012 57.9027L34.9282 66.1424L29.7439 75H40H50.2613L45.1087 66.1425L40.0012 57.9027Z" fill="#151515"/>
</svg>
