<svg width="80" height="80" viewBox="0 0 80 80" fill="none" xmlns="http://www.w3.org/2000/svg">
<path fill-rule="evenodd" clip-rule="evenodd" d="M73.9996 7V6H72.9996L6.99958 6.00001L5.99959 6.00001L5.99958 7L5.99903 73L5.99902 74H6.99903H72.9996H73.9996V73V7ZM7.99904 72L7.99957 8.00001L71.9996 8V72H7.99904ZM16 25C16 20.0106 20.0106 16 25 16C29.9894 16 34 20.0106 34 25C34 29.9894 29.9894 34 25 34C20.0106 34 16 29.9894 16 25ZM25 14C18.906 14 14 18.906 14 25C14 31.094 18.906 36 25 36C31.094 36 36 31.094 36 25C36 18.906 31.094 14 25 14Z" fill="#151515"/>
</svg>
