<svg width="80" height="80" viewBox="0 0 80 80" fill="none" xmlns="http://www.w3.org/2000/svg">
<path fill-rule="evenodd" clip-rule="evenodd" d="M39.0001 66V58.0498L22.0001 58.0263V66H20.0001V58.0235L2.99902 58L3.00179 56L20.0001 56.0235V40H12.0004C6.368 40 3.00041 35.4686 3.00041 31C3.00041 26.5314 6.368 22 12.0004 22H20.0001V14.0001H22.0001V22H39.0001V14H41.0001V22H58.0001V14H60.0001V22H76.0004V24H60.0001V38H67.0004C69.8675 38 72.1376 39.4426 73.6615 41.3822C75.1728 43.3058 76 45.7727 76 48C76 50.2279 75.1726 52.6935 73.6634 54.6265C72.1425 56.5745 69.8789 58.0377 67.0181 58.0883L66.999 58.0885L60.0001 58.0788V66H58.0001V58.076L41.0001 58.0525V66H39.0001ZM60.0001 56.0788L66.9919 56.0885C69.127 56.0477 70.8598 54.9675 72.087 53.3957C73.3276 51.8066 74 49.7722 74 48C74 46.2273 73.3274 44.1942 72.0889 42.6178C70.863 41.0574 69.1333 40 67.0004 40H60.0001V56.0788ZM58.0001 40V56.076L41.0001 56.0525V40H58.0001ZM58.0001 38V24H41.0001V38H58.0001ZM39.0001 56.0498V40H22.0001V56.0263L39.0001 56.0498ZM22.0001 24H39.0001V38H22.0001V24ZM20.0001 24H12.0004C7.63282 24 5.00041 27.4686 5.00041 31C5.00041 34.5314 7.63282 38 12.0004 38H20.0001V24Z" fill="#151515"/>
</svg>
