<svg width="80" height="81" viewBox="0 0 80 81" fill="none" xmlns="http://www.w3.org/2000/svg">
<path fill-rule="evenodd" clip-rule="evenodd" d="M4.87109 40.426C4.87109 23.6799 18.4153 10.1357 35.1614 10.1357C50.7195 10.1357 60.3126 21.7885 65.1284 37.1233C64.451 36.4751 63.6578 35.7802 62.7568 35.0941C59.453 32.5785 54.6237 30.1264 48.7027 30.6394L48.8754 32.632C54.1238 32.1772 58.4678 34.3421 61.5451 36.6853C63.0798 37.8539 64.2806 39.0534 65.0966 39.9598C65.5041 40.4123 65.8139 40.7899 66.0198 41.0516C66.1227 41.1824 66.1996 41.284 66.2496 41.3513C66.2746 41.385 66.2928 41.41 66.3043 41.4259L66.3163 41.4426L66.318 41.445L66.3183 41.4455L66.3196 41.4444L68.1336 40.8513L68.1357 40.8514L68.1357 40.8506V40.8501L68.1355 40.8344C68.1355 40.8233 68.1355 40.807 68.1356 40.7857C68.1357 40.7775 68.1357 40.7687 68.1358 40.7591C68.1366 40.6896 68.1388 40.5825 68.145 40.441C68.1572 40.1579 68.185 39.738 68.2474 39.2079C68.3723 38.1468 68.6352 36.6501 69.1869 34.93C70.2892 31.4923 72.5387 27.1765 77.1405 23.6381L75.9214 22.0526C70.9265 25.8933 68.4784 30.5895 67.2824 34.3192C67.1073 34.8654 66.9588 35.3911 66.8331 35.8907C61.8237 20.4841 51.7907 8.13571 35.1614 8.13571C17.3107 8.13571 2.87109 22.5754 2.87109 40.426C2.87109 58.2767 17.3107 72.7164 35.1614 72.7164V70.7164C18.4153 70.7164 4.87109 57.1721 4.87109 40.426Z" fill="#151515"/>
<path d="M58.2675 61.7567L56.0497 54.9019C55.5658 53.3696 55.2433 51.9583 54.8804 50.5874H54.84C54.5175 51.9583 54.1949 53.4503 53.711 54.9019L51.5336 61.7567H58.2675ZM50.9287 64.1761L48.6304 71.6358H45.6465L53.2271 47.8858H56.6546L64.2352 71.6358H61.1707L58.7917 64.1761H50.9287Z" fill="#151515"/>
</svg>
