<svg width="80" height="81" viewBox="0 0 80 81" fill="none" xmlns="http://www.w3.org/2000/svg">
<path fill-rule="evenodd" clip-rule="evenodd" d="M49.7238 10.6052L49.9778 11.7905L52.9778 25.7905L53.1873 26.7683L51.2317 27.1873L51.0222 26.2095L48.6148 14.9749L34.3163 41.922L43.0597 60.754L67.8824 13.9728L56.8378 18.6062L55.9157 18.9931L55.142 17.1488L56.0641 16.762L69.6131 11.0779L70.7251 10.6114L70.9778 11.7905L73.9778 25.7905L74.1873 26.7683L72.2317 27.1873L72.0222 26.2095L69.6148 14.9749L44.6627 62H77H78V64H77H43.0011C43.0005 64 42.9998 64 42.9991 64H22.0011C22.0005 64 21.9998 64 21.9991 64H3H2V62H3H20.4332L8.09299 35.4211L7.67188 34.5141L9.4859 33.6719L9.90701 34.5789L22.0597 60.754L32.0837 41.8626L29.093 35.4211L28.6719 34.5141L30.4859 33.6719L30.907 34.5789L33.2597 39.6463L46.8719 13.9925L36.0361 18.6042L35.116 18.9958L34.3328 17.1556L35.2529 16.764L48.6084 11.0799L49.7238 10.6052ZM23.6627 62H41.4332L33.1403 44.1384L23.6627 62Z" fill="#151515"/>
</svg>
