<svg width="80" height="80" viewBox="0 0 80 80" fill="none" xmlns="http://www.w3.org/2000/svg">
<path fill-rule="evenodd" clip-rule="evenodd" d="M40 3C36.4282 3 33.0004 3.70948 29.8856 5.00528L29.8856 5.00526L29.8796 5.00781C26.7255 6.34424 23.8276 8.30514 21.3925 10.7235C18.9566 13.1424 16.9796 16.0232 15.6324 19.2421C14.3033 22.3933 14 25.5292 14 29V36.0694C12.2437 36.3206 11.1584 37.1992 10.5496 37.8038C9.61051 38.7364 9 40.0298 9 41.4464V71.8616C9 73.2586 9.59606 74.6023 10.5591 75.5137C11.5151 76.458 12.8166 77 14.2077 77H65.8328C67.2812 77 68.5833 76.4055 69.4909 75.5042C70.448 74.5537 71 73.254 71 71.8616V41.4464C71 40.0469 70.4023 38.709 69.4909 37.8038C68.8756 37.1928 67.7602 36.3188 66 36.069V29C66 25.5403 65.7396 22.3994 64.4082 19.2423C63.061 16.0234 61.0839 13.1425 58.648 10.7235C56.2122 8.30449 53.3121 6.34189 50.0726 5.00474C46.9598 3.70992 43.5729 3 40 3ZM64 29V36H16V29C16 25.6409 16.2967 22.8129 17.4757 20.0181L17.4768 20.0155C18.7189 17.0474 20.5447 14.384 22.8017 12.1426C25.0589 9.90101 27.7433 8.08562 30.6567 6.85065C33.5291 5.65614 36.695 5 40 5C43.3045 5 46.4311 5.65595 49.3057 6.85186L49.3083 6.85294C52.299 8.08721 54.9817 9.90119 57.2387 12.1426C59.4957 14.384 61.3216 17.0474 62.5637 20.0155L62.5648 20.0181C63.7412 22.807 64 25.6299 64 29ZM11.9589 39.2229C12.4557 38.7296 13.3559 38 15 38H16H65C66.6519 38 67.5925 38.7372 68.0816 39.2229C68.6267 39.7642 69 40.596 69 41.4464V71.8616C69 72.7192 68.6619 73.5088 68.0816 74.0851C67.5326 74.6302 66.7309 75 65.8328 75H14.2077C13.3377 75 12.5395 74.6617 11.9589 74.0851L11.9493 74.0756L11.9394 74.0663C11.3709 73.5314 11 72.7098 11 71.8616V41.4464C11 40.6131 11.3605 39.8172 11.9589 39.2229ZM40 43C37.8215 43 35.8096 43.864 34.3616 45.2993C32.9236 46.7246 32 48.7192 32 50.9005C32 52.19 32.3026 53.4473 32.8758 54.5428C33.3137 55.4083 34.0822 56.4426 35 57.4069V64L35 64.0268C34.9999 65.0033 34.9997 66.3457 36.2748 67.6886C36.5843 68.0145 36.9353 68.365 37.384 68.6152C37.8636 68.8825 38.3849 69 39 69H40.9945C41.6095 69 42.1314 68.8826 42.6116 68.6161C43.0619 68.3662 43.4141 68.0162 43.7252 67.6886C45.0003 66.3457 45.0001 65.0033 45 64.0268V64V57.3992C45.8978 56.4321 46.6487 55.4076 47.1111 54.5674L47.1159 54.5587L47.1205 54.5499C47.6949 53.4551 48 52.2335 48 50.9005C48 48.733 47.1249 46.7347 45.6767 45.2993L45.6659 45.2886L45.6548 45.2783C44.1923 43.9139 42.2341 43 40 43ZM35.7695 46.7197C36.8462 45.6525 38.3534 45 40 45C41.6621 45 43.1423 45.6741 44.2794 46.7303C45.3494 47.7965 46 49.2818 46 50.9005C46 51.9144 45.7713 52.8132 45.354 53.6119C44.9451 54.3523 44.2024 55.3577 43.2832 56.3028L43 56.5939V57V64C43 64.917 42.988 65.5603 42.2748 66.3114C41.9739 66.6284 41.8015 66.7783 41.6412 66.8673C41.5107 66.9397 41.3359 67 40.9945 67H39C38.6588 67 38.4861 66.9398 38.3578 66.8682C38.1986 66.7795 38.0277 66.63 37.7252 66.3114C37.012 65.5603 37 64.917 37 64V57V56.5858L36.7071 56.2929C35.7559 55.3417 35.0164 54.3457 34.6579 53.6349L34.6543 53.6278L34.6506 53.6207C34.2317 52.8222 34 51.883 34 50.9005C34 49.2902 34.683 47.7967 35.7695 46.7197Z" fill="#151515"/>
</svg>
