<svg width="80" height="80" viewBox="0 0 80 80" fill="none" xmlns="http://www.w3.org/2000/svg">
<path fill-rule="evenodd" clip-rule="evenodd" d="M40.193 11.3305V2.86279H38.193V11.3305H40.193ZM21.23 7.91897L25.4639 15.2577L27.1962 14.2582L22.9624 6.91952L21.23 7.91897ZM58.4074 7.72597L54.1735 15.0647L55.9059 16.0641L60.1398 8.72542L58.4074 7.72597ZM39.9994 15.4515C33.2362 15.4515 27.0554 18.1822 22.6377 22.6409C18.1838 27.0955 15.451 33.2337 15.451 39.9999C15.451 46.7631 18.1817 52.9439 22.6404 57.3615C27.095 61.8155 33.2332 64.5483 39.9994 64.5483V62.5483C33.7824 62.5483 28.1469 60.0396 24.0533 55.946L24.0499 55.9427C19.9614 51.8927 17.451 46.2195 17.451 39.9999C17.451 33.7829 19.9596 28.1474 24.0533 24.0538L24.0566 24.0504C28.1065 19.9619 33.7798 17.4515 39.9994 17.4515C46.2182 17.4515 51.8935 19.9615 55.9858 24.0538C60.0401 28.108 62.5881 33.7841 62.5881 39.9999H64.5881C64.5881 33.2318 61.8136 27.0531 57.4001 22.6396C52.944 18.1835 46.7644 15.4515 39.9994 15.4515ZM15.2572 25.5047L7.91848 21.2708L6.91903 23.0032L14.2577 27.237L15.2572 25.5047ZM72.0803 21.2708L64.7416 25.5047L65.7411 27.237L73.0798 23.0032L72.0803 21.2708ZM11.33 39.8063H2.8623V41.8063H11.33V39.8063ZM77.1365 39.8063H68.6688V41.8063H77.1365V39.8063ZM15.0642 54.174L7.72548 58.4079L8.72493 60.1403L16.0636 55.9064L15.0642 54.174ZM25.4639 64.7421L21.23 72.0808L22.9624 73.0803L27.1962 65.7415L25.4639 64.7421ZM40.193 77.137V68.6693H38.193V77.137H40.193ZM53.991 46H52.991V47V62H48.9995V64H52.991V69H49V71H52.991V77H54.991V71H63V69H54.991V64H65.9995C68.3874 64 70.1779 62.7852 71.3316 61.0547C72.4655 59.3539 72.9995 57.1484 72.9995 55C72.9995 52.8517 72.4655 50.6462 71.3316 48.9453C70.1779 47.2149 68.3874 46 65.9995 46H53.991ZM65.9995 62H54.991V48H65.9995C67.6116 48 68.8211 48.7852 69.6675 50.0547C70.5336 51.3539 70.9995 53.1484 70.9995 55C70.9995 56.8517 70.5336 58.6461 69.6675 59.9453C68.8211 61.2148 67.6116 62 65.9995 62Z" fill="#151515"/>
</svg>
