<svg width="80" height="81" viewBox="0 0 80 81" fill="none" xmlns="http://www.w3.org/2000/svg">
<path d="M77.1365 63.2083V61.2325C76.9349 61.1922 76.7333 61.1922 76.572 61.1922C75.0397 61.2325 73.8704 61.918 73.2655 63.168V61.2325H71.3301V72.2809H73.3059V66.5148C73.3059 64.0954 74.2333 63.1277 76.0478 63.1277C76.3704 63.1277 76.7333 63.168 77.1365 63.2083ZM59.9591 65.7889C60.1204 63.5712 61.7333 62.6841 63.4671 62.6841C65.5639 62.6841 66.7736 64.2567 66.8139 65.7889H59.9591ZM59.9591 67.4019H68.951C69.2333 63.8938 67.0559 61.0712 63.5075 61.0712C60.322 61.0712 57.8623 63.2889 57.8623 66.797C57.8623 70.0631 59.9188 72.5631 63.5881 72.5631C66.4107 72.5631 68.2655 70.9906 68.83 69.0954H66.7736C66.2897 70.1841 65.322 70.9099 63.5881 70.9099C61.8139 70.9099 60.0397 69.7809 59.9591 67.4019ZM52.1365 58.4906V61.2728H50.2817V62.7648H52.1365V69.5389C52.1365 71.8373 52.6607 72.3212 54.8784 72.3212H56.33V70.7486H55.322C54.193 70.7486 54.1123 70.4664 54.1123 69.297V62.7648H56.33V61.2728H54.1123V58.4906H52.1365ZM49.5962 63.2083V61.2325C49.3946 61.1922 49.1929 61.1922 49.0317 61.1922C47.4994 61.2325 46.33 61.918 45.7252 63.168V61.2325H43.7897V72.2809H45.7655V66.5148C45.7655 64.0954 46.6929 63.1277 48.5075 63.1277C48.7897 63.1277 49.1526 63.168 49.5962 63.2083ZM32.4188 65.7889C32.58 63.5712 34.1929 62.6841 35.9268 62.6841C38.0236 62.6841 39.2333 64.2567 39.2736 65.7889H32.4188ZM32.3784 67.4019H41.3704C41.6123 63.8938 39.4752 61.0712 35.9268 61.0712C32.7413 61.0712 30.2817 63.2889 30.2817 66.797C30.2817 70.0631 32.3381 72.5631 36.0075 72.5631C38.83 72.5631 40.6849 70.9906 41.2494 69.0954H39.1526C38.6688 70.1841 37.701 70.9099 35.9671 70.9099C34.2333 70.9099 32.4591 69.7809 32.3784 67.4019ZM24.3946 69.7002L21.2091 61.2325H19.0317L23.4268 72.2809H25.201L29.5962 61.2325H27.58L24.3946 69.7002ZM10.0397 62.926V61.2728H8.06392V72.3212H10.0397V66.3131C10.0397 63.9341 11.2091 62.6841 13.1042 62.6841C15.3623 62.6841 15.6446 64.176 15.6446 65.8696V72.2809H17.6204V65.3051C17.6204 62.7648 16.6123 61.0712 13.7897 61.0712C11.8542 61.0712 10.7252 61.8777 10.0397 62.926ZM4.83811 61.2728H2.8623V72.3212H4.83811V61.2728ZM4.83811 57.4019H2.8623V59.6599H4.83811V57.4019Z" fill="#151515"/>
<path fill-rule="evenodd" clip-rule="evenodd" d="M21.9681 10.3258C18.2831 10.3204 14.2534 13.239 10.7201 19.8491L4.63172 31.2597L2.86719 30.3182L8.9559 18.907L8.95625 18.9063C12.6004 12.089 17.1518 8.31874 21.971 8.32578C26.7952 8.33284 31.2672 12.1219 34.7574 18.9159L40.8814 30.5267L47.0058 41.7203L47.0104 41.7288L47.0104 41.7289C50.5495 48.3498 54.5045 51.2708 58.1446 51.2708C61.7847 51.2708 65.7397 48.3498 69.2788 41.7289L75.3672 30.3182L77.1317 31.2597L71.043 42.671L71.0426 42.6717C67.4044 49.4782 62.9319 53.2708 58.1446 53.2708C53.3584 53.2708 48.8869 49.4799 45.249 42.6763C45.2482 42.6747 45.2474 42.6732 45.2466 42.6717L39.1232 31.48L39.1159 31.4665L32.9859 19.8442L32.9808 19.8346L32.9809 19.8345C29.6015 13.2539 25.647 10.3312 21.9681 10.3258Z" fill="#151515"/>
</svg>
