<svg width="80" height="80" viewBox="0 0 80 80" fill="none" xmlns="http://www.w3.org/2000/svg">
<path fill-rule="evenodd" clip-rule="evenodd" d="M40 10C36.134 10 33 13.134 33 17C33 20.866 36.134 24 40 24C43.866 24 47 20.866 47 17C47 13.134 43.866 10 40 10ZM31 17C31 12.0294 35.0294 8 40 8C44.9706 8 49 12.0294 49 17C49 21.6326 45.5 25.4476 41 25.9451V34.0352C48.2653 34.5479 54 40.6042 54 48C54 49.9039 53.62 51.719 52.9316 53.3736L61.4468 58.1043C63.0513 55.6339 65.8348 54 69 54C73.9706 54 78 58.0294 78 63C78 67.9706 73.9706 72 69 72C64.0294 72 60 67.9706 60 63C60 61.8029 60.2337 60.6603 60.6581 59.6155L60.5144 59.8742L52.032 55.1618C49.5892 59.257 45.1149 62 40 62C35.0368 62 30.6769 59.4174 28.1907 55.5227L19.4494 59.8933C19.8056 60.8616 20 61.9081 20 63C20 67.9706 15.9706 72 11 72C6.02944 72 2 67.9706 2 63C2 58.0294 6.02944 54 11 54C14.1655 54 16.9493 55.6343 18.5537 58.1051L27.2375 53.7632C26.4425 52.0056 26 50.0545 26 48C26 40.6042 31.7347 34.5479 39 34.0352V25.9451C34.5 25.4476 31 21.6326 31 17ZM40 36C33.3726 36 28 41.3726 28 48C28 54.6274 33.3726 60 40 60C46.6274 60 52 54.6274 52 48C52 41.3726 46.6274 36 40 36ZM11 56C7.13401 56 4 59.134 4 63C4 66.866 7.13401 70 11 70C14.866 70 18 66.866 18 63C18 59.134 14.866 56 11 56ZM62 63C62 59.134 65.134 56 69 56C72.866 56 76 59.134 76 63C76 66.866 72.866 70 69 70C65.134 70 62 66.866 62 63Z" fill="#151515"/>
</svg>
