<svg width="80" height="81" viewBox="0 0 80 81" fill="none" xmlns="http://www.w3.org/2000/svg">
<path fill-rule="evenodd" clip-rule="evenodd" d="M63.0267 5.55911L63.7328 6.31955L76.7328 20.3195L77.4132 21.0523L75.9477 22.4132L75.2672 21.6805L63.9783 9.52312C63.6395 28.9838 59.3258 44.8676 49.8884 56.0209C40.0186 67.6853 24.6972 74 3 74H2V72H3C24.3028 72 38.9814 65.8147 48.3616 54.7291C57.3919 44.0569 61.6521 28.6812 61.9795 9.43472L49.7071 21.7071L49 22.4142L47.5858 21L48.2929 20.2929L62.2929 6.29289L63.0267 5.55911Z" fill="#151515"/>
<path fill-rule="evenodd" clip-rule="evenodd" d="M16 14.0467V34.9573C16.0001 34.9574 16.0002 34.9576 16.0003 34.9577C16.0053 34.9648 16.0118 34.9726 16.0196 34.9804C16.0274 34.9882 16.0352 34.9947 16.0423 34.9997C16.0424 34.9998 16.0426 34.9999 16.0427 35H20H21V36V54.6067C21.1522 54.3901 21.3503 54.0619 21.5984 53.5671L33.0915 28.5821L33.0983 28.5673L33.1056 28.5528C33.3593 28.0453 33.5948 27.5736 33.7684 27.1686C33.7937 27.1094 33.8171 27.0532 33.8384 27H27C26.6534 27 26.3316 26.8205 26.1493 26.5257C25.9671 26.2309 25.9506 25.8628 26.1056 25.5528L31.6056 14.5528C31.7168 14.3304 31.7967 14.1475 31.8542 14H16.0438C16.0374 14.0047 16.0303 14.0107 16.0231 14.018C16.0155 14.0257 16.009 14.0335 16.0039 14.0408C16.0024 14.0429 16.0011 14.0449 16 14.0467ZM32 13.5016C32 13.501 32 13.5005 32 13.5L32 13.5016ZM34.2601 27.0484C34.2602 27.0485 34.2591 27.048 34.2569 27.0467C34.259 27.0477 34.26 27.0483 34.2601 27.0484ZM21.0515 55.3155C21.0522 55.3171 21.0525 55.3179 21.0525 55.3179C21.0525 55.3179 21.0521 55.3171 21.0515 55.3155ZM14.6019 12.6107C14.9312 12.2782 15.4241 12 16 12H32C32.3791 12 32.7797 12.0797 33.1191 12.2421C33.3702 12.3622 34 12.7366 34 13.5C34 13.7659 33.9491 14.3379 33.3944 15.4472L28.618 25H34C34.3791 25 34.7797 25.0797 35.1191 25.2421C35.3702 25.3622 36 25.7366 36 26.5C36 26.7702 35.9364 27.0364 35.8707 27.2521C35.8013 27.4801 35.7079 27.7202 35.6066 27.9564C35.4075 28.4211 35.1467 28.9427 34.9028 29.4305L34.9017 29.4326L23.4085 54.4179L23.4017 54.4327L23.3944 54.4472C22.8815 55.473 22.4274 56.1387 21.9372 56.5309C21.6706 56.7441 21.3961 56.8753 21.1119 56.9422C20.8635 57.0006 20.6375 57.0002 20.5187 57C20.5121 57 20.5059 57 20.5 57C20.0062 57 19.6355 56.7472 19.4116 56.4493C19.2167 56.19 19.1302 55.9004 19.0859 55.6992C18.9995 55.307 18.9998 54.8803 19 54.6823L19 54.6597V37H16C15.4248 37 14.9332 36.7225 14.6054 36.3946C14.2775 36.0668 14 35.5752 14 35V14.0148C14 13.4394 14.2712 12.9447 14.6019 12.6107Z" fill="#151515"/>
</svg>
