<svg width="80" height="80" viewBox="0 0 80 80" fill="none" xmlns="http://www.w3.org/2000/svg">
<path fill-rule="evenodd" clip-rule="evenodd" d="M38.269 32L30.1233 17.8735L17.2848 14.3172L17.8187 12.3898L28.6991 15.4037L21.8349 3.49955L23.5674 2.50049L30.2769 14.1361L33.1616 3.54606L35.0913 4.07171L31.6847 16.5775L40.0128 31.0204L48.4954 16.741L45.2274 4.14082L47.1634 3.63872L49.9337 14.3199L56.8414 2.69151L58.5609 3.71296L51.5384 15.5346L62.4354 12.6695L62.9439 14.6037L50.0825 17.9853L41.7572 32H58.6159L68.0145 23.5303L69.3533 25.016L61.6034 32H75V34H40H5V32H18.4966L10.7478 24.6339L12.1258 23.1844L21.3995 32H38.269ZM16.0156 43.1849C17.871 41.1906 19.5281 39.4095 20.0173 36.8147L21.9838 36.8209C22.4581 39.426 24.0884 41.2109 25.9147 43.2104C26.0212 43.327 26.1283 43.4443 26.2359 43.5625C28.1336 45.6473 30.1554 48.0163 30.1781 51.6469L30.1782 51.6532C30.1782 56.5469 25.8543 60.7823 20.931 60.7823C16.0077 60.7823 11.6839 56.5469 11.6839 51.6532C11.6839 48.0127 13.7401 45.6395 15.671 43.5559C15.7865 43.4313 15.9014 43.3077 16.0156 43.1849ZM17.1379 44.9153C15.2025 47.0038 13.6839 48.8632 13.6839 51.6532C13.6839 55.4144 17.0842 58.7823 20.931 58.7823C24.7768 58.7823 28.1762 55.4163 28.1782 51.6564C28.1596 48.8583 26.656 46.9952 24.7569 44.9087C24.6292 44.7684 24.4994 44.6269 24.3682 44.4839C23.1833 43.1918 21.8868 41.7782 20.9879 40.0197C20.0706 41.7754 18.7519 43.1868 17.5482 44.475C17.4097 44.6233 17.2726 44.77 17.1379 44.9153ZM58.0162 36.8209L59.9827 36.8147C60.4719 39.4095 62.129 41.1906 63.9844 43.1849C64.0986 43.3077 64.2135 43.4313 64.329 43.5559C66.2599 45.6395 68.3161 48.0127 68.3161 51.6532C68.3161 56.5469 63.9923 60.7823 59.069 60.7823C54.1457 60.7823 49.8218 56.5469 49.8218 51.6532C49.8218 48.0181 51.8471 45.6465 53.7499 43.5615C53.8611 43.4397 53.9718 43.3188 54.0818 43.1987C55.9104 41.2025 57.543 39.4202 58.0162 36.8209ZM59.0109 40.0174C58.1105 41.7741 56.8112 43.1865 55.6247 44.4764C55.4905 44.6223 55.3577 44.7666 55.2271 44.9097C53.3225 46.9968 51.8218 48.8578 51.8218 51.6532C51.8218 55.4144 55.2221 58.7823 59.069 58.7823C62.9158 58.7823 66.3161 55.4144 66.3161 51.6532C66.3161 48.8632 64.7975 47.0038 62.8621 44.9153C62.7274 44.77 62.5903 44.6233 62.4518 44.475C61.2476 43.1862 59.9283 41.7741 59.0109 40.0174ZM34.2265 55.8515C36.4196 53.3131 38.4315 50.9843 39.0167 47.8183H40.9833C41.5685 50.9843 43.5804 53.3131 45.7735 55.8515C45.9214 56.0228 46.0702 56.1949 46.2193 56.3683C48.5151 59.0374 50.8965 62.0044 50.8965 66.2532C50.8965 71.9956 45.8089 77 40 77C34.1911 77 29.1034 71.9956 29.1034 66.2532C29.1034 62.0044 31.4849 59.0374 33.7807 56.3683C33.9298 56.1949 34.0786 56.0228 34.2265 55.8515ZM35.2969 57.6726C32.9864 60.3588 31.1034 62.8178 31.1034 66.2532C31.1034 70.8642 35.2686 75 40 75C44.7313 75 48.8965 70.8642 48.8965 66.2532C48.8965 62.8178 47.0136 60.3588 44.7031 57.6726C44.5367 57.4791 44.3678 57.2843 44.1974 57.0877C42.69 55.3489 41.0647 53.474 40 51.2055C38.9353 53.474 37.31 55.3489 35.8026 57.0877C35.6322 57.2843 35.4633 57.4791 35.2969 57.6726Z" fill="#151515"/>
</svg>
