<svg width="80" height="80" viewBox="0 0 80 80" fill="none" xmlns="http://www.w3.org/2000/svg">
<path fill-rule="evenodd" clip-rule="evenodd" d="M46 5H45V6V18.0164C30.3469 18.4994 19 29.5798 19 45V45.0036V45.0071V45.0107V45.0143V45.0179V45.0216V45.0252V45.0289V45.0326V45.0363V45.0401V45.0438V45.0476V45.0514V45.0552V45.059V45.0628V45.0667V45.0705V45.0744V45.0783V45.0823V45.0862V45.0901V45.0941V45.0981V45.1021V45.1061V45.1102V45.1142V45.1183V45.1224V45.1265V45.1306V45.1347V45.1389V45.1431V45.1472V45.1514V45.1557V45.1599V45.1641V45.1684V45.1727V45.177V45.1813V45.1856V45.19V45.1943V45.1987V45.2031V45.2075V45.2119V45.2164V45.2208V45.2253V45.2298V45.2343V45.2388V45.2433V45.2478V45.2524V45.257V45.2615V45.2661V45.2708V45.2754V45.28V45.2847V45.2894V45.2941V45.2988V45.3035V45.3082V45.3129V45.3177V45.3225V45.3273V45.3321V45.3369V45.3417V45.3465V45.3514V45.3563V45.3612V45.3661V45.371V45.3759V45.3808V45.3858V45.3907V45.3957V45.4007V45.4057V45.4107V45.4158V45.4208V45.4259V45.4309V45.436V45.4411V45.4462V45.4513V45.4565V45.4616V45.4668V45.4719V45.4771V45.4823V45.4875V45.4927V45.498V45.5032V45.5085V45.5137V45.519V45.5243V45.5296V45.5349V45.5403V45.5456V45.5509V45.5563V45.5617V45.5671V45.5725V45.5779V45.5833V45.5887V45.5942V45.5996V45.6051V45.6106V45.616V45.6215V45.6271V45.6326V45.6381V45.6436V45.6492V45.6548V45.6603V45.6659V45.6715V45.6771V45.6827V45.6884V45.694V45.6996V45.7053V45.711V45.7166V45.7223V45.728V45.7337V45.7394V45.7452V45.7509V45.7566V45.7624V45.7682V45.7739V45.7797V45.7855V45.7913V45.7971V45.8029V45.8088V45.8146V45.8205V45.8263V45.8322V45.8381V45.844V45.8498V45.8558V45.8617V45.8676V45.8735V45.8794V45.8854V45.8913V45.8973V45.9033V45.9093V45.9152V45.9212V45.9272V45.9333V45.9393V45.9453V45.9513V45.9574V45.9634V45.9695V45.9756V45.9816V45.9877V45.9938V45.9999V46.006V46.0121V46.0183V46.0244V46.0305V46.0367V46.0428V46.049V46.0551V46.0613V46.0675V46.0737V46.0799V46.0861V46.0923V46.0985V46.1047V46.1109V46.1171V46.1234V46.1296V46.1359V46.1421V46.1484V46.1547V46.1609V46.1672V46.1735V46.1798V46.1861V46.1924V46.1987V46.205V46.2114V46.2177V46.224V46.2304V46.2367V46.2431V46.2494V46.2558V46.2621V46.2685V46.2749V46.2813V46.2877V46.2941V46.3005V46.3069V46.3133V46.3197V46.3261V46.3325V46.3389V46.3454V46.3518V46.3583V46.3647V46.3712V46.3776V46.3841V46.3905V46.397V46.4035V46.4099V46.4164V46.4229V46.4294V46.4359V46.4424V46.4489V46.4554V46.4619V46.4684V46.4749V46.4814V46.4879V46.4945V46.501V46.5075V46.514V46.5206V46.5271V46.5337V46.5402V46.5468V46.5533V46.5599V46.5664V46.573V46.5795V46.5861V46.5927V46.5992V46.6058V46.6124V46.619V46.6256V46.6321V46.6387V46.6453V46.6519V46.6585V46.6651V46.6717V46.6783V46.6849V46.6915V46.6981V46.7047V46.7113V46.7179V46.7245V46.7311V46.7377V46.7443V46.751V46.7576V46.7642V46.7708V46.7774V46.784V46.7907V46.7973V46.8039V46.8105V46.8172V46.8238V46.8304V46.837V46.8437V46.8503V46.8569V46.8636V46.8702V46.8768V46.8835V46.8901V46.8967V46.9033V46.91V46.9166V46.9232V46.9299V46.9365V46.9431V46.9498V46.9564V46.963V46.9697V46.9763V46.9829V46.9895V46.9962V47H7H6V48V74V75H7H47C54.2395 75 61.0022 72.4121 65.9571 67.4571C70.9176 62.4966 74 55.2309 74 46V6V5H73H46ZM47 19V7H72V46C72 54.7691 69.0824 61.5034 64.5429 66.0429C59.9978 70.5879 53.7605 73 47 73H8V49H20H21V48V47.9941V47.9883V47.9824V47.9765V47.9706V47.9647V47.9588V47.9528V47.9469V47.941V47.935V47.9291V47.9231V47.9171V47.9111V47.9051V47.8991V47.8931V47.8871V47.8811V47.875V47.869V47.8629V47.8569V47.8508V47.8448V47.8387V47.8326V47.8265V47.8204V47.8143V47.8082V47.802V47.7959V47.7898V47.7836V47.7775V47.7713V47.7651V47.759V47.7528V47.7466V47.7404V47.7342V47.728V47.7218V47.7155V47.7093V47.7031V47.6968V47.6906V47.6843V47.6781V47.6718V47.6655V47.6592V47.653V47.6467V47.6404V47.6341V47.6278V47.6214V47.6151V47.6088V47.6025V47.5961V47.5898V47.5834V47.5771V47.5707V47.5644V47.558V47.5516V47.5452V47.5388V47.5324V47.526V47.5196V47.5132V47.5068V47.5004V47.494V47.4876V47.4811V47.4747V47.4683V47.4618V47.4554V47.4489V47.4425V47.436V47.4295V47.4231V47.4166V47.4101V47.4036V47.3972V47.3907V47.3842V47.3777V47.3712V47.3647V47.3582V47.3516V47.3451V47.3386V47.3321V47.3256V47.319V47.3125V47.306V47.2994V47.2929V47.2863V47.2798V47.2732V47.2667V47.2601V47.2536V47.247V47.2405V47.2339V47.2273V47.2207V47.2142V47.2076V47.201V47.1944V47.1878V47.1813V47.1747V47.1681V47.1615V47.1549V47.1483V47.1417V47.1351V47.1285V47.1219V47.1153V47.1087V47.1021V47.0955V47.0889V47.0822V47.0756V47.069V47.0624V47.0558V47.0492V47.0425V47.0359V47.0293V47.0227V47.016V47.0094V47.0028V46.9962V46.9895V46.9829V46.9763V46.9697V46.963V46.9564V46.9498V46.9431V46.9365V46.9299V46.9232V46.9166V46.91V46.9033V46.8967V46.8901V46.8835V46.8768V46.8702V46.8636V46.8569V46.8503V46.8437V46.837V46.8304V46.8238V46.8172V46.8105V46.8039V46.7973V46.7907V46.784V46.7774V46.7708V46.7642V46.7576V46.751V46.7443V46.7377V46.7311V46.7245V46.7179V46.7113V46.7047V46.6981V46.6915V46.6849V46.6783V46.6717V46.6651V46.6585V46.6519V46.6453V46.6387V46.6321V46.6256V46.619V46.6124V46.6058V46.5992V46.5927V46.5861V46.5795V46.573V46.5664V46.5599V46.5533V46.5468V46.5402V46.5337V46.5271V46.5206V46.514V46.5075V46.501V46.4945V46.4879V46.4814V46.4749V46.4684V46.4619V46.4554V46.4489V46.4424V46.4359V46.4294V46.4229V46.4164V46.4099V46.4035V46.397V46.3905V46.3841V46.3776V46.3712V46.3647V46.3583V46.3518V46.3454V46.3389V46.3325V46.3261V46.3197V46.3133V46.3069V46.3005V46.2941V46.2877V46.2813V46.2749V46.2685V46.2621V46.2558V46.2494V46.2431V46.2367V46.2304V46.224V46.2177V46.2114V46.205V46.1987V46.1924V46.1861V46.1798V46.1735V46.1672V46.1609V46.1547V46.1484V46.1421V46.1359V46.1296V46.1234V46.1171V46.1109V46.1047V46.0985V46.0923V46.0861V46.0799V46.0737V46.0675V46.0613V46.0551V46.049V46.0428V46.0367V46.0305V46.0244V46.0183V46.0121V46.006V45.9999V45.9938V45.9877V45.9816V45.9756V45.9695V45.9634V45.9574V45.9513V45.9453V45.9393V45.9333V45.9272V45.9212V45.9152V45.9093V45.9033V45.8973V45.8913V45.8854V45.8794V45.8735V45.8676V45.8617V45.8558V45.8498V45.844V45.8381V45.8322V45.8263V45.8205V45.8146V45.8088V45.8029V45.7971V45.7913V45.7855V45.7797V45.7739V45.7682V45.7624V45.7566V45.7509V45.7452V45.7394V45.7337V45.728V45.7223V45.7166V45.711V45.7053V45.6996V45.694V45.6884V45.6827V45.6771V45.6715V45.6659V45.6603V45.6548V45.6492V45.6436V45.6381V45.6326V45.6271V45.6215V45.616V45.6106V45.6051V45.5996V45.5942V45.5887V45.5833V45.5779V45.5725V45.5671V45.5617V45.5563V45.5509V45.5456V45.5403V45.5349V45.5296V45.5243V45.519V45.5137V45.5085V45.5032V45.498V45.4927V45.4875V45.4823V45.4771V45.4719V45.4668V45.4616V45.4565V45.4513V45.4462V45.4411V45.436V45.4309V45.4259V45.4208V45.4158V45.4107V45.4057V45.4007V45.3957V45.3907V45.3858V45.3808V45.3759V45.371V45.3661V45.3612V45.3563V45.3514V45.3465V45.3417V45.3369V45.3321V45.3273V45.3225V45.3177V45.3129V45.3082V45.3035V45.2988V45.2941V45.2894V45.2847V45.28V45.2754V45.2708V45.2661V45.2615V45.257V45.2524V45.2478V45.2433V45.2388V45.2343V45.2298V45.2253V45.2208V45.2164V45.2119V45.2075V45.2031V45.1987V45.1943V45.19V45.1856V45.1813V45.177V45.1727V45.1684V45.1641V45.1599V45.1557V45.1514V45.1472V45.1431V45.1389V45.1347V45.1306V45.1265V45.1224V45.1183V45.1142V45.1102V45.1061V45.1021V45.0981V45.0941V45.0901V45.0862V45.0823V45.0783V45.0744V45.0705V45.0667V45.0628V45.059V45.0552V45.0514V45.0476V45.0438V45.0401V45.0363V45.0326V45.0289V45.0252V45.0216V45.0179V45.0143V45.0107V45.0071V45.0036V45C21 30.366 31.9401 20 46 20H47V19ZM31 46C31 37.1634 38.1634 30 47 30C55.8366 30 63 37.1634 63 46C63 54.8366 55.8366 62 47 62C38.1634 62 31 54.8366 31 46ZM47 28C37.0589 28 29 36.0589 29 46C29 55.9411 37.0589 64 47 64C56.9411 64 65 55.9411 65 46C65 36.0589 56.9411 28 47 28Z" fill="#151515"/>
</svg>
