<svg width="80" height="80" viewBox="0 0 80 80" fill="none" xmlns="http://www.w3.org/2000/svg">
<path fill-rule="evenodd" clip-rule="evenodd" d="M9.07657 54.8485C9.58944 55.0677 10.1276 55.318 10.6802 55.6031C13.9508 57.2899 17.7955 60.2297 19.8516 65.1986L18.0036 65.9633C16.1887 61.5773 12.7792 58.936 9.76345 57.3806C8.25866 56.6044 6.86814 56.1076 5.85596 55.8056C5.35063 55.6549 4.94173 55.5533 4.66275 55.49C4.52333 55.4584 4.41654 55.4363 4.34661 55.4226C4.31165 55.4157 4.28591 55.4109 4.26994 55.408L4.25336 55.405L4.25182 55.4047L4.25118 55.4046C4.25122 55.4046 4.25125 55.4046 4.25157 55.4029L3.97864 53.5236C3.97764 53.5217 3.97759 53.5217 3.97754 53.5217L3.98744 53.5167C3.99799 53.5113 4.0159 53.502 4.04075 53.4888C4.09045 53.4624 4.16783 53.4202 4.26953 53.3615C4.47298 53.244 4.77326 53.0609 5.14337 52.8066C5.88411 52.2976 6.90098 51.506 7.98049 50.3887C10.1357 48.158 12.5429 44.628 13.5089 39.4305L15.4753 39.7959C14.4252 45.4452 11.796 49.318 9.41883 51.7784C8.99391 52.2182 8.57712 52.6128 8.17888 52.9646C11.9154 52.401 15.1505 51.5245 18.1086 50.2082C22.0312 48.4628 25.5162 45.922 29.052 42.2282L29.0532 42.2269C36.6841 34.2829 39.4193 23.2489 39.4193 14.4188L41.4193 14.4188C41.4193 23.2479 44.1544 34.242 51.7859 42.1866L51.787 42.1877C55.3441 45.903 58.8296 48.4538 62.7467 50.2038C65.6999 51.5232 68.9273 52.4004 72.6595 52.9642C72.2614 52.6126 71.8448 52.218 71.42 51.7784C69.0429 49.3179 66.4138 45.4452 65.3638 39.7959L67.3301 39.4304C68.2962 44.628 70.7033 48.158 72.8584 50.3887C73.9378 51.5061 74.9547 52.2976 75.6954 52.8066C76.0655 53.0609 76.3657 53.244 76.5692 53.3615C76.6708 53.4202 76.7482 53.4624 76.7979 53.4888C76.8228 53.502 76.8407 53.5113 76.8512 53.5167L76.8604 53.5213L76.8611 53.5217C76.8611 53.5217 76.861 53.5217 76.86 53.5236L76.5871 55.4029C76.5874 55.4046 76.5874 55.4046 76.5875 55.4046L76.5868 55.4047L76.5853 55.405L76.5687 55.408C76.5527 55.4109 76.527 55.4157 76.4921 55.4226C76.4221 55.4363 76.3153 55.4584 76.1759 55.49C75.897 55.5533 75.4881 55.6549 74.9828 55.8056C73.9706 56.1076 72.5801 56.6044 71.0754 57.3806C68.0597 58.936 64.6503 61.5773 62.8355 65.9633L60.9874 65.1986C63.0435 60.2297 66.8881 57.29 70.1586 55.6031C70.7115 55.3179 71.2499 55.0675 71.763 54.8482C68.1404 54.261 64.9206 53.3656 61.9309 52.0298C57.7352 50.1553 54.0435 47.4365 50.3427 43.5713C44.9062 37.9113 41.8447 30.8396 40.4204 24.0271C38.9973 30.8543 35.9358 37.9486 30.4963 43.6116C26.8145 47.4579 23.1221 50.1665 18.9217 52.0355C15.9285 53.3674 12.7025 54.2617 9.07657 54.8485Z" fill="#151515"/>
</svg>
