<svg width="80" height="80" viewBox="0 0 80 80" fill="none" xmlns="http://www.w3.org/2000/svg">
<path fill-rule="evenodd" clip-rule="evenodd" d="M47 27V5H49V27H47ZM13 25V5.00001H15V25H13ZM42 15H20V13H42V15ZM77 15H54V13H77V15ZM32 20V42H30V20H32ZM66 20V42H64V20H66ZM37 30L59 30V32L37 32V30ZM24.9469 30H25V32H24.9469H24.8939H24.8411H24.7884H24.7358H24.6833H24.6309H24.5786H24.5265H24.4744H24.4225H24.3707H24.319H24.2674H24.216H24.1646H24.1134H24.0622H24.0112H23.9603H23.9095H23.8588H23.8082H23.7578H23.7074H23.6572H23.607H23.557H23.507H23.4572H23.4075H23.3578H23.3083H23.2589H23.2096H23.1604H23.1113H23.0623H23.0134H22.9646H22.9159H22.8673H22.8188H22.7704H22.7221H22.6739H22.6258H22.5778H22.5299H22.4821H22.4344H22.3867H22.3392H22.2918H22.2444H22.1972H22.15H22.103H22.056H22.0091H21.9624H21.9157H21.8691H21.8226H21.7761H21.7298H21.6836H21.6374H21.5913H21.5453H21.4995H21.4536H21.4079H21.3623H21.3167H21.2713H21.2259H21.1806H21.1354H21.0902H21.0452H21.0002H20.9553H20.9105H20.8658H20.8211H20.7765H20.732H20.6876H20.6433H20.599H20.5548H20.5107H20.4667H20.4227H20.3789H20.3351H20.2913H20.2477H20.2041H20.1606H20.1171H20.0738H20.0305H19.9872H19.9441H19.901H19.858H19.815H19.7721H19.7293H19.6866H19.6439H19.6013H19.5588H19.5163H19.4739H19.4315H19.3892H19.347H19.3049H19.2628H19.2207H19.1788H19.1369H19.095H19.0532H19.0115H18.9698H18.9282H18.8867H18.8452H18.8037H18.7624H18.7211H18.6798H18.6386H18.5974H18.5563H18.5153H18.4743H18.4334H18.3925H18.3517H18.3109H18.2702H18.2295H18.1889H18.1483H18.1078H18.0673H18.0269H17.9865H17.9462H17.9059H17.8657H17.8255H17.7853H17.7452H17.7052H17.6652H17.6252H17.5853H17.5454H17.5056H17.4658H17.4261H17.3864H17.3467H17.3071H17.2675H17.228H17.1884H17.149H17.1096H17.0702H17.0308H16.9915H16.9522H16.913H16.8738H16.8346H16.7955H16.7564H16.7173H16.6782H16.6392H16.6003H16.5613H16.5224H16.4835H16.4447H16.4059H16.3671H16.3283H16.2896H16.2509H16.2122H16.1735H16.1349H16.0963H16.0578H16.0192H15.9807H15.9422H15.9037H15.8653H15.8268H15.7884H15.75H15.7117H15.6733H15.635H15.5967H15.5584H15.5202H15.4819H15.4437H15.4055H15.3673H15.3291H15.291H15.2528H15.2147H15.1766H15.1385H15.1004H15.0623H15.0243H14.9862H14.9482H14.9102H14.8722H14.8342H14.7962H14.7582H14.7203H14.6823H14.6443H14.6064H14.5685H14.5305H14.4926H14.4547H14.4168H14.3789H14.341H14.3031H14.2652H14.2273H14.1894H14.1515H14.1136H14.0758H14.0379H14H13.9621H13.9242H13.8864H13.8485H13.8106H13.7727H13.7348H13.6969H13.659H13.6211H13.5832H13.5453H13.5074H13.4695H13.4315H13.3936H13.3557H13.3177H13.2797H13.2418H13.2038H13.1658H13.1278H13.0898H13.0518H13.0138H12.9757H12.9377H12.8996H12.8615H12.8234H12.7853H12.7472H12.709H12.6709H12.6327H12.5945H12.5563H12.5181H12.4798H12.4416H12.4033H12.365H12.3267H12.2883H12.25H12.2116H12.1732H12.1347H12.0963H12.0578H12.0193H11.9808H11.9422H11.9037H11.8651H11.8265H11.7878H11.7491H11.7104H11.6717H11.6329H11.5941H11.5553H11.5165H11.4776H11.4387H11.3997H11.3608H11.3218H11.2827H11.2436H11.2045H11.1654H11.1262H11.087H11.0478H11.0085H10.9692H10.9298H10.8904H10.851H10.8116H10.772H10.7325H10.6929H10.6533H10.6136H10.5739H10.5342H10.4944H10.4546H10.4147H10.3748H10.3348H10.2948H10.2548H10.2147H10.1745H10.1343H10.0941H10.0538H10.0135H9.97312H9.9327H9.89223H9.8517H9.81113H9.77051H9.72984H9.68911H9.64834H9.60751H9.56663H9.52569H9.4847H9.44366H9.40257H9.36142H9.32021H9.27895H9.23763H9.19625H9.15482H9.11333H9.07178H9.03017H8.98851H8.94678H8.90499H8.86314H8.82124H8.77927H8.73724H8.69514H8.65298H8.61076H8.56848H8.52613H8.48372H8.44124H8.3987H8.35609H8.31341H8.27066H8.22785H8.18497H8.14203H8.09901H8.05592H8.01277H7.96954H7.92624H7.88287H7.83943H7.79592H7.75234H7.70868H7.66494H7.62114H7.57726H7.5333H7.48927H7.44516H7.40098H7.35672H7.31238H7.26797H7.22347H7.1789H7.13425H7.08952H7.04471H6.99981H6.95484H6.90979H6.86465H6.81943H6.77413H6.72874H6.68327H6.63772H6.59208H6.54636H6.50055H6.45465H6.40867H6.3626H6.31644H6.2702H6.22386H6.17744H6.13093H6.08433H6.03764H5.99085H5.94398H5.89701H5.84995H5.8028H5.75556H5.70822H5.66079H5.61326H5.56564H5.51792H5.47011H5.4222H5.37419H5.32609H5.27789H5.22959H5.18119H5.13269H5.08409H5.0354H4.9866H4.9377H4.8887H4.83959H4.79039H4.74108H4.69167H4.64215H4.59253H4.54281H4.49298H4.44304H4.393H4.34285H4.29259H4.24223H4.19176H4.14118H4.09049H4.03969H3.98878H3.93776H3.88663H3.83539H3.78403H3.73257H3.68099H3.6293H3.57749H3.52557H3.47354H3.42139H3.36913H3.31675H3.26425H3.21163H3.1589H3.10605H3.05309H3V30H3.05309H3.10605H3.1589H3.21163H3.26425H3.31675H3.36913H3.42139H3.47354H3.52557H3.57749H3.6293H3.68099H3.73257H3.78403H3.83539H3.88663H3.93776H3.98878H4.03969H4.09049H4.14118H4.19176H4.24223H4.29259H4.34285H4.393H4.44304H4.49298H4.54281H4.59253H4.64215H4.69167H4.74108H4.79039H4.83959H4.8887H4.9377H4.9866H5.0354H5.08409H5.13269H5.18119H5.22959H5.27789H5.32609H5.37419H5.4222H5.47011H5.51792H5.56564H5.61326H5.66079H5.70822H5.75556H5.8028H5.84995H5.89701H5.94398H5.99085H6.03764H6.08433H6.13093H6.17744H6.22386H6.2702H6.31644H6.3626H6.40867H6.45465H6.50055H6.54636H6.59208H6.63772H6.68327H6.72874H6.77413H6.81943H6.86465H6.90979H6.95484H6.99981H7.04471H7.08952H7.13425H7.1789H7.22347H7.26797H7.31238H7.35672H7.40098H7.44516H7.48927H7.5333H7.57726H7.62114H7.66494H7.70868H7.75234H7.79592H7.83943H7.88287H7.92624H7.96954H8.01277H8.05592H8.09901H8.14203H8.18497H8.22785H8.27066H8.31341H8.35609H8.3987H8.44124H8.48372H8.52613H8.56848H8.61076H8.65298H8.69514H8.73724H8.77927H8.82124H8.86314H8.90499H8.94678H8.98851H9.03017H9.07178H9.11333H9.15482H9.19625H9.23763H9.27895H9.32021H9.36142H9.40257H9.44366H9.4847H9.52569H9.56663H9.60751H9.64834H9.68911H9.72984H9.77051H9.81113H9.8517H9.89223H9.9327H9.97312H10.0135H10.0538H10.0941H10.1343H10.1745H10.2147H10.2548H10.2948H10.3348H10.3748H10.4147H10.4546H10.4944H10.5342H10.5739H10.6136H10.6533H10.6929H10.7325H10.772H10.8116H10.851H10.8904H10.9298H10.9692H11.0085H11.0478H11.087H11.1262H11.1654H11.2045H11.2436H11.2827H11.3218H11.3608H11.3997H11.4387H11.4776H11.5165H11.5553H11.5941H11.6329H11.6717H11.7104H11.7491H11.7878H11.8265H11.8651H11.9037H11.9422H11.9808H12.0193H12.0578H12.0963H12.1347H12.1732H12.2116H12.25H12.2883H12.3267H12.365H12.4033H12.4416H12.4798H12.5181H12.5563H12.5945H12.6327H12.6709H12.709H12.7472H12.7853H12.8234H12.8615H12.8996H12.9377H12.9757H13.0138H13.0518H13.0898H13.1278H13.1658H13.2038H13.2418H13.2797H13.3177H13.3557H13.3936H13.4315H13.4695H13.5074H13.5453H13.5832H13.6211H13.659H13.6969H13.7348H13.7727H13.8106H13.8485H13.8864H13.9242H13.9621H14H14.0379H14.0758H14.1136H14.1515H14.1894H14.2273H14.2652H14.3031H14.341H14.3789H14.4168H14.4547H14.4926H14.5305H14.5685H14.6064H14.6443H14.6823H14.7203H14.7582H14.7962H14.8342H14.8722H14.9102H14.9482H14.9862H15.0243H15.0623H15.1004H15.1385H15.1766H15.2147H15.2528H15.291H15.3291H15.3673H15.4055H15.4437H15.4819H15.5202H15.5584H15.5967H15.635H15.6733H15.7117H15.75H15.7884H15.8268H15.8653H15.9037H15.9422H15.9807H16.0192H16.0578H16.0963H16.1349H16.1735H16.2122H16.2509H16.2896H16.3283H16.3671H16.4059H16.4447H16.4835H16.5224H16.5613H16.6003H16.6392H16.6782H16.7173H16.7564H16.7955H16.8346H16.8738H16.913H16.9522H16.9915H17.0308H17.0702H17.1096H17.149H17.1884H17.228H17.2675H17.3071H17.3467H17.3864H17.4261H17.4658H17.5056H17.5454H17.5853H17.6252H17.6652H17.7052H17.7452H17.7853H17.8255H17.8657H17.9059H17.9462H17.9865H18.0269H18.0673H18.1078H18.1483H18.1889H18.2295H18.2702H18.3109H18.3517H18.3925H18.4334H18.4743H18.5153H18.5563H18.5974H18.6386H18.6798H18.7211H18.7624H18.8037H18.8452H18.8867H18.9282H18.9698H19.0115H19.0532H19.095H19.1369H19.1788H19.2207H19.2628H19.3049H19.347H19.3892H19.4315H19.4739H19.5163H19.5588H19.6013H19.6439H19.6866H19.7293H19.7721H19.815H19.858H19.901H19.9441H19.9872H20.0305H20.0738H20.1171H20.1606H20.2041H20.2477H20.2913H20.3351H20.3789H20.4227H20.4667H20.5107H20.5548H20.599H20.6433H20.6876H20.732H20.7765H20.8211H20.8658H20.9105H20.9553H21.0002H21.0452H21.0902H21.1354H21.1806H21.2259H21.2713H21.3167H21.3623H21.4079H21.4536H21.4995H21.5453H21.5913H21.6374H21.6836H21.7298H21.7761H21.8226H21.8691H21.9157H21.9624H22.0091H22.056H22.103H22.15H22.1972H22.2444H22.2918H22.3392H22.3867H22.4344H22.4821H22.5299H22.5778H22.6258H22.6739H22.7221H22.7704H22.8188H22.8673H22.9159H22.9646H23.0134H23.0623H23.1113H23.1604H23.2096H23.2589H23.3083H23.3578H23.4075H23.4572H23.507H23.557H23.607H23.6572H23.7074H23.7578H23.8082H23.8588H23.9095H23.9603H24.0112H24.0622H24.1134H24.1646H24.216H24.2674H24.319H24.3707H24.4225H24.4744H24.5265H24.5786H24.6309H24.6833H24.7358H24.7884H24.8411H24.8939H24.9469ZM13 59V37H15V59H13ZM47 59V37H49V59H47ZM42 49H20V47H42V49ZM77 49H54V47H77V49ZM32 54V76H30V54H32ZM66 54V76H64V54H66ZM3 64H25V66H3V64ZM37 64H59V66H37V64Z" fill="#151515"/>
</svg>
