<svg width="80" height="80" viewBox="0 0 80 80" fill="none" xmlns="http://www.w3.org/2000/svg">
<path fill-rule="evenodd" clip-rule="evenodd" d="M64.8615 19.3331C60.2585 16.6642 54.6893 15.5434 49.1229 16.5098L48.7808 14.5392C54.8266 13.4896 60.8697 14.7071 65.8631 17.6021C70.8995 20.4984 74.9273 25.1149 77.0664 30.8611L75.1921 31.5589C73.2185 26.2573 69.5049 22.0031 64.8646 19.335L64.8615 19.3331ZM60.3819 27.1535C57.7481 25.6109 54.5801 24.9303 51.4087 25.3078L51.1723 23.3218C54.7752 22.8929 58.3813 23.664 61.3927 25.4278C64.3852 27.1805 66.8787 29.8395 68.3002 33.1994L66.4583 33.9787C65.2185 31.0483 63.0345 28.7072 60.3819 27.1535ZM19.7025 29.1286C22.9037 26.3115 27.1288 24.6052 31.7341 24.6052C34.7285 24.6052 37.5844 25.375 40.0905 26.6492L40.1019 26.655L40.1018 26.6551C42.6444 27.9889 44.864 29.8957 46.5199 32.1821C47.053 32.0276 47.6122 31.912 48.1652 31.8329C48.7761 31.7457 49.3879 31.7019 50.0002 31.7019C52.803 31.7019 55.3817 32.622 57.4734 34.1036L57.4766 34.1059C59.5814 35.6093 61.2227 37.746 62.1096 40.2681C65.3068 40.6412 68.1492 42.2066 70.1776 44.4507L70.1847 44.4587L70.1847 44.4587C72.1899 46.7254 73.4599 49.7396 73.4599 53.0245C73.4599 56.5689 72.0144 59.7632 69.6992 62.0784C67.4379 64.3397 64.6091 66 61 66H16C11.6765 66 8.91079 64.317 6.6318 62.0381C4.29775 59.704 3 56.5177 3 53C3 49.843 4.02965 46.8461 5.97692 44.589L5.9779 44.5879C7.90631 42.3595 10.5896 40.8049 13.6534 40.2918C14.076 35.5193 16.2452 32.3363 19.6829 29.1463L19.6926 29.1373L19.7025 29.1286ZM21.0336 30.6214C17.7879 33.6354 15.9698 36.4173 15.6341 40.6044L15.6329 40.6197L15.6312 40.6349C15.5454 41.4069 15.0049 42.0496 14.2091 42.2265L14.1763 42.2338L14.1432 42.2388C11.4787 42.6459 9.15181 43.9767 7.49049 45.8963C5.88983 47.7521 5 50.2703 5 53C5 56.0146 6.10588 58.6837 8.04602 60.6238C10.0412 62.6191 12.3235 64 16 64H61C63.9231 64 66.2722 62.677 68.285 60.6642C70.2441 58.7052 71.4599 56.0123 71.4599 53.0245C71.4599 50.2631 70.3927 47.7144 68.6904 45.788C66.9512 43.8656 64.5132 42.5391 61.7879 42.2445L61.7709 42.2427L61.7539 42.2403C61.2077 42.1622 60.5542 41.8255 60.2736 41.0772L60.2679 41.0623L60.2628 41.0472C59.5253 38.8715 58.1239 37.0266 56.3158 35.7346C54.5368 34.4749 52.358 33.7019 50.0002 33.7019C49.4835 33.7019 48.9662 33.7388 48.4481 33.8128C47.9279 33.8872 47.4151 33.9977 46.9475 34.1416L46.9219 34.1494L46.896 34.1559C46.2591 34.3152 45.4801 34.1668 44.9929 33.4848L44.9909 33.482C43.5132 31.3981 41.4999 29.6481 39.1783 28.4291C36.9278 27.2858 34.3826 26.6052 31.7341 26.6052C27.6344 26.6052 23.8795 28.1211 21.0336 30.6214Z" fill="#151515"/>
</svg>
