<svg width="80" height="80" viewBox="0 0 80 80" fill="none" xmlns="http://www.w3.org/2000/svg">
<path fill-rule="evenodd" clip-rule="evenodd" d="M22.9071 28.6571C22.9071 16.1488 33.1942 6 45.9533 6C58.7125 6 68.9996 16.1488 68.9996 28.6571C68.9996 41.1655 58.7125 51.3143 45.9533 51.3143C33.1942 51.3143 22.9071 41.1655 22.9071 28.6571ZM45.9533 4C32.1202 4 20.9071 15.0139 20.9071 28.6571C20.9071 35.165 23.4584 41.0745 27.6284 45.4759L8.21384 70.139L7.61816 70.8957L8.35192 71.5194L12.1663 74.7619L12.9479 75.4263L13.5921 74.6281L33.4457 50.0301C37.1261 52.1197 41.3976 53.3143 45.9533 53.3143C59.7865 53.3143 70.9996 42.3004 70.9996 28.6571C70.9996 15.0139 59.7865 4 45.9533 4ZM10.381 70.6194L29.0693 46.8789C29.9075 47.6318 30.798 48.3293 31.7347 48.9656L12.6801 72.5737L10.381 70.6194ZM61.9996 29C61.9996 37.2839 55.2921 44 46.9996 44V46C56.3975 46 63.9996 38.3877 63.9996 29H61.9996Z" fill="#151515"/>
</svg>
