<svg width="80" height="80" viewBox="0 0 80 80" fill="none" xmlns="http://www.w3.org/2000/svg">
<path fill-rule="evenodd" clip-rule="evenodd" d="M38.5376 12C38.4278 12 38.3217 12.039 38.2381 12.1101L20.3281 27.3336C19.0625 28.4093 17.4556 29 15.7945 29H5V51H15.7945C17.4556 51 19.0625 51.5907 20.3281 52.6664L38.2381 67.8899C38.3217 67.961 38.4278 68 38.5376 68C38.793 68 39 67.793 39 67.5376V12.4624C39 12.207 38.793 12 38.5376 12ZM36.9428 10.5862C37.388 10.2078 37.9532 10 38.5376 10C39.8975 10 41 11.1025 41 12.4624V67.5376C41 68.8975 39.8975 70 38.5376 70C37.9532 70 37.388 69.7922 36.9428 69.4138L19.0328 54.1903C18.1288 53.4219 16.981 53 15.7945 53H5C3.89543 53 3 52.1046 3 51V29C3 27.8954 3.89543 27 5 27H15.7945C16.981 27 18.1288 26.5781 19.0328 25.8097L36.9428 10.5862ZM65 41.4142L54.7071 51.7071L53.2929 50.2929L63.5858 40L53.2929 29.7071L54.7071 28.2929L65 38.5858L75.2929 28.2929L76.7071 29.7071L66.4142 40L76.7071 50.2929L75.2929 51.7071L65 41.4142Z" fill="#151515"/>
</svg>
