<svg width="80" height="80" viewBox="0 0 80 80" fill="none" xmlns="http://www.w3.org/2000/svg">
<path fill-rule="evenodd" clip-rule="evenodd" d="M40.0001 3H39.0001V4V31.4893C35.8776 25.2378 29.4204 20.9354 21.9356 20.9354C11.4143 20.9354 3 29.4973 3 39.9999V40.9999H4H31.4895C25.238 44.1224 20.9356 50.5796 20.9356 58.0644C20.9356 68.6274 29.499 77 40.0001 77H41.0001V76V48.5105C43.1202 52.755 46.7775 56.101 51.25 57.812V55.6511C45.4994 53.1452 41.4084 47.5642 41.0289 40.9999H74.9719C74.574 48.0579 69.9884 53.9375 63.629 56.1369V58.2408C71.422 55.863 77 48.6047 77 39.9999V38.9999H76H48.5107C54.7622 35.8774 59.0646 29.4201 59.0646 21.9354C59.0646 11.3737 50.543 3 40.0001 3ZM21.9356 22.9354C31.0449 22.9354 38.4542 30.0546 38.9713 38.9999H5.02848C5.53973 30.0476 12.8725 22.9354 21.9356 22.9354ZM39.0001 74.9717V41.0287C30.0548 41.5458 22.9356 48.9551 22.9356 58.0644C22.9356 67.165 30.0466 74.463 39.0001 74.9717ZM41.0001 5.0281V38.9711C49.9454 38.454 57.0646 31.0446 57.0646 21.9354C57.0646 12.8321 49.9878 5.53477 41.0001 5.0281Z" fill="#151515"/>
<path d="M54.3546 69.7582L52.3385 76.2098H49.7578L56.3304 55.6453H59.3143L65.8869 76.2098H63.2256L61.1691 69.7582H54.3546ZM60.6852 67.7017L58.7901 61.7743C58.3465 60.4436 58.0643 59.1937 57.782 58.0243H57.7417C57.4594 59.1937 57.1772 60.484 56.7739 61.734L54.8788 67.7017H60.6852Z" fill="#151515"/>
</svg>
