<svg width="80" height="80" viewBox="0 0 80 80" fill="none" xmlns="http://www.w3.org/2000/svg">
<path fill-rule="evenodd" clip-rule="evenodd" d="M5 5H6H75H76V6V75V76H75H6H5V75V6V5ZM7 7V74H74V7H7ZM24 15C19.0294 15 15 19.0294 15 24C15 28.9706 19.0294 33 24 33C28.9706 33 33 28.9706 33 24C33 19.0294 28.9706 15 24 15ZM13 24C13 17.9249 17.9249 13 24 13C30.0751 13 35 17.9249 35 24C35 30.0751 30.0751 35 24 35C17.9249 35 13 30.0751 13 24ZM61 67C64.3137 67 67 64.3137 67 61C67 57.6863 64.3137 55 61 55C57.6863 55 55 57.6863 55 61C55 64.3137 57.6863 67 61 67Z" fill="#151515"/>
</svg>
