<svg width="80" height="80" viewBox="0 0 80 80" fill="none" xmlns="http://www.w3.org/2000/svg">
<path fill-rule="evenodd" clip-rule="evenodd" d="M38.2833 36.0565L29.3653 20.3378L15.9022 16.609L16.4361 14.6815L27.9684 17.8756L20.7833 5.21129L22.5228 4.22437L29.6811 16.8415L32.8253 5.30172L34.755 5.82748L31.0815 19.3098L40.014 35.054L49.1636 19.4245L45.6449 5.89699L47.5805 5.39351L50.5944 16.9804L57.9271 4.45456L59.6531 5.46497L52.3007 18.0245L63.8596 15.0004L64.3658 16.9353L50.8715 20.4657L41.7461 36.0539L59.4841 36.0268L69.2956 26.2902L70.7044 27.7098L62.3278 36.0224L76.9989 36L77.0019 38L62.4997 38.0222L70.7098 46.2956L69.2902 47.7044L59.6864 38.0265L40.0019 38.0565H40.0004H20.4126L10.7051 47.7091L9.2949 46.2909L17.5761 38.0565H3V36.0565H17.5954L9.2909 27.7051L10.7091 26.2949L20.4159 36.0565H38.2833ZM33.0252 50.5069C35.7437 47.5548 38.2803 44.8001 39.0171 40.8181H40.9837C41.7185 44.7892 44.2425 47.539 46.9443 50.4825C47.1264 50.6808 47.3093 50.8801 47.4925 51.0807C50.3326 54.1899 53.2196 57.6054 53.1772 62.7868C53.1746 69.8016 47.0297 75.8388 39.9595 75.8388C32.9281 75.8388 26.7417 69.7587 26.7417 62.7824C26.7417 57.6018 29.6489 54.188 32.4989 51.0793C32.6748 50.8874 32.8504 50.6967 33.0252 50.5069ZM33.9731 52.4309C31.1172 55.546 28.7417 58.4468 28.7417 62.7824C28.7417 68.6286 34.007 73.8388 39.9595 73.8388C45.9523 73.8388 51.1772 68.6689 51.1772 62.7824V62.7739L51.1773 62.7739C51.214 58.4415 48.8601 55.5433 46.0158 52.4295C45.8151 52.2098 45.6117 51.9889 45.4067 51.7662C43.4277 49.6165 41.2976 47.3028 40.0003 44.3564C38.6982 47.3128 36.5564 49.632 34.5649 51.7885C34.3658 52.0041 34.1682 52.218 33.9731 52.4309Z" fill="#151515"/>
</svg>
