<svg width="80" height="80" viewBox="0 0 80 80" fill="none" xmlns="http://www.w3.org/2000/svg">
<path fill-rule="evenodd" clip-rule="evenodd" d="M60.1113 5.33982C51.1552 4.06955 39.3423 4.8128 27.7888 12.8368C16.2613 20.8768 11.4814 31.8645 9.58161 40.8835C8.63136 45.3947 8.40471 49.4029 8.41576 52.2809C8.41628 52.4165 8.41733 52.5496 8.41885 52.6801C10.572 48.0754 13.4152 43.6203 17.0332 39.5387C27.7774 27.4002 42.6989 21 56.0001 21H57.0001V23H56.0001C43.3014 23 28.9156 29.1319 18.5308 40.8643L18.5303 40.8649C14.2747 45.6656 11.1289 51.0085 8.94723 56.4986C9.02185 56.5326 9.10146 56.5685 9.18597 56.6062C9.88078 56.9157 10.9059 57.3433 12.2119 57.8073C14.8254 58.7359 18.5553 59.8077 23.0089 60.3759C31.9104 61.5117 43.6752 60.6352 55.2357 52.606C66.7685 44.5619 71.6013 33.7053 73.5543 24.8255C74.5313 20.3831 74.7849 16.4439 74.7942 13.6181C74.7988 12.206 74.7425 11.0744 74.6855 10.2998C74.6661 10.0373 74.6468 9.8159 74.6297 9.63863C74.4711 9.56084 74.2726 9.46565 74.0362 9.35629C73.335 9.03196 72.3011 8.5833 70.9845 8.09389C68.3497 7.11452 64.5921 5.97535 60.1113 5.33982ZM75.5642 8.99187C76.555 8.85624 76.5551 8.85679 76.5552 8.85744L76.5554 8.85928L76.5562 8.86488L76.5586 8.88369L76.5671 8.95141C76.5743 9.00978 76.5842 9.0944 76.5959 9.20406C76.6193 9.42337 76.6499 9.74292 76.6801 10.153C76.7404 10.9731 76.799 12.1562 76.7942 13.6247C76.7846 16.56 76.5215 20.645 75.5076 25.2551C73.4788 34.4796 68.433 45.8401 56.3782 54.2476L56.3766 54.2487C44.3081 62.6307 32.0099 63.5406 22.7558 62.3599C18.1315 61.7698 14.2604 60.6577 11.5423 59.6919C10.1825 59.2087 9.10918 58.7615 8.37201 58.433C8.32708 58.413 8.28339 58.3934 8.24096 58.3743C6.00898 64.6438 4.99994 71.0454 5 77L5.00001 78L3.00001 78L3 77C2.99994 70.5736 4.1335 63.6407 6.6573 56.8793C6.65397 56.8508 6.65044 56.8201 6.64674 56.7871C6.62169 56.564 6.58863 56.2387 6.55538 55.8213C6.48888 54.9865 6.42151 53.7824 6.41577 52.2886C6.40431 49.3027 6.63909 45.1496 7.62456 40.4713C9.59616 31.1113 14.5847 19.6074 26.6454 11.1958L26.647 11.1947C38.7223 2.80798 51.0824 2.03921 60.3922 3.35964C65.0444 4.01947 68.9431 5.20137 71.6813 6.21922C73.0512 6.72843 74.1329 7.19743 74.8758 7.54109C75.2474 7.71296 75.5344 7.85357 75.7305 7.95233C75.8286 8.00171 75.904 8.04063 75.9559 8.06777L76.0161 8.09949L76.0328 8.10841L76.0378 8.11109L76.0394 8.11197C76.04 8.11228 76.0405 8.11255 75.5642 8.99187ZM75.5642 8.99187L76.0405 8.11255L76.4862 8.35398L76.555 8.85624L75.5642 8.99187Z" fill="#151515"/>
</svg>
