<svg width="80" height="80" viewBox="0 0 80 80" fill="none" xmlns="http://www.w3.org/2000/svg">
<path fill-rule="evenodd" clip-rule="evenodd" d="M41 11V2H39V11H41ZM19.152 8.53L24.152 16.53L25.848 15.47L20.848 7.47L19.152 8.53ZM59.152 7.47L54.152 15.47L55.848 16.53L60.848 8.53L59.152 7.47ZM40 15C33.054 15 26.8038 17.9806 22.2818 22.5026C17.749 27.0354 15.005 33.1087 15.005 40H17.005C17.005 33.6655 19.5192 28.0937 23.696 23.9168C27.8838 19.7291 33.6396 17 40 17C46.3609 17 52.1267 19.7294 56.3141 23.9168L56.3174 23.9201C60.4888 28.0529 63 33.6624 63 40H65C65 33.1126 62.2639 26.997 57.7266 22.5009C53.2045 17.9796 46.9447 15 40 15ZM14.4961 26.1318L7.49614 22.1318L6.50386 23.8682L13.5039 27.8682L14.4961 26.1318ZM72.5039 22.1318L65.5039 26.1318L66.4961 27.8682L73.4961 23.8682L72.5039 22.1318ZM40 44H4V46H17.6558L9.8834 54.1062L11.327 55.4904L20.4266 46H38.263L29.469 61.1453L16.4267 64.7621L16.9612 66.6894L28.0325 63.6191L21.1352 75.4979L22.8648 76.5021L29.76 64.6271L32.6194 75.9702L34.5588 75.4813L31.1982 62.1502L39.9751 47.0343L48.26 62.1422L45.0361 75.573L46.9808 76.0398L49.6906 64.7509L56.1232 76.4808L57.8768 75.5192L51.3615 63.6383L62.7438 66.9678L63.3053 65.0482L50.0004 61.1564L41.6889 46H59.5601L68.5778 55.837L70.052 54.4855L62.2733 46H76V44H40Z" fill="#151515"/>
</svg>
