<svg width="80" height="80" viewBox="0 0 80 80" fill="none" xmlns="http://www.w3.org/2000/svg">
<path fill-rule="evenodd" clip-rule="evenodd" d="M40.2746 3.26501L41.2693 9.768L44.2919 29.5285L51.7473 25.9915L54.2819 24.7891L53.0794 27.3236L49.5453 34.773L69.9838 37.801L76.7029 38.7964L69.982 39.7796L49.5464 42.7693L53.0794 50.2164L54.2819 52.7509L51.7473 51.5485L44.312 48.021L41.2715 70.2162L40.2745 77.4942L39.2898 70.2145L36.2877 48.0221L28.8546 51.5485L26.32 52.7509L27.5225 50.2164L31.0531 42.7743L10.0189 39.7802L3.10742 38.7964L10.0171 37.8004L31.0542 34.768L27.5225 27.3236L26.32 24.7891L28.8546 25.9915L36.3076 29.5274L39.292 9.76984L40.2746 3.26501ZM40.287 16.5734L38.0841 31.1573L37.883 32.4884L36.6667 31.9114L30.5319 29.0009L33.4423 35.1357L34.0235 36.3607L32.6815 36.5541L17.2122 38.7839L32.6798 40.9856L34.0245 41.1771L33.4423 42.4043L30.5319 48.5391L36.6667 45.6286L37.9028 45.0422L38.0863 46.3981L40.287 62.6668L42.5158 46.3964L42.7012 45.0432L43.9352 45.6286L50.07 48.5391L47.1595 42.4043L46.5797 41.182L47.9183 40.9862L62.9716 38.7839L47.9165 36.5536L46.5808 36.3557L47.1595 35.1357L50.07 29.0009L43.9352 31.9114L42.7212 32.4873L42.5181 31.1591L40.287 16.5734Z" fill="#151515"/>
</svg>
