<svg width="80" height="80" viewBox="0 0 80 80" fill="none" xmlns="http://www.w3.org/2000/svg">
<path fill-rule="evenodd" clip-rule="evenodd" d="M73.2123 16.1206C73.7647 15.984 74.4669 15.8972 75.1803 16.1566L75.1924 16.161L75.1924 16.1611C75.8181 16.3978 76.2524 16.8317 76.4806 17.3848C76.6917 17.8967 76.6962 18.4354 76.643 18.8828C76.5453 19.7045 76.2039 20.5526 76.0075 21.0404C75.9938 21.0745 75.9808 21.1067 75.9686 21.1371L75.9672 21.1405C75.907 21.2896 75.8471 21.4371 75.7878 21.5832C75.0791 23.3287 74.4509 24.8761 74.1732 26.6465L74.1712 26.659L74.1712 26.659C73.9081 28.2083 73.9614 29.7091 74.0193 31.3377C74.0366 31.8266 74.0544 32.327 74.0641 32.8437L74.0642 32.8456C74.0818 33.8868 74.1309 34.9285 74.1807 35.9877C74.1869 36.1197 74.1931 36.2519 74.1993 36.3845C74.2548 37.5742 74.3063 38.7845 74.3063 39.9996C74.3063 41.7311 74.2005 43.4778 74.097 45.1887C74.0566 45.8561 74.0165 46.5181 73.9832 47.1716C73.9746 47.6225 73.9613 48.063 73.9483 48.4957C73.8977 50.1801 73.8506 51.7472 74.093 53.3552C74.3709 55.1247 74.9988 56.6714 75.7071 58.4161C75.7664 58.5621 75.8263 58.7096 75.8866 58.8587L75.888 58.8621C75.9001 58.8925 75.9131 58.9248 75.9269 58.9589C76.1233 59.4468 76.4647 60.2949 76.5624 61.1165C76.6156 61.5638 76.6111 62.1026 76.3999 62.6145C76.1718 63.1675 75.7374 63.6014 75.1118 63.8381C75.1033 63.8413 75.0949 63.8444 75.0864 63.8473C74.3642 64.0986 73.6715 64.0174 73.1141 63.878C72.7538 63.7879 72.349 63.641 72.0321 63.526C71.904 63.4795 71.7903 63.4382 71.6997 63.408L71.6856 63.4032C71.5272 63.3477 71.3649 63.2915 71.2 63.2344C70.548 63.0085 69.8544 62.7683 69.1907 62.503C67.5491 61.8696 65.851 61.6004 64.0299 61.5229L64.0224 61.5226C62.0913 61.426 60.1313 61.5894 58.1224 61.8293C57.4346 61.9114 56.7328 62.0037 56.0246 62.0969C54.6985 62.2714 53.3495 62.4489 52.0258 62.5681M52.0249 62.5682L52.0158 62.569C48.0305 62.9313 44.0219 63.2957 40.0099 63.4984C39.973 63.5002 39.9359 63.5 39.899 63.4978C35.8958 63.2552 31.8951 62.9319 27.8986 62.5686C26.4714 62.4542 25.0287 62.2636 23.6146 62.0767C23.0062 61.9964 22.4032 61.9167 21.809 61.8441C19.8036 61.599 17.8453 61.4261 15.896 61.5226L15.8891 61.5229C14.068 61.6004 12.3699 61.8696 10.7284 62.503C10.0646 62.7683 9.37099 63.0085 8.71887 63.2344C8.554 63.2915 8.39179 63.3477 8.23338 63.4032L8.21926 63.408C8.12839 63.4383 8.01728 63.4782 7.89312 63.5229C7.57043 63.6389 7.15963 63.7866 6.78726 63.8786C6.23486 64.0153 5.53268 64.102 4.81935 63.8426L4.80717 63.8382L4.8072 63.8381C4.18154 63.6014 3.7472 63.1675 3.51905 62.6145C3.30788 62.1026 3.30341 61.5638 3.35659 61.1165C3.45427 60.2948 3.79574 59.4467 3.99214 58.9588C4.00585 58.9248 4.01884 58.8925 4.031 58.8621L4.03237 58.8587C4.09263 58.7096 4.15248 58.5622 4.21177 58.4162C4.92045 56.6706 5.54867 55.1232 5.8264 53.3527L5.82835 53.3403L5.82843 53.3403C6.09152 51.791 6.03821 50.2901 5.98036 48.6615C5.96299 48.1727 5.94521 47.6723 5.93546 47.1556L5.93543 47.1537C5.91778 46.1124 5.86875 45.0708 5.8189 44.0116C5.81269 43.8796 5.80646 43.7473 5.80028 43.6147C5.74483 42.425 5.69335 41.2148 5.69335 39.9996C5.69335 38.7845 5.74483 37.5742 5.80028 36.3845C5.80646 36.252 5.81269 36.1197 5.8189 35.9877C5.86875 34.9285 5.91778 33.8869 5.93543 32.8456L5.93546 32.8437C5.94578 32.2968 5.96516 31.7677 5.98409 31.2509C6.0426 29.6539 6.09683 28.1734 5.86627 26.6437C5.60505 24.9811 5.00757 23.5234 4.33831 21.8905C4.23765 21.6449 4.13537 21.3953 4.03237 21.1405C4.02755 21.1286 4.02295 21.1166 4.01859 21.1045C3.99892 21.0498 3.97597 20.9878 3.95066 20.9194C3.77209 20.437 3.4764 19.6382 3.39117 18.8818C3.34136 18.4397 3.34706 17.9022 3.56215 17.3936C3.79304 16.8477 4.22778 16.4257 4.8461 16.2018C5.55809 15.9183 6.2621 15.9918 6.81771 16.1233C7.20268 16.2143 7.62304 16.3651 7.94922 16.4821C8.06698 16.5244 8.17246 16.5622 8.25958 16.5913C9.11258 16.8756 9.93811 17.1642 10.7688 17.4963C12.4092 18.1293 14.1024 18.3969 15.9082 18.4353C15.9177 18.4355 15.9273 18.4359 15.9368 18.4364C17.868 18.5329 19.828 18.3695 21.8369 18.1297C22.5247 18.0475 23.2264 17.9552 23.9347 17.862C25.2611 17.6875 26.6104 17.5099 27.9344 17.3907L27.9434 17.3899L27.9434 17.39C28.7244 17.3269 29.5068 17.2621 30.2906 17.1972C33.4999 16.9314 36.7333 16.6637 39.9902 16.5009C40.027 16.499 40.0638 16.4992 40.1006 16.5015C44.1039 16.7441 48.1046 17.0674 52.1011 17.4307C53.5283 17.545 54.971 17.7357 56.3851 17.9225C56.9935 18.0029 57.5965 18.0826 58.1906 18.1552C60.196 18.4002 62.1543 18.5732 64.1036 18.4767L64.1105 18.4763C65.9315 18.3988 67.6296 18.1297 69.2711 17.4963C69.935 17.231 70.6287 16.9907 71.2809 16.7648C71.4457 16.7077 71.6079 16.6515 71.7662 16.5961L71.7803 16.5913C71.8712 16.561 71.9823 16.521 72.1064 16.4764C72.4291 16.3604 72.84 16.2127 73.2123 16.1206M72.42 18.4862C72.2504 18.5456 72.0814 18.6041 71.9132 18.6624C71.264 18.8874 70.6257 19.1086 70.0083 19.3555L69.9973 19.3599L69.9973 19.3598C68.0932 20.0955 66.1651 20.3905 64.199 20.4744C62.0769 20.5791 59.9839 20.3892 57.9481 20.1404C57.3111 20.0626 56.6844 19.9797 56.0638 19.8977C54.6725 19.7138 53.312 19.5339 51.9362 19.4239L51.9254 19.423L51.9254 19.4229C47.9583 19.0623 43.9953 18.7419 40.0349 18.5011C36.8326 18.6624 33.6582 18.9253 30.4702 19.1892C29.6842 19.2543 28.8974 19.3194 28.1091 19.3831C26.8229 19.499 25.5528 19.6663 24.2582 19.8369C23.54 19.9315 22.8143 20.0272 22.074 20.1156C20.0351 20.359 17.9475 20.5381 15.8513 20.4346C13.8737 20.3913 11.9443 20.0946 10.0426 19.3598L10.0316 19.3556L10.0316 19.3555C9.25131 19.0434 8.46574 18.7682 7.62712 18.4886C7.44924 18.4293 7.2926 18.3729 7.14686 18.3204C6.86793 18.2199 6.62893 18.1338 6.3573 18.0695C5.98147 17.9806 5.74723 17.9939 5.58005 18.0623C5.56449 18.0686 5.54876 18.0746 5.5329 18.0802C5.42587 18.1178 5.41358 18.1489 5.40587 18.1685C5.4053 18.1699 5.40475 18.1713 5.40419 18.1727C5.37735 18.2361 5.34776 18.3841 5.37859 18.6578C5.4342 19.1513 5.63282 19.6944 5.81808 20.2009C5.84369 20.2709 5.86904 20.3402 5.89372 20.4086C5.98817 20.642 6.08456 20.8765 6.18158 21.1126C6.84719 22.7319 7.54245 24.4234 7.84256 26.3366L7.84346 26.3423L7.84344 26.3423C8.10515 28.0761 8.04059 29.8134 7.97971 31.4517C7.96166 31.9375 7.94393 32.4147 7.93513 32.8804C7.91692 33.9536 7.8664 35.0263 7.8167 36.0815C7.81047 36.2138 7.80425 36.3459 7.79811 36.4776C7.74268 37.667 7.69335 38.8358 7.69335 39.9996C7.69335 41.1635 7.74268 42.3323 7.79811 43.5216C7.80425 43.6534 7.81047 43.7854 7.8167 43.9177C7.8664 44.9729 7.91692 46.0457 7.93513 47.1188C7.94344 47.5587 7.95977 48.0091 7.9764 48.4676C8.03666 50.1297 8.10084 51.8997 7.80126 53.6689C7.48546 55.6763 6.77193 57.4306 6.07708 59.139C6.01353 59.2952 5.95015 59.4511 5.88724 59.6067C5.88702 59.6072 5.88681 59.6077 5.88659 59.6083L5.87072 59.648C5.65749 60.1807 5.40772 60.8048 5.34261 61.3526C5.3101 61.626 5.3384 61.7802 5.36791 61.8518L5.36869 61.8537C5.38085 61.8833 5.39661 61.9216 5.50887 61.9652C5.68227 62.0264 5.92644 62.0313 6.3071 61.9371C6.57883 61.8699 6.8158 61.7842 7.08894 61.6854C7.23791 61.6316 7.39764 61.5738 7.57964 61.513C7.7492 61.4537 7.9182 61.3951 8.08647 61.3368C8.73566 61.1119 9.37391 60.8907 9.99131 60.6437L10.0023 60.6393L10.0023 60.6394C11.9065 59.9037 13.8346 59.6088 15.8008 59.5249C17.9229 59.4201 20.0158 59.6101 22.0515 59.8588C22.6885 59.9367 23.3152 60.0195 23.9357 60.1015C25.3271 60.2855 26.6876 60.4653 28.0634 60.5754L28.0742 60.5763L28.0742 60.5763C32.0412 60.937 36.0041 61.2573 39.9644 61.4981C43.9145 61.2971 47.868 60.9378 51.8447 60.5763L51.8456 60.5762C53.1334 60.4603 54.4049 60.2928 55.701 60.122C56.4192 60.0274 57.145 59.9318 57.8853 59.8434C59.9276 59.5995 62.0188 59.4202 64.1186 59.5249C66.0846 59.6088 68.0126 59.9038 69.9167 60.6394L69.9277 60.6437L69.9276 60.6437C70.545 60.8907 71.1832 61.1118 71.8323 61.3367C72.0006 61.3951 72.1697 61.4536 72.3393 61.513C72.5357 61.5786 72.7024 61.6397 72.8558 61.6959C73.1146 61.7908 73.3358 61.8719 73.5992 61.9377C73.9614 62.0283 74.2134 62.0297 74.4163 61.9628C74.523 61.9202 74.5383 61.8827 74.5503 61.8537L74.5511 61.8518C74.5806 61.7802 74.6089 61.626 74.5764 61.3526C74.5112 60.8048 74.2615 60.1807 74.0482 59.6479L74.0324 59.6083C74.0322 59.6078 74.032 59.6074 74.0318 59.607C73.9689 59.4513 73.9055 59.2953 73.8419 59.139C73.1463 57.4289 72.432 55.6727 72.1167 53.6627L72.1158 53.6569C71.8433 51.8513 71.8984 50.0556 71.9508 48.3507C71.9636 47.9339 71.9762 47.5226 71.9839 47.1179C71.984 47.1094 71.9843 47.101 71.9846 47.0925L71.985 47.0859C72.0206 46.3847 72.0625 45.6926 72.1041 45.0062C72.2062 43.3192 72.3063 41.6669 72.3063 39.9996C72.3063 38.8358 72.2569 37.667 72.2015 36.4776C72.1953 36.3458 72.1891 36.2136 72.1829 36.0811C72.1332 35.0263 72.0827 33.9541 72.0645 32.8814C72.0562 32.4412 72.0398 31.9905 72.0232 31.5316C71.9629 29.8696 71.8988 28.0998 72.1983 26.3307C72.5141 24.3232 73.2276 22.5687 73.9225 20.8603C73.9861 20.704 74.0495 20.5481 74.1125 20.3924C74.1126 20.3919 74.1128 20.3914 74.113 20.391L74.1289 20.3512C74.3421 19.8184 74.5919 19.1944 74.657 18.6467C74.6895 18.3733 74.6612 18.219 74.6317 18.1475L74.6309 18.1456C74.6188 18.116 74.603 18.0777 74.4908 18.0341C74.3174 17.9729 74.0732 17.968 73.6925 18.0621C73.4208 18.1293 73.1838 18.215 72.9106 18.3138C72.7617 18.3677 72.602 18.4255 72.42 18.4862Z" fill="#151515"/>
</svg>
