<svg width="24" height="24" viewBox="0 0 24 24" fill="none" xmlns="http://www.w3.org/2000/svg">
<path fill-rule="evenodd" clip-rule="evenodd" d="M9.68778 3.66783C7.53054 4.24586 5.77859 5.57928 4.63932 7.30938L5.75746 7.02984L6.72761 6.78731L7.21268 8.72759L6.24254 8.97013L2.24254 9.97013L1 10.2808V8.99999V4.99999V3.99999H3V4.99999V6.16267C4.39897 4.06233 6.5399 2.44075 9.17015 1.73598C14.9117 0.197544 20.8132 3.60481 22.3516 9.34632L22.6105 10.3122L20.6786 10.8299L20.4198 9.86396C19.1672 5.18938 14.3624 2.41528 9.68778 3.66783ZM5.44659 17.9076L4.78495 17.1578L3.28532 18.4811L3.94696 19.2309C4.16733 19.4806 4.3986 19.7193 4.63978 19.9463L5.368 20.6316L6.73868 19.1752L6.01046 18.4898C5.81409 18.305 5.62587 18.1108 5.44659 17.9076ZM22.5765 14.2391L22.7746 13.2589L20.8142 12.8628L20.6162 13.8429C20.5625 14.1085 20.4966 14.3708 20.4189 14.6291L20.1309 15.5867L22.0462 16.1627L22.3342 15.2051C22.4296 14.8879 22.5105 14.5656 22.5765 14.2391ZM20.5182 18.7237L21.1317 17.9341L19.5524 16.7069L18.9389 17.4966C18.6082 17.9221 18.2378 18.3182 17.8314 18.6783L17.0831 19.3416L18.4097 20.8384L19.158 20.1751C19.6575 19.7323 20.1124 19.2459 20.5182 18.7237ZM8.72597 20.2331L7.79979 19.856L7.04565 21.7084L7.97183 22.0855C8.58436 22.3349 9.22148 22.5287 9.87544 22.6623L10.8552 22.8626L11.2557 20.9031L10.2759 20.7028C9.74389 20.5941 9.22512 20.4363 8.72597 20.2331ZM13.4983 20.7523L12.5128 20.9219L12.852 22.893L13.8375 22.7234C14.1616 22.6676 14.4857 22.5966 14.8091 22.51C15.1325 22.4233 15.4488 22.3227 15.7573 22.209L16.6956 21.8631L16.0038 19.9865L15.0655 20.3324C14.814 20.4251 14.5559 20.5073 14.2915 20.5781C14.0271 20.649 13.7625 20.7069 13.4983 20.7523Z" fill="#151515"/>
</svg>
