<svg width="24" height="24" viewBox="0 0 24 24" fill="none" xmlns="http://www.w3.org/2000/svg">
<path fill-rule="evenodd" clip-rule="evenodd" d="M2 12C2 6.47715 6.47715 2 12 2C17.5228 2 22 6.47715 22 12C22 17.5228 17.5228 22 12 22C6.47715 22 2 17.5228 2 12ZM12 0C5.37258 0 0 5.37258 0 12C0 18.6274 5.37258 24 12 24C18.6274 24 24 18.6274 24 12C24 5.37258 18.6274 0 12 0ZM10 6C9.73479 6 9.48044 6.10535 9.2929 6.29289C9.10536 6.48043 9 6.73478 9 7V12H8H7V14H8H9V15H8H7V17H8H9V18V19H11V18V17H13H14V15H13H11V13.998C11.6068 13.9943 12.173 13.9833 12.6874 13.9511C13.4693 13.9023 14.2116 13.8011 14.8511 13.5613C15.5172 13.3115 16.0957 12.9015 16.4853 12.2442C16.8605 11.6109 17 10.8488 17 10C17 9.15116 16.8605 8.38908 16.4853 7.75584C16.0957 7.09848 15.5172 6.68847 14.8511 6.43871C14.2116 6.1989 13.4693 6.09772 12.6874 6.04885C11.9062 6.00002 11.0052 6.00001 10.0245 6H10.0244H10ZM12.5626 11.955C12.0997 11.984 11.5825 11.9943 11 11.9979V8.00204C11.5825 8.00571 12.0997 8.01602 12.5626 8.04495C13.2807 8.08984 13.7884 8.17617 14.1489 8.31136C14.4828 8.4366 14.6543 8.58908 14.7647 8.77546C14.8895 8.98596 15 9.34886 15 10C15 10.6511 14.8895 11.014 14.7647 11.2245C14.6543 11.4109 14.4828 11.5634 14.1489 11.6886C13.7884 11.8238 13.2807 11.9101 12.5626 11.955Z" fill="#151515"/>
</svg>
