<svg width="24" height="24" viewBox="0 0 24 24" fill="none" xmlns="http://www.w3.org/2000/svg">
<path fill-rule="evenodd" clip-rule="evenodd" d="M15 9C16.1046 9 17 8.10457 17 7C17 5.89543 16.1046 5 15 5C13.8954 5 13 5.89543 13 7C13 8.10457 13.8954 9 15 9ZM15 3C16.8638 3 18.4299 4.27477 18.874 6H22H23V8H22H18.874C18.4299 9.72523 16.8638 11 15 11C13.1362 11 11.5701 9.72523 11.126 8H2H1V6H2H11.126C11.5701 4.27477 13.1362 3 15 3ZM5.12602 16C5.57006 14.2748 7.13616 13 9 13C10.8638 13 12.4299 14.2748 12.874 16L22 16L23 16V18H22L12.874 18C12.4299 19.7252 10.8638 21 9 21C7.13616 21 5.57006 19.7252 5.12602 18L2 18L1 18V16L2 16L5.12602 16ZM11 17C11 15.8954 10.1046 15 9 15C7.89543 15 7 15.8954 7 17C7 18.1046 7.89543 19 9 19C10.1046 19 11 18.1046 11 17Z" fill="#151515"/>
</svg>
