<svg width="24" height="24" viewBox="0 0 24 24" fill="none" xmlns="http://www.w3.org/2000/svg">
<path fill-rule="evenodd" clip-rule="evenodd" d="M16 5C16 6.10457 16.8954 7 18 7C19.1046 7 20 6.10457 20 5C20 3.89543 19.1046 3 18 3C16.8954 3 16 3.89543 16 5ZM14.0564 5.67316C14.0193 5.45431 14 5.22941 14 5C14 2.79086 15.7909 1 18 1C20.2091 1 22 2.79086 22 5C22 7.20914 20.2091 9 18 9C16.7392 9 15.6146 8.41668 14.8815 7.50519L9.69621 10.4682C9.89196 10.94 10 11.4574 10 12C10 12.3871 9.94502 12.7613 9.84243 13.1154L15.1786 16.1646C15.9019 15.4448 16.899 15 18 15C20.2091 15 22 16.7909 22 19C22 21.2091 20.2091 23 18 23C15.7909 23 14 21.2091 14 19C14 18.6129 14.055 18.2387 14.1576 17.8846L8.82142 14.8354C8.09812 15.5552 7.10101 16 6 16C3.79086 16 2 14.2091 2 12C2 9.79086 3.79086 8 6 8C6.93619 8 7.79726 8.32162 8.47875 8.86039L14.0564 5.67316ZM6 14C4.89543 14 4 13.1046 4 12C4 10.8954 4.89543 10 6 10C7.10457 10 8 10.8954 8 12C8 13.1046 7.10457 14 6 14ZM18 21C16.8954 21 16 20.1046 16 19C16 17.8954 16.8954 17 18 17C19.1046 17 20 17.8954 20 19C20 20.1046 19.1046 21 18 21Z" fill="#151515"/>
</svg>
