<svg width="24" height="24" viewBox="0 0 24 24" fill="none" xmlns="http://www.w3.org/2000/svg">
<path fill-rule="evenodd" clip-rule="evenodd" d="M15.0001 10C15.4045 10 15.7692 9.75636 15.9239 9.38268C16.0787 9.00901 15.9932 8.57889 15.7072 8.29289L12.7072 5.29289C12.5196 5.10536 12.2653 5 12.0001 5C11.7348 5 11.4805 5.10536 11.293 5.29289L8.29295 8.29289C8.00695 8.57889 7.9214 9.00901 8.07618 9.38268C8.23096 9.75636 8.5956 10 9.00006 10H15.0001ZM9.00003 14C8.59557 14 8.23093 14.2436 8.07615 14.6173C7.92137 14.991 8.00692 15.4211 8.29292 15.7071L11.2929 18.7071C11.4805 18.8946 11.7348 19 12 19C12.2652 19 12.5196 18.8946 12.7071 18.7071L15.7071 15.7071C15.9931 15.4211 16.0787 14.991 15.9239 14.6173C15.7691 14.2436 15.4045 14 15 14L9.00003 14Z" fill="#151515"/>
</svg>
