<svg width="24" height="24" viewBox="0 0 24 24" fill="none" xmlns="http://www.w3.org/2000/svg">
<path fill-rule="evenodd" clip-rule="evenodd" d="M11.9999 2C12.3805 2 12.7281 2.2161 12.8966 2.55743L15.6028 8.04091L21.6542 8.92022C22.0309 8.97496 22.3438 9.2388 22.4615 9.60081C22.5791 9.96283 22.481 10.3602 22.2084 10.6259L17.8296 14.8942L18.8633 20.9211C18.9277 21.2963 18.7734 21.6755 18.4655 21.8992C18.1575 22.1229 17.7493 22.1524 17.4124 21.9753L11.9999 19.1298L6.58734 21.9753C6.25042 22.1524 5.84216 22.1229 5.53421 21.8992C5.22627 21.6755 5.07205 21.2963 5.13639 20.9211L6.17009 14.8942L1.79128 10.6259C1.5187 10.3602 1.42061 9.96283 1.53823 9.60081C1.65586 9.2388 1.9688 8.97496 2.34549 8.92022L8.39686 8.04091L11.1031 2.55743C11.2716 2.2161 11.6192 2 11.9999 2ZM11.9999 5.25955L9.95766 9.39748C9.812 9.69262 9.53043 9.89719 9.20472 9.94452L4.63825 10.6081L7.94258 13.829C8.17827 14.0587 8.28582 14.3897 8.23018 14.7141L7.45013 19.2622L11.5345 17.1149C11.8258 16.9617 12.1739 16.9617 12.4652 17.1149L16.5496 19.2622L15.7695 14.7141C15.7139 14.3897 15.8214 14.0587 16.0571 13.829L19.3615 10.6081L14.795 9.94452C14.4693 9.89719 14.1877 9.69262 14.042 9.39748L11.9999 5.25955Z" fill="#151515"/>
</svg>
