<svg width="24" height="24" viewBox="0 0 24 24" fill="none" xmlns="http://www.w3.org/2000/svg">
<path fill-rule="evenodd" clip-rule="evenodd" d="M12.8966 2.55743C12.7281 2.2161 12.3805 2 11.9999 2C11.6192 2 11.2716 2.2161 11.1031 2.55743L8.39686 8.04091L2.34549 8.92022C1.9688 8.97496 1.65586 9.2388 1.53823 9.60081C1.42061 9.96283 1.5187 10.3602 1.79128 10.6259L6.17009 14.8942L5.13639 20.9211C5.07205 21.2963 5.22627 21.6755 5.53421 21.8992C5.84216 22.1229 6.25042 22.1524 6.58734 21.9753L11.9999 19.1298L17.4124 21.9753C17.7493 22.1524 18.1575 22.1229 18.4655 21.8992C18.7734 21.6755 18.9277 21.2963 18.8633 20.9211L17.8296 14.8942L22.2084 10.6259C22.481 10.3602 22.5791 9.96283 22.4615 9.60081C22.3438 9.2388 22.0309 8.97496 21.6542 8.92022L15.6028 8.04091L12.8966 2.55743Z" fill="#151515"/>
</svg>
