<svg width="24" height="24" viewBox="0 0 24 24" fill="none" xmlns="http://www.w3.org/2000/svg">
<path fill-rule="evenodd" clip-rule="evenodd" d="M12.2873 1.04217C12.0999 0.985942 11.9001 0.985942 11.7127 1.04217L1.71265 4.04217C1.28967 4.16907 1 4.55839 1 5V22V23L2 23H4.8H6H18H22H23V22L23 5C23 4.55839 22.7103 4.16907 22.2873 4.04217L12.2873 1.04217ZM3 5.74403L12 3.04403L21 5.74403L21 21H19V19V16V13V10C19 9.44771 18.5523 9 18 9H6C5.44772 9 5 9.44771 5 10L5 13V16V19L5 21H4.8H3V5.74403ZM7 20V21H17V20L9.36 20H7ZM17 18L9.36 18H7V17H9.36L17 17V18ZM17 15V14L9.36 14H7V15H9.36L17 15ZM7 12H9.36L17 12V11L7 11V12Z" fill="#151515"/>
</svg>
