<svg width="24" height="24" viewBox="0 0 24 24" fill="none" xmlns="http://www.w3.org/2000/svg">
<g clip-path="url(#clip0)">
<path fill-rule="evenodd" clip-rule="evenodd" d="M6.00001 3C5.44772 3 5.00001 3.44772 5.00001 4L5 7C5 7.21637 4.92983 7.4269 4.8 7.6L3.00001 10H4.00001H5.38746L7.04001 6.75972L7.04001 3H6.00001ZM8.04001 1L6.00001 1C4.34315 1 3.00001 2.34315 3.00001 4L3.00001 6.66667L0.200006 10.4C-0.0272575 10.703 -0.0638134 11.1084 0.105579 11.4472C0.274971 11.786 0.621234 12 1.00001 12H3.00001L3.00001 22V23H4.00001H8.04001H14L20 23H21V22V12H23C23.3788 12 23.725 11.786 23.8944 11.4472C24.0638 11.1084 24.0273 10.703 23.8 10.4L21 6.66667V4C21 2.34315 19.6569 1 18 1L16.0002 1C16.0001 1 16.0001 1 16 1C15.9999 1 15.9999 1 15.9998 1L12 1L8.04001 1ZM9.04001 3L9.04001 7C9.04001 7.15794 9.0026 7.31363 8.93084 7.45433L7.63255 10H11V3L9.04001 3ZM13 3V10H14C14.0003 10 14.0005 10 14.0008 10L16.382 10L15.1056 7.44721C15.0362 7.30836 15 7.15525 15 7L15 3H13ZM17 3V6.76393L18.618 10H20L21 10L19.2 7.6C19.0702 7.4269 19 7.21637 19 7V4C19 3.44772 18.5523 3 18 3H17ZM15 12L18 12H19L19 21H15V12ZM13 21V12H12C11.9998 12 11.9995 12 11.9993 12H6H5.00001L5.00001 21H8.04001H13Z" fill="#151515"/>
</g>
<defs>
<clipPath id="clip0">
<rect width="24" height="24" fill="white"/>
</clipPath>
</defs>
</svg>
