<svg width="24" height="24" viewBox="0 0 24 24" fill="none" xmlns="http://www.w3.org/2000/svg">
<path fill-rule="evenodd" clip-rule="evenodd" d="M4.99951 0C3.89494 0 2.99951 0.895431 2.99951 2V5C2.99951 5.55228 3.44723 6 3.99951 6C4.5518 6 4.99951 5.55228 4.99951 5V2H12.9995H18.9995V5C18.9995 5.55228 19.4472 6 19.9995 6C20.5518 6 20.9995 5.55228 20.9995 5V2C20.9995 0.895431 20.1041 0 18.9995 0H12.9995H4.99951ZM4.99951 19C4.99951 18.4477 4.5518 18 3.99951 18C3.44723 18 2.99951 18.4477 2.99951 19V22C2.99951 23.1046 3.89494 24 4.99951 24H18.9995C20.1041 24 20.9995 23.1046 20.9995 22V19C20.9995 18.4477 20.5518 18 19.9995 18C19.4472 18 18.9995 18.4477 18.9995 19V22H4.99951V19ZM4.10694 16.099C3.5276 16.099 2.9886 16.033 2.48994 15.901C1.99127 15.7617 1.58427 15.5673 1.26894 15.318C1.15894 15.2373 1.07827 15.153 1.02694 15.065C0.982938 14.9697 0.960938 14.8523 0.960938 14.713C0.960938 14.5297 1.01594 14.3683 1.12594 14.229C1.24327 14.0897 1.37527 14.02 1.52194 14.02C1.6026 14.02 1.6796 14.0347 1.75294 14.064C1.8336 14.086 1.92894 14.13 2.03894 14.196C2.35427 14.394 2.67327 14.5407 2.99594 14.636C3.3186 14.724 3.67427 14.768 4.06294 14.768C4.54694 14.768 4.91727 14.6873 5.17394 14.526C5.4306 14.3647 5.55894 14.1337 5.55894 13.833C5.55894 13.6057 5.43794 13.4223 5.19594 13.283C4.96127 13.1437 4.5396 13.0117 3.93094 12.887C3.24894 12.7477 2.7026 12.579 2.29194 12.381C1.8886 12.183 1.5916 11.9373 1.40094 11.644C1.2176 11.3507 1.12594 10.995 1.12594 10.577C1.12594 10.115 1.25794 9.70066 1.52194 9.334C1.79327 8.96 2.1636 8.67033 2.63294 8.465C3.1096 8.25233 3.64494 8.146 4.23894 8.146C5.28027 8.146 6.13827 8.40633 6.81294 8.927C6.92294 9.015 6.99994 9.10666 7.04394 9.202C7.09527 9.29 7.12094 9.4 7.12094 9.532C7.12094 9.71533 7.06227 9.87666 6.94494 10.016C6.83494 10.1553 6.7066 10.225 6.55994 10.225C6.47927 10.225 6.40227 10.214 6.32894 10.192C6.26294 10.17 6.1676 10.1223 6.04294 10.049C5.74227 9.85833 5.4636 9.71533 5.20694 9.62C4.9576 9.52466 4.6386 9.477 4.24994 9.477C3.8026 9.477 3.4506 9.565 3.19394 9.741C2.93727 9.90966 2.80894 10.1443 2.80894 10.445C2.80894 10.621 2.8566 10.7677 2.95194 10.885C3.0546 10.995 3.2196 11.094 3.44694 11.182C3.6816 11.27 4.0116 11.3617 4.43694 11.457C5.43427 11.677 6.14927 11.9593 6.58194 12.304C7.02194 12.6487 7.24194 13.1217 7.24194 13.723C7.24194 14.1923 7.10994 14.6067 6.84594 14.966C6.58927 15.3253 6.2226 15.604 5.74594 15.802C5.2766 16 4.73027 16.099 4.10694 16.099ZM13.9268 8.641C13.9928 8.487 14.0882 8.37333 14.2128 8.3C14.3375 8.21933 14.4768 8.179 14.6308 8.179C14.8508 8.179 15.0488 8.25233 15.2248 8.399C15.4008 8.54566 15.4888 8.72533 15.4888 8.938C15.4888 9.048 15.4632 9.158 15.4118 9.268L12.4418 15.538C12.3612 15.7067 12.2402 15.8387 12.0788 15.934C11.9175 16.022 11.7415 16.066 11.5508 16.066C11.3602 16.066 11.1842 16.022 11.0228 15.934C10.8615 15.8387 10.7405 15.7067 10.6598 15.538L7.68984 9.268C7.63851 9.16533 7.61284 9.059 7.61284 8.949C7.61284 8.729 7.70451 8.54566 7.88784 8.399C8.07118 8.25233 8.27651 8.179 8.50384 8.179C8.65784 8.179 8.79718 8.21933 8.92184 8.3C9.05384 8.37333 9.15284 8.487 9.21884 8.641L11.5728 13.789L13.9268 8.641ZM22.5839 11.897C22.4666 11.7797 22.3053 11.721 22.0999 11.721H20.2189C20.0063 11.721 19.8413 11.7723 19.7239 11.875C19.6066 11.9777 19.5479 12.1243 19.5479 12.315C19.5479 12.5057 19.6066 12.6523 19.7239 12.755C19.8413 12.8577 20.0063 12.909 20.2189 12.909H21.2309V14.614C20.8129 14.724 20.3913 14.779 19.9659 14.779C19.1813 14.779 18.5946 14.559 18.2059 14.119C17.8173 13.679 17.6229 13.0117 17.6229 12.117C17.6229 10.379 18.3709 9.51 19.8669 9.51C20.1749 9.51 20.4573 9.55033 20.7139 9.631C20.9706 9.71166 21.2529 9.84733 21.5609 10.038C21.6709 10.104 21.7626 10.1517 21.8359 10.181C21.9166 10.2103 22.0046 10.225 22.0999 10.225C22.2466 10.225 22.3713 10.159 22.4739 10.027C22.5839 9.88766 22.6389 9.72266 22.6389 9.532C22.6389 9.4 22.6169 9.29 22.5729 9.202C22.5289 9.114 22.4519 9.026 22.3419 8.938C21.6746 8.41 20.8313 8.146 19.8119 8.146C19.0199 8.146 18.3269 8.30733 17.7329 8.63C17.1389 8.95266 16.6806 9.41466 16.3579 10.016C16.0426 10.61 15.8849 11.3103 15.8849 12.117C15.8849 12.9383 16.0463 13.6497 16.3689 14.251C16.6916 14.845 17.1536 15.3033 17.7549 15.626C18.3563 15.9413 19.0676 16.099 19.8889 16.099C20.2189 16.099 20.5673 16.0733 20.9339 16.022C21.3079 15.9707 21.6379 15.901 21.9239 15.813C22.1586 15.747 22.3346 15.6663 22.4519 15.571C22.5693 15.4757 22.6499 15.3473 22.6939 15.186C22.7453 15.0247 22.7709 14.7973 22.7709 14.504V12.359C22.7709 12.161 22.7086 12.007 22.5839 11.897Z" fill="#151515"/>
</svg>
