<svg width="24" height="24" viewBox="0 0 24 24" fill="none" xmlns="http://www.w3.org/2000/svg">
<path fill-rule="evenodd" clip-rule="evenodd" d="M0 5C0 4.44772 0.447715 4 1 4H12H14H23C23.5523 4 24 4.44772 24 5V9C24 9.55228 23.5523 10 23 10C22.7632 10 22.2278 10.1483 21.7497 10.5309C21.3032 10.8881 21 11.3717 21 12C21 12.6283 21.3032 13.1119 21.7497 13.4691C22.2278 13.8517 22.7632 14 23 14C23.5523 14 24 14.4477 24 15V19C24 19.5523 23.5523 20 23 20H14H12H1C0.447715 20 0 19.5523 0 19V15C0 14.4477 0.447715 14 1 14C1.23676 14 1.77215 13.8517 2.2503 13.4691C2.69679 13.1119 3 12.6283 3 12C3 11.3717 2.69679 10.8881 2.2503 10.5309C1.77215 10.1483 1.23676 10 1 10C0.447715 10 0 9.55228 0 9V5ZM12 18H14V16H16V18H22V15.8327C21.4872 15.6716 20.9596 15.3983 20.5003 15.0309C19.6968 14.3881 19 13.3717 19 12C19 10.6283 19.6968 9.61195 20.5003 8.96913C20.9596 8.60168 21.4872 8.32836 22 8.16726V6H16V8H14V6H12H2V8.16726C2.51279 8.32836 3.04037 8.60168 3.4997 8.96913C4.30321 9.61195 5 10.6283 5 12C5 13.3717 4.30321 14.3881 3.4997 15.0309C3.04037 15.3983 2.51279 15.6716 2 15.8327V18H12ZM16 10V14H14V10H16Z" fill="#151515"/>
</svg>
