<svg width="24" height="24" viewBox="0 0 24 24" fill="none" xmlns="http://www.w3.org/2000/svg">
<path fill-rule="evenodd" clip-rule="evenodd" d="M20.5039 4.27692C19.7895 4.71077 18.9986 5.02577 18.1571 5.19654C17.4832 4.45923 16.5247 4 15.4628 4C13.4231 4 11.7694 5.69615 11.7694 7.78692C11.7694 8.08346 11.802 8.37308 11.865 8.65C8.796 8.49192 6.07463 6.98385 4.25437 4.69231C3.936 5.25077 3.75488 5.90154 3.75488 6.59615C3.75488 7.91038 4.40738 9.07 5.39738 9.74846C4.79213 9.72769 4.22287 9.55692 3.7245 9.27308V9.32038C3.7245 11.155 4.998 12.685 6.6855 13.0346C6.37725 13.12 6.051 13.1673 5.7135 13.1673C5.475 13.1673 5.24437 13.1431 5.01825 13.0992C5.4885 14.6038 6.85088 15.6988 8.46638 15.73C7.203 16.7454 5.61 17.35 3.88087 17.35C3.58275 17.35 3.28912 17.3327 3 17.2981C4.63462 18.3723 6.57413 19 8.661 19C15.4526 19 19.1663 13.2285 19.1663 8.22308L19.155 7.73269C19.8784 7.20077 20.5061 6.53385 21 5.77462C20.3374 6.07577 19.6275 6.28 18.8805 6.37115C19.6421 5.90269 20.2271 5.15962 20.5039 4.27692Z" fill="#151515"/>
</svg>
