<svg width="24" height="24" viewBox="0 0 24 24" fill="none" xmlns="http://www.w3.org/2000/svg">
<path fill-rule="evenodd" clip-rule="evenodd" d="M8 6C8 3.79086 9.79086 2 12 2C13.308 2 14.4693 2.62676 15.2008 3.60058C15.3859 3.84702 15.543 4.11519 15.6676 4.40037L16.068 5.31672L17.9007 4.51598L17.5003 3.59963C17.3129 3.1708 17.0771 2.76844 16.7999 2.39942C15.707 0.944342 13.9636 0 12 0C8.6868 0 6.00083 2.68547 6 5.99847C6 5.99898 6 5.99949 6 6L6 11H4C3.44772 11 3 11.4477 3 12L3 20C3 22.2091 4.79086 24 7 24H17C19.2091 24 21 22.2091 21 20V12C21 11.4477 20.5523 11 20 11L8 11L8 6.00171C8 6.00114 8 6.00057 8 6ZM5 13L5 20C5 21.1046 5.89543 22 7 22H17C18.1046 22 19 21.1046 19 20V13L5 13Z" fill="#151515"/>
</svg>
