<svg width="24" height="24" viewBox="0 0 24 24" fill="none" xmlns="http://www.w3.org/2000/svg">
<path fill-rule="evenodd" clip-rule="evenodd" d="M4 1C2.34315 1 1 2.34315 1 4V14V20C1 21.6569 2.34315 23 4 23H20C21.6569 23 23 21.6569 23 20V6.09091V4C23 2.34315 21.6569 1 20 1H13.375H4ZM3 4C3 3.44772 3.44772 3 4 3H13.375H20C20.5523 3 21 3.44772 21 4V6.09091V20C21 20.5523 20.5523 21 20 21H4C3.44772 21 3 20.5523 3 20V14V4ZM9.58124 6.18627C9.27642 5.96854 8.87549 5.93943 8.54242 6.11083C8.20935 6.28224 8 6.62541 8 7V17C8 17.3746 8.20935 17.7178 8.54242 17.8892C8.87549 18.0606 9.27642 18.0315 9.58124 17.8137L16.5812 12.8137C16.844 12.626 17 12.323 17 12C17 11.677 16.844 11.374 16.5812 11.1863L9.58124 6.18627ZM14.2795 12L10 15.0568V8.94319L14.2795 12Z" fill="#151515"/>
</svg>
