<svg width="40" height="40" viewBox="0 0 40 40" fill="none" xmlns="http://www.w3.org/2000/svg">
<path fill-rule="evenodd" clip-rule="evenodd" d="M37.0022 26.0176L36.6193 24.0459H32.4711L31.7904 26.0176H28.3874L33.2548 13.7328C33.37 13.4232 33.5785 13.1599 33.8497 12.9813C34.1208 12.8028 34.4404 12.7185 34.7615 12.7408H37.3859L40 26.0176H37.0022ZM35.1252 16.3545L33.4074 21.3219H36.0874L35.1252 16.3545ZM24.0667 16.4309C24.0667 17.931 28.6215 18.253 28.6215 21.7042C28.6215 25.0272 25.2607 26.2488 23.0341 26.2488C21.7682 26.2705 20.5123 26.0148 19.3496 25.4988L19.8356 22.5191C21.1689 23.6553 25.2207 23.9765 25.2207 22.1765C25.2207 20.3765 20.7059 20.333 20.7059 16.9032C20.7059 13.2559 24.5526 12.5073 26.1719 12.5073C27.1756 12.5331 28.1685 12.728 29.1111 13.0842L28.6422 15.9356C27.2452 15.1207 24.0667 14.9277 24.0667 16.4286V16.4309ZM14.0741 26.0176L16.1141 12.7408H19.3785L17.3385 26.0176H14.0741ZM6.24741 26.0176L3.41185 14.4859C2.35816 13.7995 1.20707 13.2864 0 12.9651L0.06 12.7408H5.20148C5.55885 12.6994 5.9181 12.8 6.20583 13.0223C6.49357 13.2445 6.68808 13.5715 6.74963 13.9365L7.85185 19.9088L8.22222 21.8751L11.3333 12.7454H14.8467L9.65333 26.0222H6.24741V26.0176Z" fill="#0057A0"/>
<path fill-rule="evenodd" clip-rule="evenodd" d="M7.73111 19.2019L7.05852 14.2681C7.01511 13.7602 6.77912 13.2903 6.40169 12.9604C6.02427 12.6305 5.53582 12.467 5.04222 12.5055H0V13.2106C1.72402 13.6053 3.32847 14.4275 4.67407 15.6057C5.90323 16.5961 6.94031 17.8161 7.73111 19.2019Z" fill="#FAA61A"/>
</svg>
