<svg width="24" height="24" viewBox="0 0 24 24" fill="none" xmlns="http://www.w3.org/2000/svg">
<path fill-rule="evenodd" clip-rule="evenodd" d="M12.3598 2.23178C12.5395 2.08202 12.7661 2 13 2L14 2C14.5523 2 15 2.44772 15 3L15 21C15 21.5523 14.5523 22 14 22H13C12.7661 22 12.5395 21.918 12.3598 21.7682L6.63795 17L2 17C1.44772 17 1 16.5523 1 16L1 8C1 7.44772 1.44772 7 2 7H6.63795L12.3598 2.23178ZM13 4.30171L7.64018 8.76822C7.46047 8.91798 7.23394 9 7 9H3L3 15L7 15C7.23394 15 7.46047 15.082 7.64018 15.2318L13 19.6983L13 4.30171Z" fill="#151515"/>
</svg>
