<svg width="24" height="24" viewBox="0 0 24 24" fill="none" xmlns="http://www.w3.org/2000/svg">
<path fill-rule="evenodd" clip-rule="evenodd" d="M12.3598 2.23178C12.5395 2.08202 12.7661 2 13 2L14 2C14.5523 2 15 2.44772 15 3L15 21C15 21.5523 14.5523 22 14 22H13C12.7661 22 12.5395 21.918 12.3598 21.7682L6.63795 17L2 17C1.44772 17 1 16.5523 1 16L1 8C1 7.44772 1.44772 7 2 7L6.63795 7L12.3598 2.23178ZM13 4.30171L7.64018 8.76822C7.46047 8.91798 7.23394 9 7 9H3L3 15L7 15C7.23394 15 7.46047 15.082 7.64018 15.2318L13 19.6983L13 4.30171ZM17.8297 8.63367L18.3305 9.49928C18.7565 10.2357 19 11.0909 19 12C19 12.9091 18.7565 13.7643 18.3305 14.5007L17.8297 15.3663L16.0985 14.3649L16.5992 13.4993C16.8539 13.059 17 12.5481 17 12C17 11.4519 16.8539 10.941 16.5992 10.5007L16.0985 9.63512L17.8297 8.63367ZM20.7142 6.40166L20.0143 5.68742L18.5859 7.08722L19.2858 7.80146C20.3472 8.88466 21 10.3654 21 12.0005C21 13.6357 20.3472 15.1164 19.2858 16.1996L18.5859 16.9139L20.0143 18.3137L20.7142 17.5994C22.1272 16.1576 23 14.18 23 12.0005C23 9.82111 22.1272 7.84354 20.7142 6.40166Z" fill="#151515"/>
</svg>
