<svg width="24" height="24" viewBox="0 0 24 24" fill="none" xmlns="http://www.w3.org/2000/svg">
<g clip-path="url(#clip0)">
<path fill-rule="evenodd" clip-rule="evenodd" d="M2.34187 20.5528C2.00941 21.2177 2.49291 22 3.23629 22H20.7642C21.5075 22 21.991 21.2177 21.6586 20.5528L12.8947 3.02492C12.5261 2.28787 11.4743 2.28787 11.1058 3.02492L2.34187 20.5528ZM3.23629 24C1.00615 24 -0.444341 21.6531 0.553011 19.6584L9.31694 2.1305C10.4225 -0.0806502 13.5779 -0.0806482 14.6835 2.1305L23.4474 19.6584C24.4448 21.6531 22.9943 24 20.7642 24H3.23629ZM11.0004 18.5279C11.0004 17.9756 11.4482 17.5279 12.0004 17.5279C12.5527 17.5279 13.0004 17.9756 13.0004 18.5279C13.0004 19.0801 12.5527 19.5279 12.0004 19.5279C11.4482 19.5279 11.0004 19.0801 11.0004 18.5279ZM11.0004 14.5279L11.0004 15.5279H13.0004L13.0004 14.5279L13.0004 8.52786V7.52786H11.0004V8.52786L11.0004 14.5279Z" fill="#151515"/>
</g>
<defs>
<clipPath id="clip0">
<rect width="24" height="24" fill="white"/>
</clipPath>
</defs>
</svg>
