<svg width="24" height="24" viewBox="0 0 24 24" fill="none" xmlns="http://www.w3.org/2000/svg">
<g clip-path="url(#clip0)">
<path fill-rule="evenodd" clip-rule="evenodd" d="M0.553011 19.6584C-0.444341 21.6531 1.00615 24 3.23629 24H20.7642C22.9943 24 24.4448 21.6531 23.4474 19.6584L14.6835 2.1305C13.5779 -0.0806482 10.4225 -0.0806502 9.31694 2.1305L0.553011 19.6584ZM11.0005 14.5279L11.0005 15.5279H13.0005L13.0005 14.5279V8.52786L13.0005 7.52786H11.0005V8.52786V14.5279ZM12.0005 17.5279C11.4482 17.5279 11.0005 17.9756 11.0005 18.5279C11.0005 19.0801 11.4482 19.5279 12.0005 19.5279C12.5528 19.5279 13.0005 19.0801 13.0005 18.5279C13.0005 17.9756 12.5528 17.5279 12.0005 17.5279Z" fill="#151515"/>
</g>
<defs>
<clipPath id="clip0">
<rect width="24" height="24" fill="white"/>
</clipPath>
</defs>
</svg>
