<svg width="24" height="24" viewBox="0 0 24 24" fill="none" xmlns="http://www.w3.org/2000/svg">
<path fill-rule="evenodd" clip-rule="evenodd" d="M2.04938 11H4.53809C4.81931 7.33353 6.61251 4.54702 8.39699 2.66875C4.95154 4.00001 2.42819 7.18457 2.04938 11ZM11 2.95617C9.19632 4.47685 6.89666 7.19245 6.54575 11H11V2.95617ZM11 13H6.57571C6.8522 15.0055 7.95552 18.295 11 20.9757V13ZM8.55951 21.3924C5.82555 18.4667 4.80398 15.1371 4.56103 13H2.04938C2.43413 16.8752 5.03109 20.0996 8.55951 21.3924ZM15.4633 21.384C18.9801 20.0856 21.5667 16.8668 21.9506 13H19.4358C19.2756 14.3368 18.8085 16.0213 17.9605 17.7275C17.3488 18.9585 16.5292 20.2204 15.4633 21.384ZM17.4182 13H13V21.0021C14.4182 19.7554 15.4512 18.2829 16.1695 16.8375C16.8772 15.4134 17.2632 14.0486 17.4182 13ZM17.4543 11H13V2.95617C14.8037 4.47685 17.1033 7.19245 17.4543 11ZM19.4619 11H21.9506C21.5718 7.18457 19.0485 4.00001 15.603 2.66875C17.3875 4.54702 19.1807 7.33353 19.4619 11ZM0 12C0 5.37258 5.37258 0 12 0C18.6274 0 24 5.37258 24 12C24 18.6274 18.6274 24 12 24C5.37258 24 0 18.6274 0 12Z" fill="#151515"/>
</svg>
