<svg width="24" height="24" viewBox="0 0 24 24" fill="none" xmlns="http://www.w3.org/2000/svg">
<path fill-rule="evenodd" clip-rule="evenodd" d="M21.2204 5.28763C20.4985 4.37306 19.1656 4 16.6201 4H7.37972C4.77595 4 3.42045 4.39714 2.70122 5.37083C2 6.3202 2 7.71901 2 9.65503V13.3451C2 17.0957 2.832 19 7.37972 19H16.6201C18.8276 19 20.0508 18.6708 20.8422 17.8637C21.6537 17.036 22 15.6846 22 13.3451V9.65503C22 7.61335 21.9457 6.20628 21.2204 5.28763ZM14.84 12.0095L10.6441 14.3465C10.5503 14.3988 10.4477 14.4247 10.3452 14.4247C10.2292 14.4247 10.1135 14.3914 10.011 14.3253C9.81795 14.2006 9.70007 13.9776 9.70007 13.7371V9.07802C9.70007 8.83794 9.8176 8.61518 10.0103 8.49046C10.203 8.36572 10.4426 8.35719 10.6426 8.4679L14.8386 10.7899C15.0521 10.908 15.1861 11.1429 15.1865 11.3991C15.1867 11.6556 15.0532 11.8908 14.84 12.0095Z" fill="#151515"/>
</svg>
