<svg width="24" height="24" viewBox="0 0 24 24" fill="none" xmlns="http://www.w3.org/2000/svg">
<path fill-rule="evenodd" clip-rule="evenodd" d="M19 11C19 6.58172 15.4183 3 11 3C6.58172 3 3 6.58172 3 11C3 15.4183 6.58172 19 11 19C15.4183 19 19 15.4183 19 11ZM11 1C16.5228 1 21 5.47715 21 11C21 13.4013 20.1536 15.6049 18.7429 17.3287L22.7071 21.2929L23.4142 22L22 23.4142L21.2929 22.7071L17.3287 18.7429C15.6049 20.1536 13.4013 21 11 21C5.47715 21 1 16.5228 1 11C1 5.47715 5.47715 1 11 1ZM7 10H8L14 10H15V12H14L8 12H7V10Z" fill="#151515"/>
</svg>
